<svg width="49" height="26" viewBox="0 0 49 26" fill="none" xmlns="http://www.w3.org/2000/svg">
<path d="M23.255 0.22V0.919999C22.5083 1.01333 21.9483 1.21167 21.575 1.515C21.2017 1.795 20.945 2.25 20.805 2.88C20.6883 3.51 20.63 4.39667 20.63 5.54V25.07C20.35 25.0467 20.0583 25.035 19.755 25.035C19.475 25.035 19.1717 25.0467 18.845 25.07L3.655 5.82V19.26C3.655 20.5433 3.725 21.535 3.865 22.235C4.005 22.9117 4.30833 23.4017 4.775 23.705C5.265 23.985 6.02333 24.1833 7.05 24.3V25C6.60667 24.9533 6.02333 24.93 5.3 24.93C4.57667 24.9067 3.9 24.895 3.27 24.895C2.73333 24.895 2.185 24.9067 1.625 24.93C1.065 24.93 0.598333 24.9533 0.225 25V24.3C0.971667 24.1833 1.53167 23.985 1.905 23.705C2.27833 23.425 2.52333 22.97 2.64 22.34C2.78 21.6867 2.85 20.8 2.85 19.68V3.93C2.85 3.06666 2.78 2.43667 2.64 2.04C2.52333 1.62 2.26667 1.34 1.87 1.2C1.49667 1.03667 0.948333 0.943332 0.225 0.919999V0.22C0.598333 0.243333 1.065 0.266666 1.625 0.289999C2.185 0.313332 2.73333 0.324998 3.27 0.324998C3.83 0.324998 4.36667 0.313332 4.88 0.289999C5.39333 0.266666 5.86 0.243333 6.28 0.22L19.825 16.915V5.96C19.825 4.67667 19.755 3.69667 19.615 3.02C19.475 2.32 19.16 1.81833 18.67 1.515C18.2033 1.21167 17.4567 1.01333 16.43 0.919999V0.22C16.8733 0.243333 17.4567 0.266666 18.18 0.289999C18.9033 0.313332 19.58 0.324998 20.21 0.324998C20.77 0.324998 21.3183 0.313332 21.855 0.289999C22.415 0.266666 22.8817 0.243333 23.255 0.22Z" fill="white"/>
<path d="M33.9188 12.575C34.5955 12.6217 35.1555 12.6683 35.5988 12.715C36.0655 12.7383 36.4621 12.7733 36.7888 12.82C37.1388 12.8433 37.4771 12.8667 37.8038 12.89C38.7838 13.0067 39.6938 13.1467 40.5338 13.31C41.3971 13.4733 42.1205 13.73 42.7038 14.08C43.3105 14.4067 43.7538 14.8617 44.0338 15.445C44.3138 16.0283 44.3955 16.7867 44.2788 17.72L43.7888 21.325C43.7188 22.0717 43.7655 22.6667 43.9288 23.11C44.0921 23.5533 44.4071 23.775 44.8738 23.775C45.3405 23.775 45.7371 23.565 46.0638 23.145C46.4138 22.7017 46.7288 22.0717 47.0088 21.255L47.1838 20.765H47.9888L47.8488 21.22C47.4288 22.6667 46.7871 23.74 45.9238 24.44C45.0838 25.14 43.9405 25.49 42.4938 25.49C40.8838 25.49 39.7288 25.105 39.0288 24.335C38.3521 23.565 38.0955 22.5967 38.2588 21.43L38.7838 17.44C38.9005 16.4833 38.8655 15.69 38.6788 15.06C38.4921 14.4067 38.0255 13.9167 37.2788 13.59C36.5321 13.2633 35.3888 13.1 33.8488 13.1L33.9188 12.575ZM33.3588 13.1L33.5338 12.47H34.6888C35.8321 12.47 36.8821 12.3067 37.8388 11.98C38.7955 11.63 39.6238 11.1167 40.3238 10.44C41.0238 9.76333 41.5605 8.935 41.9338 7.955C42.3305 6.975 42.5288 5.855 42.5288 4.595C42.5288 3.335 42.2605 2.41333 41.7238 1.83C41.1871 1.22333 40.3705 0.919999 39.2738 0.919999C38.5971 0.919999 38.0838 1.08333 37.7338 1.41C37.4071 1.71333 37.1155 2.32 36.8588 3.23L32.0988 21.29C31.9121 21.99 31.7955 22.5617 31.7488 23.005C31.7255 23.425 31.8888 23.74 32.2388 23.95C32.5888 24.1367 33.2188 24.2533 34.1288 24.3L33.9888 25C33.2888 24.9533 32.4605 24.93 31.5038 24.93C30.5705 24.9067 29.5788 24.895 28.5288 24.895C27.4088 24.895 26.3238 24.9067 25.2738 24.93C24.2238 24.93 23.3955 24.9533 22.7888 25L22.9288 24.3C23.7221 24.2533 24.3405 24.16 24.7838 24.02C25.2271 23.88 25.5771 23.6 25.8338 23.18C26.0905 22.76 26.3238 22.13 26.5338 21.29L31.1188 3.93C31.3288 3.20667 31.4338 2.635 31.4338 2.215C31.4338 1.795 31.2588 1.48 30.9088 1.27C30.5821 1.06 29.9755 0.943332 29.0888 0.919999L29.2638 0.22C29.6838 0.243333 30.1971 0.266666 30.8038 0.289999C31.4105 0.289999 32.0405 0.301665 32.6938 0.324998C33.3705 0.324998 33.9888 0.324998 34.5488 0.324998C35.6221 0.324998 36.5671 0.313332 37.3838 0.289999C38.2238 0.266666 39.0288 0.254999 39.7988 0.254999C42.6455 0.254999 44.7455 0.651666 46.0988 1.445C47.4755 2.23833 48.1638 3.46333 48.1638 5.12C48.1638 6.73 47.5921 8.13 46.4488 9.32C45.3288 10.4867 43.7655 11.4083 41.7588 12.085C39.7521 12.7383 37.4188 13.065 34.7588 13.065L33.3588 13.1Z" fill="#242038"/>
</svg>
