<svg width="1752" height="593" viewBox="0 0 1752 593" fill="none" xmlns="http://www.w3.org/2000/svg">
<path d="M576.962 314.503H470.484V592.889H576.962V314.503Z" fill="#76868D"/>
<path d="M1158.26 304.555H1054.89V592.889H1158.26V304.555Z" fill="#76868D"/>
<path d="M1749.7 304.555H1646.32V592.889H1749.7V304.555Z" fill="#76868D"/>
<path d="M576.962 314.504C576.962 314.504 646.46 233.589 817.43 233.589C988.401 233.589 1055.43 314.53 1055.43 314.53H1158.85L1161.47 170.349H470.484V314.53L576.962 314.504Z" fill="#76868D"/>
<path d="M2.61325 314.504C2.61325 314.504 61.7073 233.589 232.555 233.589C403.402 233.589 470.484 314.53 470.484 314.53H576.494V170.323H0" fill="#76868D"/>
<path d="M1158.44 314.504C1158.44 314.504 1237.77 233.589 1408.15 233.589C1578.53 233.589 1646.32 314.53 1646.32 314.53H1751.23V170.323H1052.13L1055.31 314.504H1158.44Z" fill="#76868D"/>
<path d="M1751.23 198.82C1751.23 199.191 1360.62 199.508 878.867 199.508C397.116 199.508 6.45923 199.191 6.45923 198.82C6.45923 198.45 396.968 198.132 878.867 198.132C1360.77 198.132 1751.23 198.423 1751.23 198.82Z" fill="#263238"/>
<path d="M1158.26 381.765C1158.23 381.21 1158.23 380.653 1158.26 380.098C1158.26 378.934 1158.26 377.452 1158.26 375.547C1158.26 371.472 1158.11 365.836 1158.02 358.798L1158.44 359.247C1142.95 359.406 1119.75 359.485 1093.87 359.485L1094.51 358.798V364.645C1094.51 366.603 1094.51 368.561 1094.51 370.466V381.765L1093.89 381.077L1139.92 381.394L1153.46 381.58H1157.15H1158.46C1158.07 381.618 1157.69 381.618 1157.3 381.58H1153.75L1140.34 381.765L1093.89 382.082H1093.25V358.533L1093.89 357.845C1119.78 357.845 1142.98 357.845 1158.46 358.083H1158.9V358.533C1158.9 365.677 1158.73 371.419 1158.68 375.547C1158.68 377.399 1158.68 378.881 1158.68 380.018C1158.61 380.617 1158.47 381.203 1158.26 381.765V381.765Z" fill="#263238"/>
<g opacity="0.2">
<path opacity="0.2" d="M1133.56 381.659H1068.97V404.626H1133.56V381.659Z" fill="black"/>
</g>
<path d="M585.689 221.841C585.65 221.294 585.65 220.746 585.689 220.2C585.689 219.036 585.689 217.554 585.689 215.649C585.689 211.574 585.566 205.912 585.467 198.9L585.886 199.35C570.38 199.482 547.181 199.588 521.295 199.588L521.936 198.9V210.622C521.936 214.458 521.936 218.189 521.936 221.814L521.319 221.153L567.347 221.47L580.907 221.655H584.58H585.911C585.517 221.692 585.122 221.692 584.728 221.655H581.178L567.766 221.841L521.319 222.158H520.703V221.47C520.703 217.845 520.703 214.114 520.703 210.278V198.926L521.344 198.238C547.23 198.238 570.429 198.238 585.936 198.476H586.355V198.926C586.355 206.07 586.182 211.812 586.108 215.94C586.108 217.766 586.108 219.247 586.108 220.412C586.004 220.899 585.864 221.377 585.689 221.841V221.841Z" fill="#263238"/>
<g opacity="0.2">
<path opacity="0.2" d="M560.913 221.841H496.321V244.808H560.913V221.841Z" fill="black"/>
</g>
<path d="M1711.95 381.765C1711.9 381.211 1711.9 380.652 1711.95 380.098C1711.95 378.934 1711.95 377.452 1711.95 375.547C1711.95 371.472 1711.8 365.836 1711.71 358.798L1712.15 359.247C1696.64 359.406 1673.44 359.485 1647.56 359.485L1648.2 358.798V370.466C1648.2 374.303 1648.2 378.061 1648.2 381.686L1647.58 380.998L1693.61 381.315L1707.17 381.5H1710.84H1712.17C1711.78 381.537 1711.38 381.537 1710.99 381.5H1707.44L1694.03 381.686L1647.58 382.003H1646.97V381.765C1646.97 378.14 1646.97 374.383 1646.97 370.546V358.877L1647.61 358.189C1673.49 358.189 1696.69 358.189 1712.2 358.427H1712.35V358.877C1712.35 366.021 1712.17 371.763 1712.1 375.891C1712.1 377.743 1712.1 379.225 1712.1 380.363C1712.08 380.833 1712.03 381.302 1711.95 381.765V381.765Z" fill="#263238"/>
<path d="M1210.9 231.525C1210.9 231.525 1210.9 230.916 1210.9 229.884C1210.9 228.852 1210.9 227.238 1210.9 225.307C1210.9 221.258 1210.9 215.596 1210.68 208.558L1211.09 209.008C1195.61 209.166 1172.39 209.246 1146.5 209.246L1147.14 208.558V220.359C1147.14 224.195 1147.14 227.953 1147.14 231.578L1146.53 230.916L1192.56 231.207L1206.11 231.419H1209.79H1211.12C1210.73 231.458 1210.33 231.458 1209.94 231.419H1206.41L1193 231.604L1146.53 231.922H1145.91V231.26C1145.91 227.635 1145.91 223.878 1145.91 220.041V208.346C1147.19 206.97 1146.28 207.976 1146.55 207.658C1172.44 207.658 1195.66 207.658 1211.14 207.896H1211.56V208.346C1211.56 215.49 1211.39 221.232 1211.34 225.36C1211.34 227.212 1211.34 228.694 1211.34 229.831C1211.23 230.407 1211.09 230.974 1210.9 231.525Z" fill="#263238"/>
<path d="M577.849 458.658C577.82 458.111 577.82 457.563 577.849 457.017C577.849 455.853 577.849 454.371 577.849 452.466C577.849 448.391 577.702 442.729 577.603 435.717L578.022 436.167C562.54 436.299 539.316 436.405 513.455 436.405L514.096 435.717V441.617C514.096 443.575 514.096 445.507 514.096 447.439V458.631L513.48 457.97L559.507 458.287L573.042 458.472H576.74H578.047C577.661 458.505 577.274 458.505 576.888 458.472H573.338L559.926 458.658L513.48 458.975H512.839V435.743C514.121 434.367 513.208 435.346 513.504 435.055C539.366 435.055 562.589 435.055 578.071 435.293H578.293V435.743C578.293 442.887 578.121 448.629 578.071 452.757C578.071 454.583 578.071 456.064 578.071 457.229C578.043 457.712 577.968 458.191 577.849 458.658V458.658Z" fill="#263238"/>
<path d="M515.674 366.709C515.635 366.145 515.635 365.579 515.674 365.016C515.674 363.799 515.674 362.37 515.55 360.412C515.55 356.284 515.403 350.648 515.304 343.768L515.772 344.271L471.027 344.456L471.668 343.768V355.569C471.668 359.406 471.668 363.137 471.668 366.683L471.051 366.048C483.97 366.048 495.064 366.233 503.101 366.365L512.444 366.524C513.596 366.514 514.748 366.567 515.896 366.683C514.84 366.812 513.778 366.873 512.715 366.868L503.52 367.027C495.606 367.159 484.315 367.291 471.15 367.344H470.533V366.683C470.533 363.137 470.533 359.406 470.533 355.569V343.768L471.174 343.08L515.92 343.266H516.413V343.768C516.413 350.754 516.216 356.496 516.167 360.703C516.167 362.528 516.167 364.037 516.044 365.227C515.971 365.734 515.847 366.231 515.674 366.709V366.709Z" fill="#263238"/>
<path d="M1039.46 222.555C1039.46 222.555 1039.46 221.946 1039.46 220.862C1039.46 219.777 1039.46 218.216 1039.46 216.231C1039.46 212.103 1039.29 206.467 1039.19 199.614L1039.66 200.117L994.91 200.302L995.551 199.614V211.415C995.551 215.252 995.551 218.983 995.551 222.529L994.935 221.893C1007.85 221.893 1018.95 222.079 1026.98 222.185L1036.33 222.37C1037.48 222.36 1038.63 222.413 1039.78 222.529C1038.72 222.654 1037.66 222.707 1036.6 222.687L1026.98 223.005C1019.07 223.137 1007.8 223.269 994.614 223.322H994.022V222.661C994.022 219.115 994.022 215.384 994.022 211.548C994.022 209.643 994.022 207.684 994.022 205.7V199.746L994.663 199.059L1039.41 199.217H1039.9V199.72C1039.78 206.706 1039.71 212.447 1039.63 216.654C1039.63 218.48 1039.63 219.988 1039.63 221.179C1039.63 221.644 1039.57 222.106 1039.46 222.555Z" fill="#263238"/>
<path d="M93.6827 222.238C93.6276 221.692 93.6276 221.142 93.6827 220.597C93.6827 219.406 93.6827 217.951 93.6827 215.993C93.6827 211.892 93.5595 206.256 93.4609 199.297L93.9046 199.773L36.5117 199.985C35.92 200.593 37.2759 199.138 37.1527 199.297V222.211L36.5363 221.55L77.4609 221.867L89.467 222.052H92.7459H93.9293C93.5856 222.101 93.2375 222.101 92.8938 222.052H89.7629L77.88 222.238L36.2898 223.005H35.6735V199.402C35.5255 199.402 36.8815 198.08 36.3145 198.715L93.7074 198.926H94.1512V199.191C94.1512 206.256 93.9786 212.024 93.9293 216.178C93.9293 218.004 93.9293 219.486 93.9293 220.65C93.8901 221.186 93.8076 221.717 93.6827 222.238V222.238Z" fill="#263238"/>
<path d="M1721.52 358.692C1721.52 358.692 1721.52 358.057 1721.52 356.998C1721.52 355.94 1721.52 354.22 1721.52 352.341C1721.52 348.187 1721.37 342.578 1721.27 335.724L1721.74 336.254L1682.49 336.412L1683.13 335.724V341.678C1683.13 343.662 1683.13 345.62 1683.13 347.552C1683.13 351.389 1683.13 355.093 1683.13 358.639L1682.54 358.004C1693.91 358.004 1703.62 358.189 1710.6 358.295L1718.76 358.48C1719.77 358.471 1720.78 358.524 1721.79 358.639C1720.87 358.766 1719.95 358.819 1719.03 358.798L1710.99 358.983C1704.06 358.983 1694.15 359.247 1682.54 359.274H1681.92V358.639C1681.92 355.093 1681.92 351.389 1681.92 347.552V335.724L1682.57 335.036L1721.81 335.195H1722.31V335.698C1722.31 342.683 1722.11 348.425 1722.06 352.632C1722.06 354.458 1722.06 355.966 1721.94 357.157C1721.86 357.686 1721.72 358.202 1721.52 358.692V358.692Z" fill="#263238"/>
<path d="M470.484 40.5897C465.262 34.2635 460.373 27.6294 455.84 20.7182C450.943 14.0874 446.392 7.17077 442.207 0C447.425 6.33885 452.314 12.9816 456.851 19.8979C461.741 26.5252 466.292 33.4326 470.484 40.5897Z" fill="#263238"/>
<path d="M221.584 169.847C216.407 169.865 211.431 167.699 207.729 163.814C204.376 160.321 201.048 156.14 201.443 153.759C204.227 142.329 207.786 131.133 212.093 120.261C216.851 108.407 242.466 58.7412 251.538 51.2001C255.404 48.35 259.699 46.2374 264.235 44.9556C271.71 42.5916 279.468 41.4149 287.261 41.4628H544.543C546.46 45.2479 548.045 49.2164 549.276 53.3169C549.671 56.2804 549.474 157.569 549.474 157.569V169.847H221.584Z" fill="#E0E0E0"/>
<path d="M261.72 63.8744L227.945 126.399C227.294 127.645 226.963 129.054 226.986 130.482C227.008 131.909 227.383 133.305 228.073 134.527C228.762 135.748 229.741 136.751 230.91 137.434C232.078 138.117 233.395 138.454 234.725 138.412H549.474V56.0422L275.674 55.4072C272.861 55.3848 270.092 56.1549 267.643 57.6407C265.195 59.1266 263.152 61.2761 261.72 63.8744V63.8744Z" fill="#388087"/>
<path d="M356.537 169.582H288.444V75.4375C288.444 74.0947 288.939 72.8065 289.822 71.8545C290.704 70.9025 291.902 70.3642 293.153 70.3572H351.828C353.079 70.3642 354.277 70.9025 355.159 71.8545C356.041 72.8065 356.537 74.0947 356.537 75.4375V169.582Z" fill="#388087"/>
<path d="M356.537 169.582C356.518 169.274 356.518 168.964 356.537 168.656C356.537 167.994 356.537 167.121 356.537 166.01C356.537 163.629 356.537 160.268 356.537 156.008C356.537 147.303 356.413 134.84 356.315 119.546C356.315 111.873 356.315 103.485 356.315 94.4622C356.315 89.964 356.315 85.307 356.315 80.4913V76.8663C356.424 75.735 356.281 74.592 355.896 73.5323C355.459 72.5343 354.696 71.7434 353.751 71.3097C353.274 71.098 352.763 70.9901 352.247 70.9922H350.497H320.74H296.95C295.643 70.9922 294.164 70.9922 292.98 70.9922C292.396 71.0748 291.836 71.2928 291.338 71.6308C290.84 71.9689 290.416 72.4191 290.096 72.9502C289.595 73.8019 289.362 74.8034 289.43 75.8079V98.9869C289.43 107.639 289.43 116.054 289.43 124.23C289.43 140.529 289.43 155.743 289.43 169.476L288.888 168.894L338.195 169.185L352.001 169.344H355.649H356.956C356.562 169.369 356.167 169.369 355.772 169.344H352.222L338.54 169.503L288.863 169.794H288.346V169.238C288.346 155.505 288.346 140.291 288.346 123.992C288.346 115.824 288.346 107.41 288.346 98.7487V75.5698C288.282 74.3035 288.583 73.0469 289.208 71.9712C289.626 71.2627 290.182 70.6594 290.837 70.2027C291.493 69.7461 292.232 69.4467 293.005 69.3252C294.534 69.3252 295.766 69.3252 297.147 69.3252H352.469C353.129 69.3328 353.782 69.4765 354.392 69.7486C355.607 70.3063 356.59 71.3231 357.153 72.6062C357.599 73.8434 357.768 75.1758 357.646 76.4959V80.1473C357.646 84.9895 357.646 89.6994 357.646 94.2505C357.646 103.326 357.646 111.767 357.646 119.493C357.646 134.814 357.474 147.25 357.424 155.955C357.424 160.162 357.424 163.443 357.424 165.798C357.424 166.857 357.424 167.677 357.424 168.312C357.424 168.947 356.537 169.582 356.537 169.582Z" fill="#263238"/>
<path d="M317.436 73.0295H293.276C292.051 73.0295 291.057 74.0957 291.057 75.4109V131.533C291.057 132.848 292.051 133.914 293.276 133.914H317.436C318.662 133.914 319.655 132.848 319.655 131.533V75.4109C319.655 74.0957 318.662 73.0295 317.436 73.0295Z" fill="#F5F5F5"/>
<path d="M317.436 133.993H293.252C292.65 133.993 292.073 133.737 291.648 133.28C291.222 132.824 290.983 132.205 290.983 131.559V75.4109C290.983 74.7653 291.222 74.1461 291.648 73.6895C292.073 73.233 292.65 72.9766 293.252 72.9766H317.436C318.038 72.9766 318.615 73.233 319.04 73.6895C319.466 74.1461 319.705 74.7653 319.705 75.4109V131.559C319.705 132.205 319.466 132.824 319.04 133.28C318.615 133.737 318.038 133.993 317.436 133.993V133.993ZM293.252 73.1353C292.683 73.1353 292.137 73.3779 291.735 73.8096C291.333 74.2413 291.107 74.8268 291.107 75.4373V131.585C291.107 132.196 291.333 132.782 291.735 133.213C292.137 133.645 292.683 133.888 293.252 133.888H317.436C318.005 133.888 318.551 133.645 318.953 133.213C319.355 132.782 319.581 132.196 319.581 131.585V75.4109C319.581 74.8003 319.355 74.2148 318.953 73.7831C318.551 73.3514 318.005 73.1089 317.436 73.1089L293.252 73.1353Z" fill="#263238"/>
<path d="M350.324 73.0295H327.988C326.259 73.0295 324.857 74.534 324.857 76.3899V130.554C324.857 132.409 326.259 133.914 327.988 133.914H350.324C352.053 133.914 353.455 132.409 353.455 130.554V76.3899C353.455 74.534 352.053 73.0295 350.324 73.0295Z" fill="#F5F5F5"/>
<path d="M350.324 133.993H327.988C327.142 133.993 326.331 133.635 325.731 132.995C325.13 132.356 324.79 131.488 324.783 130.58V76.3899C324.79 75.4822 325.13 74.614 325.731 73.9747C326.331 73.3353 327.142 72.9765 327.988 72.9766H350.324C351.17 72.9765 351.981 73.3353 352.582 73.9747C353.182 74.614 353.522 75.4822 353.529 76.3899V130.58C353.522 131.488 353.182 132.356 352.582 132.995C351.981 133.635 351.17 133.993 350.324 133.993V133.993ZM327.988 73.1353C327.585 73.1318 327.184 73.2141 326.811 73.3774C326.437 73.5408 326.097 73.7819 325.811 74.0869C325.524 74.3919 325.297 74.7548 325.142 75.1546C324.986 75.5544 324.906 75.9833 324.906 76.4164V130.606C324.913 131.479 325.241 132.314 325.818 132.928C326.395 133.543 327.175 133.888 327.988 133.888H350.324C351.137 133.888 351.917 133.543 352.494 132.928C353.072 132.314 353.399 131.479 353.406 130.606V76.3899C353.406 75.9568 353.326 75.5279 353.171 75.1281C353.016 74.7283 352.788 74.3655 352.502 74.0605C352.215 73.7554 351.875 73.5143 351.501 73.351C351.128 73.1876 350.728 73.1054 350.324 73.1089L327.988 73.1353Z" fill="#263238"/>
<path d="M322.49 169.45C322.145 169.45 321.849 147.303 321.849 119.97C321.849 92.6363 322.145 70.4893 322.49 70.4893C322.836 70.4893 323.131 92.6363 323.131 119.97C323.131 147.303 322.836 169.45 322.49 169.45Z" fill="#263238"/>
<path d="M319.655 124.124H291.057V133.914H319.655V124.124Z" fill="#263238"/>
<path d="M353.455 124.124H324.857V133.914H353.455V124.124Z" fill="#263238"/>
<path d="M259.748 67.5258H549.474V56.0422L276.093 55.4336C271.463 55.5476 267.05 57.565 263.766 61.0696L259.748 67.5258Z" fill="#DC532D"/>
<path d="M244.684 59.5085C244.684 59.5085 247.15 60.9638 245.547 64.5624C244.241 67.6053 229.079 90.8372 221.855 106.66C214.632 122.483 210.515 133.914 210.515 133.914H207.162C207.162 133.914 211.575 121.61 214.139 115.604C216.999 108.909 225.455 92.2395 233.443 78.0041L244.684 59.5085Z" fill="#EBEBEB"/>
<path d="M549.474 151.325C549.474 151.695 473.295 152.013 379.366 152.013C285.436 152.013 209.258 151.695 209.258 151.325C209.258 150.954 285.387 150.637 379.366 150.637C473.344 150.637 549.474 150.928 549.474 151.325Z" fill="#263238"/>
<path d="M549.474 169.847L221.584 170.614C217.75 170.073 214.077 168.622 210.831 166.365C207.586 164.109 204.85 161.104 202.823 157.569H549.474V169.847Z" fill="#DC532D"/>
<path d="M282.084 41.6216C281.606 41.8368 281.111 42.005 280.604 42.1243C279.618 42.4154 278.139 42.8652 276.364 43.5531C271.208 45.4331 266.333 48.107 261.893 51.4911C260.43 52.5953 259.053 53.8254 257.775 55.1691C256.441 56.6792 255.198 58.2789 254.053 59.9584C251.588 63.4511 249.122 67.3142 246.657 71.442C241.726 79.724 236.524 88.985 231.273 98.8016C226.022 108.618 221.88 118.514 218.133 127.458C214.67 135.304 211.849 143.458 209.702 151.827C209.532 152.701 209.409 153.585 209.332 154.473C209.282 154.877 209.282 155.287 209.332 155.691C209.327 156.086 209.385 156.48 209.504 156.855C210.003 158.279 210.748 159.59 211.698 160.718C213.237 162.644 214.937 164.416 216.777 166.01C218.256 167.307 219.489 168.259 220.302 168.894C220.733 169.21 221.144 169.555 221.535 169.926C221.042 169.735 220.577 169.467 220.155 169.132C219.292 168.55 218.01 167.677 216.457 166.486C214.543 164.978 212.768 163.276 211.156 161.406C210.102 160.207 209.266 158.807 208.691 157.278C208.553 156.852 208.478 156.406 208.469 155.955C208.42 155.489 208.42 155.019 208.469 154.553C208.469 153.68 208.617 152.727 208.814 151.907C210.846 143.424 213.602 135.159 217.048 127.22C220.746 118.197 225.061 108.407 230.164 98.4047C235.267 88.4029 240.666 79.3006 245.671 71.0186C248.136 66.8909 250.601 63.0806 253.067 59.535C254.267 57.8248 255.568 56.1986 256.962 54.6664C258.292 53.3149 259.718 52.0764 261.227 50.962C265.757 47.5972 270.748 45.0085 276.019 43.2886C277.444 42.7994 278.892 42.3931 280.358 42.0714C280.906 41.8184 281.489 41.6663 282.084 41.6216V41.6216Z" fill="#263238"/>
<path d="M207.162 133.914C208.19 133.749 209.165 133.312 209.997 132.644C210.896 131.771 211.546 130.642 211.871 129.389L213.843 124.494C215.347 120.763 217.122 116.556 219.045 111.74C221.13 106.501 223.526 101.41 226.219 96.4995C231.889 85.9155 237.584 76.9456 241.677 70.3835L244.413 65.9382C245.16 64.9169 245.644 63.7037 245.819 62.4191C245.881 61.6132 245.661 60.8115 245.202 60.17C244.882 59.7202 244.635 59.5349 244.684 59.5085C244.734 59.482 244.98 59.5085 245.399 59.9847C245.695 60.305 245.927 60.6852 246.084 61.1032C246.241 61.5212 246.318 61.9686 246.312 62.4191C246.226 63.8257 245.783 65.1803 245.03 66.3351C244.29 67.711 243.402 69.2193 242.564 70.9127C238.644 77.6071 233.073 86.7887 227.452 97.1874C224.782 102.07 222.378 107.115 220.253 112.296L214.805 124.865C214.016 126.629 213.301 128.243 212.66 129.707C212.379 130.389 212.058 131.052 211.698 131.691C211.342 132.22 210.909 132.684 210.416 133.067C209.741 133.585 208.95 133.905 208.124 133.993C207.458 134.046 207.162 133.967 207.162 133.914Z" fill="#263238"/>
<path d="M261.72 63.8744C261.93 63.4195 262.178 62.9855 262.46 62.5778C263.22 61.325 264.141 60.1937 265.196 59.2174C266.989 57.639 269.073 56.4849 271.31 55.8305C274.404 55.1935 277.56 54.9801 280.703 55.1955H341.449L549.375 55.4336H549.991V56.0951C549.991 82.5551 549.991 110.153 549.991 138.465V139.153H534.164L263.594 138.941H238.94C236.999 139.016 235.055 138.945 233.122 138.73C231.162 138.349 229.404 137.198 228.192 135.502C227.017 133.866 226.454 131.818 226.614 129.76C226.878 127.846 227.572 126.03 228.635 124.468L246.41 91.7632C251.341 82.8462 255.113 75.8872 257.702 71.1509L260.66 65.8589L261.72 64.0596C261.72 64.0596 261.424 64.7211 260.783 65.9382C260.142 67.1554 259.181 69.0076 257.923 71.3625L246.854 92.1336C241.923 101.13 236.105 112.137 229.252 124.944C228.255 126.414 227.604 128.121 227.353 129.919C227.193 131.813 227.704 133.702 228.783 135.211C229.885 136.725 231.462 137.76 233.221 138.121C235.106 138.309 237 138.362 238.891 138.28H263.544L534.115 138.068H549.424L548.783 138.756V56.0422L549.4 56.7037L341.622 55.9893L280.876 55.6717C277.762 55.4164 274.631 55.5853 271.557 56.1745C269.357 56.7908 267.3 57.89 265.517 59.4026C264.042 60.6721 262.761 62.1809 261.72 63.8744V63.8744Z" fill="#263238"/>
<g opacity="0.3">
<path opacity="0.3" d="M269.905 67.5259V114.201L288.444 123.674V138.333H234.725C232.815 138.38 230.958 137.659 229.517 136.313C228.076 134.968 227.155 133.093 226.934 131.056V131.056C226.827 129.728 227.057 128.393 227.6 127.193L259.649 67.4465L269.905 67.5259Z" fill="black"/>
</g>
<g opacity="0.6">
<path opacity="0.6" d="M294.164 133.94H314.848L319.655 125.791V91.8425L294.164 133.94Z" fill="white"/>
</g>
<g opacity="0.6">
<path opacity="0.6" d="M331.021 73.0295L324.857 83.243V117.006L350.792 73.0295H331.021Z" fill="white"/>
</g>
<path d="M438.435 73.0295H368.814C365.914 73.0295 363.563 75.5528 363.563 78.6655V128.278C363.563 131.391 365.914 133.914 368.814 133.914H438.435C441.335 133.914 443.686 131.391 443.686 128.278V78.6655C443.686 75.5528 441.335 73.0295 438.435 73.0295Z" fill="#F5F5F5"/>
<path d="M438.435 133.914C439.301 133.809 440.139 133.521 440.901 133.067C441.823 132.5 442.549 131.627 442.971 130.58C443.443 129.101 443.586 127.525 443.391 125.976C443.391 118.673 443.391 108.301 443.193 95.5207C443.193 92.319 443.193 88.9586 443.193 85.4394V80.1474C443.238 79.2622 443.189 78.3744 443.045 77.5014C442.848 76.6754 442.467 75.9129 441.936 75.2788C441.384 74.6659 440.71 74.1955 439.964 73.9028C439.162 73.6665 438.328 73.577 437.498 73.6382H420.389H368.888C367.882 73.6437 366.905 74.0003 366.105 74.6543C365.304 75.3082 364.723 76.224 364.451 77.2633C364.251 78.3876 364.193 79.5357 364.278 80.6766V84.2752C364.278 89.038 364.278 93.7478 364.278 98.3783C364.278 107.613 364.278 116.53 364.278 125.024V128.199C364.271 129.133 364.51 130.05 364.968 130.845C365.415 131.629 366.053 132.268 366.813 132.693C367.574 133.117 368.427 133.311 369.283 133.253H380.204H399.779L428.155 133.464H435.871H437.868H438.558H437.868H435.871L428.155 133.597L399.779 133.808H380.204H369.283C368.235 133.872 367.191 133.633 366.259 133.117C365.326 132.6 364.54 131.825 363.982 130.871C363.396 129.883 363.088 128.735 363.095 127.564V125.103C363.095 116.609 363.095 107.692 363.095 98.4577V80.756C363.014 79.4897 363.088 78.2176 363.316 76.9722C363.665 75.644 364.406 74.4737 365.429 73.6382C366.452 72.8027 367.701 72.3476 368.987 72.3417H420.488H437.597C438.562 72.2635 439.532 72.3802 440.457 72.6857C441.401 73.0122 442.25 73.5956 442.922 74.3791C443.567 75.1264 444.025 76.0367 444.253 77.0251C444.422 77.9663 444.471 78.9274 444.401 79.8828C444.401 81.7085 444.401 83.5078 444.401 85.1748C444.401 88.694 444.401 92.0544 444.401 95.256C444.401 108.036 444.229 118.409 444.204 125.712C444.339 127.335 444.137 128.971 443.612 130.501C443.14 131.621 442.345 132.548 441.344 133.147C440.741 133.492 440.078 133.7 439.397 133.755C439.095 133.901 438.763 133.956 438.435 133.914V133.914Z" fill="#263238"/>
<path d="M363.563 124.124H443.686V130.924C443.686 131.717 443.393 132.477 442.87 133.038C442.348 133.599 441.639 133.914 440.9 133.914H366.275C365.536 133.914 364.827 133.599 364.305 133.038C363.782 132.477 363.489 131.717 363.489 130.924V124.124H363.563Z" fill="#263238"/>
<g opacity="0.6">
<path opacity="0.6" d="M410.971 73.0295L374.115 133.94H394.799L430.768 73.0295H410.971Z" fill="white"/>
</g>
<path d="M524.943 73.0295H455.816C452.779 73.0295 450.318 75.6713 450.318 78.9301V128.013C450.318 131.272 452.779 133.914 455.816 133.914H524.943C527.98 133.914 530.441 131.272 530.441 128.013V78.9301C530.441 75.6713 527.98 73.0295 524.943 73.0295Z" fill="#F5F5F5"/>
<path d="M524.944 133.914C525.806 133.825 526.643 133.555 527.409 133.12C528.33 132.555 529.083 131.719 529.578 130.712C529.88 130.077 530.064 129.385 530.121 128.675C530.121 127.908 530.121 127.034 530.121 126.029C530.121 118.726 529.997 108.38 529.899 95.6264C529.899 92.4247 529.899 89.0643 529.899 85.5716C529.899 83.7987 529.899 82.0259 529.899 80.2796C529.941 79.3944 529.892 78.5069 529.751 77.6336C529.568 76.8125 529.204 76.0505 528.691 75.4109C528.152 74.7449 527.473 74.2268 526.709 73.8999C525.946 73.5731 525.121 73.4471 524.303 73.5323H507.242H455.816C454.807 73.5381 453.823 73.8762 452.999 74.5008C452.175 75.1254 451.548 76.0064 451.205 77.025C450.946 78.1219 450.854 79.2569 450.934 80.3854V98.0607C450.934 107.295 450.934 116.186 450.934 124.679V127.828C450.943 128.757 451.172 129.667 451.6 130.474C452.028 131.27 452.642 131.933 453.381 132.397C454.12 132.861 454.959 133.11 455.816 133.12H466.712H486.262L514.564 133.332H522.281H524.278H524.968H524.278H522.281L514.564 133.464L486.262 133.676H466.712H455.816C454.765 133.669 453.734 133.371 452.822 132.81C451.91 132.249 451.15 131.444 450.614 130.474C450.054 129.477 449.763 128.331 449.776 127.167C449.776 126.135 449.776 125.076 449.776 124.018C449.776 115.524 449.776 106.634 449.776 97.3992C449.776 92.7687 449.776 88.0853 449.776 83.3225V77.8982C449.784 77.2226 449.892 76.5528 450.096 75.9137C450.523 74.6232 451.311 73.5059 452.353 72.7149C453.394 71.9239 454.638 71.4977 455.914 71.4949H507.341H524.401C525.376 71.4143 526.354 71.5807 527.258 71.9805C528.161 72.3804 528.965 73.0026 529.603 73.7969C530.217 74.5557 530.648 75.4641 530.86 76.4429C531.024 77.3846 531.082 78.344 531.033 79.3006C531.033 81.1263 531.033 82.8991 531.033 84.5926C531.033 88.0853 531.033 91.4457 531.033 94.6474C531.033 107.401 530.885 117.747 530.836 125.05C530.836 125.95 530.836 126.77 530.836 127.696C530.718 128.674 530.38 129.606 529.852 130.412C529.323 131.219 528.62 131.876 527.803 132.326C527.196 132.655 526.534 132.853 525.856 132.909C525.678 133.353 525.353 133.711 524.944 133.914V133.914Z" fill="#263238"/>
<path d="M450.318 124.124H530.441V130.659C530.441 131.53 530.119 132.364 529.546 132.979C528.972 133.595 528.195 133.94 527.384 133.94H453.424C452.613 133.94 451.836 133.595 451.263 132.979C450.689 132.364 450.367 131.53 450.367 130.659V124.124H450.318Z" fill="#263238"/>
<g opacity="0.6">
<path opacity="0.6" d="M497.751 73.0295L460.894 133.94H481.578L517.523 73.0295H497.751Z" fill="white"/>
</g>
<path d="M947.231 53.4756H921.394V164.025H947.231V53.4756Z" fill="#388087"/>
<g opacity="0.2">
<path opacity="0.2" d="M947.231 53.4756H921.394V164.025H947.231V53.4756Z" fill="black"/>
</g>
<path d="M919.989 170.561L557.56 169.82V53.4756L563.23 41.4099L913.85 39.7429L919.989 49.6125V170.561Z" fill="#E0E0E0"/>
<path d="M920.284 55.3806H557.56V138.412H920.284V55.3806Z" fill="#388087"/>
<path d="M731.859 169.556H663.767V75.3052C663.773 73.9905 664.264 72.732 665.133 71.8048C666.001 70.8776 667.176 70.3572 668.401 70.3572H727.224C728.449 70.3572 729.624 70.8776 730.493 71.8048C731.361 72.732 731.853 73.9905 731.859 75.3052V169.556Z" fill="#388087"/>
<path d="M731.859 169.556C731.825 169.248 731.825 168.937 731.859 168.63C731.859 167.968 731.859 167.095 731.859 165.984C731.859 163.602 731.859 160.268 731.859 155.982C731.859 147.277 731.711 134.814 731.637 119.52C731.637 111.847 731.637 103.432 731.514 94.4358C731.514 89.9112 731.514 85.2542 731.514 80.4649V76.8399C731.621 75.7021 731.487 74.553 731.119 73.4795C730.682 72.4815 729.919 71.6905 728.975 71.2568C728.493 71.0661 727.984 70.9676 727.471 70.9657H671.976C670.669 70.9657 669.215 70.9657 667.982 70.9657C667.398 71.0365 666.835 71.2467 666.336 71.5809C665.837 71.9151 665.414 72.3649 665.098 72.8974C664.605 73.7521 664.381 74.7535 664.457 75.755V98.934C664.457 107.586 664.457 116.027 664.457 124.177C664.457 140.503 664.457 155.717 664.457 169.45L663.939 168.894L713.246 169.185L727.052 169.318H730.7C731.135 169.28 731.572 169.28 732.007 169.318C731.613 169.359 731.217 169.359 730.824 169.318H727.273H713.566L663.914 169.609H663.397V169.053C663.397 155.32 663.397 140.106 663.397 123.78C663.397 115.63 663.397 107.19 663.397 98.5371V75.3581C663.32 74.0942 663.613 72.8362 664.235 71.7596C664.648 71.0406 665.205 70.4298 665.866 69.972C666.527 69.5142 667.276 69.2208 668.056 69.1136C669.56 69.1136 670.817 69.1136 672.198 69.1136H695.988H725.745H727.52C728.189 69.1113 728.852 69.2554 729.468 69.5369C730.686 70.0753 731.672 71.086 732.229 72.3682C732.653 73.6111 732.813 74.94 732.697 76.2578V79.9357C732.697 84.7779 732.697 89.4613 732.697 94.0124C732.697 103.088 732.697 111.555 732.697 119.282C732.697 134.602 732.525 147.038 732.475 155.744C732.475 159.951 732.475 163.258 732.352 165.587C732.352 166.645 732.352 167.465 732.352 168.233C732.352 169 731.859 169.582 731.859 169.556Z" fill="#263238"/>
<path d="M691.28 73.0032H670.078C668.036 73.0032 666.38 74.7802 666.38 76.9722V129.919C666.38 132.111 668.036 133.888 670.078 133.888H691.28C693.322 133.888 694.978 132.111 694.978 129.919V76.9722C694.978 74.7802 693.322 73.0032 691.28 73.0032Z" fill="#F5F5F5"/>
<path d="M726.016 73.0032H702.941C701.416 73.0032 700.179 74.33 700.179 75.9667V130.924C700.179 132.561 701.416 133.888 702.941 133.888H726.016C727.541 133.888 728.777 132.561 728.777 130.924V75.9667C728.777 74.33 727.541 73.0032 726.016 73.0032Z" fill="#F5F5F5"/>
<path d="M697.813 169.423C697.468 169.423 697.172 147.276 697.172 119.943C697.172 92.6098 697.468 70.4893 697.813 70.4893C698.158 70.4893 698.454 92.6363 698.454 119.943C698.454 147.25 698.158 169.423 697.813 169.423Z" fill="#263238"/>
<path d="M694.978 124.097H666.38V133.888H694.978V124.097Z" fill="#263238"/>
<path d="M728.777 124.097H700.179V133.888H728.777V124.097Z" fill="#263238"/>
<path d="M557.56 55.4336V67.4995H920.284V56.0157L557.56 55.4336Z" fill="#DC532D"/>
<path d="M920.284 151.298C920.284 151.669 839.076 151.986 738.934 151.986C638.793 151.986 557.56 151.669 557.56 151.298C557.56 150.928 638.743 150.61 738.934 150.61C839.126 150.61 920.284 150.901 920.284 151.298Z" fill="#263238"/>
<path d="M919.989 170.614L557.585 169.82V158.337H919.989V170.614Z" fill="#DC532D"/>
<g opacity="0.6">
<g opacity="0.5">
<path opacity="0.5" d="M669.486 133.914H690.17L694.978 125.791V91.8162L669.486 133.914Z" fill="white"/>
</g>
<g opacity="0.5">
<path opacity="0.5" d="M706.343 73.0032L700.179 83.2432V116.98L726.115 73.0032H706.343Z" fill="white"/>
</g>
</g>
<path d="M814.497 73.0032H743.397C740.905 73.0032 738.885 75.1711 738.885 77.8454V129.045C738.885 131.72 740.905 133.888 743.397 133.888H814.497C816.989 133.888 819.009 131.72 819.009 129.045V77.8454C819.009 75.1711 816.989 73.0032 814.497 73.0032Z" fill="#F5F5F5"/>
<path d="M814.497 133.914C815.378 133.798 816.222 133.462 816.962 132.935C817.809 132.303 818.413 131.363 818.663 130.289C818.779 128.713 818.779 127.129 818.663 125.553C818.663 118.223 818.663 107.798 818.466 94.9649C818.466 91.7368 818.466 88.3499 818.466 84.8307C818.466 83.0579 818.466 81.2586 818.466 79.5387C818.525 78.6536 818.475 77.764 818.318 76.8927C818.119 76.0766 817.695 75.3441 817.101 74.7915C816.507 74.239 815.771 73.8923 814.99 73.7969C814.226 73.7969 813.215 73.7969 812.327 73.7969H795.07H743.298C742.308 73.8082 741.359 74.2209 740.641 74.9522C739.923 75.6835 739.49 76.6792 739.427 77.7395V84.9631C739.427 89.7523 739.427 94.4886 739.427 99.1191C739.427 108.407 739.427 117.377 739.427 125.923C739.427 126.982 739.427 128.04 739.427 129.098C739.404 130.047 739.673 130.977 740.192 131.744C740.699 132.476 741.405 133.022 742.213 133.306C743.089 133.493 743.985 133.555 744.876 133.491H755.797H775.52L804.019 133.729H811.76H813.782H814.472C814.244 133.768 814.011 133.768 813.782 133.729H811.76L804.019 133.861L775.52 134.073H755.797H744.827H743.471C742.937 134.07 742.406 133.99 741.893 133.835C740.848 133.486 739.933 132.791 739.28 131.85C738.636 130.886 738.291 129.729 738.293 128.543V125.368C738.293 116.821 738.293 107.851 738.293 98.5635V77.4749C738.357 76.0521 738.927 74.7096 739.885 73.7248C740.844 72.74 742.119 72.188 743.446 72.1829H795.218H812.475C813.437 72.1829 814.226 72.1829 815.261 72.1829C816.245 72.3284 817.168 72.779 817.917 73.4793C818.666 74.1796 819.208 75.0992 819.477 76.1254C819.652 77.0835 819.71 78.0619 819.649 79.036C819.649 80.8617 819.649 82.661 819.649 84.328C819.649 87.8472 819.649 91.2341 819.649 94.4622C819.649 107.295 819.477 117.721 819.428 125.05C819.481 126.667 819.415 128.286 819.23 129.892C818.937 131.072 818.254 132.098 817.307 132.776C816.727 133.177 816.07 133.43 815.384 133.517C815.116 133.711 814.814 133.846 814.497 133.914V133.914Z" fill="#263238"/>
<path d="M738.885 124.097H819.009V131.691C819.009 132.274 818.793 132.833 818.409 133.244C818.025 133.656 817.505 133.888 816.962 133.888H741.005C740.463 133.888 739.942 133.656 739.559 133.244C739.175 132.833 738.959 132.274 738.959 131.691V124.097H738.885Z" fill="#263238"/>
<g opacity="0.6">
<path opacity="0.6" d="M786.294 73.0032L749.437 133.914H770.121L806.066 73.0032H786.294Z" fill="white"/>
</g>
<path d="M901.942 73.0032H829.461C827.351 73.0032 825.64 74.8394 825.64 77.1045V129.786C825.64 132.051 827.351 133.888 829.461 133.888H901.942C904.053 133.888 905.764 132.051 905.764 129.786V77.1045C905.764 74.8394 904.053 73.0032 901.942 73.0032Z" fill="#F5F5F5"/>
<path d="M901.943 133.914C902.847 133.807 903.703 133.421 904.408 132.803C904.801 132.428 905.114 131.967 905.327 131.451C905.539 130.935 905.646 130.377 905.641 129.813C905.641 128.384 905.641 126.77 905.641 124.971C905.641 117.615 905.517 107.163 905.419 94.2505C905.419 91.0223 905.419 87.609 905.419 84.0898C905.419 82.317 905.419 80.4913 905.419 78.6655C905.479 77.7804 905.43 76.8905 905.271 76.0195C905.026 75.2417 904.55 74.572 903.915 74.1144C903.229 73.6608 902.425 73.4567 901.622 73.5323H881.53H829.536C829.062 73.5425 828.595 73.6639 828.169 73.8878C827.744 74.1118 827.368 74.433 827.07 74.8288C826.782 75.2393 826.573 75.7069 826.454 76.2048C826.413 76.7684 826.413 77.3346 826.454 77.8982V99.4102C826.454 108.724 826.454 117.747 826.454 126.32V129.522C826.423 130.428 826.724 131.311 827.292 131.982C827.84 132.649 828.611 133.058 829.437 133.12H843.268H862.99L891.613 133.358H899.403H901.425H902.115C901.886 133.397 901.654 133.397 901.425 133.358H899.403L891.613 133.491L862.99 133.702H843.268H832.248H829.363C828.244 133.611 827.197 133.073 826.429 132.194C825.671 131.286 825.257 130.106 825.271 128.887V125.685C825.271 117.112 825.271 108.089 825.271 98.7751C825.271 94.0917 825.271 89.3554 825.271 84.5396V77.2631C825.243 76.5988 825.284 75.9331 825.394 75.2786C825.541 74.5776 825.827 73.9188 826.232 73.3471C826.653 72.783 827.185 72.3265 827.791 72.0107C828.396 71.695 829.06 71.5278 829.733 71.5213H881.727H901.721C902.727 71.466 903.725 71.7431 904.58 72.3151C905.45 72.9387 906.08 73.8784 906.356 74.9611C906.538 75.9271 906.604 76.9142 906.553 77.8982C906.553 79.7239 906.553 81.5497 906.553 83.3225C906.553 86.8417 906.553 90.255 906.553 93.4831C906.553 106.396 906.405 116.847 906.356 124.203C906.356 126.002 906.356 127.616 906.356 129.045C906.341 129.66 906.204 130.264 905.953 130.816C905.702 131.368 905.343 131.856 904.901 132.247C904.598 132.79 904.162 133.233 903.64 133.527C903.118 133.821 902.531 133.955 901.943 133.914V133.914Z" fill="#263238"/>
<path d="M825.64 124.097H905.764V132.432C905.764 132.623 905.729 132.813 905.66 132.989C905.592 133.166 905.492 133.326 905.366 133.461C905.241 133.596 905.091 133.704 904.927 133.777C904.762 133.85 904.586 133.888 904.408 133.888H827.021C826.661 133.888 826.316 133.734 826.062 133.461C825.808 133.188 825.665 132.818 825.665 132.432V124.097H825.64Z" fill="#263238"/>
<g opacity="0.6">
<path opacity="0.6" d="M873.073 73.0032L836.217 133.914H856.876L892.845 73.0032H873.073Z" fill="white"/>
</g>
<path d="M648.777 73.0032H580.783C577.434 73.0032 574.719 75.9174 574.719 79.5123V127.378C574.719 130.973 577.434 133.888 580.783 133.888H648.777C652.127 133.888 654.842 130.973 654.842 127.378V79.5123C654.842 75.9174 652.127 73.0032 648.777 73.0032Z" fill="#F5F5F5"/>
<path d="M648.752 133.914C649.607 133.798 650.438 133.539 651.218 133.147C652.342 132.546 653.263 131.582 653.851 130.391C654.439 129.2 654.665 127.841 654.497 126.505C654.497 119.255 654.373 108.936 654.299 96.235C654.299 93.0333 654.299 89.6994 654.299 86.2066C654.299 84.4603 654.299 82.6875 654.299 80.9146C654.349 80.0305 654.308 79.1431 654.176 78.2686C654.003 77.4382 653.657 76.6604 653.165 75.9931C652.683 75.2869 652.057 74.7078 651.335 74.2998C650.613 73.8918 649.814 73.6655 648.999 73.6381H632.013H580.783C579.758 73.6372 578.753 73.944 577.882 74.5238C577.011 75.1036 576.308 75.9332 575.853 76.9192C575.419 77.9188 575.232 79.0213 575.31 80.1208V83.6929C575.31 88.4293 575.31 93.1127 575.31 97.7167C575.31 106.925 575.31 115.789 575.31 124.177C575.31 125.235 575.31 126.267 575.31 127.325C575.346 128.246 575.565 129.148 575.951 129.971C576.353 130.788 576.928 131.492 577.631 132.025C578.333 132.558 579.143 132.906 579.994 133.041C583.544 133.2 587.39 133.041 590.743 133.041H610.244L638.447 133.279H646.115H648.112H648.777C648.557 133.319 648.332 133.319 648.112 133.279H646.115L638.447 133.411L610.244 133.623H590.743C587.218 133.623 583.717 133.623 579.822 133.623C578.79 133.465 577.806 133.051 576.95 132.412C576.094 131.773 575.389 130.928 574.891 129.945C574.42 128.923 574.159 127.804 574.127 126.664V124.309C574.127 115.842 574.127 106.978 574.127 97.849V80.1208C574.046 78.8108 574.275 77.5 574.792 76.3106C575.35 75.1009 576.211 74.0817 577.277 73.3667C578.344 72.6518 579.575 72.2694 580.833 72.2622H632.062H643.575H649.098C650.064 72.3112 651.008 72.5908 651.861 73.0805C652.714 73.5703 653.454 74.2579 654.028 75.0934C654.582 75.8795 654.976 76.7806 655.187 77.7394C655.343 78.6821 655.393 79.6416 655.335 80.5971C655.335 82.4228 655.335 84.1956 655.335 85.8891C655.335 89.3818 655.335 92.7158 655.335 95.9174C655.335 108.618 655.162 118.938 655.113 126.188C655.234 127.829 654.844 129.467 654.004 130.845C653.375 131.808 652.526 132.583 651.538 133.094C650.707 133.659 649.737 133.945 648.752 133.914V133.914Z" fill="#263238"/>
<path d="M574.719 124.097H654.719V128.913C654.719 130.232 654.231 131.498 653.361 132.431C652.492 133.363 651.313 133.888 650.084 133.888H579.354C578.124 133.888 576.945 133.363 576.076 132.431C575.207 131.498 574.719 130.232 574.719 128.913V124.097Z" fill="#263238"/>
<g opacity="0.6">
<path opacity="0.6" d="M622.127 73.0032L585.27 133.914H605.954L641.899 73.0032H622.127Z" fill="white"/>
</g>
<path d="M1289.84 170.614H1315.67V60.0641H1289.84V170.614Z" fill="#388087"/>
<g opacity="0.2">
<path opacity="0.2" d="M1289.84 170.614H1315.67V60.0641H1289.84V170.614Z" fill="black"/>
</g>
<path d="M1632.42 169.847C1637.6 169.865 1642.57 167.699 1646.28 163.814C1649.63 160.321 1652.96 156.14 1652.56 153.759C1649.77 142.329 1646.2 131.134 1641.89 120.261C1637.15 108.407 1611.51 58.7411 1602.44 51.2C1598.57 48.3549 1594.28 46.2428 1589.75 44.9555C1582.26 42.5934 1574.5 41.4167 1566.69 41.4627H1309.44C1307.52 45.2478 1305.94 49.2163 1304.7 53.3168C1304.31 56.2803 1304.53 157.569 1304.53 157.569V169.847H1632.42Z" fill="#E0E0E0"/>
<path d="M1592.28 63.8745L1626.06 126.399C1626.71 127.645 1627.04 129.054 1627.02 130.482C1627 131.909 1626.62 133.305 1625.93 134.527C1625.24 135.748 1624.26 136.751 1623.1 137.434C1621.93 138.117 1620.61 138.454 1619.28 138.412H1304.53V56.0423L1578.33 55.4073C1581.14 55.3901 1583.91 56.1625 1586.36 57.6479C1588.81 59.1332 1590.85 61.2797 1592.28 63.8745V63.8745Z" fill="#388087"/>
<path d="M1497.47 169.582H1565.54V76.972C1565.54 75.1941 1564.88 73.4887 1563.71 72.229C1562.54 70.9694 1560.96 70.2582 1559.3 70.2512H1503.71C1502.05 70.2582 1500.46 70.9694 1499.29 72.229C1498.12 73.4887 1497.47 75.1941 1497.47 76.972V169.582Z" fill="#388087"/>
<path d="M1497.47 169.582C1497.43 169.31 1497.43 169.034 1497.47 168.762C1497.47 168.1 1497.47 167.28 1497.47 166.116C1497.47 163.787 1497.47 160.506 1497.47 156.326C1497.47 147.673 1497.32 135.29 1497.25 120.023C1497.25 112.323 1497.25 103.908 1497.25 94.8591C1497.25 90.3344 1497.25 85.651 1497.25 80.8353V77.1838C1497.21 76.166 1497.37 75.1514 1497.72 74.2052C1498.07 73.2589 1498.61 72.402 1499.28 71.6893C1499.96 70.9766 1500.77 70.424 1501.66 70.067C1502.55 69.71 1503.5 69.5565 1504.44 69.6162H1559.5C1560.24 69.6259 1560.99 69.769 1561.69 70.0396C1563.11 70.5964 1564.32 71.6373 1565.14 73.0031C1565.77 74.0395 1566.14 75.2345 1566.2 76.4694C1566.2 77.6865 1566.2 78.7185 1566.2 79.8562V99.516C1566.2 108.089 1566.2 116.45 1566.2 124.547C1566.2 140.741 1566.2 155.849 1566.2 169.529V170.085H1565.66L1516.01 169.794L1502.32 169.635H1498.77C1498.38 169.661 1497.99 169.661 1497.59 169.635H1498.87H1502.55L1516.35 169.476L1565.66 169.185L1565.14 169.767C1565.14 156.114 1565.14 141.005 1565.14 124.785C1565.14 116.689 1565.14 108.327 1565.14 99.7542C1565.14 95.4412 1565.14 91.1018 1565.14 86.7094V80.0944C1565.14 79.0096 1565.14 77.8188 1565.14 76.8134C1565.08 75.8066 1564.78 74.8326 1564.28 73.9821C1563.61 72.8773 1562.62 72.0334 1561.47 71.5743C1560.24 71.2149 1558.96 71.0895 1557.7 71.2038H1534H1504.42C1503.63 71.1521 1502.83 71.2779 1502.09 71.5732C1501.35 71.8686 1500.67 72.327 1500.1 72.9193C1499.53 73.5117 1499.08 74.2249 1498.78 75.0138C1498.48 75.8026 1498.33 76.6498 1498.36 77.5013V81.1264C1498.36 85.8892 1498.36 90.5197 1498.36 95.0179C1498.36 103.988 1498.36 112.349 1498.36 119.996C1498.36 135.264 1498.18 147.647 1498.13 156.299C1498.13 160.559 1498.13 163.893 1498.13 166.248C1498.13 167.333 1498.13 168.206 1498.13 168.894C1498.13 169.582 1497.47 169.556 1497.47 169.582Z" fill="#263238"/>
<path d="M1537.21 133.94H1560.04C1561.63 133.94 1562.92 132.554 1562.92 130.845V76.1518C1562.92 74.442 1561.63 73.056 1560.04 73.056H1537.21C1535.62 73.056 1534.33 74.442 1534.33 76.1518V130.845C1534.33 132.554 1535.62 133.94 1537.21 133.94Z" fill="#F5F5F5"/>
<path d="M1504 133.94H1525.7C1527.6 133.94 1529.15 132.282 1529.15 130.236V76.7604C1529.15 74.7145 1527.6 73.056 1525.7 73.056H1504C1502.1 73.056 1500.55 74.7145 1500.55 76.7604V130.236C1500.55 132.282 1502.1 133.94 1504 133.94Z" fill="#F5F5F5"/>
<path d="M1531.51 169.45C1531.15 169.45 1530.85 147.303 1530.85 119.97C1530.85 92.6363 1531.15 70.4893 1531.51 70.4893C1531.88 70.4893 1532.16 92.6363 1532.16 119.97C1532.16 147.303 1531.86 169.45 1531.51 169.45Z" fill="#263238"/>
<path d="M1534.33 133.94H1562.92V124.15H1534.33V133.94Z" fill="#263238"/>
<path d="M1500.53 133.94H1529.12V124.15H1500.53V133.94Z" fill="#263238"/>
<path d="M1594.23 67.5258H1304.53V56.0422L1577.91 55.4336C1582.54 55.5476 1586.95 57.565 1590.24 61.0696L1594.23 67.5258Z" fill="#DC532D"/>
<path d="M1609.32 59.5085C1609.32 59.5085 1606.85 60.9638 1608.43 64.5624C1609.76 67.6053 1624.93 90.8372 1632.15 106.66C1639.37 122.483 1643.47 133.914 1643.47 133.914H1646.82C1646.82 133.914 1642.43 121.61 1639.87 115.604C1636.98 108.909 1628.53 92.2395 1620.56 78.0041L1609.32 59.5085Z" fill="#EBEBEB"/>
<path d="M1304.53 151.325C1304.53 150.928 1380.69 150.637 1474.64 150.637C1568.59 150.637 1644.75 150.928 1644.75 151.325C1644.75 151.722 1568.59 152.013 1474.64 152.013C1380.69 152.013 1304.53 151.695 1304.53 151.325Z" fill="#263238"/>
<path d="M1304.53 169.847L1632.42 170.614C1636.25 170.077 1639.92 168.627 1643.17 166.37C1646.41 164.112 1649.14 161.106 1651.16 157.569H1304.53V169.847Z" fill="#DC532D"/>
<path d="M1571.82 41.6215C1572.35 41.608 1572.87 41.6793 1573.38 41.8332C1574.84 42.1484 1576.29 42.5548 1577.71 43.0504C1582.99 44.7703 1587.98 47.359 1592.51 50.7237C1594.03 51.8311 1595.46 53.07 1596.8 54.4281C1598.18 55.9611 1599.47 57.5873 1600.67 59.2968C1603.13 62.7895 1605.6 66.6527 1608.06 70.7804C1612.99 79.0624 1618.29 88.297 1623.59 98.1665C1628.9 108.036 1633.01 117.959 1636.71 126.981C1640.16 134.917 1642.91 143.182 1644.92 151.669C1645.08 152.543 1645.21 153.427 1645.29 154.315C1645.34 154.781 1645.34 155.251 1645.29 155.717C1645.29 156.169 1645.22 156.617 1645.07 157.04C1644.49 158.569 1643.66 159.969 1642.6 161.168C1640.98 163.039 1639.2 164.741 1637.28 166.248C1635.72 167.492 1634.47 168.365 1633.58 168.894C1633.16 169.225 1632.71 169.492 1632.22 169.688C1632.61 169.308 1633.02 168.963 1633.46 168.656C1634.27 168.021 1635.48 167.068 1636.98 165.772C1638.82 164.171 1640.51 162.4 1642.06 160.48C1643.01 159.351 1643.76 158.041 1644.25 156.617C1644.37 156.241 1644.42 155.847 1644.4 155.452C1644.45 155.048 1644.45 154.639 1644.4 154.235C1644.25 153.362 1644.23 152.489 1644.01 151.589C1641.96 143.321 1639.25 135.256 1635.92 127.484C1632.17 118.541 1627.84 108.777 1622.76 98.828C1617.68 88.8791 1612.3 79.7504 1607.37 71.4684C1604.91 67.3406 1602.44 63.5304 1599.98 59.9847C1598.83 58.2984 1597.58 56.6983 1596.23 55.1955C1594.96 53.8584 1593.59 52.6288 1592.14 51.5175C1587.69 48.1395 1582.82 45.466 1577.67 43.5795C1575.84 42.8916 1574.39 42.4417 1573.43 42.1507C1572.88 42.0184 1572.34 41.8415 1571.82 41.6215V41.6215Z" fill="#263238"/>
<path d="M1646.82 133.914C1646.82 133.914 1646.55 134.046 1645.98 133.914C1645.16 133.817 1644.37 133.499 1643.69 132.988C1643.2 132.611 1642.77 132.145 1642.43 131.612C1642.07 130.973 1641.75 130.31 1641.47 129.627L1639.32 124.785C1637.72 121.134 1635.9 116.847 1633.87 112.217C1631.74 107.041 1629.34 101.996 1626.68 97.1081C1621.03 86.6829 1615.46 77.5278 1611.56 70.8334C1610.58 69.1399 1609.71 67.6317 1609.1 66.2558C1608.33 65.1068 1607.89 63.7489 1607.82 62.3397C1607.8 61.8876 1607.87 61.4365 1608.03 61.0167C1608.18 60.5969 1608.42 60.2179 1608.73 59.9054C1609.12 59.482 1609.42 59.3762 1609.44 59.4291C1609.47 59.482 1609.22 59.6408 1608.93 60.0906C1608.47 60.7321 1608.25 61.5338 1608.31 62.3397C1608.47 63.6274 1608.96 64.8435 1609.71 65.8589C1610.52 67.2172 1611.43 68.6989 1612.45 70.3041C1616.54 76.8662 1622.31 85.942 1627.91 96.4202C1630.58 101.336 1632.97 106.426 1635.06 111.661L1640.28 124.415L1642.23 129.31C1642.57 130.566 1643.22 131.694 1644.13 132.565C1644.91 133.239 1645.83 133.702 1646.82 133.914V133.914Z" fill="#263238"/>
<path d="M1592.29 63.8744C1591.26 62.1954 1590 60.6886 1588.56 59.4027C1586.78 57.8901 1584.72 56.7909 1582.52 56.1746C1579.44 55.5831 1576.3 55.4142 1573.18 55.6718L1512.43 55.9894L1304.53 56.7037L1305.15 56.0422C1305.15 82.5023 1305.15 110.1 1305.15 138.412L1304.51 137.724H1319.79L1590.39 137.936H1615.04C1616.94 138.018 1618.84 137.965 1620.74 137.777C1622.48 137.41 1624.05 136.376 1625.15 134.867C1626.23 133.361 1626.75 131.472 1626.6 129.575C1626.35 127.777 1625.7 126.07 1624.7 124.6C1617.85 111.794 1611.93 100.786 1607.1 91.7898L1596.01 71.0186C1594.78 68.6637 1593.81 66.8644 1593.17 65.5943C1592.53 64.3242 1592.24 63.7157 1592.24 63.7157C1592.24 63.7157 1592.61 64.3242 1593.27 65.5149L1596.23 70.8069C1598.84 75.5433 1602.64 82.5023 1607.52 91.4193C1612.4 100.336 1618.39 111.397 1625.32 124.124C1626.38 125.686 1627.08 127.502 1627.34 129.416C1627.49 131.473 1626.93 133.516 1625.76 135.158C1624.54 136.843 1622.79 137.991 1620.83 138.386C1618.89 138.601 1616.94 138.672 1614.99 138.598H1590.34L1319.74 138.809H1303.82V138.333C1303.82 110.021 1303.82 82.4229 1303.82 55.9629V55.3014H1304.43L1512.33 55.0632H1573.08C1576.23 54.849 1579.4 55.0624 1582.5 55.6983C1584.74 56.3526 1586.82 57.5068 1588.61 59.0852C1589.7 60.0608 1590.65 61.1915 1591.45 62.4456C1591.76 62.9017 1592.04 63.379 1592.29 63.8744Z" fill="#263238"/>
<g opacity="0.3">
<path opacity="0.3" d="M1584.15 67.5259V114.201L1565.61 123.674V138.333H1619.33C1621.24 138.379 1623.09 137.658 1624.53 136.311C1625.96 134.965 1626.88 133.091 1627.1 131.056V131.056C1627.2 129.728 1626.97 128.393 1626.43 127.193L1594.38 67.4465L1584.15 67.5259Z" fill="black"/>
</g>
<g opacity="0.6">
<g opacity="0.5">
<path opacity="0.5" d="M1559.82 133.94H1539.16L1534.35 125.791V91.8425L1559.82 133.94Z" fill="white"/>
</g>
<g opacity="0.5">
<path opacity="0.5" d="M1522.96 73.0295L1529.15 83.243V117.006L1503.19 73.0295H1522.96Z" fill="white"/>
</g>
</g>
<path d="M1485.63 73.0295H1415.13C1412.47 73.0295 1410.32 75.3396 1410.32 78.1892V128.754C1410.32 131.604 1412.47 133.914 1415.13 133.914H1485.63C1488.29 133.914 1490.44 131.604 1490.44 128.754V78.1892C1490.44 75.3396 1488.29 73.0295 1485.63 73.0295Z" fill="#F5F5F5"/>
<path d="M1415.13 133.914C1414.9 133.959 1414.66 133.959 1414.44 133.914C1413.75 133.844 1413.08 133.609 1412.49 133.226C1411.53 132.622 1410.79 131.69 1410.39 130.58C1410.09 128.988 1409.98 127.36 1410.07 125.738C1410.07 118.435 1410.07 108.036 1409.88 95.2294C1409.88 92.0013 1409.88 88.6144 1409.88 85.0952C1409.88 83.3489 1409.88 81.5496 1409.88 79.8032C1409.83 78.8379 1409.88 77.8698 1410.05 76.9191C1410.28 75.9109 1410.78 74.9941 1411.48 74.2731C1412.2 73.5248 1413.09 73.003 1414.07 72.7649C1415 72.6317 1415.94 72.5875 1416.88 72.6326H1434.13H1485.91C1487.21 72.6359 1488.47 73.1393 1489.45 74.0518C1490.44 74.9643 1491.09 76.2255 1491.28 77.6071C1491.28 80.2531 1491.28 82.5022 1491.28 84.9365C1491.28 89.7258 1491.28 94.4621 1491.28 99.0926C1491.28 108.354 1491.28 117.297 1491.28 125.844C1491.28 126.902 1491.28 127.96 1491.28 129.019C1491.29 130.199 1490.97 131.354 1490.34 132.326C1489.73 133.278 1488.88 134.014 1487.88 134.443C1486.91 134.795 1485.89 134.921 1484.87 134.814H1473.92H1454.2L1425.75 134.602L1418.01 134.47H1416.01C1415.78 134.504 1415.55 134.504 1415.32 134.47H1416.01H1418.01H1425.75L1454.2 134.258H1473.92H1484.87C1485.71 134.323 1486.54 134.206 1487.34 133.914C1488.14 133.588 1488.82 133.006 1489.31 132.247C1489.79 131.461 1490.03 130.54 1490.02 129.601V126.426C1490.02 117.879 1490.02 108.936 1490.02 99.6747V85.5186C1490.02 83.1901 1490.02 80.6235 1490.02 78.4009C1489.87 77.3465 1489.37 76.3856 1488.61 75.6883C1487.86 74.991 1486.9 74.6022 1485.91 74.5906H1434.13H1416.88C1416.06 74.5275 1415.23 74.5275 1414.41 74.5906C1413.63 74.7716 1412.91 75.1842 1412.34 75.7813C1411.79 76.3669 1411.39 77.0964 1411.18 77.8981C1411.03 78.7698 1410.98 79.659 1411.03 80.5441C1411.03 82.3699 1411.03 84.1691 1411.03 85.8361C1411.03 89.3553 1411.03 92.7422 1411.03 95.9703C1411.03 108.777 1410.86 119.176 1410.81 126.479C1410.69 128.051 1410.76 129.634 1411.01 131.189C1411.34 132.271 1412 133.203 1412.88 133.835C1413.62 134.02 1414.38 134.047 1415.13 133.914V133.914Z" fill="#263238"/>
<path d="M1488.1 133.94H1412.76C1412.11 133.94 1411.48 133.662 1411.02 133.165C1410.55 132.669 1410.29 131.996 1410.29 131.294V124.018L1490.42 124.018V131.294C1490.42 131.97 1490.18 132.62 1489.75 133.111C1489.32 133.603 1488.73 133.9 1488.1 133.94Z" fill="#263238"/>
<g opacity="0.6">
<path opacity="0.6" d="M1443.01 73.0295L1479.87 133.94H1459.21L1423.24 73.0295H1443.01Z" fill="white"/>
</g>
<path d="M1399.2 73.0295H1328.05C1325.57 73.0295 1323.56 75.1856 1323.56 77.8452V129.098C1323.56 131.758 1325.57 133.914 1328.05 133.914H1399.2C1401.68 133.914 1403.69 131.758 1403.69 129.098V77.8452C1403.69 75.1856 1401.68 73.0295 1399.2 73.0295Z" fill="#F5F5F5"/>
<path d="M1328.03 133.914C1327.8 133.961 1327.56 133.961 1327.34 133.914C1326.65 133.831 1325.99 133.577 1325.41 133.173C1324.47 132.483 1323.78 131.449 1323.49 130.263C1323.33 128.655 1323.27 127.037 1323.32 125.42C1323.32 118.091 1323.19 107.666 1323.1 94.8326C1323.1 91.6045 1323.1 88.2176 1323.1 84.6984C1323.1 82.9256 1323.1 81.1263 1323.1 79.4064C1323.03 78.4323 1323.09 77.4538 1323.27 76.4958C1323.52 75.4627 1324.06 74.5358 1324.81 73.8368C1325.56 73.1379 1326.49 72.6996 1327.48 72.5797C1328.52 72.5797 1329.33 72.5797 1330.27 72.5797H1347.53H1399.3C1400.62 72.5852 1401.9 73.1381 1402.85 74.1235C1403.8 75.109 1404.37 76.4513 1404.43 77.8717V99.3308C1404.43 108.618 1404.43 117.588 1404.43 126.135V129.31C1404.43 130.501 1404.08 131.661 1403.42 132.618C1402.77 133.563 1401.85 134.251 1400.8 134.576C1399.82 134.798 1398.82 134.869 1397.82 134.787H1386.68H1366.95L1338.45 134.576L1330.71 134.443H1328.69H1328H1328.69H1330.71H1338.45L1366.95 134.232H1386.68H1397.65C1398.54 134.283 1399.43 134.22 1400.31 134.046C1401.12 133.781 1401.83 133.243 1402.33 132.512C1402.84 131.74 1403.11 130.813 1403.1 129.866C1403.1 128.807 1403.1 127.749 1403.1 126.69C1403.1 118.144 1403.1 109.174 1403.1 99.8865C1403.1 95.2295 1403.1 90.4932 1403.1 85.7039V78.4803C1403.05 77.418 1402.63 76.4151 1401.91 75.6806C1401.19 74.9461 1400.24 74.5367 1399.25 74.5378H1347.48H1330.22C1329.33 74.5378 1328.35 74.5378 1327.58 74.5378C1326.79 74.6371 1326.04 74.9871 1325.44 75.5433C1324.85 76.0872 1324.43 76.8057 1324.23 77.6071C1324.06 78.4771 1324.01 79.3681 1324.08 80.2531C1324.08 82.0789 1324.08 83.8782 1324.08 85.5451C1324.08 89.0643 1324.08 92.4512 1324.08 95.6793C1324.08 108.512 1323.93 118.938 1323.88 126.267C1323.79 127.844 1323.79 129.426 1323.88 131.003C1324.11 132.123 1324.72 133.112 1325.59 133.782C1326.38 134.027 1327.21 134.073 1328.03 133.914Z" fill="#263238"/>
<path d="M1401.64 133.94H1325.51C1324.98 133.94 1324.46 133.712 1324.08 133.305C1323.7 132.898 1323.49 132.346 1323.49 131.771V124.15L1403.66 124.15V131.771C1403.66 132.346 1403.45 132.898 1403.07 133.305C1402.69 133.712 1402.18 133.94 1401.64 133.94V133.94Z" fill="#263238"/>
<g opacity="0.6">
<path opacity="0.6" d="M1356.25 73.0295L1393.11 133.94H1372.43L1336.46 73.0295H1356.25Z" fill="white"/>
</g>
<path d="M1296 170.561L933.573 169.82V53.4756L939.218 41.4099L1289.86 39.7429L1296 49.6125V170.561Z" fill="#E0E0E0"/>
<path d="M1296.3 55.3806H933.573V138.412H1296.3V55.3806Z" fill="#388087"/>
<path d="M1107.85 169.556H1039.78V74.8289C1039.78 73.664 1040.21 72.5468 1040.98 71.723C1041.75 70.8993 1042.79 70.4365 1043.87 70.4365H1103.78C1104.32 70.4365 1104.85 70.5503 1105.34 70.7714C1105.84 70.9925 1106.29 71.3164 1106.66 71.7246C1107.04 72.1328 1107.34 72.6172 1107.54 73.15C1107.75 73.6827 1107.85 74.2533 1107.85 74.8289V169.556Z" fill="#388087"/>
<path d="M1107.85 169.556C1107.85 169.556 1107.85 169.212 1107.85 168.63C1107.85 168.047 1107.85 167.095 1107.85 165.984C1107.85 163.602 1107.85 160.242 1107.85 155.982C1107.85 147.25 1107.7 134.814 1107.6 119.44C1107.6 111.767 1107.6 103.353 1107.6 94.3034C1107.6 89.8052 1107.6 85.1218 1107.6 80.3326C1107.6 79.1154 1107.6 77.9247 1107.6 76.7075V74.8289C1107.61 74.294 1107.52 73.7626 1107.33 73.2677C1107.14 72.7672 1106.85 72.3163 1106.49 71.9463C1106.12 71.5763 1105.69 71.2959 1105.21 71.1245C1104.11 70.9091 1102.99 70.8468 1101.88 70.9393H1044.19C1043.61 70.9324 1043.04 71.0844 1042.53 71.3807C1042.02 71.6771 1041.59 72.108 1041.28 72.6327C1040.8 73.4993 1040.61 74.5172 1040.74 75.5168V85.5716C1040.74 90.0169 1040.74 94.4093 1040.74 98.8016V124.124C1040.74 140.503 1040.74 155.876 1040.74 169.503L1040.22 168.947L1089.53 169.238L1103.34 169.37H1106.98C1107.41 169.331 1107.84 169.331 1108.27 169.37C1107.88 169.414 1107.49 169.414 1107.11 169.37H1103.53H1089.85L1040.2 169.661H1039.31V169.106C1039.31 155.347 1039.31 140 1039.31 123.727C1039.31 115.551 1039.31 107.084 1039.31 98.4047V75.6227C1039.19 74.3603 1039.45 73.0885 1040.05 71.9976C1040.48 71.281 1041.07 70.6922 1041.77 70.2853C1042.47 69.8783 1043.25 69.6665 1044.04 69.6692H1071.95H1101.73H1103.41C1104.07 69.6295 1104.73 69.7191 1105.36 69.9338C1105.99 70.1721 1106.56 70.5497 1107.05 71.042C1107.53 71.5343 1107.91 72.1303 1108.17 72.7914C1108.4 73.4407 1108.52 74.1323 1108.51 74.8289V76.6811C1108.51 77.9247 1108.51 79.1418 1108.51 80.359C1108.51 85.2012 1108.51 89.9111 1108.51 94.4622C1108.51 103.564 1108.51 112.032 1108.51 119.758C1108.51 135.131 1108.32 147.567 1108.27 156.273C1108.27 160.48 1108.27 163.787 1108.27 166.142C1108.27 167.201 1108.27 168.021 1108.27 168.788C1108.17 169.068 1108.03 169.327 1107.85 169.556Z" fill="#263238"/>
<path d="M1068.35 73.0032H1044.98C1043.54 73.0032 1042.37 74.2589 1042.37 75.8079V131.083C1042.37 132.632 1043.54 133.888 1044.98 133.888H1068.35C1069.8 133.888 1070.97 132.632 1070.97 131.083V75.8079C1070.97 74.2589 1069.8 73.0032 1068.35 73.0032Z" fill="#F5F5F5"/>
<path d="M1102.15 73.0032H1078.78C1077.34 73.0032 1076.17 74.2589 1076.17 75.8079V131.083C1076.17 132.632 1077.34 133.888 1078.78 133.888H1102.15C1103.6 133.888 1104.77 132.632 1104.77 131.083V75.8079C1104.77 74.2589 1103.6 73.0032 1102.15 73.0032Z" fill="#F5F5F5"/>
<path d="M1073.83 169.423C1073.46 169.423 1073.18 147.276 1073.18 119.943C1073.18 92.6098 1073.46 70.4893 1073.83 70.4893C1074.2 70.4893 1074.47 92.6363 1074.47 119.943C1074.47 147.25 1074.17 169.423 1073.83 169.423Z" fill="#263238"/>
<path d="M1070.97 124.097H1042.37V133.888H1070.97V124.097Z" fill="#263238"/>
<path d="M1104.77 124.097H1076.17V133.888H1104.77V124.097Z" fill="#263238"/>
<path d="M933.573 55.4336V67.4995H1296.3V56.0157L933.573 55.4336Z" fill="#DC532D"/>
<path d="M1296.3 151.298C1296.3 151.669 1215.09 151.986 1114.95 151.986C1014.81 151.986 933.573 151.669 933.573 151.298C933.573 150.928 1014.76 150.61 1114.95 150.61C1215.14 150.61 1296.3 150.901 1296.3 151.298Z" fill="#263238"/>
<path d="M1296 170.614L933.597 169.82V158.337H1296V170.614Z" fill="#DC532D"/>
<g opacity="0.6">
<g opacity="0.5">
<path opacity="0.5" d="M1045.5 133.914H1066.18L1070.99 125.791V91.8162L1045.5 133.914Z" fill="white"/>
</g>
<g opacity="0.5">
<path opacity="0.5" d="M1082.36 73.0032L1076.17 83.2432V116.98L1102.13 73.0032H1082.36Z" fill="white"/>
</g>
</g>
<path d="M1189.84 73.0032H1120.03C1117.18 73.0032 1114.87 75.4791 1114.87 78.5333V128.358C1114.87 131.412 1117.18 133.888 1120.03 133.888H1189.84C1192.69 133.888 1195 131.412 1195 128.358V78.5333C1195 75.4791 1192.69 73.0032 1189.84 73.0032Z" fill="#F5F5F5"/>
<path d="M1189.84 133.914C1190.71 133.801 1191.55 133.505 1192.31 133.041C1193.22 132.457 1193.93 131.576 1194.33 130.527C1194.75 129.027 1194.87 127.451 1194.7 125.897C1194.7 118.594 1194.58 108.221 1194.5 95.4412C1194.5 92.213 1194.5 88.8526 1194.5 85.3335C1194.5 83.5871 1194.5 81.7878 1194.5 80.0415C1194.55 79.1563 1194.5 78.2688 1194.36 77.3955C1194.17 76.5799 1193.79 75.8314 1193.25 75.2257C1192.7 74.5976 1192.01 74.1325 1191.25 73.8763C1190.44 73.6725 1189.61 73.6011 1188.78 73.6646H1171.53H1119.98C1118.98 73.7091 1118.02 74.1069 1117.25 74.796C1116.49 75.4851 1115.95 76.4269 1115.74 77.4748C1115.58 78.6137 1115.53 79.7656 1115.59 80.9146V98.6428C1115.59 107.877 1115.59 116.821 1115.59 125.314V128.49C1115.6 129.173 1115.75 129.846 1116.02 130.465C1116.28 131.085 1116.67 131.639 1117.14 132.091C1117.62 132.544 1118.18 132.885 1118.79 133.094C1119.39 133.303 1120.03 133.375 1120.67 133.305H1131.59H1151.19L1179.56 133.544H1187.28H1189.28C1189.51 133.509 1189.74 133.509 1189.97 133.544C1189.74 133.585 1189.51 133.585 1189.28 133.544H1187.28L1179.56 133.676L1151.19 133.888H1131.59H1120.67C1119.62 133.967 1118.56 133.74 1117.62 133.233C1116.68 132.725 1115.89 131.955 1115.32 131.003C1114.73 130.026 1114.42 128.886 1114.43 127.722C1114.43 126.664 1114.43 125.606 1114.43 124.547C1114.43 116.054 1114.43 107.11 1114.43 97.8755C1114.43 93.245 1114.43 88.5351 1114.43 83.7458V80.1473C1114.36 78.8909 1114.43 77.6306 1114.63 76.39C1114.94 75.049 1115.66 73.8579 1116.67 73.005C1117.69 72.1521 1118.94 71.6859 1120.22 71.6801H1171.77H1189.03C1189.98 71.6108 1190.94 71.7091 1191.87 71.9712C1192.8 72.3016 1193.65 72.874 1194.33 73.6381C1194.97 74.393 1195.42 75.3005 1195.66 76.2841C1195.83 77.2349 1195.88 78.203 1195.83 79.1683C1195.83 80.994 1195.83 82.7933 1195.83 84.4603C1195.83 87.9795 1195.83 91.3399 1195.83 94.568C1195.83 107.348 1195.69 117.721 1195.64 125.023C1195.78 126.641 1195.61 128.274 1195.12 129.813C1194.68 130.948 1193.89 131.883 1192.88 132.459C1192.28 132.826 1191.61 133.043 1190.93 133.094C1190.64 133.468 1190.27 133.752 1189.84 133.914Z" fill="#263238"/>
<path d="M1114.87 124.097H1195V131.004C1195 131.768 1194.71 132.502 1194.21 133.043C1193.71 133.584 1193.02 133.888 1192.31 133.888H1117.58C1116.87 133.888 1116.19 133.584 1115.68 133.043C1115.18 132.502 1114.9 131.768 1114.9 131.004V124.097H1114.87Z" fill="#263238"/>
<g opacity="0.6">
<path opacity="0.6" d="M1162.31 73.0032L1125.45 133.914H1146.13L1182.08 73.0032H1162.31Z" fill="white"/>
</g>
<path d="M1277.81 73.0032H1205.62C1203.43 73.0032 1201.65 74.9105 1201.65 77.2632V129.628C1201.65 131.98 1203.43 133.888 1205.62 133.888H1277.81C1280 133.888 1281.78 131.98 1281.78 129.628V77.2632C1281.78 74.9105 1280 73.0032 1277.81 73.0032Z" fill="#F5F5F5"/>
<path d="M1277.81 133.914C1278.71 133.802 1279.56 133.427 1280.27 132.829C1280.67 132.466 1281 132.017 1281.23 131.511C1281.46 131.005 1281.58 130.454 1281.6 129.892C1281.6 128.463 1281.6 126.876 1281.6 125.076C1281.6 117.72 1281.6 107.269 1281.41 94.3828C1281.41 91.1546 1281.41 87.7413 1281.41 84.2221V78.7978C1281.46 77.9115 1281.4 77.0218 1281.23 76.1518C1281 75.3664 1280.55 74.6803 1279.93 74.1938C1279.26 73.73 1278.48 73.4989 1277.68 73.5323H1257.71H1205.77C1205.28 73.5408 1204.8 73.6626 1204.35 73.8893C1203.91 74.1161 1203.52 74.4426 1203.2 74.8466C1202.88 75.2506 1202.65 75.7227 1202.52 76.231C1202.39 76.7392 1202.36 77.2717 1202.44 77.7923V85.0688C1202.44 89.8846 1202.44 94.6209 1202.44 99.2778C1202.44 108.618 1202.44 117.615 1202.44 126.161V129.363C1202.42 130.264 1202.7 131.143 1203.24 131.832C1203.78 132.521 1204.54 132.97 1205.38 133.094C1206.19 133.094 1207.25 133.094 1208.16 133.094H1219.16H1238.88L1267.48 133.332H1275.27H1277.29H1277.98C1277.75 133.371 1277.52 133.371 1277.29 133.332H1275.27L1267.48 133.464L1238.88 133.676H1219.16H1208.16C1207.18 133.676 1206.34 133.676 1205.23 133.676C1204.11 133.525 1203.09 132.936 1202.36 132.022C1201.62 131.108 1201.23 129.934 1201.26 128.728V125.526C1201.26 116.98 1201.26 107.983 1201.26 98.6428V77.1573C1201.19 76.4643 1201.25 75.7639 1201.44 75.0964C1201.63 74.4289 1201.93 73.8075 1202.34 73.2677C1202.78 72.7243 1203.32 72.2875 1203.93 71.9864C1204.54 71.6852 1205.2 71.5267 1205.87 71.5213H1257.81H1277.78C1278.79 71.4709 1279.79 71.7878 1280.62 72.4209C1281.46 73.0603 1282.07 73.9961 1282.34 75.0669C1282.53 76.0232 1282.59 77.0035 1282.52 77.9776V83.4019C1282.52 86.9211 1282.52 90.3344 1282.52 93.5625C1282.52 106.449 1282.37 116.9 1282.32 124.256C1282.32 126.02 1282.32 127.634 1282.32 129.098C1282.27 129.712 1282.11 130.309 1281.84 130.852C1281.57 131.394 1281.19 131.869 1280.74 132.247C1280.19 132.691 1279.55 132.982 1278.87 133.094C1278.59 133.465 1278.22 133.748 1277.81 133.914Z" fill="#263238"/>
<path d="M1201.65 124.097H1281.78V132.274C1281.78 132.485 1281.74 132.695 1281.66 132.891C1281.59 133.087 1281.48 133.265 1281.34 133.415C1281.2 133.565 1281.03 133.684 1280.85 133.765C1280.67 133.846 1280.47 133.888 1280.27 133.888H1203.16C1202.96 133.888 1202.76 133.846 1202.58 133.765C1202.4 133.684 1202.23 133.565 1202.09 133.415C1201.95 133.265 1201.84 133.087 1201.77 132.891C1201.69 132.695 1201.65 132.485 1201.65 132.274V124.097V124.097Z" fill="#263238"/>
<g opacity="0.6">
<path opacity="0.6" d="M1249.09 73.0032L1212.2 133.914H1232.89L1268.86 73.0032H1249.09Z" fill="white"/>
</g>
<path d="M1025.78 73.0032H955.76C952.969 73.0032 950.707 75.4317 950.707 78.4275V128.463C950.707 131.459 952.969 133.888 955.76 133.888H1025.78C1028.57 133.888 1030.83 131.459 1030.83 128.463V78.4275C1030.83 75.4317 1028.57 73.0032 1025.78 73.0032Z" fill="#F5F5F5"/>
<path d="M1025.78 133.914C1026.64 133.79 1027.48 133.494 1028.24 133.041C1029.16 132.419 1029.86 131.489 1030.24 130.395C1030.61 128.877 1030.72 127.298 1030.56 125.738C1030.56 118.435 1030.56 108.063 1030.36 95.2824C1030.36 92.0542 1030.36 88.6674 1030.36 85.1747C1030.36 83.4018 1030.36 81.629 1030.36 79.8827C1030.42 78.9975 1030.37 78.1083 1030.21 77.2367C1030.04 76.4123 1029.64 75.6596 1029.08 75.0669C1028.54 74.445 1027.85 73.9962 1027.08 73.7704C1026.27 73.5802 1025.44 73.5178 1024.62 73.5852H1007.26H955.687C954.684 73.5929 953.714 73.9625 952.931 74.6345C952.148 75.3065 951.599 76.2418 951.372 77.2895C951.254 78.4403 951.212 79.5987 951.249 80.7558V98.6428C951.249 107.904 951.249 116.847 951.249 125.341V128.516C951.247 129.453 951.495 130.372 951.964 131.162C952.437 131.934 953.099 132.55 953.878 132.942C954.657 133.335 955.522 133.488 956.377 133.385H967.299H987.021L1015.4 133.623H1023.14H1025.14H1025.83C1025.6 133.662 1025.36 133.662 1025.14 133.623H1023.14L1015.4 133.755L987.021 133.967H967.299H956.377C955.328 134.067 954.272 133.861 953.322 133.373C952.372 132.884 951.563 132.129 950.978 131.189C950.392 130.201 950.084 129.052 950.09 127.881C950.09 126.849 950.09 125.791 950.09 124.706C950.09 116.212 950.09 107.269 950.09 98.0077C950.09 93.3772 950.09 88.6674 950.09 83.9046V80.306C950.045 79.0426 950.095 77.7772 950.238 76.5222C950.536 75.1736 951.247 73.9712 952.258 73.1077C953.268 72.2442 954.519 71.7694 955.81 71.7594H1007.38H1024.52C1025.48 71.6977 1026.44 71.7778 1027.38 71.9975C1028.32 72.3112 1029.17 72.8757 1029.84 73.6381C1030.5 74.3811 1030.97 75.2921 1031.2 76.2841C1031.36 77.2347 1031.42 78.2029 1031.37 79.1682C1031.37 80.994 1031.37 82.7668 1031.37 84.4602C1031.37 87.953 1031.37 91.3399 1031.37 94.568C1031.37 107.348 1031.22 117.72 1031.18 125.023C1031.32 126.646 1031.16 128.284 1030.71 129.839C1030.25 130.955 1029.47 131.884 1028.49 132.485C1027.9 132.852 1027.24 133.069 1026.57 133.12C1026.36 133.444 1026.09 133.715 1025.78 133.914V133.914Z" fill="#263238"/>
<path d="M950.707 124.097H1030.83V131.109C1030.83 131.478 1030.76 131.842 1030.63 132.183C1030.5 132.523 1030.31 132.832 1030.06 133.093C1029.82 133.353 1029.53 133.56 1029.22 133.701C1028.9 133.842 1028.56 133.914 1028.22 133.914H953.32C952.977 133.914 952.637 133.842 952.32 133.701C952.003 133.56 951.715 133.353 951.472 133.093C951.229 132.832 951.037 132.523 950.905 132.183C950.774 131.842 950.707 131.478 950.707 131.109V124.097Z" fill="#263238"/>
<g opacity="0.6">
<path opacity="0.6" d="M998.14 73.0032L961.283 133.914H981.967L1017.91 73.0032H998.14Z" fill="white"/>
</g>
<path d="M564.167 60.0377H538.33V170.588H564.167V60.0377Z" fill="#388087"/>
<g opacity="0.2">
<path opacity="0.2" d="M564.167 60.0377H538.33V170.588H564.167V60.0377Z" fill="black"/>
</g>
</svg>
