<svg width="1941" height="417" viewBox="0 0 1941 417" fill="none" xmlns="http://www.w3.org/2000/svg">
<g filter="url(#filter0_d_176_1418)">
<path d="M504.989 327H412.807V409H504.989V327Z" fill="#76868D"/>
<path d="M1008.98 317H919.808V409H1008.98V317Z" fill="#76868D"/>
<path d="M1523 317H1432.82V409H1523V317Z" fill="#76868D"/>
<path d="M504.782 327.232C504.782 327.232 565.104 244.044 713.5 244.044C861.897 244.044 920.078 327.26 920.078 327.26H1009.84L1012.11 179.027H412.363V327.26L504.782 327.232Z" fill="#76868D"/>
<path d="M6.26821 327.232C6.26821 327.232 57.5597 244.044 205.849 244.044C354.139 244.044 412.363 327.26 412.363 327.26H504.376V179H4" fill="#76868D"/>
<path d="M1009.48 327.232C1009.48 327.232 1078.34 244.044 1226.22 244.044C1374.11 244.044 1432.95 327.26 1432.95 327.26H1524V179H917.211L919.971 327.232H1009.48Z" fill="#76868D"/>
<path d="M1524 208.298C1524 208.679 1184.97 209.005 766.824 209.005C348.682 209.005 9.6062 208.679 9.6062 208.298C9.6062 207.917 348.554 207.591 766.824 207.591C1185.1 207.591 1524 207.89 1524 208.298Z" fill="#263238"/>
<path d="M1009.33 396.384C1009.3 395.813 1009.3 395.241 1009.33 394.67C1009.33 393.473 1009.33 391.95 1009.33 389.991C1009.33 385.802 1009.2 380.007 1009.12 372.771L1009.48 373.234C996.042 373.397 975.906 373.478 953.438 373.478L953.994 372.771V378.783C953.994 380.796 953.994 382.809 953.994 384.768V396.384L953.459 395.676L993.41 396.003L1005.16 396.193H1008.37H1009.5C1009.17 396.233 1008.83 396.233 1008.5 396.193H1005.41L993.774 396.384L953.459 396.71H952.903V372.499L953.459 371.792C975.928 371.792 996.063 371.792 1009.5 372.037H1009.89V372.499C1009.89 379.844 1009.74 385.747 1009.69 389.991C1009.69 391.895 1009.69 393.419 1009.69 394.588C1009.63 395.204 1009.51 395.807 1009.33 396.384V396.384Z" fill="#263238"/>
<path d="M512.357 231.965C512.323 231.404 512.323 230.84 512.357 230.279C512.357 229.082 512.357 227.558 512.357 225.6C512.357 221.41 512.25 215.589 512.164 208.38L512.528 208.842C499.069 208.978 478.933 209.087 456.465 209.087L457.021 208.38V220.431C457.021 224.376 457.021 228.211 457.021 231.938L456.486 231.258L496.437 231.585L508.206 231.775H511.394H512.55C512.208 231.813 511.864 231.813 511.523 231.775H508.441L496.801 231.965L456.486 232.292H455.951V231.585C455.951 227.858 455.951 224.022 455.951 220.077V208.407L456.508 207.7C478.976 207.7 499.112 207.7 512.571 207.945H512.935V208.407C512.935 215.752 512.785 221.655 512.721 225.899C512.721 227.776 512.721 229.299 512.721 230.496C512.63 230.997 512.509 231.489 512.357 231.965V231.965Z" fill="#263238"/>
<g opacity="0.2">
<path opacity="0.2" d="M490.852 231.965H434.788V255.578H490.852V231.965Z" fill="black"/>
</g>
<path d="M1489.91 396.384C1489.86 395.814 1489.86 395.24 1489.91 394.67C1489.91 393.473 1489.91 391.95 1489.91 389.991C1489.91 385.802 1489.78 380.007 1489.7 372.771L1490.08 373.233C1476.62 373.397 1456.49 373.478 1434.02 373.478L1434.58 372.771V384.768C1434.58 388.712 1434.58 392.575 1434.58 396.302L1434.04 395.595L1473.99 395.921L1485.76 396.112H1488.95H1490.1C1489.76 396.15 1489.42 396.15 1489.08 396.112H1486L1474.36 396.302L1434.04 396.629H1433.51V396.384C1433.51 392.657 1433.51 388.794 1433.51 384.849V372.853L1434.06 372.145C1456.53 372.145 1476.67 372.145 1490.13 372.39H1490.25V372.853C1490.25 380.198 1490.1 386.101 1490.04 390.345C1490.04 392.249 1490.04 393.772 1490.04 394.942C1490.03 395.426 1489.98 395.908 1489.91 396.384V396.384Z" fill="#263238"/>
<path d="M1055.02 241.922C1055.02 241.922 1055.02 241.296 1055.02 240.235C1055.02 239.174 1055.02 237.515 1055.02 235.529C1055.02 231.367 1055.02 225.545 1054.82 218.309L1055.19 218.772C1041.75 218.935 1021.59 219.017 999.124 219.017L999.68 218.309V230.442C999.68 234.386 999.68 238.249 999.68 241.976L999.145 241.296L1039.1 241.595L1050.86 241.813H1054.05H1055.21C1054.87 241.853 1054.52 241.853 1054.18 241.813H1051.12L1039.48 242.003L999.145 242.33H998.61V241.65C998.61 237.923 998.61 234.06 998.61 230.116V218.092C999.723 216.677 998.931 217.711 999.166 217.384C1021.63 217.384 1041.79 217.384 1055.23 217.629H1055.59V218.092C1055.59 225.437 1055.44 231.34 1055.4 235.583C1055.4 237.488 1055.4 239.011 1055.4 240.181C1055.31 240.773 1055.18 241.355 1055.02 241.922Z" fill="#263238"/>
<path d="M451.586 380.905C451.552 380.325 451.552 379.744 451.586 379.164C451.586 377.913 451.586 376.444 451.479 374.431C451.479 370.187 451.351 364.392 451.265 357.32L451.671 357.836L412.834 358.027L413.39 357.32V369.452C413.39 373.397 413.39 377.232 413.39 380.878L412.855 380.225C424.068 380.225 433.697 380.415 440.673 380.551L448.783 380.715C449.783 380.704 450.783 380.759 451.778 380.878C450.862 381.01 449.94 381.074 449.018 381.068L441.037 381.231C434.168 381.367 424.367 381.503 412.941 381.558H412.406V380.878C412.406 377.232 412.406 373.397 412.406 369.452V357.32L412.962 356.612L451.8 356.803H452.228V357.32C452.228 364.501 452.057 370.404 452.014 374.73C452.014 376.607 452.014 378.157 451.907 379.382C451.844 379.903 451.736 380.414 451.586 380.905V380.905Z" fill="#263238"/>
<path d="M906.213 232.7C906.213 232.7 906.213 232.074 906.213 230.959C906.213 229.843 906.213 228.238 906.213 226.198C906.213 221.954 906.063 216.16 905.977 209.114L906.384 209.631L867.546 209.822L868.102 209.114V221.247C868.102 225.192 868.102 229.027 868.102 232.673L867.567 232.02C878.78 232.02 888.409 232.21 895.385 232.319L903.495 232.509C904.495 232.499 905.495 232.554 906.491 232.673C905.574 232.802 904.652 232.857 903.73 232.836L895.385 233.162C888.516 233.298 878.737 233.434 867.289 233.489H866.776V232.809C866.776 229.163 866.776 225.328 866.776 221.383C866.776 219.425 866.776 217.411 866.776 215.371V209.25L867.332 208.543L906.17 208.706H906.598V209.223C906.491 216.405 906.427 222.308 906.362 226.633C906.362 228.51 906.362 230.061 906.362 231.285C906.362 231.763 906.311 232.239 906.213 232.7Z" fill="#263238"/>
<path d="M85.3131 232.373C85.2651 231.813 85.2651 231.247 85.3131 230.687C85.3131 229.463 85.3131 227.966 85.3131 225.953C85.3131 221.737 85.2061 215.942 85.1205 208.788L85.5056 209.278L35.6906 209.495C35.1771 210.121 36.354 208.625 36.247 208.788V232.346L35.712 231.666L71.233 231.993L81.654 232.183H84.4999H85.527C85.2288 232.233 84.9266 232.233 84.6283 232.183H81.9107L71.5968 232.373L35.4981 233.162H34.9631V208.897C34.8347 208.897 36.0116 207.537 35.5195 208.189L85.3344 208.407H85.7196V208.679C85.7196 215.942 85.5698 221.873 85.527 226.144C85.527 228.021 85.527 229.544 85.527 230.741C85.493 231.292 85.4214 231.838 85.3131 232.373V232.373Z" fill="#263238"/>
<path d="M1498.22 372.662C1498.22 372.662 1498.22 372.01 1498.22 370.921C1498.22 369.833 1498.22 368.065 1498.22 366.133C1498.22 361.862 1498.09 356.095 1498 349.05L1498.41 349.594L1464.34 349.757L1464.9 349.05V355.17C1464.9 357.211 1464.9 359.224 1464.9 361.21C1464.9 365.154 1464.9 368.963 1464.9 372.608L1464.38 371.955C1474.25 371.955 1482.68 372.145 1488.74 372.254L1495.82 372.445C1496.7 372.435 1497.58 372.49 1498.45 372.608C1497.66 372.738 1496.85 372.793 1496.05 372.771L1489.08 372.962C1483.07 372.962 1474.46 373.234 1464.38 373.261H1463.85V372.608C1463.85 368.963 1463.85 365.154 1463.85 361.21V349.05L1464.41 348.342L1498.47 348.505H1498.9V349.022C1498.9 356.204 1498.73 362.107 1498.69 366.433C1498.69 368.31 1498.69 369.86 1498.58 371.085C1498.51 371.629 1498.39 372.159 1498.22 372.662V372.662Z" fill="#263238"/>
</g>
<g filter="url(#filter1_d_176_1418)">
<path d="M430.903 178.36C425.726 178.38 420.75 176.105 417.048 172.026C413.695 168.359 410.367 163.969 410.761 161.469C413.546 149.468 417.105 137.713 421.412 126.297C426.17 113.851 451.785 61.7048 460.857 53.787C464.723 50.7945 469.018 48.5764 473.553 47.2305C481.029 44.7484 488.787 43.5129 496.58 43.5633H753.862C755.779 47.5374 757.364 51.7042 758.595 56.0095C758.99 59.1211 758.793 165.47 758.793 165.47V178.36H430.903Z" fill="#E0E0E0"/>
<path d="M471.039 67.0944L437.264 132.743C436.613 134.051 436.282 135.53 436.305 137.029C436.327 138.528 436.702 139.993 437.392 141.276C438.081 142.558 439.06 143.612 440.228 144.328C441.397 145.045 442.714 145.4 444.044 145.356H758.793V58.871L484.993 58.2042C482.18 58.1807 479.411 58.9893 476.962 60.5493C474.514 62.1094 472.471 64.3663 471.039 67.0944V67.0944Z" fill="#388087"/>
<path d="M565.855 178.083H497.763V79.2351C497.763 77.8252 498.258 76.4726 499.14 75.4731C500.023 74.4735 501.22 73.9083 502.471 73.901H561.146C562.398 73.9083 563.595 74.4735 564.478 75.4731C565.36 76.4726 565.855 77.8252 565.855 79.2351V178.083Z" fill="#388087"/>
<path d="M565.855 178.083C565.837 177.759 565.837 177.434 565.855 177.11C565.855 176.416 565.855 175.499 565.855 174.332C565.855 171.832 565.855 168.303 565.855 163.831C565.855 154.69 565.732 141.605 565.633 125.547C565.633 117.491 565.633 108.684 565.633 99.2102C565.633 94.4873 565.633 89.5977 565.633 84.5414V80.7353C565.743 79.5475 565.599 78.3474 565.214 77.2348C564.777 76.1869 564.014 75.3564 563.07 74.9011C562.593 74.6788 562.082 74.5655 561.566 74.5677H559.815H530.059H506.268C504.962 74.5677 503.482 74.5677 502.299 74.5677C501.715 74.6545 501.154 74.8833 500.656 75.2383C500.158 75.5933 499.735 76.0659 499.415 76.6236C498.914 77.5178 498.68 78.5694 498.749 79.624V103.961C498.749 113.045 498.749 121.88 498.749 130.465C498.749 147.578 498.749 163.553 498.749 177.971L498.207 177.36L547.513 177.666L561.319 177.833H564.968H566.274C565.88 177.858 565.485 177.858 565.091 177.833H561.541L547.858 177.999L498.182 178.305H497.664V177.721C497.664 163.303 497.664 147.328 497.664 130.215C497.664 121.639 497.664 112.805 497.664 103.711V79.374C497.6 78.0445 497.901 76.7251 498.527 75.5957C498.945 74.8517 499.501 74.2184 500.156 73.7389C500.811 73.2594 501.551 72.9451 502.324 72.8175C503.852 72.8175 505.085 72.8175 506.465 72.8175H561.788C562.448 72.8254 563.101 72.9763 563.71 73.262C564.926 73.8476 565.908 74.9151 566.472 76.2624C566.918 77.5614 567.087 78.9603 566.965 80.3464V84.1802C566.965 89.2643 566.965 94.2094 566.965 98.9879C566.965 108.517 566.965 117.379 566.965 125.492C566.965 141.577 566.792 154.635 566.743 163.775C566.743 168.192 566.743 171.637 566.743 174.11C566.743 175.221 566.743 176.082 566.743 176.749C566.743 177.416 565.855 178.083 565.855 178.083Z" fill="#263238"/>
<path d="M526.755 76.7069H502.595C501.369 76.7069 500.376 77.8264 500.376 79.2073V138.132C500.376 139.513 501.369 140.633 502.595 140.633H526.755C527.98 140.633 528.974 139.513 528.974 138.132V79.2073C528.974 77.8264 527.98 76.7069 526.755 76.7069Z" fill="#F5F5F5"/>
<path d="M526.755 140.716H502.57C501.969 140.716 501.392 140.447 500.967 139.967C500.541 139.488 500.302 138.838 500.302 138.16V79.2072C500.302 78.5294 500.541 77.8792 500.967 77.3999C501.392 76.9206 501.969 76.6513 502.57 76.6513H526.755C527.357 76.6513 527.934 76.9206 528.359 77.3999C528.784 77.8792 529.023 78.5294 529.023 79.2072V138.16C529.023 138.838 528.784 139.488 528.359 139.967C527.934 140.447 527.357 140.716 526.755 140.716V140.716ZM502.57 76.818C502.002 76.818 501.456 77.0727 501.054 77.5259C500.651 77.9792 500.425 78.594 500.425 79.235V138.188C500.425 138.829 500.651 139.444 501.054 139.897C501.456 140.35 502.002 140.605 502.57 140.605H526.755C527.324 140.605 527.87 140.35 528.272 139.897C528.674 139.444 528.9 138.829 528.9 138.188V79.2072C528.9 78.5662 528.674 77.9514 528.272 77.4981C527.87 77.0448 527.324 76.7902 526.755 76.7902L502.57 76.818Z" fill="#263238"/>
<path d="M559.643 76.7069H537.307C535.578 76.7069 534.176 78.2866 534.176 80.2352V137.104C534.176 139.053 535.578 140.633 537.307 140.633H559.643C561.372 140.633 562.774 139.053 562.774 137.104V80.2352C562.774 78.2866 561.372 76.7069 559.643 76.7069Z" fill="#F5F5F5"/>
<path d="M559.643 140.716H537.307C536.461 140.716 535.65 140.339 535.049 139.668C534.449 138.997 534.109 138.085 534.102 137.132V80.2351C534.109 79.2821 534.449 78.3706 535.049 77.6993C535.65 77.028 536.461 76.6513 537.307 76.6513H559.643C560.489 76.6513 561.3 77.028 561.9 77.6993C562.501 78.3706 562.841 79.2821 562.848 80.2351V137.132C562.841 138.085 562.501 138.997 561.9 139.668C561.3 140.339 560.489 140.716 559.643 140.716V140.716ZM537.307 76.818C536.903 76.8143 536.503 76.9007 536.13 77.0722C535.756 77.2437 535.416 77.4969 535.129 77.8171C534.843 78.1374 534.616 78.5184 534.46 78.9382C534.305 79.3579 534.225 79.8082 534.225 80.2629V137.16C534.232 138.076 534.559 138.952 535.137 139.598C535.714 140.243 536.494 140.605 537.307 140.605H559.643C560.456 140.605 561.236 140.243 561.813 139.598C562.391 138.952 562.718 138.076 562.725 137.16V80.2351C562.725 79.7804 562.645 79.3301 562.49 78.9104C562.334 78.4906 562.107 78.1096 561.82 77.7894C561.534 77.4691 561.194 77.2159 560.82 77.0444C560.447 76.8729 560.046 76.7866 559.643 76.7902L537.307 76.818Z" fill="#263238"/>
<path d="M531.809 177.944C531.464 177.944 531.168 154.69 531.168 125.992C531.168 97.2931 531.464 74.0398 531.809 74.0398C532.154 74.0398 532.45 97.2931 532.45 125.992C532.45 154.69 532.154 177.944 531.809 177.944Z" fill="#263238"/>
<path d="M528.974 130.354H500.376V140.633H528.974V130.354Z" fill="#263238"/>
<path d="M562.774 130.354H534.176V140.633H562.774V130.354Z" fill="#263238"/>
<path d="M469.066 70.9283H758.792V58.871L485.412 58.232C480.782 58.3517 476.369 60.4699 473.085 64.1495L469.066 70.9283Z" fill="#DC532D"/>
<path d="M454.003 62.5105C454.003 62.5105 456.469 64.0384 454.866 67.8167C453.56 71.0116 438.398 95.4041 431.174 112.018C423.951 128.631 419.834 140.633 419.834 140.633H416.481C416.481 140.633 420.894 127.714 423.458 121.408C426.318 114.379 434.774 96.8765 442.761 81.9299L454.003 62.5105Z" fill="#EBEBEB"/>
<path d="M758.792 158.913C758.792 159.302 682.613 159.636 588.684 159.636C494.755 159.636 418.576 159.302 418.576 158.913C418.576 158.524 494.706 158.191 588.684 158.191C682.663 158.191 758.792 158.496 758.792 158.913Z" fill="#263238"/>
<path d="M758.793 178.361L430.903 179.166C427.069 178.599 423.396 177.075 420.15 174.705C416.905 172.336 414.169 169.181 412.142 165.47H758.793V178.361Z" fill="#DC532D"/>
<path d="M491.402 43.73C490.924 43.9559 490.429 44.1326 489.923 44.2578C488.937 44.5634 487.458 45.0357 485.683 45.758C480.526 47.7319 475.651 50.5394 471.211 54.0926C469.748 55.2519 468.371 56.5434 467.094 57.9543C465.76 59.5398 464.516 61.2193 463.371 62.9828C460.906 66.6499 458.441 70.7061 455.975 75.04C451.045 83.7357 445.843 93.4593 440.592 103.766C435.341 114.073 431.199 124.464 427.452 133.854C423.989 142.092 421.168 150.653 419.02 159.441C418.851 160.359 418.727 161.286 418.65 162.219C418.601 162.643 418.601 163.073 418.65 163.497C418.645 163.913 418.704 164.326 418.823 164.72C419.322 166.215 420.066 167.591 421.017 168.776C422.556 170.798 424.256 172.658 426.096 174.332C427.575 175.693 428.807 176.693 429.621 177.36C430.051 177.692 430.463 178.054 430.854 178.444C430.36 178.243 429.895 177.962 429.473 177.61C428.61 176.999 427.328 176.082 425.775 174.832C423.862 173.248 422.087 171.462 420.475 169.498C419.42 168.239 418.584 166.769 418.009 165.164C417.872 164.717 417.797 164.248 417.787 163.775C417.738 163.286 417.738 162.792 417.787 162.303C417.787 161.386 417.935 160.386 418.133 159.524C420.164 150.617 422.921 141.94 426.367 133.604C430.065 124.13 434.379 113.851 439.482 103.35C444.586 92.8481 449.985 83.2912 454.989 74.5955C457.455 70.2616 459.92 66.261 462.385 62.5382C463.586 60.7425 464.887 59.0351 466.281 57.4264C467.611 56.0075 469.037 54.707 470.546 53.5369C475.076 50.0041 480.066 47.2861 485.338 45.4802C486.762 44.9666 488.211 44.54 489.677 44.2023C490.224 43.9366 490.808 43.7769 491.402 43.73V43.73Z" fill="#263238"/>
<path d="M416.481 140.633C417.509 140.459 418.483 140.001 419.316 139.299C420.215 138.383 420.864 137.198 421.19 135.882L423.162 130.742C424.666 126.825 426.441 122.408 428.364 117.352C430.449 111.85 432.845 106.505 435.538 101.349C441.208 90.2366 446.903 80.8186 450.996 73.9287L453.732 69.2614C454.479 68.1891 454.963 66.9152 455.137 65.5664C455.199 64.7203 454.98 63.8785 454.521 63.205C454.201 62.7327 453.954 62.5382 454.003 62.5104C454.053 62.4827 454.299 62.5104 454.718 63.0105C455.014 63.3467 455.246 63.746 455.403 64.1849C455.56 64.6237 455.637 65.0934 455.63 65.5664C455.545 67.0434 455.102 68.4656 454.348 69.6781C453.609 71.1228 452.721 72.7063 451.883 74.4844C447.963 81.5132 442.392 91.1534 436.771 102.072C434.101 107.198 431.697 112.495 429.572 117.935L424.123 131.131C423.335 132.983 422.62 134.678 421.979 136.215C421.698 136.932 421.377 137.628 421.017 138.299C420.66 138.854 420.228 139.342 419.735 139.744C419.059 140.288 418.269 140.623 417.442 140.716C416.777 140.772 416.481 140.688 416.481 140.633Z" fill="#263238"/>
<path d="M471.039 67.0944C471.249 66.6168 471.496 66.1612 471.778 65.7331C472.538 64.4177 473.46 63.2299 474.515 62.2049C476.308 60.5476 478.391 59.3358 480.629 58.6488C483.722 57.9799 486.878 57.7559 490.022 57.982H550.768L758.694 58.232H759.31V58.9266C759.31 86.7084 759.31 115.685 759.31 145.411V146.134H743.483L472.912 145.911H448.259C446.317 145.989 444.373 145.915 442.441 145.689C440.48 145.289 438.723 144.081 437.51 142.3C436.336 140.582 435.773 138.432 435.932 136.271C436.197 134.262 436.89 132.355 437.954 130.715L455.729 96.3764C460.66 87.014 464.432 79.7074 467.02 74.7344L469.979 69.1781L471.039 67.2889C471.039 67.2889 470.743 67.9834 470.102 69.2614C469.461 70.5394 468.499 72.4841 467.242 74.9567L456.173 96.7654C451.242 106.211 445.424 117.768 438.57 131.215C437.574 132.758 436.923 134.55 436.672 136.438C436.512 138.427 437.023 140.41 438.102 141.994C439.204 143.585 440.781 144.67 442.539 145.05C444.424 145.247 446.318 145.303 448.21 145.217H472.863L743.433 144.995H758.743L758.102 145.717V58.871L758.718 59.5656L550.94 58.8155L490.194 58.4821C487.081 58.2139 483.949 58.3913 480.875 59.0099C478.676 59.6571 476.619 60.8112 474.835 62.3993C473.361 63.7323 472.08 65.3164 471.039 67.0944V67.0944Z" fill="#263238"/>
<g opacity="0.3">
<path opacity="0.3" d="M479.224 70.9283V119.935L497.763 129.881V145.272H444.043C442.133 145.321 440.276 144.565 438.835 143.152C437.394 141.739 436.473 139.771 436.253 137.632V137.632C436.145 136.237 436.375 134.836 436.918 133.576L468.968 70.845L479.224 70.9283Z" fill="black"/>
</g>
<g opacity="0.6">
<path opacity="0.6" d="M503.482 140.661H524.167L528.974 132.104V96.4597L503.482 140.661Z" fill="white"/>
</g>
<g opacity="0.6">
<path opacity="0.6" d="M540.339 76.7069L534.176 87.4306V122.88L560.111 76.7069H540.339Z" fill="white"/>
</g>
<path d="M647.754 76.7069H578.133C575.233 76.7069 572.882 79.3563 572.882 82.6244V134.715C572.882 137.983 575.233 140.633 578.133 140.633H647.754C650.654 140.633 653.005 137.983 653.005 134.715V82.6244C653.005 79.3563 650.654 76.7069 647.754 76.7069Z" fill="#F5F5F5"/>
<path d="M647.754 140.633C648.62 140.522 649.458 140.22 650.219 139.744C651.141 139.148 651.868 138.232 652.29 137.132C652.761 135.58 652.905 133.924 652.709 132.298C652.709 124.63 652.709 113.74 652.512 100.321C652.512 96.9599 652.512 93.4315 652.512 89.7366V84.1802C652.557 83.2508 652.508 82.3187 652.364 81.402C652.167 80.5348 651.786 79.7342 651.255 79.0684C650.703 78.4249 650.028 77.931 649.283 77.6237C648.48 77.3755 647.647 77.2816 646.817 77.3459H629.708H578.207C577.201 77.3516 576.224 77.7261 575.423 78.4127C574.623 79.0993 574.042 80.0608 573.769 81.152C573.57 82.3325 573.512 83.5379 573.597 84.7359V88.5142C573.597 93.5149 573.597 98.46 573.597 103.322C573.597 113.018 573.597 122.38 573.597 131.298V134.632C573.59 135.613 573.829 136.576 574.287 137.41C574.734 138.234 575.372 138.905 576.132 139.35C576.893 139.796 577.746 139.999 578.601 139.938H589.523H609.098L637.474 140.16H645.19H647.187H647.877H647.187H645.19L637.474 140.299L609.098 140.522H589.523H578.601C577.554 140.589 576.51 140.338 575.578 139.795C574.645 139.253 573.859 138.439 573.301 137.438C572.715 136.401 572.407 135.195 572.413 133.965V131.381C572.413 122.463 572.413 113.101 572.413 103.405V84.8192C572.333 83.4897 572.407 82.154 572.635 80.8464C572.983 79.4519 573.725 78.2231 574.748 77.3459C575.771 76.4687 577.02 75.9908 578.306 75.9846H629.806H646.916C647.881 75.9025 648.851 76.025 649.776 76.3458C650.72 76.6886 651.569 77.3012 652.241 78.1238C652.886 78.9084 653.344 79.8641 653.572 80.902C653.74 81.8902 653.79 82.8993 653.72 83.9024C653.72 85.8194 653.72 87.7085 653.72 89.4588C653.72 93.1537 653.72 96.682 653.72 100.044C653.72 113.462 653.548 124.353 653.523 132.02C653.658 133.725 653.456 135.443 652.931 137.049C652.459 138.225 651.664 139.199 650.663 139.827C650.06 140.19 649.397 140.407 648.716 140.466C648.414 140.619 648.082 140.676 647.754 140.633V140.633Z" fill="#263238"/>
<path d="M572.882 130.354H653.005V137.493C653.005 138.326 652.711 139.125 652.189 139.713C651.667 140.302 650.958 140.633 650.219 140.633H575.593C574.855 140.633 574.146 140.302 573.624 139.713C573.101 139.125 572.808 138.326 572.808 137.493V130.354H572.882Z" fill="#263238"/>
<g opacity="0.6">
<path opacity="0.6" d="M620.29 76.7069L583.433 140.661H604.117L640.086 76.7069H620.29Z" fill="white"/>
</g>
<path d="M734.262 76.7069H665.134C662.098 76.7069 659.637 79.4807 659.637 82.9023V134.437C659.637 137.859 662.098 140.633 665.134 140.633H734.262C737.299 140.633 739.76 137.859 739.76 134.437V82.9023C739.76 79.4807 737.299 76.7069 734.262 76.7069Z" fill="#F5F5F5"/>
<path d="M734.262 140.633C735.124 140.539 735.962 140.256 736.727 139.799C737.649 139.205 738.401 138.329 738.897 137.271C739.198 136.604 739.383 135.878 739.439 135.132C739.439 134.326 739.439 133.41 739.439 132.354C739.439 124.686 739.316 113.823 739.217 100.433C739.217 97.071 739.217 93.5427 739.217 89.8755C739.217 88.0141 739.217 86.1527 739.217 84.3191C739.26 83.3897 739.21 82.4579 739.07 81.5409C738.886 80.6789 738.523 79.8788 738.009 79.2073C737.471 78.5079 736.791 77.964 736.028 77.6208C735.264 77.2777 734.439 77.1453 733.621 77.2348H716.561H665.134C664.125 77.2409 663.142 77.5959 662.318 78.2517C661.493 78.9075 660.867 79.8325 660.524 80.902C660.264 82.0537 660.173 83.2454 660.253 84.4303V102.988C660.253 112.684 660.253 122.019 660.253 130.937V134.243C660.261 135.218 660.49 136.174 660.918 137.021C661.347 137.857 661.96 138.553 662.7 139.04C663.439 139.527 664.278 139.789 665.134 139.799H676.031H695.581L723.883 140.022H731.6H733.596H734.287H733.596H731.6L723.883 140.161L695.581 140.383H676.031H665.134C664.083 140.376 663.052 140.063 662.141 139.474C661.229 138.884 660.468 138.04 659.932 137.021C659.372 135.974 659.082 134.771 659.094 133.548C659.094 132.465 659.094 131.354 659.094 130.242C659.094 121.324 659.094 111.99 659.094 102.294C659.094 97.4321 659.094 92.5148 659.094 87.5141V81.8188C659.102 81.1095 659.211 80.4062 659.415 79.7351C659.842 78.3802 660.63 77.2071 661.671 76.3766C662.713 75.546 663.957 75.0986 665.233 75.0956H716.66H733.72C734.694 75.011 735.673 75.1857 736.576 75.6055C737.48 76.0254 738.283 76.6786 738.922 77.5126C739.535 78.3093 739.967 79.2631 740.179 80.2908C740.343 81.2795 740.401 82.2869 740.352 83.2912C740.352 85.2082 740.352 87.0695 740.352 88.8476C740.352 92.5148 740.352 96.0431 740.352 99.4046C740.352 112.795 740.204 123.658 740.154 131.326C740.154 132.271 740.154 133.132 740.154 134.104C740.036 135.131 739.698 136.109 739.17 136.956C738.642 137.803 737.939 138.493 737.122 138.966C736.514 139.311 735.853 139.519 735.174 139.577C734.996 140.044 734.672 140.42 734.262 140.633V140.633Z" fill="#263238"/>
<path d="M659.637 130.354H739.76V137.216C739.76 138.129 739.438 139.006 738.865 139.652C738.291 140.298 737.514 140.661 736.703 140.661H662.743C661.932 140.661 661.155 140.298 660.581 139.652C660.008 139.006 659.686 138.129 659.686 137.216V130.354H659.637Z" fill="#263238"/>
<g opacity="0.6">
<path opacity="0.6" d="M707.07 76.7069L670.213 140.661H690.897L726.842 76.7069H707.07Z" fill="white"/>
</g>
<path d="M1156.55 56.1761H1130.71V172.248H1156.55V56.1761Z" fill="#388087"/>
<g opacity="0.2">
<path opacity="0.2" d="M1156.55 56.1761H1130.71V172.248H1156.55V56.1761Z" fill="black"/>
</g>
<path d="M1129.31 179.111L766.879 178.333V56.1761L772.549 43.5076L1123.17 41.7574L1129.31 52.12V179.111Z" fill="#E0E0E0"/>
<path d="M1129.6 58.1764H766.879V145.356H1129.6V58.1764Z" fill="#388087"/>
<path d="M941.178 178.055H873.085V79.0961C873.092 77.7157 873.583 76.3944 874.452 75.4209C875.32 74.4474 876.495 73.9009 877.72 73.901H936.543C937.768 73.9009 938.943 74.4474 939.812 75.4209C940.68 76.3944 941.171 77.7157 941.178 79.0961V178.055Z" fill="#388087"/>
<path d="M941.178 178.055C941.144 177.732 941.144 177.406 941.178 177.083C941.178 176.388 941.178 175.471 941.178 174.304C941.178 171.804 941.178 168.304 941.178 163.803C941.178 154.663 941.03 141.577 940.956 125.52C940.956 117.463 940.956 108.628 940.833 99.1824C940.833 94.4317 940.833 89.5421 940.833 84.5136V80.7075C940.94 79.5129 940.805 78.3064 940.438 77.1792C940.001 76.1314 939.238 75.3009 938.293 74.8455C937.812 74.6453 937.303 74.5419 936.79 74.5399H881.295C879.988 74.5399 878.534 74.5399 877.301 74.5399C876.716 74.6142 876.154 74.8349 875.655 75.1858C875.156 75.5367 874.733 76.009 874.417 76.568C873.924 77.4655 873.7 78.5169 873.776 79.5685V103.905C873.776 112.99 873.776 121.852 873.776 130.409C873.776 147.551 873.776 163.525 873.776 177.944L873.258 177.36L922.565 177.666L936.37 177.805H940.019C940.454 177.765 940.891 177.765 941.326 177.805C940.932 177.848 940.536 177.848 940.142 177.805H936.592H922.885L873.233 178.111H872.715V177.527C872.715 163.108 872.715 147.134 872.715 129.992C872.715 121.436 872.715 112.573 872.715 103.489V79.1517C872.639 77.8247 872.932 76.5039 873.554 75.3734C873.966 74.6185 874.524 73.9772 875.185 73.4965C875.846 73.0158 876.595 72.7079 877.375 72.5952C878.879 72.5952 880.136 72.5952 881.517 72.5952H905.307H935.064H936.839C937.508 72.5929 938.171 72.7441 938.786 73.0397C940.005 73.605 940.991 74.6661 941.548 76.0124C941.972 77.3174 942.132 78.7127 942.016 80.0963V83.958C942.016 89.042 942.016 93.9594 942.016 98.7379C942.016 108.267 942.016 117.157 942.016 125.27C942.016 141.355 941.843 154.413 941.794 163.553C941.794 167.97 941.794 171.443 941.671 173.888C941.671 174.999 941.671 175.86 941.671 176.666C941.671 177.472 941.178 178.083 941.178 178.055Z" fill="#263238"/>
<path d="M900.599 76.6791H879.397C877.354 76.6791 875.699 78.5449 875.699 80.8464V136.438C875.699 138.739 877.354 140.605 879.397 140.605H900.599C902.641 140.605 904.297 138.739 904.297 136.438V80.8464C904.297 78.5449 902.641 76.6791 900.599 76.6791Z" fill="#F5F5F5"/>
<path d="M935.335 76.6791H912.259C910.734 76.6791 909.498 78.0722 909.498 79.7907V137.493C909.498 139.212 910.734 140.605 912.259 140.605H935.335C936.86 140.605 938.096 139.212 938.096 137.493V79.7907C938.096 78.0722 936.86 76.6791 935.335 76.6791Z" fill="#F5F5F5"/>
<path d="M907.131 177.916C906.786 177.916 906.49 154.663 906.49 125.964C906.49 97.2653 906.786 74.0398 907.131 74.0398C907.476 74.0398 907.772 97.2931 907.772 125.964C907.772 154.635 907.476 177.916 907.131 177.916Z" fill="#263238"/>
<path d="M904.297 130.326H875.699V140.605H904.297V130.326Z" fill="#263238"/>
<path d="M938.096 130.326H909.498V140.605H938.096V130.326Z" fill="#263238"/>
<path d="M766.879 58.232V70.9006H1129.6V58.8432L766.879 58.232Z" fill="#DC532D"/>
<path d="M1129.6 158.885C1129.6 159.274 1048.4 159.608 948.253 159.608C848.112 159.608 766.879 159.274 766.879 158.885C766.879 158.496 848.062 158.163 948.253 158.163C1048.44 158.163 1129.6 158.469 1129.6 158.885Z" fill="#263238"/>
<path d="M1129.31 179.166L766.903 178.333V166.275H1129.31V179.166Z" fill="#DC532D"/>
<g opacity="0.6">
<g opacity="0.5">
<path opacity="0.5" d="M878.805 140.633H899.489L904.296 132.104V96.4319L878.805 140.633Z" fill="white"/>
</g>
<g opacity="0.5">
<path opacity="0.5" d="M915.661 76.6791L909.498 87.4307V122.852L935.433 76.6791H915.661Z" fill="white"/>
</g>
</g>
<path d="M1023.82 76.6791H952.716C950.224 76.6791 948.204 78.9553 948.204 81.7632V135.521C948.204 138.329 950.224 140.605 952.716 140.605H1023.82C1026.31 140.605 1028.33 138.329 1028.33 135.521V81.7632C1028.33 78.9553 1026.31 76.6791 1023.82 76.6791Z" fill="#F5F5F5"/>
<path d="M1023.82 140.633C1024.7 140.51 1025.54 140.159 1026.28 139.605C1027.13 138.941 1027.73 137.954 1027.98 136.827C1028.1 135.172 1028.1 133.509 1027.98 131.854C1027.98 124.158 1027.98 113.212 1027.78 99.738C1027.78 96.3486 1027.78 92.7925 1027.78 89.0975C1027.78 87.2362 1027.78 85.347 1027.78 83.5412C1027.84 82.6118 1027.79 81.6778 1027.64 80.763C1027.44 79.906 1027.01 79.1369 1026.42 78.5568C1025.83 77.9767 1025.09 77.6126 1024.31 77.5125C1023.54 77.5125 1022.53 77.5125 1021.65 77.5125H1004.39H952.617C951.627 77.5244 950.678 77.9577 949.96 78.7255C949.242 79.4934 948.809 80.5388 948.746 81.652V89.2365C948.746 94.265 948.746 99.2379 948.746 104.1C948.746 113.851 948.746 123.269 948.746 132.243C948.746 133.354 948.746 134.465 948.746 135.577C948.723 136.572 948.992 137.549 949.511 138.355C950.018 139.123 950.724 139.696 951.532 139.994C952.408 140.19 953.304 140.256 954.195 140.188H965.116H984.839L1013.34 140.438H1021.08H1023.1H1023.79C1023.56 140.479 1023.33 140.479 1023.1 140.438H1021.08L1013.34 140.577L984.839 140.799H965.116H954.145H952.79C952.256 140.796 951.725 140.712 951.212 140.549C950.167 140.183 949.252 139.454 948.598 138.466C947.955 137.453 947.61 136.238 947.612 134.993V131.659C947.612 122.686 947.612 113.268 947.612 103.516V81.3742C947.676 79.8803 948.245 78.4708 949.204 77.4368C950.163 76.4028 951.438 75.8233 952.765 75.8178H1004.54H1021.79C1022.76 75.8178 1023.54 75.8178 1024.58 75.8178C1025.56 75.9707 1026.49 76.4437 1027.24 77.179C1027.98 77.9143 1028.53 78.8799 1028.8 79.9573C1028.97 80.9632 1029.03 81.9905 1028.97 83.0133C1028.97 84.9303 1028.97 86.8194 1028.97 88.5697C1028.97 92.2647 1028.97 95.8207 1028.97 99.2101C1028.97 112.684 1028.8 123.63 1028.75 131.326C1028.8 133.024 1028.73 134.724 1028.55 136.41C1028.26 137.649 1027.57 138.725 1026.63 139.438C1026.05 139.859 1025.39 140.125 1024.7 140.216C1024.43 140.419 1024.13 140.561 1023.82 140.633V140.633Z" fill="#263238"/>
<path d="M948.204 130.326H1028.33V138.299C1028.33 138.911 1028.11 139.497 1027.73 139.93C1027.34 140.362 1026.82 140.605 1026.28 140.605H950.324C949.782 140.605 949.261 140.362 948.877 139.93C948.494 139.497 948.278 138.911 948.278 138.299V130.326H948.204Z" fill="#263238"/>
<g opacity="0.6">
<path opacity="0.6" d="M995.613 76.6791L958.756 140.633H979.44L1015.38 76.6791H995.613Z" fill="white"/>
</g>
<path d="M1111.26 76.6791H1038.78C1036.67 76.6791 1034.96 78.6071 1034.96 80.9853V136.299C1034.96 138.677 1036.67 140.605 1038.78 140.605H1111.26C1113.37 140.605 1115.08 138.677 1115.08 136.299V80.9853C1115.08 78.6071 1113.37 76.6791 1111.26 76.6791Z" fill="#F5F5F5"/>
<path d="M1111.26 140.633C1112.17 140.52 1113.02 140.115 1113.73 139.466C1114.12 139.073 1114.43 138.589 1114.65 138.047C1114.86 137.505 1114.97 136.919 1114.96 136.327C1114.96 134.826 1114.96 133.132 1114.96 131.243C1114.96 123.519 1114.84 112.545 1114.74 98.9879C1114.74 95.5985 1114.74 92.0147 1114.74 88.3197C1114.74 86.4583 1114.74 84.5414 1114.74 82.6245C1114.8 81.6951 1114.75 80.7608 1114.59 79.8463C1114.35 79.0296 1113.87 78.3265 1113.23 77.846C1112.55 77.3698 1111.74 77.1554 1110.94 77.2348H1090.85H1038.85C1038.38 77.2456 1037.91 77.373 1037.49 77.6081C1037.06 77.8433 1036.69 78.1805 1036.39 78.5961C1036.1 79.027 1035.89 79.5181 1035.77 80.0408C1035.73 80.6325 1035.73 81.227 1035.77 81.8188V104.405C1035.77 114.185 1035.77 123.658 1035.77 132.659V136.021C1035.74 136.973 1036.04 137.9 1036.61 138.605C1037.16 139.305 1037.93 139.734 1038.76 139.799H1052.59H1072.31L1100.93 140.049H1108.72H1110.74H1111.43C1111.21 140.09 1110.97 140.09 1110.74 140.049H1108.72L1100.93 140.188L1072.31 140.411H1052.59H1041.57H1038.68C1037.56 140.315 1036.52 139.75 1035.75 138.827C1034.99 137.874 1034.58 136.635 1034.59 135.354V131.993C1034.59 122.991 1034.59 113.518 1034.59 103.739C1034.59 98.8212 1034.59 93.8483 1034.59 88.792V81.152C1034.56 80.4545 1034.6 79.7556 1034.71 79.0684C1034.86 78.3324 1035.15 77.6407 1035.55 77.0403C1035.97 76.4481 1036.5 75.9688 1037.11 75.6373C1037.72 75.3057 1038.38 75.1301 1039.05 75.1234H1091.05H1111.04C1112.05 75.0653 1113.04 75.3562 1113.9 75.9568C1114.77 76.6116 1115.4 77.5982 1115.67 78.735C1115.86 79.7493 1115.92 80.7856 1115.87 81.8188C1115.87 83.7357 1115.87 85.6527 1115.87 87.5141C1115.87 91.2091 1115.87 94.7929 1115.87 98.1823C1115.87 111.74 1115.72 122.714 1115.67 130.437C1115.67 132.326 1115.67 134.021 1115.67 135.521C1115.66 136.166 1115.52 136.8 1115.27 137.38C1115.02 137.96 1114.66 138.473 1114.22 138.883C1113.92 139.453 1113.48 139.918 1112.96 140.226C1112.44 140.535 1111.85 140.676 1111.26 140.633V140.633Z" fill="#263238"/>
<path d="M1034.96 130.326H1115.08V139.077C1115.08 139.278 1115.05 139.476 1114.98 139.662C1114.91 139.847 1114.81 140.016 1114.69 140.157C1114.56 140.299 1114.41 140.412 1114.25 140.489C1114.08 140.565 1113.9 140.605 1113.73 140.605H1036.34C1035.98 140.605 1035.64 140.444 1035.38 140.157C1035.13 139.871 1034.98 139.482 1034.98 139.077V130.326H1034.96Z" fill="#263238"/>
<g opacity="0.6">
<path opacity="0.6" d="M1082.39 76.6791L1045.54 140.633H1066.19L1102.16 76.6791H1082.39Z" fill="white"/>
</g>
<path d="M858.096 76.6791H790.102C786.753 76.6791 784.038 79.739 784.038 83.5135V133.771C784.038 137.545 786.753 140.605 790.102 140.605H858.096C861.446 140.605 864.161 137.545 864.161 133.771V83.5135C864.161 79.739 861.446 76.6791 858.096 76.6791Z" fill="#F5F5F5"/>
<path d="M858.071 140.633C858.925 140.511 859.757 140.239 860.537 139.827C861.661 139.196 862.581 138.184 863.169 136.934C863.758 135.683 863.983 134.256 863.816 132.854C863.816 125.242 863.692 114.407 863.618 101.072C863.618 97.71 863.618 94.2095 863.618 90.5423C863.618 88.7087 863.618 86.8473 863.618 84.9859C863.668 84.0576 863.627 83.1259 863.495 82.2077C863.322 81.3359 862.976 80.5192 862.484 79.8185C862.002 79.077 861.376 78.4691 860.654 78.0407C859.932 77.6123 859.133 77.3747 858.318 77.3459H841.332H790.102C789.077 77.345 788.072 77.6671 787.201 78.2758C786.329 78.8846 785.627 79.7557 785.171 80.7909C784.738 81.8404 784.551 82.9981 784.629 84.1525V87.903C784.629 92.876 784.629 97.7933 784.629 102.627C784.629 112.295 784.629 121.602 784.629 130.409C784.629 131.52 784.629 132.604 784.629 133.715C784.665 134.682 784.884 135.629 785.27 136.493C785.672 137.351 786.247 138.09 786.95 138.65C787.652 139.209 788.462 139.575 789.313 139.716C792.863 139.883 796.709 139.716 800.062 139.716H819.563L847.766 139.966H855.433H857.43H858.096C857.876 140.009 857.651 140.009 857.43 139.966H855.433L847.766 140.105L819.563 140.327H800.062C796.537 140.327 793.036 140.327 789.141 140.327C788.108 140.162 787.125 139.726 786.269 139.056C785.412 138.385 784.707 137.498 784.21 136.465C783.739 135.392 783.478 134.217 783.446 133.021V130.548C783.446 121.658 783.446 112.351 783.446 102.766V84.1525C783.364 82.777 783.593 81.4007 784.111 80.1519C784.669 78.8818 785.53 77.8116 786.596 77.061C787.663 76.3103 788.894 75.9088 790.151 75.9013H841.381H852.894H858.417C859.383 75.9527 860.327 76.2462 861.18 76.7605C862.032 77.2747 862.773 77.9967 863.347 78.8739C863.9 79.6993 864.295 80.6454 864.506 81.6521C864.662 82.6419 864.712 83.6493 864.654 84.6525C864.654 86.5695 864.654 88.4308 864.654 90.2089C864.654 93.8761 864.654 97.3766 864.654 100.738C864.654 114.073 864.481 124.908 864.432 132.521C864.553 134.244 864.163 135.964 863.323 137.41C862.693 138.422 861.845 139.235 860.857 139.772C860.026 140.366 859.055 140.666 858.071 140.633V140.633Z" fill="#263238"/>
<path d="M784.038 130.326H864.038V135.382C864.038 136.767 863.549 138.096 862.68 139.075C861.811 140.055 860.632 140.605 859.403 140.605H788.672C787.443 140.605 786.264 140.055 785.395 139.075C784.526 138.096 784.038 136.767 784.038 135.382V130.326Z" fill="#263238"/>
<g opacity="0.6">
<path opacity="0.6" d="M831.446 76.6791L794.589 140.633H815.273L851.218 76.6791H831.446Z" fill="white"/>
</g>
<path d="M1499.16 179.166H1524.99V63.0938H1499.16V179.166Z" fill="#388087"/>
<g opacity="0.2">
<path opacity="0.2" d="M1499.16 179.166H1524.99V63.0938H1499.16V179.166Z" fill="black"/>
</g>
<path d="M1505.32 179.111L1142.89 178.333V56.1761L1148.54 43.5076L1499.18 41.7574L1505.32 52.12V179.111Z" fill="#E0E0E0"/>
<path d="M1505.62 58.1764H1142.89V145.356H1505.62V58.1764Z" fill="#388087"/>
<path d="M1317.17 178.055H1249.1V78.596C1249.1 77.3729 1249.53 76.1999 1250.3 75.335C1251.06 74.4701 1252.1 73.9843 1253.19 73.9843H1313.1C1313.63 73.9842 1314.16 74.1037 1314.66 74.3358C1315.16 74.568 1315.6 74.9081 1315.98 75.3367C1316.36 75.7653 1316.66 76.2739 1316.86 76.8333C1317.07 77.3926 1317.17 77.9917 1317.17 78.596V178.055Z" fill="#388087"/>
<path d="M1317.17 178.055C1317.17 178.055 1317.17 177.694 1317.17 177.082C1317.17 176.471 1317.17 175.471 1317.17 174.304C1317.17 171.804 1317.17 168.276 1317.17 163.803C1317.17 154.635 1317.02 141.577 1316.92 125.436C1316.92 117.379 1316.92 108.545 1316.92 99.0435C1316.92 94.3206 1316.92 89.4032 1316.92 84.3747C1316.92 83.0967 1316.92 81.8466 1316.92 80.5686V78.5961C1316.93 78.0345 1316.84 77.4765 1316.65 76.957C1316.46 76.4314 1316.17 75.958 1315.81 75.5695C1315.44 75.181 1315 74.8866 1314.53 74.7066C1313.43 74.4805 1312.31 74.4151 1311.2 74.5122H1253.51C1252.93 74.505 1252.36 74.6646 1251.85 74.9757C1251.34 75.2869 1250.91 75.7393 1250.6 76.2902C1250.12 77.2001 1249.93 78.2688 1250.06 79.3184V89.8755C1250.06 94.5428 1250.06 99.1546 1250.06 103.766V130.354C1250.06 147.55 1250.06 163.692 1250.06 177.999L1249.54 177.416L1298.85 177.721L1312.65 177.86H1316.3C1316.73 177.819 1317.16 177.819 1317.58 177.86C1317.2 177.906 1316.81 177.906 1316.43 177.86H1312.85H1299.17L1249.52 178.166H1248.63V177.583C1248.63 163.136 1248.63 147.023 1248.63 129.937C1248.63 121.352 1248.63 112.462 1248.63 103.35V79.4295C1248.5 78.1041 1248.76 76.7687 1249.37 75.6234C1249.8 74.871 1250.39 74.2527 1251.09 73.8255C1251.79 73.3983 1252.57 73.1758 1253.36 73.1786H1281.27H1311.05H1312.73C1313.39 73.137 1314.05 73.2311 1314.68 73.4564C1315.3 73.7067 1315.88 74.1031 1316.36 74.62C1316.85 75.1369 1317.23 75.7627 1317.49 76.4569C1317.72 77.1385 1317.84 77.8647 1317.83 78.5961V80.5408C1317.83 81.8465 1317.83 83.1245 1317.83 84.4025C1317.83 89.4865 1317.83 94.4317 1317.83 99.2101C1317.83 108.767 1317.83 117.657 1317.83 125.77C1317.83 141.911 1317.63 154.968 1317.58 164.108C1317.58 168.526 1317.58 171.998 1317.58 174.471C1317.58 175.582 1317.58 176.443 1317.58 177.249C1317.49 177.542 1317.34 177.815 1317.17 178.055Z" fill="#263238"/>
<path d="M1277.67 76.6791H1254.3C1252.86 76.6791 1251.69 77.9976 1251.69 79.624V137.66C1251.69 139.287 1252.86 140.605 1254.3 140.605H1277.67C1279.11 140.605 1280.28 139.287 1280.28 137.66V79.624C1280.28 77.9976 1279.11 76.6791 1277.67 76.6791Z" fill="#F5F5F5"/>
<path d="M1311.47 76.6791H1288.1C1286.66 76.6791 1285.49 77.9976 1285.49 79.624V137.66C1285.49 139.287 1286.66 140.605 1288.1 140.605H1311.47C1312.91 140.605 1314.08 139.287 1314.08 137.66V79.624C1314.08 77.9976 1312.91 76.6791 1311.47 76.6791Z" fill="#F5F5F5"/>
<path d="M1283.14 177.916C1282.77 177.916 1282.5 154.663 1282.5 125.964C1282.5 97.2653 1282.77 74.0398 1283.14 74.0398C1283.51 74.0398 1283.78 97.2931 1283.78 125.964C1283.78 154.635 1283.49 177.916 1283.14 177.916Z" fill="#263238"/>
<path d="M1280.28 130.326H1251.69V140.605H1280.28V130.326Z" fill="#263238"/>
<path d="M1314.08 130.326H1285.49V140.605H1314.08V130.326Z" fill="#263238"/>
<path d="M1142.89 58.232V70.9006H1505.62V58.8432L1142.89 58.232Z" fill="#DC532D"/>
<path d="M1505.62 158.885C1505.62 159.274 1424.41 159.608 1324.27 159.608C1224.12 159.608 1142.89 159.274 1142.89 158.885C1142.89 158.496 1224.08 158.163 1324.27 158.163C1424.46 158.163 1505.62 158.469 1505.62 158.885Z" fill="#263238"/>
<path d="M1505.32 179.166L1142.92 178.333V166.275H1505.32V179.166Z" fill="#DC532D"/>
<g opacity="0.6">
<g opacity="0.5">
<path opacity="0.5" d="M1254.82 140.633H1275.5L1280.31 132.104V96.4319L1254.82 140.633Z" fill="white"/>
</g>
<g opacity="0.5">
<path opacity="0.5" d="M1291.67 76.6791L1285.49 87.4306V122.852L1311.45 76.6791H1291.67Z" fill="white"/>
</g>
</g>
<path d="M1399.16 76.6791H1329.34C1326.5 76.6791 1324.19 79.2787 1324.19 82.4855V134.799C1324.19 138.005 1326.5 140.605 1329.34 140.605H1399.16C1402.01 140.605 1404.32 138.005 1404.32 134.799V82.4855C1404.32 79.2787 1402.01 76.6791 1399.16 76.6791Z" fill="#F5F5F5"/>
<path d="M1399.16 140.633C1400.03 140.515 1400.87 140.203 1401.63 139.716C1402.54 139.103 1403.24 138.178 1403.65 137.077C1404.07 135.502 1404.19 133.847 1404.02 132.215C1404.02 124.547 1403.9 113.657 1403.82 100.238C1403.82 96.8487 1403.82 93.3204 1403.82 89.6254C1403.82 87.7918 1403.82 85.9027 1403.82 84.0691C1403.86 83.1397 1403.82 82.2079 1403.67 81.2909C1403.49 80.4346 1403.11 79.6487 1402.56 79.0128C1402.02 78.3533 1401.33 77.865 1400.57 77.5959C1399.76 77.382 1398.93 77.307 1398.1 77.3737H1380.85H1329.3C1328.3 77.4204 1327.34 77.838 1326.57 78.5616C1325.8 79.2851 1325.27 80.2739 1325.05 81.3742C1324.9 82.57 1324.85 83.7794 1324.91 84.9859V103.6C1324.91 113.296 1324.91 122.686 1324.91 131.604V134.938C1324.92 135.655 1325.07 136.361 1325.33 137.012C1325.6 137.663 1325.99 138.244 1326.46 138.719C1326.94 139.194 1327.5 139.552 1328.11 139.772C1328.71 139.991 1329.35 140.067 1329.99 139.994H1340.91H1360.51L1388.88 140.244H1396.6H1398.6C1398.82 140.207 1399.06 140.207 1399.29 140.244C1399.06 140.287 1398.82 140.287 1398.6 140.244H1396.6L1388.88 140.383L1360.51 140.605H1340.91H1329.99C1328.93 140.688 1327.88 140.45 1326.94 139.918C1326 139.385 1325.2 138.576 1324.64 137.577C1324.05 136.551 1323.74 135.353 1323.75 134.132C1323.75 133.021 1323.75 131.909 1323.75 130.798C1323.75 121.88 1323.75 112.49 1323.75 102.794C1323.75 97.9322 1323.75 92.987 1323.75 87.9585V84.1802C1323.68 82.861 1323.75 81.5378 1323.95 80.2352C1324.26 78.8272 1324.98 77.5766 1325.99 76.6811C1327 75.7856 1328.25 75.2961 1329.54 75.29H1381.09H1398.35C1399.3 75.2173 1400.26 75.3205 1401.18 75.5956C1402.12 75.9426 1402.97 76.5436 1403.65 77.3459C1404.28 78.1385 1404.74 79.0913 1404.98 80.1241C1405.14 81.1223 1405.2 82.1387 1405.15 83.1523C1405.15 85.0692 1405.15 86.9584 1405.15 88.7086C1405.15 92.4036 1405.15 95.9319 1405.15 99.3213C1405.15 112.74 1405.01 123.63 1404.96 131.298C1405.1 132.997 1404.92 134.711 1404.44 136.327C1404 137.518 1403.21 138.5 1402.2 139.105C1401.6 139.49 1400.93 139.718 1400.25 139.772C1399.96 140.165 1399.59 140.463 1399.16 140.633Z" fill="#263238"/>
<path d="M1324.19 130.326H1404.32V137.577C1404.32 138.38 1404.03 139.15 1403.53 139.718C1403.02 140.286 1402.34 140.605 1401.63 140.605H1326.9C1326.19 140.605 1325.51 140.286 1325 139.718C1324.5 139.15 1324.22 138.38 1324.22 137.577V130.326H1324.19Z" fill="#263238"/>
<g opacity="0.6">
<path opacity="0.6" d="M1371.62 76.6791L1334.77 140.633H1355.45L1391.4 76.6791H1371.62Z" fill="white"/>
</g>
<path d="M1487.13 76.6791H1414.94C1412.75 76.6791 1410.97 78.6817 1410.97 81.152V136.132C1410.97 138.602 1412.75 140.605 1414.94 140.605H1487.13C1489.32 140.605 1491.09 138.602 1491.09 136.132V81.152C1491.09 78.6817 1489.32 76.6791 1487.13 76.6791Z" fill="#F5F5F5"/>
<path d="M1487.13 140.633C1488.02 140.515 1488.88 140.121 1489.59 139.494C1489.99 139.112 1490.32 138.641 1490.55 138.11C1490.77 137.579 1490.9 137 1490.92 136.41C1490.92 134.91 1490.92 133.243 1490.92 131.354C1490.92 123.63 1490.92 112.657 1490.73 99.1268C1490.73 95.7374 1490.73 92.1536 1490.73 88.4586V82.7633C1490.78 81.8327 1490.72 80.8985 1490.55 79.9851C1490.32 79.1604 1489.86 78.4401 1489.25 77.9293C1488.58 77.4423 1487.8 77.1997 1487 77.2347H1467.03H1415.09C1414.6 77.2437 1414.11 77.3715 1413.67 77.6096C1413.23 77.8477 1412.83 78.1905 1412.52 78.6147C1412.2 79.0389 1411.97 79.5346 1411.84 80.0683C1411.71 80.6019 1411.68 81.161 1411.76 81.7076V89.3476C1411.76 94.4039 1411.76 99.3768 1411.76 104.266C1411.76 114.073 1411.76 123.519 1411.76 132.493V135.854C1411.73 136.8 1412.02 137.724 1412.56 138.447C1413.1 139.17 1413.86 139.642 1414.69 139.772C1415.51 139.772 1416.57 139.772 1417.48 139.772H1428.48H1448.2L1476.8 140.022H1484.59H1486.61H1487.3C1487.07 140.062 1486.84 140.062 1486.61 140.022H1484.59L1476.8 140.161L1448.2 140.383H1428.48H1417.48C1416.49 140.383 1415.66 140.383 1414.55 140.383C1413.43 140.225 1412.41 139.606 1411.67 138.646C1410.94 137.686 1410.55 136.454 1410.58 135.188V131.826C1410.58 122.852 1410.58 113.407 1410.58 103.6V81.0408C1410.51 80.3132 1410.57 79.5778 1410.76 78.877C1410.94 78.1761 1411.25 77.5237 1411.66 76.9569C1412.1 76.3864 1412.64 75.9278 1413.25 75.6116C1413.86 75.2954 1414.52 75.1289 1415.19 75.1233H1467.13H1487.1C1488.11 75.0704 1489.11 75.4031 1489.94 76.0679C1490.78 76.7392 1491.39 77.7218 1491.66 78.8461C1491.85 79.8501 1491.91 80.8794 1491.83 81.9021V87.5974C1491.83 91.2923 1491.83 94.8762 1491.83 98.2655C1491.83 111.795 1491.69 122.769 1491.64 130.492C1491.64 132.345 1491.64 134.039 1491.64 135.577C1491.59 136.221 1491.43 136.848 1491.16 137.417C1490.89 137.987 1490.51 138.486 1490.06 138.883C1489.51 139.349 1488.87 139.654 1488.19 139.772C1487.91 140.161 1487.54 140.458 1487.13 140.633Z" fill="#263238"/>
<path d="M1410.97 130.326H1491.09V138.91C1491.09 139.133 1491.06 139.353 1490.98 139.559C1490.91 139.764 1490.79 139.951 1490.65 140.109C1490.51 140.266 1490.35 140.391 1490.17 140.476C1489.98 140.561 1489.79 140.605 1489.59 140.605H1412.48C1412.28 140.605 1412.08 140.561 1411.9 140.476C1411.72 140.391 1411.55 140.266 1411.41 140.109C1411.27 139.951 1411.16 139.764 1411.09 139.559C1411.01 139.353 1410.97 139.133 1410.97 138.91V130.326V130.326Z" fill="#263238"/>
<g opacity="0.6">
<path opacity="0.6" d="M1458.4 76.6791L1421.52 140.633H1442.21L1478.18 76.6791H1458.4Z" fill="white"/>
</g>
<path d="M1235.09 76.6791H1165.08C1162.29 76.6791 1160.03 79.229 1160.03 82.3744V134.91C1160.03 138.055 1162.29 140.605 1165.08 140.605H1235.09C1237.89 140.605 1240.15 138.055 1240.15 134.91V82.3744C1240.15 79.229 1237.89 76.6791 1235.09 76.6791Z" fill="#F5F5F5"/>
<path d="M1235.09 140.633C1235.96 140.502 1236.8 140.192 1237.56 139.716C1238.48 139.063 1239.18 138.087 1239.56 136.938C1239.93 135.344 1240.04 133.686 1239.88 132.048C1239.88 124.38 1239.88 113.49 1239.68 100.071C1239.68 96.682 1239.68 93.126 1239.68 89.4588C1239.68 87.5974 1239.68 85.736 1239.68 83.9024C1239.74 82.973 1239.69 82.0394 1239.53 81.1242C1239.35 80.2587 1238.96 79.4684 1238.4 78.8461C1237.86 78.1931 1237.17 77.7219 1236.4 77.4848C1235.59 77.2851 1234.76 77.2195 1233.94 77.2903H1216.58H1165.01C1164 77.2984 1163.03 77.6865 1162.25 78.3921C1161.47 79.0977 1160.92 80.0796 1160.69 81.1798C1160.57 82.388 1160.53 83.6043 1160.57 84.8192V103.6C1160.57 113.323 1160.57 122.714 1160.57 131.632V134.965C1160.56 135.949 1160.81 136.914 1161.28 137.744C1161.76 138.554 1162.42 139.201 1163.2 139.613C1163.98 140.024 1164.84 140.185 1165.7 140.077H1176.62H1196.34L1224.72 140.327H1232.46H1234.45H1235.14C1234.92 140.368 1234.68 140.368 1234.45 140.327H1232.46L1224.72 140.466L1196.34 140.688H1176.62H1165.7C1164.65 140.793 1163.59 140.578 1162.64 140.064C1161.69 139.551 1160.88 138.759 1160.3 137.771C1159.71 136.734 1159.4 135.528 1159.41 134.299C1159.41 133.215 1159.41 132.104 1159.41 130.965C1159.41 122.047 1159.41 112.657 1159.41 102.933C1159.41 98.0711 1159.41 93.1259 1159.41 88.1252V84.3469C1159.36 83.0203 1159.41 81.6918 1159.56 80.3741C1159.85 78.9581 1160.57 77.6957 1161.58 76.789C1162.59 75.8823 1163.84 75.3838 1165.13 75.3734H1216.7H1233.84C1234.8 75.3086 1235.76 75.3927 1236.7 75.6234C1237.64 75.9527 1238.48 76.5454 1239.16 77.3459C1239.82 78.126 1240.28 79.0825 1240.52 80.1241C1240.68 81.1222 1240.74 82.1387 1240.69 83.1523C1240.69 85.0692 1240.69 86.9306 1240.69 88.7086C1240.69 92.3758 1240.69 95.9319 1240.69 99.3213C1240.69 112.74 1240.54 123.63 1240.49 131.298C1240.64 133.002 1240.48 134.722 1240.03 136.354C1239.57 137.526 1238.79 138.501 1237.81 139.133C1237.22 139.518 1236.56 139.746 1235.88 139.799C1235.68 140.14 1235.41 140.424 1235.09 140.633V140.633Z" fill="#263238"/>
<path d="M1160.03 130.326H1240.15V137.688C1240.15 138.075 1240.08 138.458 1239.95 138.815C1239.82 139.172 1239.63 139.497 1239.38 139.77C1239.14 140.044 1238.85 140.261 1238.54 140.409C1238.22 140.557 1237.88 140.633 1237.54 140.633H1162.64C1162.3 140.633 1161.96 140.557 1161.64 140.409C1161.32 140.261 1161.03 140.044 1160.79 139.77C1160.55 139.497 1160.36 139.172 1160.22 138.815C1160.09 138.458 1160.03 138.075 1160.03 137.688V130.326Z" fill="#263238"/>
<g opacity="0.6">
<path opacity="0.6" d="M1207.46 76.6791L1170.6 140.633H1191.29L1227.23 76.6791H1207.46Z" fill="white"/>
</g>
<path d="M773.486 63.0661H747.649V179.138H773.486V63.0661Z" fill="#388087"/>
<g opacity="0.2">
<path opacity="0.2" d="M773.486 63.0661H747.649V179.138H773.486V63.0661Z" fill="black"/>
</g>
</g>
<defs>
<filter id="filter0_d_176_1418" x="0" y="179" width="1528" height="238" filterUnits="userSpaceOnUse" color-interpolation-filters="sRGB">
<feFlood flood-opacity="0" result="BackgroundImageFix"/>
<feColorMatrix in="SourceAlpha" type="matrix" values="0 0 0 0 0 0 0 0 0 0 0 0 0 0 0 0 0 0 127 0" result="hardAlpha"/>
<feOffset dy="4"/>
<feGaussianBlur stdDeviation="2"/>
<feComposite in2="hardAlpha" operator="out"/>
<feColorMatrix type="matrix" values="0 0 0 0 0 0 0 0 0 0 0 0 0 0 0 0 0 0 0.25 0"/>
<feBlend mode="normal" in2="BackgroundImageFix" result="effect1_dropShadow_176_1418"/>
<feBlend mode="normal" in="SourceGraphic" in2="effect1_dropShadow_176_1418" result="shape"/>
</filter>
<filter id="filter1_d_176_1418" x="406.729" y="41.7574" width="1122.26" height="145.409" filterUnits="userSpaceOnUse" color-interpolation-filters="sRGB">
<feFlood flood-opacity="0" result="BackgroundImageFix"/>
<feColorMatrix in="SourceAlpha" type="matrix" values="0 0 0 0 0 0 0 0 0 0 0 0 0 0 0 0 0 0 127 0" result="hardAlpha"/>
<feOffset dy="4"/>
<feGaussianBlur stdDeviation="2"/>
<feComposite in2="hardAlpha" operator="out"/>
<feColorMatrix type="matrix" values="0 0 0 0 0 0 0 0 0 0 0 0 0 0 0 0 0 0 0.25 0"/>
<feBlend mode="normal" in2="BackgroundImageFix" result="effect1_dropShadow_176_1418"/>
<feBlend mode="normal" in="SourceGraphic" in2="effect1_dropShadow_176_1418" result="shape"/>
</filter>
</defs>
</svg>
