<svg width="1645" height="354" viewBox="0 0 1645 354" fill="none" xmlns="http://www.w3.org/2000/svg">
<path d="M577 145H470V354H577V145Z" fill="#76868D"/>
<path d="M1158 135H1055V354H1158V135Z" fill="#76868D"/>
<path d="M1645 145H1556V354H1645V145Z" fill="#76868D"/>
<path d="M576.962 144.761C576.962 144.761 646.46 63.846 817.43 63.846C988.401 63.846 1055.43 144.787 1055.43 144.787H1158.85L1161.47 0.606567H470.484V144.787L576.962 144.761Z" fill="#76868D"/>
<path d="M2.61325 144.761C2.61325 144.761 61.7073 63.846 232.555 63.846C403.402 63.846 470.484 144.787 470.484 144.787H576.494V0.580078H0" fill="#76868D"/>
<path d="M1142.17 145.23C1142.17 145.23 1209.47 63.8708 1353.99 63.8708C1498.51 63.8708 1556.02 145.257 1556.02 145.257H1645V0.25708H1052L1054.7 145.23H1142.17Z" fill="#76868D"/>
<path d="M1645 26.9999C1645 27.5384 1278.07 28 825.523 28C372.976 28 6 27.5384 6 26.9999C6 26.4615 372.837 26 825.523 26C1278.21 26 1645 26.423 1645 26.9999Z" fill="#263238"/>
<path d="M1158.26 212.022C1158.23 211.467 1158.23 210.91 1158.26 210.355C1158.26 209.191 1158.26 207.709 1158.26 205.804C1158.26 201.729 1158.11 196.093 1158.02 189.055L1158.44 189.504C1142.95 189.663 1119.75 189.743 1093.87 189.743L1094.51 189.055V194.902C1094.51 196.86 1094.51 198.818 1094.51 200.724V212.022L1093.89 211.334L1139.92 211.651L1153.46 211.837H1157.15H1158.46C1158.07 211.875 1157.69 211.875 1157.3 211.837H1153.75L1140.34 212.022L1093.89 212.339H1093.25V188.79L1093.89 188.102C1119.78 188.102 1142.98 188.102 1158.46 188.34H1158.9V188.79C1158.9 195.934 1158.73 201.676 1158.68 205.804C1158.68 207.656 1158.68 209.138 1158.68 210.276C1158.61 210.874 1158.47 211.461 1158.26 212.022Z" fill="#263238"/>
<path opacity="0.2" d="M1133.56 211.916H1068.97V234.883H1133.56V211.916Z" fill="black"/>
<path d="M585.689 50.0976C585.65 49.5516 585.65 49.0031 585.689 48.4571C585.689 47.2929 585.689 45.8111 585.689 43.906C585.689 39.8311 585.566 34.1687 585.467 27.1569L585.886 27.6066C570.38 27.7389 547.181 27.8448 521.295 27.8448L521.936 27.1569V38.8786C521.936 42.7153 521.936 46.4461 521.936 50.0711L521.319 49.4096L567.347 49.7272L580.907 49.9124H584.58H585.911C585.517 49.9492 585.122 49.9492 584.728 49.9124H581.178L567.766 50.0976L521.319 50.4151H520.703V49.7272C520.703 46.1022 520.703 42.3713 520.703 38.5346V27.1833L521.344 26.4954C547.23 26.4954 570.429 26.4954 585.936 26.7335H586.355V27.1833C586.355 34.3275 586.182 40.0692 586.108 44.197C586.108 46.0227 586.108 47.5045 586.108 48.6687C586.004 49.1561 585.864 49.6339 585.689 50.0976Z" fill="#263238"/>
<path opacity="0.2" d="M560.913 52.0977H496.321V75.0649H560.913V52.0977Z" fill="black"/>
<path d="M1630.99 213.576C1630.93 213.022 1630.93 212.463 1630.99 211.909C1630.99 210.745 1630.99 209.263 1630.99 207.358C1630.99 203.283 1630.84 197.647 1630.74 190.609L1631.18 191.058C1615.68 191.217 1592.48 191.297 1566.59 191.297L1567.23 190.609V202.278C1567.23 206.114 1567.23 209.872 1567.23 213.497L1566.62 212.809L1612.64 213.126L1626.2 213.311H1629.88H1631.21C1630.81 213.348 1630.42 213.348 1630.02 213.311H1626.47L1613.06 213.497L1566.62 213.814H1566V213.576C1566 209.951 1566 206.194 1566 202.357V190.688L1566.64 190C1592.53 190 1615.73 190 1631.23 190.238H1631.38V190.688C1631.38 197.832 1631.21 203.574 1631.13 207.702C1631.13 209.554 1631.13 211.036 1631.13 212.174C1631.12 212.644 1631.07 213.113 1630.99 213.576Z" fill="#263238"/>
<path d="M1210.9 59.782C1210.9 59.782 1210.9 59.1734 1210.9 58.1415C1210.9 57.1095 1210.9 55.4954 1210.9 53.5639C1210.9 49.5155 1210.9 43.8532 1210.68 36.8148L1211.09 37.2646C1195.61 37.4234 1172.39 37.5027 1146.5 37.5027L1147.14 36.8148V48.6159C1147.14 52.4526 1147.14 56.2098 1147.14 59.8348L1146.53 59.1733L1192.56 59.4644L1206.11 59.6761H1209.79H1211.12C1210.73 59.715 1210.33 59.715 1209.94 59.6761H1206.41L1193 59.8613L1146.53 60.1788H1145.91V59.5173C1145.91 55.8923 1145.91 52.1351 1145.91 48.2984V36.6031C1147.19 35.2272 1146.28 36.2327 1146.55 35.9152C1172.44 35.9152 1195.66 35.9152 1211.14 36.1534H1211.56V36.6031C1211.56 43.7473 1211.39 49.4891 1211.34 53.6168C1211.34 55.469 1211.34 56.9507 1211.34 58.0885C1211.23 58.6644 1211.09 59.2306 1210.9 59.782Z" fill="#263238"/>
<path d="M577.849 288.915C577.82 288.368 577.82 287.821 577.849 287.274C577.849 286.11 577.849 284.628 577.849 282.723C577.849 278.648 577.702 272.986 577.603 265.974L578.022 266.424C562.54 266.556 539.316 266.662 513.455 266.662L514.096 265.974V271.874C514.096 273.832 514.096 275.764 514.096 277.696V288.888L513.48 288.227L559.507 288.544L573.042 288.729H576.74H578.047C577.661 288.762 577.274 288.762 576.888 288.729H573.338L559.926 288.915L513.48 289.232H512.839V266C514.121 264.624 513.208 265.603 513.504 265.312C539.366 265.312 562.589 265.312 578.071 265.551H578.293V266C578.293 273.145 578.121 278.886 578.071 283.014C578.071 284.84 578.071 286.322 578.071 287.486C578.043 287.969 577.968 288.448 577.849 288.915Z" fill="#263238"/>
<path d="M515.674 196.966C515.635 196.402 515.635 195.836 515.674 195.273C515.674 194.056 515.674 192.627 515.55 190.669C515.55 186.541 515.403 180.905 515.304 174.025L515.772 174.528L471.027 174.713L471.668 174.025V185.827C471.668 189.663 471.668 193.394 471.668 196.94L471.051 196.305C483.97 196.305 495.064 196.49 503.101 196.622L512.444 196.781C513.596 196.771 514.748 196.824 515.896 196.94C514.84 197.069 513.778 197.131 512.715 197.125L503.52 197.284C495.606 197.416 484.315 197.548 471.15 197.601H470.533V196.94C470.533 193.394 470.533 189.663 470.533 185.827V174.025L471.174 173.337L515.92 173.523H516.413V174.025C516.413 181.011 516.216 186.753 516.167 190.96C516.167 192.786 516.167 194.294 516.044 195.484C515.971 195.991 515.847 196.488 515.674 196.966Z" fill="#263238"/>
<path d="M1039.46 50.812C1039.46 50.812 1039.46 50.2035 1039.46 49.1187C1039.46 48.0338 1039.46 46.4727 1039.46 44.4882C1039.46 40.3604 1039.29 34.7244 1039.19 27.8713L1039.66 28.3741L994.91 28.5593L995.551 27.8713V39.6724C995.551 43.5091 995.551 47.24 995.551 50.7856L994.935 50.1505C1007.85 50.1505 1018.95 50.3358 1026.98 50.4416L1036.33 50.6269C1037.48 50.6169 1038.63 50.6699 1039.78 50.7856C1038.72 50.9115 1037.66 50.9646 1036.6 50.9444L1026.98 51.2619C1019.07 51.3942 1007.8 51.5265 994.614 51.5794H994.022V50.9179C994.022 47.3723 994.022 43.6415 994.022 39.8048C994.022 37.8997 994.022 35.9416 994.022 33.9571V28.0036L994.663 27.3157L1039.41 27.4744H1039.9V27.9772C1039.78 34.9626 1039.71 40.7044 1039.63 44.9115C1039.63 46.7373 1039.63 48.2455 1039.63 49.4362C1039.63 49.9009 1039.57 50.3635 1039.46 50.812Z" fill="#263238"/>
<path d="M93.6827 50.4946C93.6276 49.9494 93.6276 49.3993 93.6827 48.8541C93.6827 47.6634 93.6827 46.2081 93.6827 44.2501C93.6827 40.1488 93.5595 34.5128 93.4609 27.5538L93.9046 28.0301L36.5117 28.2417C35.92 28.8503 37.2759 27.395 37.1527 27.5538V50.4682L36.5363 49.8067L77.4609 50.1242L89.467 50.3094H92.7459H93.9293C93.5856 50.3583 93.2375 50.3583 92.8938 50.3094H89.7629L77.88 50.4946L36.2898 51.262H35.6735V27.6596C35.5255 27.6596 36.8815 26.3366 36.3145 26.9717L93.7074 27.1833H94.1512V27.4479C94.1512 34.5128 93.9786 40.2811 93.9293 44.4353C93.9293 46.2611 93.9293 47.7427 93.9293 48.907C93.8901 49.4428 93.8076 49.9741 93.6827 50.4946Z" fill="#263238"/>
<path d="M1640.59 187.655C1640.59 187.655 1640.59 187.02 1640.59 185.962C1640.59 184.904 1640.59 183.184 1640.59 181.305C1640.59 177.151 1640.45 171.541 1640.35 164.688L1640.82 165.217L1601.57 165.376L1602.21 164.688V170.642C1602.21 172.626 1602.21 174.584 1602.21 176.516C1602.21 180.352 1602.21 184.057 1602.21 187.602L1601.62 186.967C1612.98 186.967 1622.69 187.153 1629.67 187.258L1637.83 187.444C1638.84 187.434 1639.86 187.487 1640.86 187.602C1639.95 187.729 1639.03 187.782 1638.1 187.761L1630.07 187.946C1623.14 187.946 1613.23 188.211 1601.62 188.237H1601V187.602C1601 184.057 1601 180.352 1601 176.516V164.688L1601.64 164L1640.89 164.159H1641.38V164.662C1641.38 171.647 1641.19 177.389 1641.14 181.596C1641.14 183.422 1641.14 184.93 1641.01 186.121C1640.94 186.65 1640.8 187.166 1640.59 187.655Z" fill="#263238"/>
</svg>
