<svg width="1525" height="238" viewBox="0 0 1525 238" fill="none" xmlns="http://www.w3.org/2000/svg">
<g filter="url(#filter0_d_144_1406)">
<path d="M504 148H412V230H504V148Z" fill="#76868D"/>
<path d="M1007 138H918V230H1007V138Z" fill="#76868D"/>
<path d="M1520 138H1430V230H1520V138Z" fill="#76868D"/>
<path d="M503.794 148.232C503.794 148.232 563.996 65.0438 712.1 65.0438C860.204 65.0438 918.27 148.26 918.27 148.26H1007.86L1010.12 0.0272217H411.557V148.26L503.794 148.232Z" fill="#76868D"/>
<path d="M6.26373 148.232C6.26373 148.232 57.454 65.0438 205.451 65.0438C353.448 65.0438 411.557 148.26 411.557 148.26H503.388V0H4" fill="#76868D"/>
<path d="M1007.5 148.232C1007.5 148.232 1076.22 65.0438 1223.81 65.0438C1371.4 65.0438 1430.13 148.26 1430.13 148.26H1521V0H915.409L918.164 148.232H1007.5Z" fill="#76868D"/>
<path d="M1521 29.2981C1521 29.679 1182.64 30.0055 765.319 30.0055C348.002 30.0055 9.59509 29.679 9.59509 29.2981C9.59509 28.9172 347.874 28.5908 765.319 28.5908C1182.76 28.5908 1521 28.89 1521 29.2981Z" fill="#263238"/>
<path d="M1007.35 217.384C1007.32 216.813 1007.32 216.241 1007.35 215.67C1007.35 214.473 1007.35 212.95 1007.35 210.991C1007.35 206.802 1007.22 201.007 1007.13 193.771L1007.5 194.234C994.084 194.397 973.988 194.478 951.564 194.478L952.119 193.771V199.783C952.119 201.796 952.119 203.809 952.119 205.768V217.384L951.586 216.676L991.457 217.003L1003.18 217.193H1006.38H1007.52C1007.18 217.233 1006.85 217.233 1006.51 217.193H1003.44L991.82 217.384L951.586 217.71H951.03V193.499L951.586 192.792C974.009 192.792 994.105 192.792 1007.52 193.037H1007.9V193.499C1007.9 200.844 1007.75 206.747 1007.71 210.991C1007.71 212.895 1007.71 214.419 1007.71 215.588C1007.65 216.204 1007.52 216.807 1007.35 217.384V217.384Z" fill="#263238"/>
<path d="M511.354 52.9653C511.32 52.404 511.32 51.8401 511.354 51.2787C511.354 50.0818 511.354 48.5584 511.354 46.5997C511.354 42.4104 511.247 36.5889 511.162 29.3799L511.525 29.8423C498.092 29.9783 477.996 30.0872 455.572 30.0872L456.127 29.3799V41.4311C456.127 45.3756 456.127 49.2112 456.127 52.9381L455.593 52.258L495.465 52.5845L507.211 52.7749H510.393H511.546C511.205 52.8128 510.862 52.8128 510.521 52.7749H507.446L495.828 52.9653L455.593 53.2918H455.059V52.5845C455.059 48.8576 455.059 45.0219 455.059 41.0774V29.4071L455.615 28.6998C478.038 28.6998 498.134 28.6998 511.567 28.9447H511.93V29.4071C511.93 36.752 511.781 42.6552 511.717 46.8989C511.717 48.776 511.717 50.2994 511.717 51.4963C511.626 51.9974 511.505 52.4886 511.354 52.9653V52.9653Z" fill="#263238"/>
<g opacity="0.2">
<path opacity="0.2" d="M489.891 52.9654H433.938V76.578H489.891V52.9654Z" fill="black"/>
</g>
<path d="M1486.98 217.384C1486.93 216.814 1486.93 216.24 1486.98 215.67C1486.98 214.473 1486.98 212.95 1486.98 210.991C1486.98 206.802 1486.85 201.007 1486.77 193.771L1487.15 194.233C1473.72 194.397 1453.62 194.478 1431.2 194.478L1431.75 193.771V205.768C1431.75 209.712 1431.75 213.575 1431.75 217.302L1431.22 216.595L1471.09 216.921L1482.84 217.112H1486.02H1487.17C1486.83 217.15 1486.49 217.15 1486.15 217.112H1483.07L1471.45 217.302L1431.22 217.629H1430.69V217.384C1430.69 213.657 1430.69 209.794 1430.69 205.849V193.853L1431.24 193.145C1453.66 193.145 1473.76 193.145 1487.19 193.39H1487.32V193.853C1487.32 201.198 1487.17 207.101 1487.11 211.345C1487.11 213.249 1487.11 214.772 1487.11 215.942C1487.09 216.426 1487.05 216.908 1486.98 217.384V217.384Z" fill="#263238"/>
<path d="M1052.94 62.9218C1052.94 62.9218 1052.94 62.2962 1052.94 61.2352C1052.94 60.1743 1052.94 58.5149 1052.94 56.529C1052.94 52.3669 1052.94 46.5454 1052.75 39.3093L1053.11 39.7717C1039.7 39.9349 1019.58 40.0165 997.16 40.0165L997.715 39.3093V51.442C997.715 55.3865 997.715 59.2493 997.715 62.9762L997.181 62.2961L1037.05 62.5954L1048.8 62.813H1051.98H1053.13C1052.79 62.853 1052.45 62.853 1052.11 62.813H1049.05L1037.44 63.0034L997.181 63.3299H996.647V62.6498C996.647 58.9229 996.647 55.0601 996.647 51.1156V39.0916C997.757 37.6771 996.967 38.7108 997.202 38.3844C1019.63 38.3844 1039.74 38.3844 1053.15 38.6292H1053.52V39.0916C1053.52 46.4365 1053.37 52.3397 1053.33 56.5835C1053.33 58.4877 1053.33 60.011 1053.33 61.1808C1053.23 61.7729 1053.1 62.355 1052.94 62.9218Z" fill="#263238"/>
<path d="M450.703 201.905C450.669 201.325 450.669 200.744 450.703 200.164C450.703 198.913 450.703 197.444 450.596 195.431C450.596 191.187 450.468 185.392 450.382 178.32L450.788 178.836L412.027 179.027L412.582 178.32V190.452C412.582 194.397 412.582 198.232 412.582 201.878L412.048 201.225C423.239 201.225 432.849 201.415 439.811 201.551L447.905 201.715C448.903 201.704 449.901 201.759 450.895 201.878C449.98 202.01 449.06 202.074 448.14 202.068L440.174 202.231C433.319 202.367 423.538 202.503 412.134 202.558H411.6V201.878C411.6 198.232 411.6 194.397 411.6 190.452V178.32L412.155 177.612L450.916 177.803H451.343V178.32C451.343 185.501 451.172 191.404 451.13 195.73C451.13 197.607 451.13 199.157 451.023 200.382C450.96 200.903 450.853 201.414 450.703 201.905V201.905Z" fill="#263238"/>
<path d="M904.432 53.6998C904.432 53.6998 904.432 53.0742 904.432 51.9588C904.432 50.8435 904.432 49.2385 904.432 47.1982C904.432 42.9544 904.282 37.1601 904.197 30.1144L904.603 30.6312L865.842 30.8217L866.397 30.1144V42.2471C866.397 46.1916 866.397 50.0274 866.397 53.6726L865.863 53.0197C877.053 53.0197 886.664 53.2102 893.626 53.319L901.72 53.5094C902.718 53.4992 903.716 53.5537 904.709 53.6726C903.795 53.8021 902.875 53.8566 901.955 53.8359L893.626 54.1623C886.77 54.2983 877.011 54.4343 865.585 54.4887H865.073V53.8086C865.073 50.1634 865.073 46.3277 865.073 42.3832C865.073 40.4245 865.073 38.4114 865.073 36.3712V30.2504L865.628 29.5431L904.389 29.7063H904.816V30.2232C904.709 37.4049 904.645 43.3081 904.581 47.6335C904.581 49.5105 904.581 51.0611 904.581 52.2852C904.581 52.7631 904.53 53.2387 904.432 53.6998Z" fill="#263238"/>
<path d="M85.1526 53.3734C85.1048 52.8129 85.1048 52.2474 85.1526 51.6868C85.1526 50.4627 85.1526 48.9665 85.1526 46.9534C85.1526 42.7369 85.0458 36.9425 84.9604 29.7879L85.3448 30.2776L35.6282 30.4952C35.1156 31.1209 36.2902 29.6247 36.1834 29.7879V53.3463L35.6495 52.6662L71.1004 52.9926L81.5008 53.1831H84.3411H85.3662C85.0685 53.2333 84.7669 53.2333 84.4692 53.1831H81.757L71.4635 53.3734L35.436 54.1624H34.9021V29.8967C34.7739 29.8967 35.9485 28.5366 35.4573 29.1895L85.174 29.407H85.5584V29.6791C85.5584 36.9425 85.4089 42.8729 85.3662 47.1439C85.3662 49.0209 85.3662 50.5442 85.3662 51.7412C85.3322 52.2921 85.2608 52.8383 85.1526 53.3734V53.3734Z" fill="#263238"/>
<path d="M1495.27 193.662C1495.27 193.662 1495.27 193.01 1495.27 191.921C1495.27 190.833 1495.27 189.065 1495.27 187.133C1495.27 182.862 1495.14 177.095 1495.05 170.05L1495.46 170.594L1461.46 170.757L1462.01 170.05V176.17C1462.01 178.211 1462.01 180.224 1462.01 182.21C1462.01 186.154 1462.01 189.963 1462.01 193.608L1461.5 192.955C1471.35 192.955 1479.76 193.145 1485.81 193.254L1492.87 193.445C1493.75 193.435 1494.63 193.49 1495.5 193.608C1494.71 193.738 1493.91 193.793 1493.11 193.771L1486.15 193.962C1480.15 193.962 1471.56 194.234 1461.5 194.261H1460.97V193.608C1460.97 189.963 1460.97 186.154 1460.97 182.21V170.05L1461.52 169.342L1495.52 169.505H1495.95V170.022C1495.95 177.204 1495.78 183.107 1495.74 187.433C1495.74 189.31 1495.74 190.86 1495.63 192.085C1495.56 192.629 1495.44 193.159 1495.27 193.662V193.662Z" fill="#263238"/>
</g>
<defs>
<filter id="filter0_d_144_1406" x="0" y="0" width="1525" height="238" filterUnits="userSpaceOnUse" color-interpolation-filters="sRGB">
<feFlood flood-opacity="0" result="BackgroundImageFix"/>
<feColorMatrix in="SourceAlpha" type="matrix" values="0 0 0 0 0 0 0 0 0 0 0 0 0 0 0 0 0 0 127 0" result="hardAlpha"/>
<feOffset dy="4"/>
<feGaussianBlur stdDeviation="2"/>
<feComposite in2="hardAlpha" operator="out"/>
<feColorMatrix type="matrix" values="0 0 0 0 0 0 0 0 0 0 0 0 0 0 0 0 0 0 0.25 0"/>
<feBlend mode="normal" in2="BackgroundImageFix" result="effect1_dropShadow_144_1406"/>
<feBlend mode="normal" in="SourceGraphic" in2="effect1_dropShadow_144_1406" result="shape"/>
</filter>
</defs>
</svg>
