<svg width="1752" height="423" viewBox="0 0 1752 423" fill="none" xmlns="http://www.w3.org/2000/svg">
<path d="M576.962 144.503H470.484V422.889H576.962V144.503Z" fill="#76868D"/>
<path d="M1158.26 134.555H1054.89V422.889H1158.26V134.555Z" fill="#76868D"/>
<path d="M1749.7 134.555H1646.32V422.889H1749.7V134.555Z" fill="#76868D"/>
<path d="M576.962 144.504C576.962 144.504 646.46 63.5889 817.43 63.5889C988.401 63.5889 1055.43 144.53 1055.43 144.53H1158.85L1161.47 0.349487H470.484V144.53L576.962 144.504Z" fill="#76868D"/>
<path d="M2.61325 144.504C2.61325 144.504 61.7073 63.5889 232.555 63.5889C403.402 63.5889 470.484 144.53 470.484 144.53H576.494V0.322998H0" fill="#76868D"/>
<path d="M1158.44 144.504C1158.44 144.504 1237.77 63.5889 1408.15 63.5889C1578.53 63.5889 1646.33 144.53 1646.33 144.53H1751.23V0.322998H1052.13L1055.31 144.504H1158.44Z" fill="#76868D"/>
<path d="M1751.23 28.8203C1751.23 29.1907 1360.62 29.5083 878.867 29.5083C397.116 29.5083 6.45923 29.1907 6.45923 28.8203C6.45923 28.4498 396.968 28.1323 878.867 28.1323C1360.77 28.1323 1751.23 28.4233 1751.23 28.8203Z" fill="#263238"/>
<path d="M1158.26 211.765C1158.23 211.21 1158.23 210.653 1158.26 210.098C1158.26 208.934 1158.26 207.452 1158.26 205.547C1158.26 201.472 1158.11 195.836 1158.02 188.798L1158.44 189.247C1142.95 189.406 1119.75 189.485 1093.87 189.485L1094.51 188.798V194.645C1094.51 196.603 1094.51 198.561 1094.51 200.466V211.765L1093.89 211.077L1139.92 211.394L1153.46 211.58H1157.15H1158.46C1158.07 211.618 1157.69 211.618 1157.3 211.58H1153.75L1140.34 211.765L1093.89 212.082H1093.25V188.533L1093.89 187.845C1119.78 187.845 1142.98 187.845 1158.46 188.083H1158.9V188.533C1158.9 195.677 1158.73 201.419 1158.68 205.547C1158.68 207.399 1158.68 208.881 1158.68 210.018C1158.61 210.617 1158.47 211.203 1158.26 211.765Z" fill="#263238"/>
<g opacity="0.2">
<path opacity="0.2" d="M1133.56 211.659H1068.97V234.626H1133.56V211.659Z" fill="black"/>
</g>
<path d="M585.689 51.8405C585.65 51.2945 585.65 50.746 585.689 50.2C585.689 49.0358 585.689 47.554 585.689 45.6489C585.689 41.5741 585.566 35.9117 585.467 28.8998L585.886 29.3496C570.38 29.4819 547.181 29.5877 521.295 29.5877L521.936 28.8998V40.6215C521.936 44.4582 521.936 48.189 521.936 51.814L521.319 51.1525L567.347 51.4701L580.907 51.6553H584.58H585.911C585.517 51.6922 585.122 51.6922 584.728 51.6553H581.178L567.766 51.8405L521.319 52.158H520.703V51.4701C520.703 47.8451 520.703 44.1142 520.703 40.2775V28.9262L521.344 28.2383C547.23 28.2383 570.429 28.2383 585.936 28.4764H586.355V28.9262C586.355 36.0704 586.182 41.8122 586.108 45.9399C586.108 47.7657 586.108 49.2474 586.108 50.4117C586.004 50.899 585.864 51.3768 585.689 51.8405Z" fill="#263238"/>
<g opacity="0.2">
<path opacity="0.2" d="M560.913 51.8406H496.321V74.8078H560.913V51.8406Z" fill="black"/>
</g>
<path d="M1711.95 211.765C1711.9 211.211 1711.9 210.652 1711.95 210.098C1711.95 208.934 1711.95 207.452 1711.95 205.547C1711.95 201.472 1711.8 195.836 1711.71 188.798L1712.15 189.247C1696.64 189.406 1673.44 189.485 1647.56 189.485L1648.2 188.798V200.466C1648.2 204.303 1648.2 208.061 1648.2 211.686L1647.58 210.998L1693.61 211.315L1707.17 211.5H1710.84H1712.17C1711.78 211.537 1711.38 211.537 1710.99 211.5H1707.44L1694.03 211.686L1647.58 212.003H1646.97V211.765C1646.97 208.14 1646.97 204.383 1646.97 200.546V188.877L1647.61 188.189C1673.49 188.189 1696.69 188.189 1712.2 188.427H1712.35V188.877C1712.35 196.021 1712.17 201.763 1712.1 205.891C1712.1 207.743 1712.1 209.225 1712.1 210.363C1712.08 210.833 1712.03 211.302 1711.95 211.765Z" fill="#263238"/>
<path d="M1210.9 61.5249C1210.9 61.5249 1210.9 60.9163 1210.9 59.8844C1210.9 58.8524 1210.9 57.2384 1210.9 55.3068C1210.9 51.2584 1210.9 45.5961 1210.68 38.5578L1211.09 39.0075C1195.61 39.1663 1172.39 39.2457 1146.5 39.2457L1147.14 38.5578V50.3588C1147.14 54.1955 1147.14 57.9528 1147.14 61.5778L1146.53 60.9163L1192.56 61.2074L1206.11 61.419H1209.79H1211.12C1210.73 61.4579 1210.33 61.4579 1209.94 61.419H1206.41L1193 61.6042L1146.53 61.9218H1145.91V61.2603C1145.91 57.6353 1145.91 53.878 1145.91 50.0413V38.346C1147.19 36.9701 1146.28 37.9757 1146.55 37.6581C1172.44 37.6581 1195.66 37.6581 1211.14 37.8963H1211.56V38.346C1211.56 45.4902 1211.39 51.232 1211.34 55.3598C1211.34 57.212 1211.34 58.6936 1211.34 59.8314C1211.23 60.4073 1211.09 60.9735 1210.9 61.5249Z" fill="#263238"/>
<path d="M577.849 288.658C577.82 288.111 577.82 287.563 577.849 287.017C577.849 285.853 577.849 284.371 577.849 282.466C577.849 278.391 577.702 272.729 577.603 265.717L578.022 266.167C562.54 266.299 539.316 266.405 513.455 266.405L514.096 265.717V271.617C514.096 273.575 514.096 275.507 514.096 277.439V288.631L513.48 287.97L559.507 288.287L573.042 288.472H576.74H578.047C577.661 288.505 577.274 288.505 576.888 288.472H573.338L559.926 288.658L513.48 288.975H512.839V265.743C514.121 264.367 513.208 265.346 513.504 265.055C539.366 265.055 562.589 265.055 578.071 265.293H578.293V265.743C578.293 272.887 578.121 278.629 578.071 282.757C578.071 284.583 578.071 286.064 578.071 287.229C578.043 287.712 577.968 288.191 577.849 288.658Z" fill="#263238"/>
<path d="M515.674 196.709C515.635 196.145 515.635 195.579 515.674 195.016C515.674 193.799 515.674 192.37 515.55 190.412C515.55 186.284 515.403 180.648 515.304 173.768L515.772 174.271L471.027 174.456L471.668 173.768V185.569C471.668 189.406 471.668 193.137 471.668 196.683L471.051 196.048C483.97 196.048 495.064 196.233 503.101 196.365L512.444 196.524C513.596 196.514 514.748 196.567 515.896 196.683C514.84 196.812 513.778 196.873 512.715 196.868L503.52 197.027C495.606 197.159 484.315 197.291 471.15 197.344H470.533V196.683C470.533 193.137 470.533 189.406 470.533 185.569V173.768L471.174 173.08L515.92 173.266H516.413V173.768C516.413 180.754 516.216 186.496 516.167 190.703C516.167 192.528 516.167 194.037 516.044 195.227C515.971 195.734 515.847 196.231 515.674 196.709Z" fill="#263238"/>
<path d="M1039.46 52.555C1039.46 52.555 1039.46 51.9464 1039.46 50.8616C1039.46 49.7767 1039.46 48.2156 1039.46 46.2311C1039.46 42.1033 1039.29 36.4674 1039.19 29.6142L1039.66 30.117L994.91 30.3022L995.551 29.6142V41.4153C995.551 45.252 995.551 48.9829 995.551 52.5286L994.935 51.8935C1007.85 51.8935 1018.95 52.0787 1026.98 52.1846L1036.33 52.3698C1037.48 52.3599 1038.63 52.4129 1039.78 52.5286C1038.72 52.6545 1037.66 52.7075 1036.6 52.6873L1026.98 53.0048C1019.07 53.1371 1007.8 53.2694 994.614 53.3223H994.022V52.6608C994.022 49.1152 994.022 45.3844 994.022 41.5477C994.022 39.6426 994.022 37.6845 994.022 35.7V29.7465L994.663 29.0586L1039.41 29.2173H1039.9V29.7201C1039.78 36.7055 1039.71 42.4473 1039.63 46.6544C1039.63 48.4802 1039.63 49.9884 1039.63 51.1791C1039.63 51.6439 1039.57 52.1064 1039.46 52.555Z" fill="#263238"/>
<path d="M93.6827 52.2375C93.6276 51.6923 93.6276 51.1422 93.6827 50.597C93.6827 49.4063 93.6827 47.951 93.6827 45.993C93.6827 41.8917 93.5595 36.2557 93.4609 29.2967L93.9046 29.773L36.5117 29.9846C35.92 30.5932 37.2759 29.138 37.1527 29.2967V52.2111L36.5363 51.5496L77.4609 51.8671L89.467 52.0524H92.7459H93.9293C93.5856 52.1012 93.2375 52.1012 92.8938 52.0524H89.7629L77.88 52.2375L36.2898 53.0049H35.6735V29.4025C35.5255 29.4025 36.8815 28.0796 36.3145 28.7146L93.7074 28.9262H94.1512V29.1909C94.1512 36.2557 93.9786 42.024 93.9293 46.1782C93.9293 48.004 93.9293 49.4857 93.9293 50.6499C93.8901 51.1858 93.8076 51.717 93.6827 52.2375Z" fill="#263238"/>
<path d="M1721.52 188.692C1721.52 188.692 1721.52 188.057 1721.52 186.998C1721.52 185.94 1721.52 184.22 1721.52 182.341C1721.52 178.187 1721.37 172.578 1721.27 165.724L1721.74 166.254L1682.49 166.412L1683.13 165.724V171.678C1683.13 173.662 1683.13 175.62 1683.13 177.552C1683.13 181.389 1683.13 185.093 1683.13 188.639L1682.54 188.004C1693.91 188.004 1703.62 188.189 1710.6 188.295L1718.76 188.48C1719.77 188.471 1720.78 188.524 1721.79 188.639C1720.87 188.766 1719.95 188.819 1719.03 188.798L1710.99 188.983C1704.06 188.983 1694.15 189.247 1682.54 189.274H1681.92V188.639C1681.92 185.093 1681.92 181.389 1681.92 177.552V165.724L1682.57 165.036L1721.81 165.195H1722.31V165.698C1722.31 172.683 1722.11 178.425 1722.06 182.632C1722.06 184.458 1722.06 185.966 1721.94 187.157C1721.86 187.686 1721.72 188.202 1721.52 188.692Z" fill="#263238"/>
</svg>
