<svg width="1452" height="171" viewBox="0 0 1452 171" fill="none" xmlns="http://www.w3.org/2000/svg">
<path d="M269.484 40.5897C264.262 34.2635 259.373 27.6294 254.84 20.7182C249.943 14.0874 245.392 7.17077 241.207 0C246.425 6.33885 251.314 12.9816 255.851 19.8979C260.741 26.5252 265.292 33.4326 269.484 40.5897Z" fill="#263238"/>
<path d="M20.5843 169.847C15.4072 169.865 10.4308 167.699 6.72917 163.814C3.37632 160.321 0.0481113 156.14 0.442565 153.759C3.2269 142.329 6.78647 131.133 11.0928 120.261C15.8509 108.407 41.4657 58.7412 50.5381 51.2001C54.404 48.35 58.6992 46.2374 63.2346 44.9556C70.7101 42.5916 78.4677 41.4149 86.2608 41.4628H343.543C345.46 45.2479 347.045 49.2164 348.276 53.3169C348.671 56.2804 348.474 157.569 348.474 157.569V169.847H20.5843Z" fill="#E0E0E0"/>
<path d="M60.7201 63.8744L26.945 126.399C26.2944 127.645 25.9635 129.054 25.9859 130.482C26.0084 131.909 26.3834 133.305 27.0727 134.527C27.762 135.748 28.741 136.751 29.9096 137.434C31.0783 138.117 32.3947 138.454 33.7247 138.412H348.474V56.0422L74.6739 55.4072C71.8611 55.3848 69.092 56.1549 66.6434 57.6407C64.1948 59.1266 62.1523 61.2761 60.7201 63.8744Z" fill="#388087"/>
<path d="M155.537 169.582H87.4441V75.4375C87.4441 74.0947 87.9394 72.8065 88.8218 71.8545C89.7041 70.9025 90.9018 70.3642 92.1529 70.3572H150.828C152.079 70.3642 153.277 70.9025 154.159 71.8545C155.041 72.8065 155.537 74.0947 155.537 75.4375V169.582Z" fill="#388087"/>
<path d="M155.537 169.582C155.518 169.274 155.518 168.964 155.537 168.656C155.537 167.994 155.537 167.121 155.537 166.01C155.537 163.629 155.537 160.268 155.537 156.008C155.537 147.303 155.413 134.84 155.315 119.546C155.315 111.873 155.315 103.485 155.315 94.4622C155.315 89.964 155.315 85.307 155.315 80.4913V76.8663C155.424 75.735 155.281 74.592 154.896 73.5323C154.459 72.5343 153.696 71.7434 152.751 71.3097C152.274 71.098 151.763 70.9901 151.247 70.9922H149.497H119.74H95.9496C94.643 70.9922 93.1638 70.9922 91.9804 70.9922C91.3962 71.0748 90.8357 71.2928 90.3376 71.6308C89.8396 71.9689 89.416 72.4191 89.096 72.9502C88.5952 73.8019 88.3619 74.8034 88.4304 75.8079V98.9869C88.4304 107.639 88.4304 116.054 88.4304 124.23C88.4304 140.529 88.4304 155.743 88.4304 169.476L87.888 168.894L137.195 169.185L151.001 169.344H154.649H155.956C155.562 169.369 155.167 169.369 154.772 169.344H151.222L137.54 169.503L87.8633 169.794H87.3456V169.238C87.3456 155.505 87.3456 140.291 87.3456 123.992C87.3456 115.824 87.3456 107.41 87.3456 98.7487V75.5698C87.2816 74.3035 87.5829 73.0469 88.2085 71.9712C88.6264 71.2627 89.182 70.6594 89.8373 70.2027C90.4925 69.7461 91.232 69.4467 92.0051 69.3252C93.5336 69.3252 94.7663 69.3252 96.1469 69.3252H151.469C152.129 69.3328 152.782 69.4765 153.392 69.7486C154.607 70.3063 155.59 71.3231 156.153 72.6062C156.599 73.8434 156.768 75.1758 156.646 76.4959V80.1473C156.646 84.9895 156.646 89.6994 156.646 94.2505C156.646 103.326 156.646 111.767 156.646 119.493C156.646 134.814 156.474 147.25 156.424 155.955C156.424 160.162 156.424 163.443 156.424 165.798C156.424 166.857 156.424 167.677 156.424 168.312C156.424 168.947 155.537 169.582 155.537 169.582Z" fill="#263238"/>
<path d="M116.436 73.0295H92.2762C91.0507 73.0295 90.0574 74.0957 90.0574 75.4109V131.533C90.0574 132.848 91.0507 133.914 92.2762 133.914H116.436C117.662 133.914 118.655 132.848 118.655 131.533V75.4109C118.655 74.0957 117.662 73.0295 116.436 73.0295Z" fill="#F5F5F5"/>
<path d="M116.436 133.993H92.2515C91.65 133.993 91.073 133.737 90.6477 133.28C90.2223 132.824 89.9834 132.205 89.9834 131.559V75.4109C89.9834 74.7653 90.2223 74.1461 90.6477 73.6895C91.073 73.233 91.65 72.9766 92.2515 72.9766H116.436C117.038 72.9766 117.615 73.233 118.04 73.6895C118.466 74.1461 118.705 74.7653 118.705 75.4109V131.559C118.705 132.205 118.466 132.824 118.04 133.28C117.615 133.737 117.038 133.993 116.436 133.993ZM92.2515 73.1353C91.6827 73.1353 91.1371 73.3779 90.7349 73.8096C90.3326 74.2413 90.1066 74.8268 90.1066 75.4373V131.585C90.1066 132.196 90.3326 132.782 90.7349 133.213C91.1371 133.645 91.6827 133.888 92.2515 133.888H116.436C117.005 133.888 117.551 133.645 117.953 133.213C118.355 132.782 118.581 132.196 118.581 131.585V75.4109C118.581 74.8003 118.355 74.2148 117.953 73.7831C117.551 73.3514 117.005 73.1089 116.436 73.1089L92.2515 73.1353Z" fill="#263238"/>
<path d="M149.324 73.0295H126.988C125.259 73.0295 123.857 74.534 123.857 76.3899V130.554C123.857 132.409 125.259 133.914 126.988 133.914H149.324C151.053 133.914 152.455 132.409 152.455 130.554V76.3899C152.455 74.534 151.053 73.0295 149.324 73.0295Z" fill="#F5F5F5"/>
<path d="M149.324 133.993H126.988C126.142 133.993 125.331 133.635 124.731 132.995C124.13 132.356 123.79 131.488 123.783 130.58V76.3899C123.79 75.4822 124.13 74.614 124.731 73.9747C125.331 73.3353 126.142 72.9765 126.988 72.9766H149.324C150.17 72.9765 150.981 73.3353 151.582 73.9747C152.182 74.614 152.522 75.4822 152.529 76.3899V130.58C152.522 131.488 152.182 132.356 151.582 132.995C150.981 133.635 150.17 133.993 149.324 133.993ZM126.988 73.1353C126.585 73.1318 126.184 73.2141 125.811 73.3774C125.437 73.5408 125.097 73.7819 124.811 74.0869C124.524 74.3919 124.297 74.7548 124.142 75.1546C123.986 75.5544 123.906 75.9833 123.906 76.4164V130.606C123.913 131.479 124.241 132.314 124.818 132.928C125.395 133.543 126.175 133.888 126.988 133.888H149.324C150.137 133.888 150.917 133.543 151.494 132.928C152.072 132.314 152.399 131.479 152.406 130.606V76.3899C152.406 75.9568 152.326 75.5279 152.171 75.1281C152.016 74.7283 151.788 74.3655 151.502 74.0605C151.215 73.7554 150.875 73.5143 150.501 73.351C150.128 73.1876 149.728 73.1054 149.324 73.1089L126.988 73.1353Z" fill="#263238"/>
<path d="M121.49 169.45C121.145 169.45 120.849 147.303 120.849 119.97C120.849 92.6363 121.145 70.4893 121.49 70.4893C121.836 70.4893 122.131 92.6363 122.131 119.97C122.131 147.303 121.836 169.45 121.49 169.45Z" fill="#263238"/>
<path d="M118.655 124.124H90.0574V133.914H118.655V124.124Z" fill="#263238"/>
<path d="M152.455 124.124H123.857V133.914H152.455V124.124Z" fill="#263238"/>
<path d="M58.7478 67.5258H348.474V56.0422L75.093 55.4336C70.463 55.5476 66.0505 57.565 62.7663 61.0696L58.7478 67.5258Z" fill="#DC532D"/>
<path d="M43.6845 59.5085C43.6845 59.5085 46.1498 60.9638 44.5473 64.5624C43.2407 67.6053 28.0789 90.8372 20.8555 106.66C13.6321 122.483 9.51496 133.914 9.51496 133.914H6.16211C6.16211 133.914 10.5751 121.61 13.139 115.604C15.9988 108.909 24.4549 92.2395 32.4426 78.0041L43.6845 59.5085Z" fill="#EBEBEB"/>
<path d="M348.474 151.325C348.474 151.695 272.295 152.013 178.366 152.013C84.4364 152.013 8.25757 151.695 8.25757 151.325C8.25757 150.954 84.3871 150.637 178.366 150.637C272.344 150.637 348.474 150.928 348.474 151.325Z" fill="#263238"/>
<path d="M348.474 169.847L20.5844 170.614C16.7504 170.073 13.077 168.622 9.8315 166.365C6.58603 164.109 3.85023 161.104 1.82324 157.569H348.474V169.847Z" fill="#DC532D"/>
<path d="M81.0837 41.6216C80.6058 41.8368 80.1107 42.005 79.6045 42.1243C78.6183 42.4154 77.1391 42.8652 75.3641 43.5531C70.2076 45.4331 65.3329 48.107 60.8926 51.4911C59.4296 52.5953 58.0527 53.8254 56.7755 55.1691C55.4413 56.6792 54.1979 58.2789 53.0529 59.9584C50.5875 63.4511 48.1222 67.3142 45.6569 71.442C40.7262 79.724 35.5243 88.985 30.2732 98.8016C25.022 108.618 20.8803 118.514 17.133 127.458C13.6703 135.304 10.8492 143.458 8.7015 151.827C8.53213 152.701 8.40867 153.585 8.3317 154.473C8.28237 154.877 8.28237 155.287 8.3317 155.691C8.32687 156.086 8.38525 156.48 8.50429 156.855C9.00324 158.279 9.74759 159.59 10.6984 160.718C12.2374 162.644 13.9374 164.416 15.777 166.01C17.2562 167.307 18.4889 168.259 19.3024 168.894C19.7328 169.21 20.1445 169.555 20.5351 169.926C20.0416 169.735 19.5765 169.467 19.1545 169.132C18.2917 168.55 17.0097 167.677 15.4565 166.486C13.5432 164.978 11.7683 163.276 10.1561 161.406C9.10184 160.207 8.2657 158.807 7.69073 157.278C7.55319 156.852 7.47832 156.406 7.46884 155.955C7.41957 155.489 7.41957 155.019 7.46884 154.553C7.46884 153.68 7.61676 152.727 7.81398 151.907C9.8455 143.424 12.6019 135.159 16.0482 127.22C19.7462 118.197 24.0605 108.407 29.1638 98.4047C34.267 88.4029 39.6661 79.3006 44.6707 71.0186C47.1361 66.8909 49.6014 63.0806 52.0667 59.535C53.2672 57.8248 54.5683 56.1986 55.9619 54.6664C57.2921 53.3149 58.7181 52.0764 60.227 50.962C64.7575 47.5972 69.7477 45.0085 75.019 43.2886C76.4438 42.7994 77.8923 42.3931 79.3579 42.0714C79.9055 41.8184 80.489 41.6663 81.0837 41.6216Z" fill="#263238"/>
<path d="M6.16211 133.914C7.19048 133.749 8.16461 133.312 8.99724 132.644C9.89593 131.771 10.5456 130.642 10.8709 129.389L12.8432 124.494C14.347 120.763 16.122 116.556 18.045 111.74C20.1299 106.501 22.5262 101.41 25.2191 96.4995C30.8894 85.9155 36.5843 76.9456 40.6767 70.3835L43.4133 65.9382C44.1599 64.9169 44.6444 63.7037 44.8185 62.4191C44.8805 61.6132 44.6608 60.8115 44.2022 60.17C43.8817 59.7202 43.6351 59.5349 43.6845 59.5085C43.7338 59.482 43.9803 59.5085 44.3994 59.9847C44.6947 60.305 44.9274 60.6852 45.084 61.1032C45.2407 61.5212 45.318 61.9686 45.3116 62.4191C45.2263 63.8257 44.7829 65.1803 44.0296 66.3351C43.29 67.711 42.4025 69.2193 41.5643 70.9127C37.6444 77.6071 32.0727 86.7887 26.4518 97.1874C23.782 102.07 21.3784 107.115 19.253 112.296L13.8046 124.865C13.0157 126.629 12.3008 128.243 11.6598 129.707C11.3789 130.389 11.0577 131.052 10.6983 131.691C10.3416 132.22 9.90884 132.684 9.41635 133.067C8.7405 133.585 7.95005 133.905 7.12359 133.993C6.45795 134.046 6.16211 133.967 6.16211 133.914Z" fill="#263238"/>
<path d="M60.7201 63.8744C60.9302 63.4195 61.1777 62.9855 61.4597 62.5778C62.2199 61.325 63.1411 60.1937 64.1962 59.2174C65.9893 57.639 68.0727 56.4849 70.3102 55.8305C73.4036 55.1935 76.5597 54.9801 79.7031 55.1955H140.449L348.375 55.4336H348.991V56.0951C348.991 82.5551 348.991 110.153 348.991 138.465V139.153H333.164L62.5937 138.941H37.9404C35.9988 139.016 34.0547 138.945 32.1222 138.73C30.1619 138.349 28.404 137.198 27.1915 135.502C26.017 133.866 25.4542 131.818 25.6137 129.76C25.8779 127.846 26.5717 126.03 27.6353 124.468L45.4103 91.7632C50.341 82.8462 54.113 75.8872 56.7016 71.1509L59.66 65.8589L60.7201 64.0596C60.7201 64.0596 60.4242 64.7211 59.7832 65.9382C59.1423 67.1554 58.1808 69.0076 56.9235 71.3626L45.8541 92.1336C40.9234 101.13 35.1053 112.137 28.2516 124.944C27.2552 126.414 26.604 128.121 26.3533 129.919C26.1934 131.813 26.7039 133.702 27.7832 135.211C28.8854 136.725 30.4621 137.76 32.2208 138.121C34.1055 138.309 35.9998 138.362 37.8911 138.28H62.5444L333.115 138.068H348.424L347.783 138.756V56.0422L348.4 56.7037L140.622 55.9893L79.8757 55.6717C76.7621 55.4164 73.6308 55.5853 70.5568 56.1745C68.3571 56.7908 66.3005 57.89 64.5167 59.4026C63.0421 60.6721 61.7612 62.1809 60.7201 63.8744Z" fill="#263238"/>
<g opacity="0.3">
<path opacity="0.3" d="M68.9049 67.5259V114.201L87.4442 123.674V138.333H33.7246C31.8149 138.38 29.9577 137.659 28.5167 136.313C27.0757 134.968 26.1548 133.093 25.9341 131.056C25.8268 129.728 26.0569 128.393 26.5998 127.193L58.6491 67.4465L68.9049 67.5259Z" fill="black"/>
</g>
<g opacity="0.6">
<path opacity="0.6" d="M93.1638 133.94H113.848L118.655 125.791V91.8425L93.1638 133.94Z" fill="white"/>
</g>
<g opacity="0.6">
<path opacity="0.6" d="M130.021 73.0295L123.857 83.243V117.006L149.792 73.0295H130.021Z" fill="white"/>
</g>
<path d="M237.435 73.0295H167.814C164.914 73.0295 162.563 75.5528 162.563 78.6655V128.278C162.563 131.391 164.914 133.914 167.814 133.914H237.435C240.335 133.914 242.686 131.391 242.686 128.278V78.6655C242.686 75.5528 240.335 73.0295 237.435 73.0295Z" fill="#F5F5F5"/>
<path d="M237.435 133.914C238.301 133.809 239.139 133.521 239.901 133.067C240.823 132.5 241.549 131.627 241.971 130.58C242.443 129.101 242.586 127.525 242.391 125.976C242.391 118.673 242.391 108.301 242.193 95.5207C242.193 92.319 242.193 88.9586 242.193 85.4394V80.1474C242.238 79.2622 242.189 78.3744 242.045 77.5014C241.848 76.6754 241.467 75.9129 240.936 75.2788C240.384 74.6659 239.71 74.1955 238.964 73.9028C238.162 73.6665 237.328 73.577 236.498 73.6382H219.389H167.888C166.882 73.6437 165.905 74.0003 165.105 74.6543C164.304 75.3082 163.723 76.224 163.451 77.2633C163.251 78.3876 163.193 79.5357 163.278 80.6766V84.2752C163.278 89.038 163.278 93.7478 163.278 98.3783C163.278 107.613 163.278 116.53 163.278 125.024V128.199C163.271 129.133 163.51 130.05 163.968 130.845C164.415 131.629 165.053 132.268 165.813 132.693C166.574 133.117 167.427 133.311 168.283 133.253H179.204H198.779L227.155 133.464H234.871H236.868H237.558H236.868H234.871L227.155 133.597L198.779 133.808H179.204H168.283C167.235 133.872 166.191 133.633 165.259 133.117C164.326 132.6 163.54 131.825 162.982 130.871C162.396 129.883 162.088 128.735 162.095 127.564V125.103C162.095 116.609 162.095 107.692 162.095 98.4577V80.756C162.014 79.4897 162.088 78.2176 162.316 76.9722C162.665 75.644 163.406 74.4737 164.429 73.6382C165.452 72.8027 166.701 72.3476 167.987 72.3417H219.488H236.597C237.562 72.2635 238.532 72.3802 239.457 72.6857C240.401 73.0122 241.25 73.5956 241.922 74.3791C242.567 75.1264 243.025 76.0367 243.253 77.0251C243.422 77.9663 243.471 78.9274 243.401 79.8828C243.401 81.7085 243.401 83.5078 243.401 85.1748C243.401 88.694 243.401 92.0544 243.401 95.256C243.401 108.036 243.229 118.409 243.204 125.712C243.339 127.335 243.137 128.971 242.612 130.501C242.14 131.621 241.345 132.548 240.344 133.147C239.741 133.492 239.078 133.7 238.397 133.755C238.095 133.901 237.763 133.956 237.435 133.914Z" fill="#263238"/>
<path d="M162.563 124.124H242.686V130.924C242.686 131.717 242.393 132.477 241.87 133.038C241.348 133.599 240.639 133.914 239.9 133.914H165.275C164.536 133.914 163.827 133.599 163.305 133.038C162.782 132.477 162.489 131.717 162.489 130.924V124.124H162.563Z" fill="#263238"/>
<g opacity="0.6">
<path opacity="0.6" d="M209.971 73.0295L173.115 133.94H193.799L229.768 73.0295H209.971Z" fill="white"/>
</g>
<path d="M323.943 73.0295H254.816C251.779 73.0295 249.318 75.6713 249.318 78.9301V128.013C249.318 131.272 251.779 133.914 254.816 133.914H323.943C326.98 133.914 329.441 131.272 329.441 128.013V78.9301C329.441 75.6713 326.98 73.0295 323.943 73.0295Z" fill="#F5F5F5"/>
<path d="M323.944 133.914C324.806 133.825 325.643 133.555 326.409 133.12C327.33 132.555 328.083 131.719 328.578 130.712C328.88 130.077 329.064 129.385 329.121 128.675C329.121 127.908 329.121 127.034 329.121 126.029C329.121 118.726 328.997 108.38 328.899 95.6264C328.899 92.4247 328.899 89.0643 328.899 85.5716C328.899 83.7987 328.899 82.0259 328.899 80.2796C328.941 79.3944 328.892 78.5069 328.751 77.6336C328.568 76.8125 328.204 76.0505 327.691 75.4109C327.152 74.7449 326.473 74.2268 325.709 73.8999C324.946 73.5731 324.121 73.4471 323.303 73.5323H306.242H254.816C253.807 73.5381 252.823 73.8762 251.999 74.5008C251.175 75.1254 250.548 76.0064 250.205 77.025C249.946 78.1219 249.854 79.2569 249.934 80.3854V98.0607C249.934 107.295 249.934 116.186 249.934 124.679V127.828C249.943 128.757 250.172 129.667 250.6 130.474C251.028 131.27 251.642 131.933 252.381 132.397C253.12 132.861 253.959 133.11 254.816 133.12H265.712H285.262L313.564 133.332H321.281H323.278H323.968H323.278H321.281L313.564 133.464L285.262 133.676H265.712H254.816C253.765 133.669 252.734 133.371 251.822 132.81C250.91 132.249 250.15 131.444 249.614 130.474C249.054 129.477 248.763 128.331 248.776 127.167C248.776 126.135 248.776 125.076 248.776 124.018C248.776 115.524 248.776 106.634 248.776 97.3992C248.776 92.7687 248.776 88.0853 248.776 83.3225V77.8982C248.784 77.2226 248.892 76.5528 249.096 75.9137C249.523 74.6232 250.311 73.5059 251.353 72.7149C252.394 71.9239 253.638 71.4977 254.914 71.4949H306.341H323.401C324.376 71.4143 325.354 71.5807 326.258 71.9805C327.161 72.3804 327.965 73.0026 328.603 73.7969C329.217 74.5557 329.648 75.4641 329.86 76.4429C330.024 77.3846 330.082 78.344 330.033 79.3006C330.033 81.1263 330.033 82.8991 330.033 84.5926C330.033 88.0853 330.033 91.4457 330.033 94.6474C330.033 107.401 329.885 117.747 329.836 125.05C329.836 125.95 329.836 126.77 329.836 127.696C329.717 128.674 329.38 129.606 328.852 130.412C328.323 131.219 327.62 131.876 326.803 132.326C326.196 132.655 325.534 132.853 324.856 132.909C324.678 133.353 324.353 133.711 323.944 133.914Z" fill="#263238"/>
<path d="M249.318 124.124H329.441V130.659C329.441 131.53 329.119 132.364 328.546 132.979C327.972 133.595 327.195 133.94 326.384 133.94H252.424C251.613 133.94 250.836 133.595 250.263 132.979C249.689 132.364 249.367 131.53 249.367 130.659V124.124H249.318Z" fill="#263238"/>
<g opacity="0.6">
<path opacity="0.6" d="M296.751 73.0295L259.894 133.94H280.578L316.523 73.0295H296.751Z" fill="white"/>
</g>
<path d="M746.231 53.4756H720.394V164.025H746.231V53.4756Z" fill="#388087"/>
<g opacity="0.2">
<path opacity="0.2" d="M746.231 53.4756H720.394V164.025H746.231V53.4756Z" fill="black"/>
</g>
<path d="M718.989 170.561L356.56 169.82V53.4756L362.23 41.4099L712.85 39.7429L718.989 49.6125V170.561Z" fill="#E0E0E0"/>
<path d="M719.284 55.3806H356.56V138.412H719.284V55.3806Z" fill="#388087"/>
<path d="M530.859 169.556H462.767V75.3052C462.773 73.9905 463.264 72.732 464.133 71.8048C465.001 70.8776 466.176 70.3572 467.401 70.3572H526.224C527.449 70.3572 528.624 70.8776 529.493 71.8048C530.361 72.732 530.853 73.9905 530.859 75.3052V169.556Z" fill="#388087"/>
<path d="M530.859 169.556C530.825 169.248 530.825 168.937 530.859 168.63C530.859 167.968 530.859 167.095 530.859 165.984C530.859 163.602 530.859 160.268 530.859 155.982C530.859 147.277 530.711 134.814 530.637 119.52C530.637 111.847 530.637 103.432 530.514 94.4358C530.514 89.9112 530.514 85.2542 530.514 80.4649V76.8399C530.621 75.7021 530.487 74.553 530.119 73.4795C529.682 72.4815 528.919 71.6905 527.975 71.2568C527.493 71.0661 526.984 70.9676 526.471 70.9657H470.976C469.669 70.9657 468.215 70.9657 466.982 70.9657C466.398 71.0365 465.835 71.2467 465.336 71.5809C464.837 71.9151 464.414 72.3649 464.098 72.8974C463.605 73.7521 463.381 74.7535 463.457 75.755V98.934C463.457 107.586 463.457 116.027 463.457 124.177C463.457 140.503 463.457 155.717 463.457 169.45L462.939 168.894L512.246 169.185L526.052 169.318H529.7C530.135 169.28 530.572 169.28 531.007 169.318C530.613 169.359 530.217 169.359 529.824 169.318H526.273H512.566L462.914 169.609H462.397V169.053C462.397 155.32 462.397 140.106 462.397 123.78C462.397 115.63 462.397 107.19 462.397 98.5371V75.3581C462.32 74.0942 462.613 72.8362 463.235 71.7596C463.648 71.0406 464.205 70.4298 464.866 69.972C465.527 69.5142 466.276 69.2208 467.056 69.1136C468.56 69.1136 469.817 69.1136 471.198 69.1136H494.988H524.745H526.52C527.189 69.1113 527.852 69.2554 528.468 69.5369C529.686 70.0753 530.672 71.086 531.229 72.3682C531.653 73.6111 531.813 74.94 531.697 76.2578V79.9357C531.697 84.7779 531.697 89.4613 531.697 94.0124C531.697 103.088 531.697 111.555 531.697 119.282C531.697 134.602 531.525 147.038 531.475 155.744C531.475 159.951 531.475 163.258 531.352 165.587C531.352 166.645 531.352 167.465 531.352 168.233C531.352 169 530.859 169.582 530.859 169.556Z" fill="#263238"/>
<path d="M490.28 73.0032H469.078C467.036 73.0032 465.38 74.7802 465.38 76.9722V129.919C465.38 132.111 467.036 133.888 469.078 133.888H490.28C492.322 133.888 493.978 132.111 493.978 129.919V76.9722C493.978 74.7802 492.322 73.0032 490.28 73.0032Z" fill="#F5F5F5"/>
<path d="M525.016 73.0032H501.941C500.416 73.0032 499.179 74.33 499.179 75.9667V130.924C499.179 132.561 500.416 133.888 501.941 133.888H525.016C526.541 133.888 527.777 132.561 527.777 130.924V75.9667C527.777 74.33 526.541 73.0032 525.016 73.0032Z" fill="#F5F5F5"/>
<path d="M496.813 169.423C496.468 169.423 496.172 147.276 496.172 119.943C496.172 92.6098 496.468 70.4893 496.813 70.4893C497.158 70.4893 497.454 92.6363 497.454 119.943C497.454 147.25 497.158 169.423 496.813 169.423Z" fill="#263238"/>
<path d="M493.978 124.097H465.38V133.888H493.978V124.097Z" fill="#263238"/>
<path d="M527.777 124.097H499.179V133.888H527.777V124.097Z" fill="#263238"/>
<path d="M356.56 55.4336V67.4994H719.284V56.0157L356.56 55.4336Z" fill="#DC532D"/>
<path d="M719.284 151.298C719.284 151.669 638.076 151.986 537.934 151.986C437.793 151.986 356.56 151.669 356.56 151.298C356.56 150.928 437.743 150.61 537.934 150.61C638.126 150.61 719.284 150.901 719.284 151.298Z" fill="#263238"/>
<path d="M718.989 170.614L356.585 169.82V158.337H718.989V170.614Z" fill="#DC532D"/>
<g opacity="0.6">
<g opacity="0.5">
<path opacity="0.5" d="M468.486 133.914H489.17L493.978 125.791V91.8162L468.486 133.914Z" fill="white"/>
</g>
<g opacity="0.5">
<path opacity="0.5" d="M505.343 73.0032L499.179 83.2432V116.98L525.115 73.0032H505.343Z" fill="white"/>
</g>
</g>
<path d="M613.497 73.0032H542.397C539.905 73.0032 537.885 75.1711 537.885 77.8454V129.045C537.885 131.72 539.905 133.888 542.397 133.888H613.497C615.989 133.888 618.009 131.72 618.009 129.045V77.8454C618.009 75.1711 615.989 73.0032 613.497 73.0032Z" fill="#F5F5F5"/>
<path d="M613.497 133.914C614.378 133.798 615.222 133.462 615.962 132.935C616.809 132.303 617.413 131.363 617.663 130.289C617.779 128.713 617.779 127.129 617.663 125.553C617.663 118.223 617.663 107.798 617.466 94.9649C617.466 91.7368 617.466 88.3499 617.466 84.8307C617.466 83.0579 617.466 81.2586 617.466 79.5387C617.525 78.6536 617.475 77.764 617.318 76.8927C617.119 76.0766 616.695 75.3441 616.101 74.7915C615.507 74.239 614.771 73.8923 613.99 73.7969C613.226 73.7969 612.215 73.7969 611.327 73.7969H594.07H542.298C541.308 73.8082 540.359 74.2209 539.641 74.9522C538.923 75.6835 538.49 76.6792 538.427 77.7395V84.9631C538.427 89.7523 538.427 94.4886 538.427 99.1191C538.427 108.407 538.427 117.377 538.427 125.923C538.427 126.982 538.427 128.04 538.427 129.098C538.404 130.047 538.673 130.977 539.192 131.744C539.699 132.476 540.405 133.022 541.213 133.306C542.089 133.493 542.985 133.555 543.876 133.491H554.797H574.52L603.019 133.729H610.76H612.782H613.472C613.243 133.768 613.011 133.768 612.782 133.729H610.76L603.019 133.861L574.52 134.073H554.797H543.827H542.471C541.937 134.07 541.406 133.99 540.893 133.835C539.848 133.486 538.933 132.791 538.28 131.85C537.636 130.886 537.291 129.729 537.293 128.543V125.368C537.293 116.821 537.293 107.851 537.293 98.5635V77.4749C537.357 76.0521 537.927 74.7096 538.885 73.7248C539.844 72.74 541.119 72.188 542.446 72.1829H594.218H611.475C612.437 72.1829 613.226 72.1829 614.261 72.1829C615.245 72.3284 616.168 72.779 616.917 73.4793C617.666 74.1796 618.208 75.0992 618.477 76.1254C618.652 77.0835 618.71 78.0619 618.649 79.036C618.649 80.8617 618.649 82.661 618.649 84.328C618.649 87.8472 618.649 91.2341 618.649 94.4622C618.649 107.295 618.477 117.721 618.428 125.05C618.481 126.667 618.415 128.286 618.23 129.892C617.937 131.072 617.254 132.098 616.307 132.776C615.727 133.177 615.07 133.43 614.384 133.517C614.116 133.711 613.814 133.846 613.497 133.914Z" fill="#263238"/>
<path d="M537.885 124.097H618.009V131.691C618.009 132.274 617.793 132.833 617.409 133.244C617.025 133.656 616.505 133.888 615.962 133.888H540.005C539.463 133.888 538.942 133.656 538.559 133.244C538.175 132.833 537.959 132.274 537.959 131.691V124.097H537.885Z" fill="#263238"/>
<g opacity="0.6">
<path opacity="0.6" d="M585.294 73.0032L548.437 133.914H569.121L605.066 73.0032H585.294Z" fill="white"/>
</g>
<path d="M700.942 73.0032H628.461C626.351 73.0032 624.64 74.8394 624.64 77.1045V129.786C624.64 132.051 626.351 133.888 628.461 133.888H700.942C703.053 133.888 704.764 132.051 704.764 129.786V77.1045C704.764 74.8394 703.053 73.0032 700.942 73.0032Z" fill="#F5F5F5"/>
<path d="M700.943 133.914C701.847 133.807 702.703 133.421 703.408 132.803C703.801 132.428 704.114 131.967 704.327 131.451C704.539 130.935 704.646 130.377 704.641 129.813C704.641 128.384 704.641 126.77 704.641 124.971C704.641 117.615 704.517 107.163 704.419 94.2505C704.419 91.0223 704.419 87.609 704.419 84.0898C704.419 82.317 704.419 80.4913 704.419 78.6655C704.479 77.7804 704.43 76.8905 704.271 76.0195C704.026 75.2417 703.55 74.572 702.915 74.1144C702.229 73.6608 701.425 73.4567 700.622 73.5323H680.53H628.536C628.062 73.5425 627.595 73.6639 627.169 73.8878C626.744 74.1118 626.368 74.433 626.07 74.8288C625.782 75.2393 625.573 75.7069 625.454 76.2048C625.413 76.7684 625.413 77.3346 625.454 77.8982V99.4102C625.454 108.724 625.454 117.747 625.454 126.32V129.522C625.423 130.428 625.724 131.311 626.292 131.982C626.84 132.649 627.611 133.058 628.437 133.12H642.268H661.99L690.613 133.358H698.403H700.425H701.115C700.886 133.397 700.654 133.397 700.425 133.358H698.403L690.613 133.491L661.99 133.702H642.268H631.248H628.363C627.244 133.611 626.197 133.073 625.429 132.194C624.671 131.286 624.257 130.106 624.271 128.887V125.685C624.271 117.112 624.271 108.089 624.271 98.7751C624.271 94.0917 624.271 89.3554 624.271 84.5396V77.2631C624.243 76.5988 624.284 75.9331 624.394 75.2786C624.541 74.5776 624.827 73.9188 625.232 73.3471C625.653 72.783 626.185 72.3265 626.791 72.0107C627.396 71.695 628.06 71.5278 628.733 71.5213H680.727H700.721C701.727 71.466 702.725 71.7431 703.58 72.3151C704.45 72.9387 705.08 73.8784 705.356 74.9611C705.538 75.9271 705.604 76.9142 705.553 77.8982C705.553 79.7239 705.553 81.5497 705.553 83.3225C705.553 86.8417 705.553 90.255 705.553 93.4831C705.553 106.396 705.405 116.847 705.356 124.203C705.356 126.002 705.356 127.616 705.356 129.045C705.341 129.66 705.204 130.264 704.953 130.816C704.702 131.368 704.343 131.856 703.901 132.247C703.598 132.79 703.162 133.233 702.64 133.527C702.118 133.821 701.531 133.955 700.943 133.914Z" fill="#263238"/>
<path d="M624.64 124.097H704.764V132.432C704.764 132.623 704.729 132.813 704.66 132.989C704.592 133.166 704.492 133.326 704.366 133.461C704.241 133.596 704.091 133.704 703.927 133.777C703.762 133.85 703.586 133.888 703.408 133.888H626.021C625.661 133.888 625.316 133.734 625.062 133.461C624.808 133.188 624.665 132.818 624.665 132.432V124.097H624.64Z" fill="#263238"/>
<g opacity="0.6">
<path opacity="0.6" d="M672.073 73.0032L635.217 133.914H655.876L691.845 73.0032H672.073Z" fill="white"/>
</g>
<path d="M447.777 73.0032H379.783C376.434 73.0032 373.719 75.9174 373.719 79.5123V127.378C373.719 130.973 376.434 133.888 379.783 133.888H447.777C451.127 133.888 453.842 130.973 453.842 127.378V79.5123C453.842 75.9174 451.127 73.0032 447.777 73.0032Z" fill="#F5F5F5"/>
<path d="M447.752 133.914C448.607 133.798 449.438 133.539 450.218 133.147C451.342 132.546 452.263 131.582 452.851 130.391C453.439 129.2 453.665 127.841 453.497 126.505C453.497 119.255 453.373 108.936 453.299 96.235C453.299 93.0333 453.299 89.6994 453.299 86.2066C453.299 84.4603 453.299 82.6875 453.299 80.9146C453.349 80.0305 453.308 79.1431 453.176 78.2686C453.003 77.4382 452.657 76.6604 452.165 75.9931C451.683 75.2869 451.057 74.7078 450.335 74.2998C449.613 73.8918 448.814 73.6655 447.999 73.6381H431.013H379.783C378.758 73.6372 377.753 73.944 376.882 74.5238C376.011 75.1036 375.308 75.9332 374.853 76.9192C374.419 77.9188 374.232 79.0213 374.31 80.1208V83.6929C374.31 88.4293 374.31 93.1127 374.31 97.7167C374.31 106.925 374.31 115.789 374.31 124.177C374.31 125.235 374.31 126.267 374.31 127.325C374.346 128.246 374.565 129.148 374.951 129.971C375.353 130.788 375.928 131.492 376.631 132.025C377.333 132.558 378.143 132.906 378.994 133.041C382.544 133.2 386.39 133.041 389.743 133.041H409.244L437.447 133.279H445.115H447.112H447.777C447.557 133.319 447.332 133.319 447.112 133.279H445.115L437.447 133.411L409.244 133.623H389.743C386.218 133.623 382.717 133.623 378.822 133.623C377.79 133.465 376.806 133.051 375.95 132.412C375.094 131.773 374.389 130.928 373.891 129.945C373.42 128.923 373.159 127.804 373.127 126.664V124.309C373.127 115.842 373.127 106.978 373.127 97.849V80.1208C373.046 78.8108 373.275 77.5 373.792 76.3106C374.35 75.1009 375.211 74.0817 376.277 73.3667C377.344 72.6518 378.575 72.2694 379.833 72.2622H431.062H442.575H448.098C449.064 72.3112 450.008 72.5908 450.861 73.0805C451.714 73.5703 452.454 74.2579 453.028 75.0934C453.582 75.8795 453.976 76.7806 454.187 77.7394C454.343 78.6821 454.393 79.6416 454.335 80.5971C454.335 82.4228 454.335 84.1956 454.335 85.8891C454.335 89.3818 454.335 92.7158 454.335 95.9174C454.335 108.618 454.162 118.938 454.113 126.188C454.234 127.829 453.844 129.467 453.004 130.845C452.375 131.808 451.526 132.583 450.538 133.094C449.707 133.659 448.737 133.945 447.752 133.914Z" fill="#263238"/>
<path d="M373.719 124.097H453.719V128.913C453.719 130.232 453.231 131.498 452.361 132.431C451.492 133.363 450.313 133.888 449.084 133.888H378.354C377.124 133.888 375.945 133.363 375.076 132.431C374.207 131.498 373.719 130.232 373.719 128.913V124.097Z" fill="#263238"/>
<g opacity="0.6">
<path opacity="0.6" d="M421.127 73.0032L384.27 133.914H404.954L440.899 73.0032H421.127Z" fill="white"/>
</g>
<path d="M1088.84 170.614H1114.67V60.0641H1088.84V170.614Z" fill="#388087"/>
<g opacity="0.2">
<path opacity="0.2" d="M1088.84 170.614H1114.67V60.0641H1088.84V170.614Z" fill="black"/>
</g>
<path d="M1431.42 169.847C1436.6 169.865 1441.57 167.699 1445.28 163.814C1448.63 160.321 1451.96 156.14 1451.56 153.759C1448.77 142.329 1445.2 131.134 1440.89 120.261C1436.15 108.407 1410.51 58.7411 1401.44 51.2C1397.57 48.3549 1393.28 46.2428 1388.75 44.9555C1381.26 42.5934 1373.5 41.4167 1365.69 41.4627H1108.44C1106.52 45.2478 1104.94 49.2163 1103.7 53.3168C1103.31 56.2803 1103.53 157.569 1103.53 157.569V169.847H1431.42Z" fill="#E0E0E0"/>
<path d="M1391.28 63.8745L1425.06 126.399C1425.71 127.645 1426.04 129.054 1426.02 130.482C1426 131.909 1425.62 133.305 1424.93 134.527C1424.24 135.748 1423.26 136.751 1422.1 137.434C1420.93 138.117 1419.61 138.454 1418.28 138.412H1103.53V56.0423L1377.33 55.4073C1380.14 55.3901 1382.91 56.1625 1385.36 57.6479C1387.81 59.1332 1389.85 61.2797 1391.28 63.8745Z" fill="#388087"/>
<path d="M1296.47 169.582H1364.54V76.972C1364.54 75.1941 1363.88 73.4887 1362.71 72.229C1361.54 70.9694 1359.96 70.2582 1358.3 70.2512H1302.71C1301.05 70.2582 1299.46 70.9694 1298.29 72.229C1297.12 73.4887 1296.47 75.1941 1296.47 76.972V169.582Z" fill="#388087"/>
<path d="M1296.47 169.582C1296.43 169.31 1296.43 169.034 1296.47 168.762C1296.47 168.1 1296.47 167.28 1296.47 166.116C1296.47 163.787 1296.47 160.506 1296.47 156.326C1296.47 147.673 1296.32 135.29 1296.25 120.023C1296.25 112.323 1296.25 103.908 1296.25 94.8591C1296.25 90.3344 1296.25 85.651 1296.25 80.8353V77.1838C1296.21 76.166 1296.37 75.1514 1296.72 74.2052C1297.07 73.2589 1297.61 72.402 1298.28 71.6893C1298.96 70.9766 1299.77 70.424 1300.66 70.067C1301.55 69.71 1302.5 69.5565 1303.44 69.6162H1358.5C1359.24 69.6259 1359.99 69.769 1360.69 70.0396C1362.11 70.5964 1363.32 71.6373 1364.14 73.0031C1364.77 74.0395 1365.14 75.2345 1365.2 76.4694C1365.2 77.6865 1365.2 78.7185 1365.2 79.8562V99.516C1365.2 108.089 1365.2 116.45 1365.2 124.547C1365.2 140.741 1365.2 155.849 1365.2 169.529V170.085H1364.66L1315.01 169.794L1301.32 169.635H1297.77C1297.38 169.661 1296.99 169.661 1296.59 169.635H1297.87H1301.55L1315.35 169.476L1364.66 169.185L1364.14 169.767C1364.14 156.114 1364.14 141.005 1364.14 124.785C1364.14 116.689 1364.14 108.327 1364.14 99.7542C1364.14 95.4412 1364.14 91.1018 1364.14 86.7094V80.0944C1364.14 79.0096 1364.14 77.8188 1364.14 76.8134C1364.08 75.8066 1363.78 74.8326 1363.28 73.9821C1362.61 72.8773 1361.62 72.0334 1360.47 71.5743C1359.24 71.2149 1357.96 71.0895 1356.7 71.2038H1333H1303.42C1302.63 71.1521 1301.83 71.2779 1301.09 71.5732C1300.35 71.8686 1299.67 72.327 1299.1 72.9193C1298.53 73.5117 1298.08 74.2249 1297.78 75.0138C1297.48 75.8026 1297.33 76.6498 1297.36 77.5013V81.1264C1297.36 85.8892 1297.36 90.5197 1297.36 95.0179C1297.36 103.988 1297.36 112.349 1297.36 119.996C1297.36 135.264 1297.18 147.647 1297.13 156.299C1297.13 160.559 1297.13 163.893 1297.13 166.248C1297.13 167.333 1297.13 168.206 1297.13 168.894C1297.13 169.582 1296.47 169.556 1296.47 169.582Z" fill="#263238"/>
<path d="M1336.21 133.94H1359.04C1360.63 133.94 1361.92 132.554 1361.92 130.845V76.1518C1361.92 74.442 1360.63 73.056 1359.04 73.056H1336.21C1334.62 73.056 1333.33 74.442 1333.33 76.1518V130.845C1333.33 132.554 1334.62 133.94 1336.21 133.94Z" fill="#F5F5F5"/>
<path d="M1303 133.94H1324.7C1326.6 133.94 1328.15 132.282 1328.15 130.236V76.7604C1328.15 74.7145 1326.6 73.056 1324.7 73.056H1303C1301.1 73.056 1299.55 74.7145 1299.55 76.7604V130.236C1299.55 132.282 1301.1 133.94 1303 133.94Z" fill="#F5F5F5"/>
<path d="M1330.51 169.45C1330.15 169.45 1329.85 147.303 1329.85 119.97C1329.85 92.6363 1330.15 70.4893 1330.51 70.4893C1330.88 70.4893 1331.16 92.6363 1331.16 119.97C1331.16 147.303 1330.86 169.45 1330.51 169.45Z" fill="#263238"/>
<path d="M1333.33 133.94H1361.92V124.15H1333.33V133.94Z" fill="#263238"/>
<path d="M1299.53 133.94H1328.12V124.15H1299.53V133.94Z" fill="#263238"/>
<path d="M1393.23 67.5258H1103.53V56.0422L1376.91 55.4336C1381.54 55.5476 1385.95 57.565 1389.24 61.0696L1393.23 67.5258Z" fill="#DC532D"/>
<path d="M1408.32 59.5085C1408.32 59.5085 1405.85 60.9638 1407.43 64.5624C1408.76 67.6053 1423.93 90.8372 1431.15 106.66C1438.37 122.483 1442.47 133.914 1442.47 133.914H1445.82C1445.82 133.914 1441.43 121.61 1438.87 115.604C1435.98 108.909 1427.53 92.2395 1419.56 78.0041L1408.32 59.5085Z" fill="#EBEBEB"/>
<path d="M1103.53 151.325C1103.53 150.928 1179.69 150.637 1273.64 150.637C1367.59 150.637 1443.75 150.928 1443.75 151.325C1443.75 151.722 1367.59 152.013 1273.64 152.013C1179.69 152.013 1103.53 151.695 1103.53 151.325Z" fill="#263238"/>
<path d="M1103.53 169.847L1431.42 170.614C1435.25 170.077 1438.92 168.627 1442.17 166.37C1445.41 164.112 1448.14 161.106 1450.16 157.569H1103.53V169.847Z" fill="#DC532D"/>
<path d="M1370.82 41.6215C1371.35 41.608 1371.87 41.6793 1372.38 41.8332C1373.84 42.1484 1375.29 42.5548 1376.71 43.0504C1381.99 44.7703 1386.98 47.359 1391.51 50.7237C1393.03 51.8311 1394.46 53.07 1395.8 54.4281C1397.18 55.9611 1398.47 57.5873 1399.67 59.2968C1402.13 62.7895 1404.6 66.6527 1407.06 70.7804C1411.99 79.0624 1417.29 88.297 1422.59 98.1665C1427.9 108.036 1432.01 117.959 1435.71 126.981C1439.16 134.917 1441.91 143.182 1443.92 151.669C1444.08 152.543 1444.21 153.427 1444.29 154.315C1444.34 154.781 1444.34 155.251 1444.29 155.717C1444.29 156.169 1444.22 156.617 1444.07 157.04C1443.49 158.569 1442.66 159.969 1441.6 161.168C1439.98 163.039 1438.2 164.741 1436.28 166.248C1434.72 167.492 1433.47 168.365 1432.58 168.894C1432.16 169.225 1431.71 169.492 1431.22 169.688C1431.61 169.308 1432.02 168.963 1432.46 168.656C1433.27 168.021 1434.48 167.068 1435.98 165.772C1437.82 164.171 1439.51 162.4 1441.06 160.48C1442.01 159.351 1442.76 158.041 1443.25 156.617C1443.37 156.241 1443.42 155.847 1443.4 155.452C1443.45 155.048 1443.45 154.639 1443.4 154.235C1443.25 153.362 1443.23 152.489 1443.01 151.589C1440.96 143.321 1438.25 135.256 1434.92 127.484C1431.17 118.541 1426.84 108.777 1421.76 98.828C1416.68 88.8791 1411.3 79.7504 1406.37 71.4684C1403.91 67.3406 1401.44 63.5304 1398.98 59.9847C1397.83 58.2984 1396.58 56.6983 1395.23 55.1955C1393.96 53.8584 1392.59 52.6288 1391.14 51.5175C1386.69 48.1395 1381.82 45.466 1376.67 43.5795C1374.84 42.8916 1373.39 42.4417 1372.43 42.1507C1371.88 42.0184 1371.34 41.8415 1370.82 41.6215Z" fill="#263238"/>
<path d="M1445.82 133.914C1445.82 133.914 1445.55 134.046 1444.98 133.914C1444.16 133.817 1443.37 133.499 1442.69 132.988C1442.2 132.611 1441.77 132.145 1441.43 131.612C1441.07 130.973 1440.75 130.31 1440.47 129.627L1438.32 124.785C1436.72 121.134 1434.9 116.847 1432.87 112.217C1430.74 107.041 1428.34 101.996 1425.68 97.1081C1420.03 86.6829 1414.46 77.5278 1410.56 70.8334C1409.58 69.1399 1408.71 67.6317 1408.1 66.2558C1407.33 65.1068 1406.89 63.7489 1406.82 62.3397C1406.8 61.8876 1406.87 61.4365 1407.03 61.0167C1407.18 60.5969 1407.42 60.2179 1407.73 59.9054C1408.12 59.482 1408.42 59.3762 1408.44 59.4291C1408.47 59.482 1408.22 59.6408 1407.93 60.0906C1407.47 60.7321 1407.25 61.5338 1407.31 62.3397C1407.47 63.6274 1407.96 64.8435 1408.71 65.8589C1409.52 67.2172 1410.43 68.6989 1411.45 70.3041C1415.54 76.8662 1421.31 85.942 1426.91 96.4202C1429.58 101.336 1431.97 106.426 1434.06 111.661L1439.28 124.415L1441.23 129.31C1441.57 130.566 1442.22 131.694 1443.13 132.565C1443.91 133.239 1444.83 133.702 1445.82 133.914Z" fill="#263238"/>
<path d="M1391.29 63.8744C1390.26 62.1954 1389 60.6886 1387.56 59.4027C1385.78 57.8901 1383.72 56.7909 1381.52 56.1746C1378.44 55.5831 1375.3 55.4142 1372.18 55.6718L1311.43 55.9894L1103.53 56.7037L1104.15 56.0422C1104.15 82.5023 1104.15 110.1 1104.15 138.412L1103.51 137.724H1118.79L1389.39 137.936H1414.04C1415.94 138.018 1417.84 137.965 1419.74 137.777C1421.48 137.41 1423.05 136.376 1424.15 134.867C1425.23 133.361 1425.75 131.472 1425.6 129.575C1425.35 127.777 1424.7 126.07 1423.7 124.6C1416.85 111.794 1410.93 100.786 1406.1 91.7898L1395.01 71.0186C1393.78 68.6637 1392.81 66.8644 1392.17 65.5943C1391.53 64.3242 1391.24 63.7157 1391.24 63.7157C1391.24 63.7157 1391.61 64.3242 1392.27 65.5149L1395.23 70.8069C1397.84 75.5433 1401.64 82.5023 1406.52 91.4193C1411.4 100.336 1417.39 111.397 1424.32 124.124C1425.38 125.686 1426.08 127.502 1426.34 129.416C1426.49 131.473 1425.93 133.516 1424.76 135.158C1423.54 136.843 1421.79 137.991 1419.83 138.386C1417.89 138.601 1415.94 138.672 1413.99 138.598H1389.34L1118.74 138.809H1102.82V138.333C1102.82 110.021 1102.82 82.4229 1102.82 55.9629V55.3014H1103.43L1311.33 55.0632H1372.08C1375.23 54.849 1378.4 55.0624 1381.5 55.6983C1383.74 56.3526 1385.82 57.5068 1387.61 59.0852C1388.7 60.0608 1389.65 61.1915 1390.45 62.4456C1390.76 62.9017 1391.04 63.379 1391.29 63.8744Z" fill="#263238"/>
<g opacity="0.3">
<path opacity="0.3" d="M1383.15 67.5259V114.201L1364.61 123.674V138.333H1418.33C1420.24 138.379 1422.09 137.658 1423.53 136.311C1424.96 134.965 1425.88 133.091 1426.1 131.056C1426.2 129.728 1425.97 128.393 1425.43 127.193L1393.38 67.4465L1383.15 67.5259Z" fill="black"/>
</g>
<g opacity="0.6">
<g opacity="0.5">
<path opacity="0.5" d="M1358.82 133.94H1338.16L1333.35 125.791V91.8425L1358.82 133.94Z" fill="white"/>
</g>
<g opacity="0.5">
<path opacity="0.5" d="M1321.96 73.0295L1328.15 83.243V117.006L1302.19 73.0295H1321.96Z" fill="white"/>
</g>
</g>
<path d="M1284.63 73.0295H1214.13C1211.47 73.0295 1209.32 75.3396 1209.32 78.1892V128.754C1209.32 131.604 1211.47 133.914 1214.13 133.914H1284.63C1287.29 133.914 1289.44 131.604 1289.44 128.754V78.1892C1289.44 75.3396 1287.29 73.0295 1284.63 73.0295Z" fill="#F5F5F5"/>
<path d="M1214.13 133.914C1213.9 133.959 1213.66 133.959 1213.44 133.914C1212.75 133.844 1212.08 133.609 1211.49 133.226C1210.53 132.622 1209.79 131.69 1209.39 130.58C1209.09 128.988 1208.98 127.36 1209.07 125.738C1209.07 118.435 1209.07 108.036 1208.88 95.2294C1208.88 92.0013 1208.88 88.6144 1208.88 85.0952C1208.88 83.3489 1208.88 81.5496 1208.88 79.8032C1208.83 78.8379 1208.88 77.8698 1209.05 76.9191C1209.28 75.9109 1209.78 74.9941 1210.48 74.2731C1211.2 73.5248 1212.09 73.003 1213.07 72.7649C1214 72.6317 1214.94 72.5875 1215.88 72.6326H1233.13H1284.91C1286.21 72.6359 1287.47 73.1393 1288.45 74.0518C1289.44 74.9643 1290.09 76.2255 1290.28 77.6071C1290.28 80.2531 1290.28 82.5022 1290.28 84.9365C1290.28 89.7257 1290.28 94.4621 1290.28 99.0926C1290.28 108.354 1290.28 117.297 1290.28 125.844C1290.28 126.902 1290.28 127.96 1290.28 129.019C1290.29 130.199 1289.97 131.354 1289.34 132.326C1288.73 133.278 1287.88 134.014 1286.88 134.443C1285.91 134.795 1284.89 134.921 1283.87 134.814H1272.92H1253.2L1224.75 134.602L1217.01 134.47H1215.01C1214.78 134.504 1214.55 134.504 1214.32 134.47H1215.01H1217.01H1224.75L1253.2 134.258H1272.92H1283.87C1284.71 134.323 1285.54 134.206 1286.34 133.914C1287.14 133.588 1287.82 133.006 1288.31 132.247C1288.79 131.461 1289.03 130.54 1289.02 129.601V126.426C1289.02 117.879 1289.02 108.936 1289.02 99.6747V85.5186C1289.02 83.1901 1289.02 80.6235 1289.02 78.4009C1288.87 77.3465 1288.37 76.3856 1287.61 75.6883C1286.86 74.991 1285.9 74.6022 1284.91 74.5906H1233.13H1215.88C1215.06 74.5275 1214.23 74.5275 1213.41 74.5906C1212.63 74.7716 1211.91 75.1842 1211.34 75.7813C1210.79 76.3669 1210.39 77.0964 1210.18 77.8981C1210.03 78.7698 1209.98 79.659 1210.03 80.5441C1210.03 82.3699 1210.03 84.1691 1210.03 85.8361C1210.03 89.3553 1210.03 92.7422 1210.03 95.9703C1210.03 108.777 1209.86 119.176 1209.81 126.479C1209.69 128.051 1209.76 129.634 1210.01 131.189C1210.34 132.271 1211 133.203 1211.88 133.835C1212.62 134.02 1213.38 134.047 1214.13 133.914Z" fill="#263238"/>
<path d="M1287.1 133.94H1211.76C1211.11 133.94 1210.48 133.662 1210.02 133.165C1209.55 132.669 1209.29 131.996 1209.29 131.294V124.018L1289.42 124.018V131.294C1289.42 131.97 1289.18 132.62 1288.75 133.111C1288.32 133.603 1287.73 133.9 1287.1 133.94Z" fill="#263238"/>
<g opacity="0.6">
<path opacity="0.6" d="M1242.01 73.0295L1278.87 133.94H1258.21L1222.24 73.0295H1242.01Z" fill="white"/>
</g>
<path d="M1198.2 73.0295H1127.05C1124.57 73.0295 1122.56 75.1856 1122.56 77.8452V129.098C1122.56 131.758 1124.57 133.914 1127.05 133.914H1198.2C1200.68 133.914 1202.69 131.758 1202.69 129.098V77.8452C1202.69 75.1856 1200.68 73.0295 1198.2 73.0295Z" fill="#F5F5F5"/>
<path d="M1127.03 133.914C1126.8 133.961 1126.56 133.961 1126.34 133.914C1125.65 133.831 1124.99 133.577 1124.41 133.173C1123.47 132.483 1122.78 131.449 1122.49 130.263C1122.33 128.655 1122.27 127.037 1122.32 125.42C1122.32 118.091 1122.19 107.666 1122.1 94.8326C1122.1 91.6045 1122.1 88.2176 1122.1 84.6984C1122.1 82.9256 1122.1 81.1263 1122.1 79.4064C1122.03 78.4323 1122.09 77.4538 1122.27 76.4958C1122.52 75.4627 1123.06 74.5358 1123.81 73.8368C1124.56 73.1379 1125.49 72.6996 1126.48 72.5797C1127.52 72.5797 1128.33 72.5797 1129.27 72.5797H1146.53H1198.3C1199.62 72.5852 1200.9 73.1381 1201.85 74.1235C1202.8 75.109 1203.37 76.4513 1203.43 77.8717V99.3308C1203.43 108.618 1203.43 117.588 1203.43 126.135V129.31C1203.43 130.501 1203.08 131.661 1202.42 132.618C1201.77 133.563 1200.85 134.251 1199.8 134.576C1198.82 134.798 1197.82 134.869 1196.82 134.787H1185.68H1165.95L1137.45 134.576L1129.71 134.443H1127.69H1127H1127.69H1129.71H1137.45L1165.95 134.232H1185.68H1196.65C1197.54 134.283 1198.43 134.22 1199.31 134.046C1200.12 133.781 1200.83 133.243 1201.33 132.512C1201.84 131.74 1202.11 130.813 1202.1 129.866C1202.1 128.807 1202.1 127.749 1202.1 126.69C1202.1 118.144 1202.1 109.174 1202.1 99.8865C1202.1 95.2295 1202.1 90.4932 1202.1 85.7039V78.4803C1202.05 77.418 1201.63 76.4151 1200.91 75.6806C1200.19 74.9461 1199.24 74.5367 1198.25 74.5378H1146.48H1129.22C1128.33 74.5378 1127.35 74.5378 1126.58 74.5378C1125.79 74.6371 1125.04 74.9871 1124.44 75.5433C1123.85 76.0872 1123.43 76.8057 1123.23 77.6071C1123.06 78.4771 1123.01 79.3681 1123.08 80.2531C1123.08 82.0789 1123.08 83.8782 1123.08 85.5451C1123.08 89.0643 1123.08 92.4512 1123.08 95.6793C1123.08 108.512 1122.93 118.938 1122.88 126.267C1122.79 127.844 1122.79 129.426 1122.88 131.003C1123.11 132.123 1123.72 133.112 1124.59 133.782C1125.38 134.027 1126.21 134.073 1127.03 133.914Z" fill="#263238"/>
<path d="M1200.64 133.94H1124.51C1123.98 133.94 1123.46 133.712 1123.08 133.305C1122.7 132.898 1122.49 132.346 1122.49 131.771V124.15L1202.66 124.15V131.771C1202.66 132.346 1202.45 132.898 1202.07 133.305C1201.69 133.712 1201.18 133.94 1200.64 133.94Z" fill="#263238"/>
<g opacity="0.6">
<path opacity="0.6" d="M1155.25 73.0295L1192.11 133.94H1171.43L1135.46 73.0295H1155.25Z" fill="white"/>
</g>
<path d="M1095 170.561L732.573 169.82V53.4756L738.218 41.4099L1088.86 39.7429L1095 49.6125V170.561Z" fill="#E0E0E0"/>
<path d="M1095.3 55.3806H732.573V138.412H1095.3V55.3806Z" fill="#388087"/>
<path d="M906.847 169.556H838.779V74.8289C838.779 73.664 839.21 72.5468 839.978 71.723C840.745 70.8993 841.786 70.4365 842.872 70.4365H902.779C903.316 70.4365 903.847 70.5503 904.342 70.7714C904.837 70.9925 905.286 71.3164 905.664 71.7246C906.043 72.1328 906.342 72.6172 906.545 73.15C906.748 73.6827 906.85 74.2533 906.847 74.8289V169.556Z" fill="#388087"/>
<path d="M906.847 169.556C906.847 169.556 906.847 169.212 906.847 168.63C906.847 168.047 906.847 167.095 906.847 165.984C906.847 163.602 906.847 160.242 906.847 155.982C906.847 147.25 906.699 134.814 906.6 119.44C906.6 111.767 906.6 103.353 906.6 94.3034C906.6 89.8052 906.6 85.1218 906.6 80.3326C906.6 79.1154 906.6 77.9247 906.6 76.7075V74.8289C906.611 74.294 906.519 73.7626 906.329 73.2677C906.141 72.7672 905.854 72.3163 905.488 71.9463C905.122 71.5763 904.686 71.2959 904.209 71.1245C903.112 70.9091 901.993 70.8468 900.881 70.9393H843.192C842.613 70.9324 842.042 71.0844 841.533 71.3807C841.024 71.6771 840.593 72.108 840.283 72.6327C839.8 73.4993 839.609 74.5172 839.741 75.5168V85.5716C839.741 90.0169 839.741 94.4093 839.741 98.8016V124.124C839.741 140.503 839.741 155.876 839.741 169.503L839.223 168.947L888.53 169.238L902.335 169.37H905.984C906.411 169.331 906.84 169.331 907.266 169.37C906.881 169.414 906.493 169.414 906.107 169.37H902.533H888.85L839.198 169.661H838.311V169.106C838.311 155.347 838.311 140 838.311 123.727C838.311 115.551 838.311 107.084 838.311 98.4047V75.6227C838.186 74.3603 838.445 73.0885 839.05 71.9976C839.48 71.281 840.072 70.6922 840.77 70.2853C841.468 69.8783 842.25 69.6665 843.044 69.6692H870.952H900.733H902.409C903.068 69.6295 903.728 69.7191 904.357 69.9338C904.986 70.1721 905.561 70.5497 906.045 71.042C906.529 71.5343 906.912 72.1303 907.167 72.7914C907.403 73.4407 907.52 74.1323 907.513 74.8289V76.6811C907.513 77.9247 907.513 79.1418 907.513 80.359C907.513 85.2012 907.513 89.9111 907.513 94.4622C907.513 103.564 907.513 112.032 907.513 119.758C907.513 135.131 907.315 147.567 907.266 156.273C907.266 160.48 907.266 163.787 907.266 166.142C907.266 167.201 907.266 168.021 907.266 168.788C907.168 169.068 907.026 169.327 906.847 169.556Z" fill="#263238"/>
<path d="M867.352 73.0032H843.981C842.538 73.0032 841.368 74.2589 841.368 75.8079V131.083C841.368 132.632 842.538 133.888 843.981 133.888H867.352C868.796 133.888 869.966 132.632 869.966 131.083V75.8079C869.966 74.2589 868.796 73.0032 867.352 73.0032Z" fill="#F5F5F5"/>
<path d="M901.152 73.0032H877.781C876.337 73.0032 875.167 74.2589 875.167 75.8079V131.083C875.167 132.632 876.337 133.888 877.781 133.888H901.152C902.595 133.888 903.765 132.632 903.765 131.083V75.8079C903.765 74.2589 902.595 73.0032 901.152 73.0032Z" fill="#F5F5F5"/>
<path d="M872.826 169.423C872.456 169.423 872.185 147.276 872.185 119.943C872.185 92.6098 872.456 70.4893 872.826 70.4893C873.195 70.4893 873.467 92.6363 873.467 119.943C873.467 147.25 873.171 169.423 872.826 169.423Z" fill="#263238"/>
<path d="M869.966 124.097H841.368V133.888H869.966V124.097Z" fill="#263238"/>
<path d="M903.765 124.097H875.167V133.888H903.765V124.097Z" fill="#263238"/>
<path d="M732.573 55.4336V67.4994H1095.3V56.0157L732.573 55.4336Z" fill="#DC532D"/>
<path d="M1095.3 151.298C1095.3 151.669 1014.09 151.986 913.947 151.986C813.805 151.986 732.573 151.669 732.573 151.298C732.573 150.928 813.756 150.61 913.947 150.61C1014.14 150.61 1095.3 150.901 1095.3 151.298Z" fill="#263238"/>
<path d="M1095 170.614L732.597 169.82V158.337H1095V170.614Z" fill="#DC532D"/>
<g opacity="0.6">
<g opacity="0.5">
<path opacity="0.5" d="M844.499 133.914H865.183L869.99 125.791V91.8162L844.499 133.914Z" fill="white"/>
</g>
<g opacity="0.5">
<path opacity="0.5" d="M881.355 73.0032L875.167 83.2432V116.98L901.127 73.0032H881.355Z" fill="white"/>
</g>
</g>
<path d="M988.844 73.0032H919.026C916.18 73.0032 913.873 75.4791 913.873 78.5333V128.358C913.873 131.412 916.18 133.888 919.026 133.888H988.844C991.69 133.888 993.996 131.412 993.996 128.358V78.5333C993.996 75.4791 991.69 73.0032 988.844 73.0032Z" fill="#F5F5F5"/>
<path d="M988.844 133.914C989.712 133.801 990.55 133.505 991.309 133.041C992.217 132.457 992.926 131.576 993.331 130.527C993.748 129.027 993.873 127.451 993.701 125.897C993.701 118.594 993.577 108.221 993.503 95.4412C993.503 92.213 993.503 88.8526 993.503 85.3335C993.503 83.5871 993.503 81.7878 993.503 80.0415C993.546 79.1563 993.496 78.2688 993.355 77.3955C993.17 76.5799 992.788 75.8314 992.246 75.2257C991.701 74.5976 991.013 74.1325 990.249 73.8763C989.442 73.6725 988.611 73.6011 987.784 73.6646H970.526H918.976C917.977 73.7091 917.02 74.1069 916.253 74.796C915.486 75.4851 914.953 76.4269 914.736 77.4748C914.584 78.6137 914.534 79.7656 914.588 80.9146V98.6428C914.588 107.877 914.588 116.821 914.588 125.314V128.49C914.602 129.173 914.747 129.846 915.015 130.465C915.283 131.085 915.668 131.639 916.145 132.091C916.622 132.544 917.181 132.885 917.787 133.094C918.393 133.303 919.033 133.375 919.667 133.305H930.588H950.188L978.563 133.544H986.28H988.277C988.506 133.509 988.738 133.509 988.967 133.544C988.739 133.585 988.505 133.585 988.277 133.544H986.28L978.563 133.676L950.188 133.888H930.588H919.667C918.616 133.967 917.565 133.74 916.623 133.233C915.682 132.725 914.885 131.955 914.317 131.003C913.729 130.026 913.42 128.886 913.429 127.722C913.429 126.664 913.429 125.606 913.429 124.547C913.429 116.054 913.429 107.11 913.429 97.8755C913.429 93.245 913.429 88.5351 913.429 83.7458V80.1473C913.364 78.8909 913.431 77.6306 913.627 76.39C913.939 75.049 914.659 73.8579 915.672 73.005C916.686 72.1521 917.935 71.6859 919.223 71.6801H970.773H988.03C988.984 71.6108 989.941 71.7091 990.865 71.9712C991.802 72.3016 992.649 72.874 993.331 73.6381C993.966 74.393 994.422 75.3005 994.662 76.2841C994.825 77.2349 994.883 78.203 994.835 79.1683C994.835 80.994 994.835 82.7933 994.835 84.4603C994.835 87.9795 994.835 91.3399 994.835 94.568C994.835 107.348 994.687 117.721 994.637 125.023C994.783 126.641 994.606 128.274 994.12 129.813C993.681 130.948 992.888 131.883 991.876 132.459C991.28 132.826 990.614 133.043 989.929 133.094C989.644 133.468 989.269 133.752 988.844 133.914Z" fill="#263238"/>
<path d="M913.873 124.097H993.996V131.004C993.996 131.768 993.713 132.502 993.209 133.043C992.705 133.584 992.022 133.888 991.309 133.888H916.585C915.872 133.888 915.189 133.584 914.685 133.043C914.181 132.502 913.898 131.768 913.898 131.004V124.097H913.873Z" fill="#263238"/>
<g opacity="0.6">
<path opacity="0.6" d="M961.306 73.0032L924.449 133.914H945.134L981.078 73.0032H961.306Z" fill="white"/>
</g>
<path d="M1076.81 73.0032H1004.62C1002.43 73.0032 1000.65 74.9105 1000.65 77.2632V129.628C1000.65 131.98 1002.43 133.888 1004.62 133.888H1076.81C1079 133.888 1080.78 131.98 1080.78 129.628V77.2632C1080.78 74.9105 1079 73.0032 1076.81 73.0032Z" fill="#F5F5F5"/>
<path d="M1076.81 133.914C1077.71 133.802 1078.56 133.427 1079.27 132.829C1079.67 132.466 1080 132.017 1080.23 131.511C1080.46 131.005 1080.58 130.454 1080.6 129.892C1080.6 128.463 1080.6 126.876 1080.6 125.076C1080.6 117.72 1080.6 107.269 1080.41 94.3828C1080.41 91.1546 1080.41 87.7413 1080.41 84.2221V78.7978C1080.46 77.9115 1080.4 77.0218 1080.23 76.1518C1080 75.3664 1079.55 74.6803 1078.93 74.1938C1078.26 73.73 1077.48 73.4989 1076.68 73.5323H1056.71H1004.77C1004.28 73.5408 1003.8 73.6626 1003.35 73.8893C1002.91 74.1161 1002.52 74.4426 1002.2 74.8466C1001.88 75.2506 1001.65 75.7227 1001.52 76.231C1001.39 76.7392 1001.36 77.2717 1001.44 77.7923V85.0688C1001.44 89.8846 1001.44 94.6209 1001.44 99.2778C1001.44 108.618 1001.44 117.615 1001.44 126.161V129.363C1001.42 130.264 1001.7 131.143 1002.24 131.832C1002.78 132.521 1003.54 132.97 1004.38 133.094C1005.19 133.094 1006.25 133.094 1007.16 133.094H1018.16H1037.88L1066.48 133.332H1074.27H1076.29H1076.98C1076.75 133.371 1076.52 133.371 1076.29 133.332H1074.27L1066.48 133.464L1037.88 133.676H1018.16H1007.16C1006.18 133.676 1005.34 133.676 1004.23 133.676C1003.11 133.525 1002.09 132.936 1001.36 132.022C1000.62 131.108 1000.23 129.934 1000.26 128.728V125.526C1000.26 116.98 1000.26 107.983 1000.26 98.6428V77.1573C1000.19 76.4643 1000.25 75.7639 1000.44 75.0964C1000.63 74.4289 1000.93 73.8075 1001.34 73.2677C1001.78 72.7243 1002.32 72.2875 1002.93 71.9864C1003.54 71.6852 1004.2 71.5267 1004.87 71.5213H1056.81H1076.78C1077.79 71.4709 1078.79 71.7878 1079.62 72.4209C1080.46 73.0603 1081.07 73.9961 1081.34 75.0669C1081.53 76.0232 1081.59 77.0035 1081.52 77.9776V83.4019C1081.52 86.9211 1081.52 90.3344 1081.52 93.5625C1081.52 106.449 1081.37 116.9 1081.32 124.256C1081.32 126.02 1081.32 127.634 1081.32 129.098C1081.27 129.712 1081.11 130.309 1080.84 130.852C1080.57 131.394 1080.19 131.869 1079.74 132.247C1079.19 132.691 1078.55 132.982 1077.87 133.094C1077.59 133.465 1077.22 133.748 1076.81 133.914Z" fill="#263238"/>
<path d="M1000.65 124.097H1080.78V132.274C1080.78 132.485 1080.74 132.695 1080.66 132.891C1080.59 133.087 1080.48 133.265 1080.34 133.415C1080.2 133.565 1080.03 133.684 1079.85 133.765C1079.67 133.846 1079.47 133.888 1079.27 133.888H1002.16C1001.96 133.888 1001.76 133.846 1001.58 133.765C1001.4 133.684 1001.23 133.565 1001.09 133.415C1000.95 133.265 1000.84 133.087 1000.77 132.891C1000.69 132.695 1000.65 132.485 1000.65 132.274V124.097Z" fill="#263238"/>
<g opacity="0.6">
<path opacity="0.6" d="M1048.09 73.0032L1011.2 133.914H1031.89L1067.86 73.0032H1048.09Z" fill="white"/>
</g>
<path d="M824.776 73.0032H754.76C751.969 73.0032 749.707 75.4317 749.707 78.4275V128.463C749.707 131.459 751.969 133.888 754.76 133.888H824.776C827.567 133.888 829.83 131.459 829.83 128.463V78.4275C829.83 75.4317 827.567 73.0032 824.776 73.0032Z" fill="#F5F5F5"/>
<path d="M824.776 133.914C825.641 133.79 826.477 133.494 827.242 133.041C828.161 132.419 828.863 131.489 829.238 130.395C829.613 128.877 829.721 127.298 829.559 125.738C829.559 118.435 829.559 108.063 829.362 95.2824C829.362 92.0542 829.362 88.6674 829.362 85.1747C829.362 83.4018 829.362 81.629 829.362 79.8827C829.418 78.9975 829.368 78.1083 829.214 77.2367C829.036 76.4123 828.642 75.6596 828.08 75.0669C827.539 74.445 826.847 73.9962 826.083 73.7704C825.274 73.5802 824.443 73.5178 823.618 73.5852H806.262H754.687C753.684 73.5929 752.714 73.9625 751.931 74.6345C751.148 75.3065 750.599 76.2418 750.372 77.2895C750.254 78.4403 750.212 79.5987 750.249 80.7558V98.6428C750.249 107.904 750.249 116.847 750.249 125.341V128.516C750.247 129.453 750.495 130.372 750.964 131.162C751.437 131.934 752.099 132.55 752.878 132.942C753.657 133.335 754.522 133.488 755.377 133.385H766.299H786.021L814.397 133.623H822.138H824.135H824.826C824.597 133.662 824.364 133.662 824.135 133.623H822.138L814.397 133.755L786.021 133.967H766.299H755.377C754.328 134.067 753.272 133.861 752.322 133.373C751.372 132.884 750.563 132.129 749.978 131.189C749.392 130.201 749.084 129.052 749.09 127.881C749.09 126.849 749.09 125.791 749.09 124.706C749.09 116.212 749.09 107.269 749.09 98.0077C749.09 93.3772 749.09 88.6674 749.09 83.9046V80.306C749.045 79.0426 749.095 77.7772 749.238 76.5222C749.536 75.1736 750.247 73.9712 751.258 73.1077C752.268 72.2442 753.519 71.7694 754.81 71.7594H806.385H823.519C824.478 71.6977 825.44 71.7778 826.379 71.9975C827.317 72.3112 828.165 72.8757 828.844 73.6381C829.499 74.3811 829.966 75.2921 830.2 76.2841C830.364 77.2347 830.422 78.2029 830.373 79.1682C830.373 80.994 830.373 82.7668 830.373 84.4602C830.373 87.953 830.373 91.3399 830.373 94.568C830.373 107.348 830.225 117.72 830.175 125.023C830.323 126.646 830.163 128.284 829.707 129.839C829.253 130.955 828.475 131.884 827.488 132.485C826.901 132.852 826.243 133.069 825.565 133.12C825.36 133.444 825.091 133.715 824.776 133.914Z" fill="#263238"/>
<path d="M749.707 124.097H829.83V131.109C829.83 131.478 829.762 131.842 829.631 132.183C829.5 132.523 829.307 132.832 829.065 133.093C828.822 133.353 828.534 133.56 828.217 133.701C827.9 133.842 827.56 133.914 827.217 133.914H752.32C751.977 133.914 751.637 133.842 751.32 133.701C751.003 133.56 750.715 133.353 750.472 133.093C750.229 132.832 750.037 132.523 749.905 132.183C749.774 131.842 749.707 131.478 749.707 131.109V124.097Z" fill="#263238"/>
<g opacity="0.6">
<path opacity="0.6" d="M797.14 73.0032L760.283 133.914H780.967L816.912 73.0032H797.14Z" fill="white"/>
</g>
<path d="M363.167 60.0377H337.33V170.588H363.167V60.0377Z" fill="#388087"/>
<g opacity="0.2">
<path opacity="0.2" d="M363.167 60.0377H337.33V170.588H363.167V60.0377Z" fill="black"/>
</g>
</svg>
