<svg width="176" height="26" viewBox="0 0 176 26" fill="none" xmlns="http://www.w3.org/2000/svg">
<path d="M23.255 0.22V0.919999C22.5083 1.01333 21.9483 1.21167 21.575 1.515C21.2017 1.795 20.945 2.25 20.805 2.88C20.6883 3.51 20.63 4.39667 20.63 5.54V25.07C20.35 25.0467 20.0583 25.035 19.755 25.035C19.475 25.035 19.1717 25.0467 18.845 25.07L3.655 5.82V19.26C3.655 20.5433 3.725 21.535 3.865 22.235C4.005 22.9117 4.30833 23.4017 4.775 23.705C5.265 23.985 6.02333 24.1833 7.05 24.3V25C6.60667 24.9533 6.02333 24.93 5.3 24.93C4.57667 24.9067 3.9 24.895 3.27 24.895C2.73333 24.895 2.185 24.9067 1.625 24.93C1.065 24.93 0.598333 24.9533 0.225 25V24.3C0.971667 24.1833 1.53167 23.985 1.905 23.705C2.27833 23.425 2.52333 22.97 2.64 22.34C2.78 21.6867 2.85 20.8 2.85 19.68V3.93C2.85 3.06666 2.78 2.43667 2.64 2.04C2.52333 1.62 2.26667 1.34 1.87 1.2C1.49667 1.03667 0.948333 0.943332 0.225 0.919999V0.22C0.598333 0.243333 1.065 0.266666 1.625 0.289999C2.185 0.313332 2.73333 0.324998 3.27 0.324998C3.83 0.324998 4.36667 0.313332 4.88 0.289999C5.39333 0.266666 5.86 0.243333 6.28 0.22L19.825 16.915V5.96C19.825 4.67667 19.755 3.69667 19.615 3.02C19.475 2.32 19.16 1.81833 18.67 1.515C18.2033 1.21167 17.4567 1.01333 16.43 0.919999V0.22C16.8733 0.243333 17.4567 0.266666 18.18 0.289999C18.9033 0.313332 19.58 0.324998 20.21 0.324998C20.77 0.324998 21.3183 0.313332 21.855 0.289999C22.415 0.266666 22.8817 0.243333 23.255 0.22ZM44.1738 0.22C44.0805 1.24667 44.0105 2.23833 43.9638 3.195C43.9405 4.15167 43.9288 4.88667 43.9288 5.4C43.9288 5.86667 43.9405 6.31 43.9638 6.73C43.9871 7.15 44.0105 7.5 44.0338 7.78H43.2288C42.9955 6.07667 42.6338 4.735 42.1438 3.755C41.6538 2.75167 41.0121 2.05167 40.2188 1.655C39.4488 1.235 38.5388 1.025 37.4888 1.025H36.0538C35.3771 1.025 34.8638 1.08333 34.5138 1.2C34.1638 1.31667 33.9305 1.55 33.8138 1.9C33.6971 2.25 33.6388 2.78667 33.6388 3.51V21.71C33.6388 22.4333 33.6971 22.97 33.8138 23.32C33.9305 23.67 34.1638 23.9033 34.5138 24.02C34.8638 24.1367 35.3771 24.195 36.0538 24.195H37.7688C38.8188 24.195 39.7405 23.9733 40.5338 23.53C41.3505 23.0633 42.0388 22.2817 42.5988 21.185C43.1821 20.0883 43.6255 18.6067 43.9288 16.74H44.7338C44.6638 17.4867 44.6288 18.4667 44.6288 19.68C44.6288 20.2167 44.6405 20.975 44.6638 21.955C44.6871 22.935 44.7571 23.95 44.8738 25C43.6838 24.9533 42.3421 24.93 40.8488 24.93C39.3555 24.9067 38.0255 24.895 36.8588 24.895C36.2755 24.895 35.5288 24.895 34.6188 24.895C33.7088 24.895 32.7288 24.9067 31.6788 24.93C30.6288 24.93 29.5671 24.9417 28.4938 24.965C27.4205 24.965 26.4055 24.9767 25.4488 25V24.3C26.1955 24.2533 26.7555 24.16 27.1288 24.02C27.5021 23.88 27.7471 23.6 27.8638 23.18C28.0038 22.76 28.0738 22.13 28.0738 21.29V3.93C28.0738 3.06666 28.0038 2.43667 27.8638 2.04C27.7471 1.62 27.4905 1.34 27.0938 1.2C26.7205 1.03667 26.1721 0.943332 25.4488 0.919999V0.22C26.4055 0.243333 27.4205 0.266666 28.4938 0.289999C29.5671 0.289999 30.6288 0.301665 31.6788 0.324998C32.7288 0.324998 33.7088 0.324998 34.6188 0.324998C35.5288 0.324998 36.2755 0.324998 36.8588 0.324998C37.9321 0.324998 39.1455 0.324998 40.4988 0.324998C41.8755 0.301665 43.1005 0.266666 44.1738 0.22ZM38.7138 12.19C38.7138 12.19 38.7138 12.3067 38.7138 12.54C38.7138 12.7733 38.7138 12.89 38.7138 12.89H32.5888C32.5888 12.89 32.5888 12.7733 32.5888 12.54C32.5888 12.3067 32.5888 12.19 32.5888 12.19H38.7138ZM39.7288 7.57C39.6355 8.9 39.5888 9.915 39.5888 10.615C39.6121 11.315 39.6238 11.9567 39.6238 12.54C39.6238 13.1233 39.6355 13.765 39.6588 14.465C39.6821 15.165 39.7405 16.18 39.8338 17.51H39.0288C38.9121 16.6933 38.6905 15.935 38.3638 15.235C38.0605 14.535 37.6171 13.975 37.0338 13.555C36.4505 13.1117 35.6921 12.89 34.7588 12.89V12.19C35.4588 12.19 36.0538 12.05 36.5438 11.77C37.0338 11.4667 37.4305 11.0817 37.7338 10.615C38.0605 10.125 38.3171 9.61167 38.5038 9.075C38.6905 8.53833 38.8305 8.03667 38.9238 7.57H39.7288ZM56.9064 0.184998V0.919999C55.8564 0.919999 55.1797 1.025 54.8764 1.235C54.5964 1.42167 54.6197 1.76 54.9464 2.25L68.8064 22.515C69.2731 23.1683 69.6464 23.6117 69.9264 23.845C70.2064 24.0783 70.5797 24.2183 71.0464 24.265V25C70.5797 24.9767 69.9031 24.9533 69.0164 24.93C68.1297 24.8833 67.2081 24.86 66.2514 24.86C65.2014 24.86 64.1281 24.8833 63.0314 24.93C61.9581 24.9533 61.1531 24.9767 60.6164 25V24.265C61.6897 24.265 62.3781 24.195 62.6814 24.055C63.0081 23.8917 63.0081 23.565 62.6814 23.075L48.7864 2.67C48.3431 1.99333 47.9814 1.53833 47.7014 1.305C47.4214 1.07167 47.0364 0.943332 46.5464 0.919999V0.184998C47.0364 0.208333 47.7481 0.243333 48.6814 0.289999C49.6381 0.313332 50.5947 0.324998 51.5514 0.324998C52.6014 0.324998 53.6047 0.313332 54.5614 0.289999C55.5414 0.243333 56.3231 0.208333 56.9064 0.184998ZM57.2214 12.54C57.2214 12.54 57.2447 12.6217 57.2914 12.785C57.3381 12.925 57.3847 13.0767 57.4314 13.24C57.4781 13.38 57.5014 13.45 57.5014 13.45L54.0014 18.245C53.0681 19.505 52.5431 20.5783 52.4264 21.465C52.3097 22.3283 52.5081 23.005 53.0214 23.495C53.5581 23.9617 54.3397 24.23 55.3664 24.3V25C55.0397 24.9767 54.6197 24.965 54.1064 24.965C53.6164 24.9417 53.0914 24.93 52.5314 24.93C51.9947 24.9067 51.4814 24.895 50.9914 24.895C50.5247 24.895 50.1397 24.895 49.8364 24.895C49.1831 24.895 48.5764 24.9067 48.0164 24.93C47.4564 24.93 46.9897 24.9533 46.6164 25V24.3C47.4331 24.02 48.2614 23.53 49.1014 22.83C49.9414 22.1067 50.8047 21.1733 51.6914 20.03L57.2214 12.54ZM69.4714 0.22V0.919999C68.7014 1.13 67.9314 1.57333 67.1614 2.25C66.4147 2.92667 65.7147 3.70833 65.0614 4.595L59.3914 12.155C59.3914 12.155 59.3447 12.0033 59.2514 11.7C59.1814 11.3967 59.1464 11.245 59.1464 11.245L62.7514 6.38C63.6381 5.26 64.1631 4.30333 64.3264 3.51C64.5131 2.71667 64.3847 2.09833 63.9414 1.655C63.4981 1.21166 62.7981 0.966665 61.8414 0.919999V0.22C62.2847 0.243333 62.7747 0.266666 63.3114 0.289999C63.8481 0.289999 64.3731 0.301665 64.8864 0.324998C65.4231 0.324998 65.8781 0.324998 66.2514 0.324998C66.9281 0.324998 67.5464 0.313332 68.1064 0.289999C68.6664 0.266666 69.1214 0.243333 69.4714 0.22ZM93.1106 0.22C93.0173 1.41 92.9473 2.55333 92.9006 3.65C92.8773 4.74667 92.8656 5.58667 92.8656 6.17C92.8656 6.68333 92.8773 7.17333 92.9006 7.64C92.924 8.10667 92.9473 8.50333 92.9706 8.83H92.1656C91.7923 6.87 91.314 5.31833 90.7306 4.175C90.1706 3.03167 89.494 2.22667 88.7006 1.76C87.9073 1.27 86.974 1.025 85.9006 1.025H85.0956V21.01C85.0956 21.9433 85.189 22.6433 85.3756 23.11C85.5856 23.5767 85.959 23.8917 86.4956 24.055C87.0323 24.195 87.814 24.2767 88.8406 24.3V25C88.1173 24.9767 87.149 24.9533 85.9356 24.93C84.7456 24.9067 83.4973 24.895 82.1906 24.895C80.9073 24.895 79.694 24.9067 78.5506 24.93C77.4073 24.9533 76.4856 24.9767 75.7856 25V24.3C76.8356 24.2767 77.629 24.195 78.1656 24.055C78.7023 23.8917 79.064 23.5767 79.2506 23.11C79.4373 22.6433 79.5306 21.9433 79.5306 21.01V1.025H78.7606C77.6873 1.025 76.754 1.27 75.9606 1.76C75.1673 2.22667 74.4906 3.03167 73.9306 4.175C73.3706 5.295 72.8806 6.84667 72.4606 8.83H71.6556C71.7023 8.50333 71.7256 8.10667 71.7256 7.64C71.749 7.17333 71.7606 6.68333 71.7606 6.17C71.7606 5.58667 71.7373 4.74667 71.6906 3.65C71.6673 2.55333 71.609 1.41 71.5156 0.22C72.589 0.243333 73.7556 0.266666 75.0156 0.289999C76.299 0.313332 77.5823 0.324998 78.8656 0.324998C80.149 0.324998 81.304 0.324998 82.3306 0.324998C83.3806 0.324998 84.5356 0.324998 85.7956 0.324998C87.079 0.324998 88.3623 0.313332 89.6456 0.289999C90.929 0.266666 92.084 0.243333 93.1106 0.22Z" fill="white"/>
<path d="M103.68 12.575C104.356 12.6217 104.916 12.6683 105.36 12.715C105.826 12.7383 106.223 12.7733 106.55 12.82C106.9 12.8433 107.238 12.8667 107.565 12.89C108.545 13.0067 109.455 13.1467 110.295 13.31C111.158 13.4733 111.881 13.73 112.465 14.08C113.071 14.4067 113.515 14.8617 113.795 15.445C114.075 16.0283 114.156 16.7867 114.04 17.72L113.55 21.325C113.48 22.0717 113.526 22.6667 113.69 23.11C113.853 23.5533 114.168 23.775 114.635 23.775C115.101 23.775 115.498 23.565 115.825 23.145C116.175 22.7017 116.49 22.0717 116.77 21.255L116.945 20.765H117.75L117.61 21.22C117.19 22.6667 116.548 23.74 115.685 24.44C114.845 25.14 113.701 25.49 112.255 25.49C110.645 25.49 109.49 25.105 108.79 24.335C108.113 23.565 107.856 22.5967 108.02 21.43L108.545 17.44C108.661 16.4833 108.626 15.69 108.44 15.06C108.253 14.4067 107.786 13.9167 107.04 13.59C106.293 13.2633 105.15 13.1 103.61 13.1L103.68 12.575ZM103.12 13.1L103.295 12.47H104.45C105.593 12.47 106.643 12.3067 107.6 11.98C108.556 11.63 109.385 11.1167 110.085 10.44C110.785 9.76333 111.321 8.935 111.695 7.955C112.091 6.975 112.29 5.855 112.29 4.595C112.29 3.335 112.021 2.41333 111.485 1.83C110.948 1.22333 110.131 0.919999 109.035 0.919999C108.358 0.919999 107.845 1.08333 107.495 1.41C107.168 1.71333 106.876 2.32 106.62 3.23L101.86 21.29C101.673 21.99 101.556 22.5617 101.51 23.005C101.486 23.425 101.65 23.74 102 23.95C102.35 24.1367 102.98 24.2533 103.89 24.3L103.75 25C103.05 24.9533 102.221 24.93 101.265 24.93C100.331 24.9067 99.3395 24.895 98.2895 24.895C97.1695 24.895 96.0845 24.9067 95.0345 24.93C93.9845 24.93 93.1562 24.9533 92.5495 25L92.6895 24.3C93.4829 24.2533 94.1012 24.16 94.5445 24.02C94.9879 23.88 95.3379 23.6 95.5945 23.18C95.8512 22.76 96.0845 22.13 96.2945 21.29L100.88 3.93C101.09 3.20667 101.195 2.635 101.195 2.215C101.195 1.795 101.02 1.48 100.67 1.27C100.343 1.06 99.7362 0.943332 98.8495 0.919999L99.0245 0.22C99.4445 0.243333 99.9579 0.266666 100.565 0.289999C101.171 0.289999 101.801 0.301665 102.455 0.324998C103.131 0.324998 103.75 0.324998 104.31 0.324998C105.383 0.324998 106.328 0.313332 107.145 0.289999C107.985 0.266666 108.79 0.254999 109.56 0.254999C112.406 0.254999 114.506 0.651666 115.86 1.445C117.236 2.23833 117.925 3.46333 117.925 5.12C117.925 6.73 117.353 8.13 116.21 9.32C115.09 10.4867 113.526 11.4083 111.52 12.085C109.513 12.7383 107.18 13.065 104.52 13.065L103.12 13.1ZM121.002 19.995C120.279 20.9983 119.906 21.815 119.882 22.445C119.859 23.0517 120.116 23.5067 120.652 23.81C121.189 24.09 121.912 24.2533 122.822 24.3L122.647 25C121.667 24.9533 120.816 24.93 120.092 24.93C119.392 24.9067 118.727 24.895 118.097 24.895C117.561 24.895 117.117 24.9067 116.767 24.93C116.417 24.93 116.056 24.9533 115.682 25L115.822 24.3C116.242 24.1833 116.639 23.9967 117.012 23.74C117.362 23.4833 117.771 23.0983 118.237 22.585C118.681 22.0717 119.194 21.4067 119.777 20.59L134.372 0.0449979C134.676 0.0683324 134.979 0.0799996 135.282 0.0799996C135.609 0.0799996 135.901 0.0683324 136.157 0.0449979L137.557 22.06C137.627 22.9 137.837 23.4833 138.187 23.81C138.561 24.1133 138.922 24.2767 139.272 24.3L139.132 25C138.549 24.9533 137.767 24.93 136.787 24.93C135.831 24.9067 134.921 24.895 134.057 24.895C133.007 24.895 132.016 24.9067 131.082 24.93C130.149 24.93 129.391 24.9533 128.807 25L128.947 24.3C130.067 24.2533 130.861 24.055 131.327 23.705C131.817 23.3317 132.027 22.55 131.957 21.36L131.117 5.26L132.307 4L121.002 19.995ZM124.257 14.92H134.477L134.197 15.62H123.627L124.257 14.92ZM149.609 21.29C149.399 22.13 149.305 22.76 149.329 23.18C149.352 23.6 149.55 23.88 149.924 24.02C150.297 24.16 150.88 24.2533 151.674 24.3L151.534 25C150.857 24.9533 149.994 24.93 148.944 24.93C147.917 24.9067 146.879 24.895 145.829 24.895C144.709 24.895 143.659 24.9067 142.679 24.93C141.722 24.93 140.94 24.9533 140.334 25L140.509 24.3C141.279 24.2533 141.874 24.16 142.294 24.02C142.737 23.88 143.087 23.6 143.344 23.18C143.6 22.76 143.834 22.13 144.044 21.29L148.664 3.93C148.897 3.06666 148.99 2.43667 148.944 2.04C148.897 1.62 148.687 1.34 148.314 1.2C147.964 1.03667 147.392 0.943332 146.599 0.919999L146.774 0.22C147.334 0.243333 148.104 0.266666 149.084 0.289999C150.064 0.313332 151.125 0.324998 152.269 0.324998C153.319 0.324998 154.345 0.313332 155.349 0.289999C156.375 0.266666 157.262 0.243333 158.009 0.22L157.834 0.919999C157.04 0.943332 156.422 1.03667 155.979 1.2C155.535 1.34 155.185 1.62 154.929 2.04C154.695 2.43667 154.462 3.06666 154.229 3.93L149.609 21.29ZM175.076 17.65C174.936 18.0233 174.796 18.455 174.656 18.945C174.516 19.435 174.376 19.96 174.236 20.52C174.12 20.9633 173.968 21.605 173.781 22.445C173.595 23.2617 173.431 24.1133 173.291 25C172.101 24.9533 170.771 24.93 169.301 24.93C167.831 24.9067 166.513 24.895 165.346 24.895C164.763 24.895 164.016 24.895 163.106 24.895C162.22 24.895 161.24 24.9067 160.166 24.93C159.093 24.93 158.02 24.9417 156.946 24.965C155.873 24.965 154.858 24.9767 153.901 25L154.076 24.3C154.87 24.2533 155.488 24.16 155.931 24.02C156.375 23.88 156.713 23.6 156.946 23.18C157.203 22.76 157.448 22.13 157.681 21.29L162.301 3.93C162.535 3.06666 162.628 2.43667 162.581 2.04C162.535 1.62 162.325 1.34 161.951 1.2C161.601 1.03667 161.03 0.943332 160.236 0.919999L160.411 0.22C161.018 0.243333 161.835 0.266666 162.861 0.289999C163.911 0.313332 165.02 0.324998 166.186 0.324998C167.213 0.324998 168.205 0.313332 169.161 0.289999C170.118 0.266666 170.946 0.243333 171.646 0.22L171.471 0.919999C170.678 0.943332 170.06 1.03667 169.616 1.2C169.173 1.34 168.823 1.62 168.566 2.04C168.31 2.43667 168.065 3.06666 167.831 3.93L163.211 21.29C163.001 22.13 162.908 22.76 162.931 23.18C162.955 23.6 163.141 23.88 163.491 24.02C163.865 24.1367 164.448 24.195 165.241 24.195H166.641C167.691 24.195 168.671 23.985 169.581 23.565C170.515 23.145 171.378 22.4567 172.171 21.5C172.965 20.5433 173.676 19.26 174.306 17.65H175.076Z" fill="black"/>
</svg>
