<svg width="1452" height="131" viewBox="0 0 1452 131" fill="none" xmlns="http://www.w3.org/2000/svg">
<path d="M20.1737 130.104C14.9966 130.123 10.0202 127.956 6.31853 124.071C2.96567 120.578 -0.362533 116.397 0.0319201 114.016C2.81625 102.586 6.37583 91.3903 10.6822 80.5178C15.4403 68.6637 41.0551 18.9983 50.1275 11.4572C53.9933 8.60706 58.2885 6.49452 62.824 5.21265C70.2994 2.84868 78.0571 1.67195 85.8502 1.71992H343.132C345.05 5.50496 346.634 9.47345 347.866 13.574C348.26 16.5375 348.063 117.826 348.063 117.826V130.104H20.1737Z" fill="#E0E0E0"/>
<path d="M60.3094 24.1315L26.5344 86.6565C25.8838 87.9021 25.5529 89.3108 25.5753 90.7386C25.5977 92.1664 25.9727 93.5622 26.6621 94.7837C27.3514 96.0051 28.3303 97.0083 29.499 97.691C30.6676 98.3736 31.9841 98.7112 33.314 98.6693H348.063V16.2993L74.2632 15.6643C71.4504 15.6418 68.6814 16.412 66.2328 17.8978C63.7841 19.3837 61.7417 21.5331 60.3094 24.1315Z" fill="#388087"/>
<path d="M155.126 129.839H87.0334V35.6946C87.0334 34.3518 87.5288 33.0636 88.4111 32.1116C89.2935 31.1596 90.4911 30.6213 91.7422 30.6143H150.417C151.668 30.6213 152.866 31.1596 153.748 32.1116C154.631 33.0636 155.126 34.3518 155.126 35.6946V129.839Z" fill="#388087"/>
<path d="M155.126 129.839C155.108 129.531 155.108 129.221 155.126 128.913C155.126 128.252 155.126 127.378 155.126 126.267C155.126 123.886 155.126 120.525 155.126 116.265C155.126 107.56 155.003 95.0972 154.904 79.8033C154.904 72.1299 154.904 63.7421 154.904 54.7193C154.904 50.2211 154.904 45.5641 154.904 40.7484V37.1234C155.014 35.9921 154.87 34.8491 154.485 33.7894C154.048 32.7914 153.285 32.0005 152.34 31.5668C151.864 31.3551 151.352 31.2472 150.836 31.2493H149.086H119.329H95.539C94.2324 31.2493 92.7532 31.2493 91.5698 31.2493C90.9856 31.3319 90.425 31.5498 89.927 31.8879C89.4289 32.226 89.0053 32.6761 88.6854 33.2073C88.1845 34.059 87.9512 35.0605 88.0197 36.065V59.2439C88.0197 67.8964 88.0197 76.3107 88.0197 84.4868C88.0197 100.786 88.0197 116.001 88.0197 129.733L87.4773 129.151L136.784 129.442L150.59 129.601H154.239H155.545C155.151 129.626 154.756 129.626 154.362 129.601H150.812L137.129 129.76L87.4527 130.051H86.935V129.495C86.935 115.762 86.935 100.548 86.935 84.2486C86.935 76.0813 86.935 67.667 86.935 59.0058V35.8268C86.8709 34.5606 87.1722 33.304 87.7978 32.2283C88.2158 31.5198 88.7713 30.9165 89.4266 30.4598C90.0819 30.0031 90.8214 29.7038 91.5944 29.5823C93.1229 29.5823 94.3556 29.5823 95.7362 29.5823H151.058C151.719 29.5898 152.371 29.7336 152.981 30.0056C154.196 30.5634 155.179 31.5801 155.742 32.8633C156.188 34.1005 156.357 35.4329 156.235 36.753V40.4044C156.235 45.2466 156.235 49.9565 156.235 54.5076C156.235 63.5834 156.235 72.0241 156.235 79.7504C156.235 95.0708 156.063 107.507 156.014 116.212C156.014 120.419 156.014 123.7 156.014 126.055C156.014 127.114 156.014 127.934 156.014 128.569C156.014 129.204 155.126 129.839 155.126 129.839Z" fill="#263238"/>
<path d="M116.026 33.2866H91.8655C90.6401 33.2866 89.6467 34.3528 89.6467 35.668V91.7896C89.6467 93.1048 90.6401 94.171 91.8655 94.171H116.026C117.251 94.171 118.245 93.1048 118.245 91.7896V35.668C118.245 34.3528 117.251 33.2866 116.026 33.2866Z" fill="#F5F5F5"/>
<path d="M116.026 94.2504H91.8409C91.2393 94.2504 90.6624 93.9939 90.2371 93.5374C89.8117 93.0809 89.5728 92.4617 89.5728 91.8161V35.668C89.5728 35.0223 89.8117 34.4031 90.2371 33.9466C90.6624 33.4901 91.2393 33.2336 91.8409 33.2336H116.026C116.627 33.2336 117.204 33.4901 117.63 33.9466C118.055 34.4031 118.294 35.0223 118.294 35.668V91.8161C118.294 92.4617 118.055 93.0809 117.63 93.5374C117.204 93.9939 116.627 94.2504 116.026 94.2504ZM91.8409 33.3924C91.272 33.3924 90.7264 33.6349 90.3242 34.0667C89.922 34.4984 89.696 35.0839 89.696 35.6944V91.8426C89.696 92.4531 89.922 93.0386 90.3242 93.4703C90.7264 93.902 91.272 94.1446 91.8409 94.1446H116.026C116.595 94.1446 117.14 93.902 117.542 93.4703C117.945 93.0386 118.171 92.4531 118.171 91.8426V35.668C118.171 35.0574 117.945 34.4719 117.542 34.0402C117.14 33.6085 116.595 33.366 116.026 33.366L91.8409 33.3924Z" fill="#263238"/>
<path d="M148.913 33.2866H126.578C124.848 33.2866 123.447 34.7911 123.447 36.647V90.8106C123.447 92.6665 124.848 94.171 126.578 94.171H148.913C150.643 94.171 152.044 92.6665 152.044 90.8106V36.647C152.044 34.7911 150.643 33.2866 148.913 33.2866Z" fill="#F5F5F5"/>
<path d="M148.913 94.2504H126.577C125.732 94.2504 124.92 93.8917 124.32 93.2523C123.72 92.6129 123.379 91.7448 123.373 90.8371V36.647C123.379 35.7393 123.72 34.8711 124.32 34.2317C124.92 33.5924 125.732 33.2336 126.577 33.2336H148.913C149.759 33.2336 150.571 33.5924 151.171 34.2317C151.771 34.8711 152.112 35.7393 152.118 36.647V90.8371C152.112 91.7448 151.771 92.6129 151.171 93.2523C150.571 93.8917 149.759 94.2504 148.913 94.2504ZM126.577 33.3924C126.174 33.3889 125.774 33.4712 125.4 33.6345C125.026 33.7978 124.686 34.039 124.4 34.344C124.113 34.649 123.886 35.0119 123.731 35.4117C123.576 35.8115 123.496 36.2403 123.496 36.6735V90.8635C123.502 91.7361 123.83 92.5706 124.407 93.1852C124.984 93.7998 125.764 94.1446 126.577 94.1446H148.913C149.726 94.1446 150.507 93.7998 151.084 93.1852C151.661 92.5706 151.989 91.7361 151.995 90.8635V36.647C151.995 36.2139 151.915 35.785 151.76 35.3852C151.605 34.9854 151.377 34.6226 151.091 34.3175C150.805 34.0125 150.465 33.7714 150.091 33.608C149.717 33.4447 149.317 33.3625 148.913 33.366L126.577 33.3924Z" fill="#263238"/>
<path d="M121.08 129.707C120.735 129.707 120.439 107.56 120.439 80.2266C120.439 52.8934 120.735 30.7463 121.08 30.7463C121.425 30.7463 121.721 52.8934 121.721 80.2266C121.721 107.56 121.425 129.707 121.08 129.707Z" fill="#263238"/>
<path d="M118.245 84.3809H89.6467V94.171H118.245V84.3809Z" fill="#263238"/>
<path d="M152.044 84.3809H123.447V94.171H152.044V84.3809Z" fill="#263238"/>
<path d="M58.3372 27.7829H348.063V16.2992L74.6823 15.6907C70.0523 15.8046 65.6399 17.8221 62.3556 21.3267L58.3372 27.7829Z" fill="#DC532D"/>
<path d="M43.2738 19.7656C43.2738 19.7656 45.7392 21.2209 44.1367 24.8195C42.8301 27.8624 27.6683 51.0942 20.4448 66.9173C13.2214 82.7404 9.10432 94.1711 9.10432 94.1711H5.75146C5.75146 94.1711 10.1644 81.8672 12.7284 75.8608C15.5881 69.1664 24.0442 52.4966 32.0319 38.2611L43.2738 19.7656Z" fill="#EBEBEB"/>
<path d="M348.063 111.582C348.063 111.952 271.884 112.27 177.955 112.27C84.0257 112.27 7.84692 111.952 7.84692 111.582C7.84692 111.211 83.9764 110.894 177.955 110.894C271.933 110.894 348.063 111.185 348.063 111.582Z" fill="#263238"/>
<path d="M348.063 130.104L20.1738 130.871C16.3398 130.331 12.6663 128.879 9.42085 126.622C6.17539 124.366 3.43959 121.361 1.4126 117.826H348.063V130.104Z" fill="#DC532D"/>
<path d="M80.673 1.87866C80.1951 2.09385 79.7 2.26212 79.1938 2.38141C78.2077 2.67247 76.7285 3.12227 74.9535 3.81023C69.797 5.69019 64.9222 8.3641 60.482 11.7482C59.019 12.8524 57.642 14.0825 56.3648 15.4262C55.0306 16.9363 53.7872 18.5359 52.6422 20.2155C50.1769 23.7082 47.7115 27.5713 45.2462 31.6991C40.3155 39.9811 35.1137 49.242 29.8625 59.0587C24.6114 68.8754 20.4696 78.7714 16.7223 87.7149C13.2596 95.5607 10.4385 103.715 8.29086 112.085C8.12149 112.958 7.99802 113.842 7.92106 114.731C7.87173 115.135 7.87173 115.544 7.92106 115.948C7.91622 116.343 7.97461 116.737 8.09365 117.112C8.5926 118.536 9.33695 119.847 10.2878 120.975C11.8268 122.902 13.5267 124.673 15.3664 126.267C16.8456 127.564 18.0782 128.516 18.8918 129.151C19.3222 129.467 19.7338 129.812 20.1245 130.183C19.6309 129.992 19.1659 129.724 18.7439 129.389C17.881 128.807 16.599 127.934 15.0459 126.743C13.1325 125.235 11.3577 123.534 9.74542 121.663C8.69119 120.464 7.85506 119.064 7.28008 117.535C7.14254 117.109 7.06768 116.663 7.05819 116.212C7.00892 115.746 7.00892 115.276 7.05819 114.81C7.05819 113.937 7.20611 112.984 7.40334 112.164C9.43486 103.681 12.1913 95.4165 15.6376 87.4767C19.3356 78.4538 23.6499 68.6637 28.7531 58.6618C33.8564 48.6599 39.2554 39.5577 44.2601 31.2757C46.7254 27.148 49.1907 23.3377 51.6561 19.7921C52.8566 18.0818 54.1576 16.4556 55.5513 14.9235C56.8815 13.572 58.3074 12.3335 59.8163 11.219C64.3469 7.85426 69.3371 5.26559 74.6083 3.54565C76.0332 3.05647 77.4816 2.65015 78.9473 2.32848C79.4949 2.07544 80.0783 1.92337 80.673 1.87866Z" fill="#263238"/>
<path d="M5.75146 94.1709C6.77983 94.0057 7.75396 93.5694 8.5866 92.9009C9.48529 92.028 10.135 90.8995 10.4603 89.6463L12.4325 84.7512C13.9364 81.0203 15.7114 76.8133 17.6344 71.9975C19.7192 66.7576 22.1156 61.6668 24.8085 56.7566C30.4787 46.1726 36.1737 37.2027 40.2661 30.6406L43.0026 26.1953C43.7492 25.174 44.2337 23.9607 44.4079 22.6761C44.4699 21.8703 44.2501 21.0686 43.7915 20.4271C43.471 19.9772 43.2245 19.792 43.2738 19.7656C43.3231 19.7391 43.5696 19.7655 43.9888 20.2418C44.284 20.5621 44.5168 20.9423 44.6734 21.3603C44.83 21.7783 44.9074 22.2257 44.9009 22.6761C44.8156 24.0828 44.3722 25.4374 43.6189 26.5922C42.8794 27.9681 41.9918 29.4764 41.1536 31.1698C37.2337 37.8642 31.6621 47.0458 26.0411 57.4445C23.3714 62.3271 20.9678 67.3718 18.8424 72.5532L13.394 85.1217C12.6051 86.8857 11.8901 88.4997 11.2492 89.9638C10.9682 90.6465 10.6471 91.3094 10.2877 91.9483C9.93091 92.4769 9.49819 92.9414 9.0057 93.3243C8.32986 93.8425 7.53941 94.1617 6.71294 94.2503C6.0473 94.3032 5.75146 94.2238 5.75146 94.1709Z" fill="#263238"/>
<path d="M60.3094 24.1314C60.5196 23.6765 60.7671 23.2426 61.049 22.8349C61.8092 21.582 62.7305 20.4508 63.7855 19.4745C65.5786 17.8961 67.6621 16.742 69.8996 16.0876C72.9929 15.4506 76.1491 15.2372 79.2925 15.4526H140.038L347.965 15.6907H348.581V16.3522C348.581 42.8122 348.581 70.41 348.581 98.7222V99.4102H332.753L62.1831 99.1985H37.5297C35.5881 99.2728 33.644 99.202 31.7116 98.9868C29.7512 98.6061 27.9934 97.4552 26.7809 95.7587C25.6063 94.1228 25.0436 92.075 25.2031 90.0169C25.4673 88.1031 26.1611 86.2869 27.2247 84.7249L44.9997 52.0203C49.9304 43.1033 53.7023 36.1443 56.2909 31.4079L59.2493 26.1159L60.3094 24.3166C60.3094 24.3166 60.0136 24.9782 59.3726 26.1953C58.7316 27.4125 57.7701 29.2647 56.5128 31.6196L45.4435 52.3907C40.5128 61.3871 34.6946 72.3945 27.841 85.2011C26.8446 86.6712 26.1934 88.3777 25.9427 90.1756C25.7828 92.0698 26.2933 93.9592 27.3726 95.4676C28.4747 96.9824 30.0515 98.0166 31.8102 98.3783C33.6949 98.5662 35.5892 98.6192 37.4804 98.537H62.1338L332.704 98.3253H348.014L347.373 99.0133V16.2993L347.989 16.9608L140.211 16.2464L79.4651 15.9288C76.3514 15.6734 73.2202 15.8424 70.1461 16.4316C67.9465 17.0479 65.8898 18.1471 64.106 19.6597C62.6315 20.9292 61.3505 22.438 60.3094 24.1314Z" fill="#263238"/>
<g opacity="0.3">
<path opacity="0.3" d="M68.4943 27.783V74.4584L87.0335 83.931V98.5899H33.3139C31.4042 98.6366 29.547 97.9164 28.1061 96.5705C26.6651 95.2246 25.7441 93.3499 25.5235 91.3134C25.4162 89.9848 25.6462 88.6498 26.1891 87.4503L58.2385 27.7036L68.4943 27.783Z" fill="black"/>
</g>
<g opacity="0.6">
<path opacity="0.6" d="M92.7532 94.1975H113.437L118.245 86.0479V52.0996L92.7532 94.1975Z" fill="white"/>
</g>
<g opacity="0.6">
<path opacity="0.6" d="M129.61 33.2866L123.447 43.5001V77.2631L149.382 33.2866H129.61Z" fill="white"/>
</g>
<path d="M237.024 33.2866H167.404C164.503 33.2866 162.152 35.8099 162.152 38.9226V88.5351C162.152 91.6478 164.503 94.171 167.404 94.171H237.024C239.925 94.171 242.276 91.6478 242.276 88.5351V38.9226C242.276 35.8099 239.925 33.2866 237.024 33.2866Z" fill="#F5F5F5"/>
<path d="M237.025 94.1711C237.89 94.0661 238.728 93.7784 239.49 93.3245C240.412 92.7567 241.138 91.8842 241.561 90.8372C242.032 89.3584 242.175 87.7819 241.98 86.2331C241.98 78.9302 241.98 68.5579 241.783 55.7777C241.783 52.5761 241.783 49.2156 241.783 45.6965V40.4045C241.828 39.5193 241.778 38.6315 241.635 37.7585C241.437 36.9325 241.057 36.17 240.525 35.5358C239.973 34.923 239.299 34.4526 238.553 34.1599C237.751 33.9235 236.918 33.8341 236.088 33.8953H218.978H167.477C166.471 33.9008 165.494 34.2574 164.694 34.9114C163.893 35.5653 163.313 36.4811 163.04 37.5203C162.84 38.6447 162.782 39.7928 162.867 40.9337V44.5323C162.867 49.295 162.867 54.0049 162.867 58.6354C162.867 67.8699 162.867 76.787 162.867 85.2806V88.4558C162.86 89.3901 163.099 90.3075 163.558 91.1018C164.005 91.8865 164.643 92.5254 165.403 92.9497C166.163 93.374 167.017 93.5676 167.872 93.5096H178.793H198.368L226.744 93.7214H234.461H236.458H237.148H236.458H234.461L226.744 93.8536L198.368 94.0653H178.793H167.872C166.824 94.1291 165.78 93.8902 164.848 93.3736C163.916 92.8571 163.13 92.0817 162.571 91.1282C161.985 90.1404 161.677 88.9919 161.684 87.8207V85.36C161.684 76.8663 161.684 67.9493 161.684 58.7148V41.0131C161.603 39.7468 161.678 38.4746 161.906 37.2293C162.254 35.9011 162.996 34.7307 164.019 33.8953C165.042 33.0598 166.291 32.6047 167.576 32.5988H219.077H236.186C237.151 32.5206 238.121 32.6373 239.046 32.9428C239.99 33.2693 240.84 33.8527 241.511 34.6362C242.156 35.3835 242.614 36.2937 242.843 37.2822C243.011 38.2234 243.061 39.1845 242.991 40.1399C242.991 41.9656 242.991 43.7649 242.991 45.4319C242.991 48.9511 242.991 52.3115 242.991 55.5131C242.991 68.2933 242.818 78.6656 242.793 85.9686C242.928 87.5923 242.726 89.2279 242.202 90.7578C241.729 91.8777 240.934 92.8052 239.934 93.4038C239.331 93.7494 238.668 93.9566 237.986 94.0124C237.685 94.1577 237.353 94.2126 237.025 94.1711Z" fill="#263238"/>
<path d="M162.152 84.3809H242.275V91.1811C242.275 91.9741 241.982 92.7346 241.459 93.2953C240.937 93.856 240.228 94.171 239.49 94.171H164.864C164.125 94.171 163.417 93.856 162.894 93.2953C162.372 92.7346 162.078 91.9741 162.078 91.1811V84.3809H162.152Z" fill="#263238"/>
<g opacity="0.6">
<path opacity="0.6" d="M209.561 33.2866L172.704 94.1975H193.388L229.357 33.2866H209.561Z" fill="white"/>
</g>
<path d="M323.533 33.2866H254.405C251.369 33.2866 248.907 35.9284 248.907 39.1872V88.2705C248.907 91.5293 251.369 94.171 254.405 94.171H323.533C326.569 94.171 329.031 91.5293 329.031 88.2705V39.1872C329.031 35.9284 326.569 33.2866 323.533 33.2866Z" fill="#F5F5F5"/>
<path d="M323.533 94.171C324.395 94.0818 325.233 93.8121 325.998 93.3773C326.919 92.8117 327.672 91.9766 328.168 90.9694C328.469 90.3341 328.653 89.6423 328.71 88.932C328.71 88.1647 328.71 87.2915 328.71 86.286C328.71 78.983 328.587 68.6372 328.488 55.8834C328.488 52.6818 328.488 49.3214 328.488 45.8286C328.488 44.0558 328.488 42.283 328.488 40.5366C328.531 39.6515 328.481 38.764 328.34 37.8906C328.157 37.0696 327.794 36.3075 327.28 35.668C326.741 35.0019 326.062 34.4838 325.298 34.157C324.535 33.8302 323.71 33.7041 322.892 33.7893H305.832H254.405C253.396 33.7952 252.413 34.1333 251.588 34.7579C250.764 35.3825 250.138 36.2635 249.795 37.2821C249.535 38.379 249.443 39.514 249.524 40.6425V58.3178C249.524 67.5523 249.524 76.4429 249.524 84.9365V88.0853C249.532 89.0137 249.761 89.9245 250.189 90.7313C250.617 91.5272 251.231 92.1899 251.97 92.6538C252.71 93.1178 253.549 93.3671 254.405 93.3773H265.302H284.852L313.154 93.5889H320.87H322.867H323.558H322.867H320.87L313.154 93.7212L284.852 93.9329H265.302H254.405C253.354 93.9263 252.323 93.628 251.411 93.0669C250.5 92.5059 249.739 91.7013 249.203 90.7313C248.643 89.7337 248.353 88.5884 248.365 87.4238C248.365 86.3918 248.365 85.3334 248.365 84.275C248.365 75.7814 248.365 66.8908 248.365 57.6563C248.365 53.0258 248.365 48.3424 248.365 43.5796V38.1553C248.373 37.4797 248.481 36.8099 248.685 36.1708C249.112 34.8803 249.901 33.763 250.942 32.972C251.984 32.181 253.228 31.7548 254.504 31.7519H305.93H322.991C323.965 31.6714 324.943 31.8377 325.847 32.2376C326.751 32.6375 327.554 33.2596 328.192 34.054C328.806 34.8128 329.238 35.7212 329.45 36.6999C329.614 37.6417 329.672 38.6011 329.622 39.5576C329.622 41.3834 329.622 43.1562 329.622 44.8496C329.622 48.3424 329.622 51.7028 329.622 54.9044C329.622 67.6582 329.474 78.004 329.425 85.307C329.425 86.2066 329.425 87.0269 329.425 87.953C329.307 88.9307 328.969 89.8629 328.441 90.6696C327.913 91.4762 327.21 92.133 326.393 92.5835C325.785 92.9124 325.123 93.1101 324.445 93.1656C324.267 93.6102 323.942 93.9683 323.533 94.171Z" fill="#263238"/>
<path d="M248.907 84.3809H329.031V90.9165C329.031 91.7867 328.708 92.6212 328.135 93.2365C327.562 93.8518 326.784 94.1975 325.974 94.1975H252.014C251.203 94.1975 250.425 93.8518 249.852 93.2365C249.279 92.6212 248.957 91.7867 248.957 90.9165V84.3809H248.907Z" fill="#263238"/>
<g opacity="0.6">
<path opacity="0.6" d="M296.34 33.2866L259.484 94.1975H280.168L316.112 33.2866H296.34Z" fill="white"/>
</g>
<path d="M745.82 13.7327H719.983V124.283H745.82V13.7327Z" fill="#388087"/>
<path opacity="0.2" d="M745.82 13.7327H719.983V124.283H745.82V13.7327Z" fill="black"/>
<path d="M718.578 130.818L356.149 130.077V13.7327L361.819 1.66695L712.439 0L718.578 9.86957V130.818Z" fill="#E0E0E0"/>
<path d="M718.874 15.6377H356.149V98.6693H718.874V15.6377Z" fill="#388087"/>
<path d="M530.448 129.813H462.356V35.5623C462.362 34.2475 462.854 32.9891 463.722 32.0619C464.591 31.1347 465.766 30.6142 466.991 30.6143H525.814C527.039 30.6142 528.214 31.1347 529.082 32.0619C529.951 32.9891 530.442 34.2475 530.448 35.5623V129.813Z" fill="#388087"/>
<path d="M530.448 129.813C530.415 129.505 530.415 129.194 530.448 128.887C530.448 128.225 530.448 127.352 530.448 126.241C530.448 123.859 530.448 120.525 530.448 116.239C530.448 107.534 530.3 95.0709 530.226 79.777C530.226 72.1036 530.226 63.6893 530.103 54.6929C530.103 50.1682 530.103 45.5113 530.103 40.722V37.097C530.211 35.9592 530.076 34.8101 529.709 33.7366C529.272 32.7386 528.508 31.9476 527.564 31.5139C527.082 31.3232 526.573 31.2247 526.06 31.2228H470.565C469.259 31.2228 467.804 31.2228 466.572 31.2228C465.987 31.2936 465.425 31.5038 464.925 31.838C464.426 32.1722 464.003 32.622 463.687 33.1544C463.195 34.0092 462.97 35.0106 463.046 36.0121V59.1911C463.046 67.8435 463.046 76.2843 463.046 84.4339C463.046 100.76 463.046 115.974 463.046 129.707L462.528 129.151L511.835 129.442L525.641 129.575H529.29C529.724 129.537 530.161 129.537 530.596 129.575C530.203 129.616 529.806 129.616 529.413 129.575H525.863H512.156L462.504 129.866H461.986V129.31C461.986 115.577 461.986 100.363 461.986 84.0371C461.986 75.8874 461.986 67.4466 461.986 58.7942V35.6152C461.91 34.3513 462.203 33.0933 462.824 32.0166C463.237 31.2977 463.794 30.6869 464.456 30.2291C465.117 29.7712 465.865 29.4779 466.646 29.3706C468.149 29.3706 469.407 29.3706 470.787 29.3706H494.578H524.334H526.109C526.779 29.3684 527.441 29.5125 528.057 29.794C529.276 30.3324 530.261 31.343 530.818 32.6252C531.242 33.8682 531.402 35.197 531.287 36.5148V40.1928C531.287 45.035 531.287 49.7184 531.287 54.2695C531.287 63.3453 531.287 71.8125 531.287 79.5388C531.287 94.8592 531.114 107.295 531.065 116.001C531.065 120.208 531.065 123.515 530.941 125.844C530.941 126.902 530.941 127.723 530.941 128.49C530.941 129.257 530.448 129.839 530.448 129.813Z" fill="#263238"/>
<path d="M489.869 33.2603H468.667C466.625 33.2603 464.969 35.0372 464.969 37.2293V90.1757C464.969 92.3677 466.625 94.1447 468.667 94.1447H489.869C491.911 94.1447 493.567 92.3677 493.567 90.1757V37.2293C493.567 35.0372 491.911 33.2603 489.869 33.2603Z" fill="#F5F5F5"/>
<path d="M524.606 33.2603H501.53C500.005 33.2603 498.769 34.5871 498.769 36.2238V91.1812C498.769 92.8179 500.005 94.1447 501.53 94.1447H524.606C526.131 94.1447 527.367 92.8179 527.367 91.1812V36.2238C527.367 34.5871 526.131 33.2603 524.606 33.2603Z" fill="#F5F5F5"/>
<path d="M496.402 129.68C496.057 129.68 495.761 107.533 495.761 80.2001C495.761 52.8669 496.057 30.7463 496.402 30.7463C496.747 30.7463 497.043 52.8934 497.043 80.2001C497.043 107.507 496.747 129.68 496.402 129.68Z" fill="#263238"/>
<path d="M493.567 84.3545H464.969V94.1447H493.567V84.3545Z" fill="#263238"/>
<path d="M527.367 84.3545H498.769V94.1447H527.367V84.3545Z" fill="#263238"/>
<path d="M356.149 15.6907V27.7565H718.874V16.2728L356.149 15.6907Z" fill="#DC532D"/>
<path d="M718.874 111.555C718.874 111.926 637.666 112.243 537.524 112.243C437.382 112.243 356.149 111.926 356.149 111.555C356.149 111.185 437.333 110.867 537.524 110.867C637.715 110.867 718.874 111.158 718.874 111.555Z" fill="#263238"/>
<path d="M718.578 130.871L356.174 130.077V118.594H718.578V130.871Z" fill="#DC532D"/>
<g opacity="0.6">
<g opacity="0.5">
<path opacity="0.5" d="M468.075 94.1711H488.76L493.567 86.0479V52.0732L468.075 94.1711Z" fill="white"/>
</g>
<g opacity="0.5">
<path opacity="0.5" d="M504.932 33.2603L498.769 43.5003V77.2368L524.704 33.2603H504.932Z" fill="white"/>
</g>
</g>
<path d="M613.086 33.2603H541.986C539.494 33.2603 537.475 35.4282 537.475 38.1024V89.3025C537.475 91.9768 539.494 94.1447 541.986 94.1447H613.086C615.578 94.1447 617.598 91.9768 617.598 89.3025V38.1024C617.598 35.4282 615.578 33.2603 613.086 33.2603Z" fill="#F5F5F5"/>
<path d="M613.086 94.1711C613.968 94.0546 614.812 93.7195 615.552 93.1921C616.398 92.5598 617.002 91.6198 617.253 90.5461C617.368 88.9698 617.368 87.3862 617.253 85.8098C617.253 78.4804 617.253 68.0551 617.055 55.222C617.055 51.9939 617.055 48.607 617.055 45.0878C617.055 43.315 617.055 41.5157 617.055 39.7958C617.114 38.9107 617.064 38.0211 616.907 37.1498C616.709 36.3336 616.284 35.6011 615.69 35.0486C615.096 34.4961 614.36 34.1493 613.579 34.054C612.815 34.054 611.804 34.054 610.917 34.054H593.659H541.887C540.898 34.0653 539.949 34.478 539.231 35.2093C538.513 35.9406 538.079 36.9363 538.017 37.9966V45.2201C538.017 50.0094 538.017 54.7457 538.017 59.3762C538.017 68.6637 538.017 77.6336 538.017 86.1802C538.017 87.2386 538.017 88.2971 538.017 89.3555C537.994 90.3037 538.262 91.2337 538.781 92.0015C539.289 92.7334 539.995 93.2787 540.803 93.5626C541.679 93.7497 542.574 93.812 543.465 93.7478H554.387H574.109L602.609 93.986H610.35H612.371H613.062C612.833 94.0246 612.6 94.0246 612.371 93.986H610.35L602.609 94.1182L574.109 94.33H554.387H543.416H542.06C541.527 94.327 540.996 94.2468 540.482 94.0917C539.438 93.7432 538.523 93.0484 537.869 92.1072C537.226 91.1428 536.881 89.9859 536.883 88.7997V85.6246C536.883 77.078 536.883 68.108 536.883 58.8206V37.7319C536.946 36.3091 537.516 34.9667 538.475 33.9819C539.434 32.9971 540.708 32.4451 542.035 32.4399H593.807H611.065C612.026 32.4399 612.815 32.4399 613.85 32.4399C614.834 32.5855 615.757 33.0361 616.506 33.7364C617.255 34.4367 617.797 35.3563 618.066 36.3825C618.241 37.3405 618.299 38.3189 618.239 39.2931C618.239 41.1188 618.239 42.9181 618.239 44.5851C618.239 48.1043 618.239 51.4911 618.239 54.7193C618.239 67.5524 618.066 77.9777 618.017 85.3071C618.07 86.9242 618.004 88.5432 617.82 90.1492C617.526 91.3294 616.843 92.3546 615.897 93.0334C615.317 93.4341 614.659 93.6874 613.974 93.7742C613.705 93.9678 613.403 94.1026 613.086 94.1711Z" fill="#263238"/>
<path d="M537.475 84.3545H617.598V91.9485C617.598 92.531 617.382 93.0896 616.999 93.5015C616.615 93.9133 616.094 94.1447 615.552 94.1447H539.595C539.052 94.1447 538.532 93.9133 538.148 93.5015C537.764 93.0896 537.549 92.531 537.549 91.9485V84.3545H537.475Z" fill="#263238"/>
<g opacity="0.6">
<path opacity="0.6" d="M584.883 33.2603L548.026 94.1711H568.71L604.655 33.2603H584.883Z" fill="white"/>
</g>
<path d="M700.532 33.2603H628.051C625.94 33.2603 624.229 35.0965 624.229 37.3616V90.0434C624.229 92.3085 625.94 94.1447 628.051 94.1447H700.532C702.642 94.1447 704.353 92.3085 704.353 90.0434V37.3616C704.353 35.0965 702.642 33.2603 700.532 33.2603Z" fill="#F5F5F5"/>
<path d="M700.532 94.171C701.436 94.0641 702.293 93.6781 702.997 93.0598C703.39 92.685 703.703 92.2242 703.916 91.7083C704.129 91.1925 704.236 90.6338 704.23 90.0698C704.23 88.6409 704.23 87.0269 704.23 85.2276C704.23 77.8717 704.107 67.42 704.008 54.5075C704.008 51.2794 704.008 47.8661 704.008 44.3469C704.008 42.5741 704.008 40.7483 704.008 38.9226C704.069 38.0375 704.019 37.1476 703.86 36.2766C703.616 35.4987 703.139 34.8291 702.504 34.3715C701.818 33.9179 701.014 33.7138 700.211 33.7893H680.119H628.125C627.651 33.7996 627.185 33.921 626.759 34.1449C626.333 34.3689 625.958 34.69 625.66 35.0859C625.372 35.4963 625.162 35.964 625.043 36.4618C625.002 37.0255 625.002 37.5917 625.043 38.1553V59.6673C625.043 68.9812 625.043 78.004 625.043 86.577V89.7788C625.012 90.6851 625.313 91.5685 625.882 92.2395C626.43 92.9062 627.2 93.3149 628.026 93.3773H641.857H661.58L690.202 93.6154H697.993H700.014H700.705C700.476 93.6541 700.243 93.6541 700.014 93.6154H697.993L690.202 93.7478L661.58 93.9594H641.857H630.837H627.953C626.833 93.8682 625.786 93.3301 625.019 92.4512C624.26 91.5433 623.847 90.363 623.86 89.1437V85.942C623.86 77.369 623.86 68.3461 623.86 59.0322C623.86 54.3487 623.86 49.6124 623.86 44.7967V37.5202C623.832 36.8559 623.873 36.1902 623.983 35.5357C624.13 34.8347 624.416 34.1759 624.822 33.6042C625.242 33.0401 625.775 32.5836 626.38 32.2678C626.986 31.952 627.649 31.7848 628.322 31.7784H680.316H700.31C701.316 31.7231 702.315 32.0002 703.17 32.5722C704.039 33.1958 704.67 34.1355 704.945 35.2182C705.127 36.1842 705.193 37.1712 705.142 38.1553C705.142 39.981 705.142 41.8068 705.142 43.5796C705.142 47.0988 705.142 50.5121 705.142 53.7402C705.142 66.6527 704.994 77.1044 704.945 84.4603C704.945 86.2595 704.945 87.8736 704.945 89.3024C704.93 89.9168 704.793 90.5207 704.542 91.0731C704.291 91.6255 703.932 92.1136 703.49 92.5041C703.188 93.0471 702.751 93.49 702.23 93.7841C701.708 94.0782 701.12 94.2121 700.532 94.171Z" fill="#263238"/>
<path d="M624.229 84.3545H704.353V92.6894C704.353 92.8805 704.318 93.0697 704.25 93.2463C704.182 93.4229 704.082 93.5833 703.956 93.7184C703.83 93.8536 703.68 93.9608 703.516 94.0339C703.351 94.1071 703.175 94.1447 702.997 94.1447H625.61C625.251 94.1447 624.906 93.9914 624.651 93.7184C624.397 93.4455 624.254 93.0753 624.254 92.6894V84.3545H624.229Z" fill="#263238"/>
<g opacity="0.6">
<path opacity="0.6" d="M671.663 33.2603L634.806 94.1711H655.465L691.435 33.2603H671.663Z" fill="white"/>
</g>
<path d="M447.367 33.2603H379.373C376.023 33.2603 373.308 36.1745 373.308 39.7694V87.6355C373.308 91.2304 376.023 94.1447 379.373 94.1447H447.367C450.716 94.1447 453.431 91.2304 453.431 87.6355V39.7694C453.431 36.1745 450.716 33.2603 447.367 33.2603Z" fill="#F5F5F5"/>
<path d="M447.342 94.171C448.196 94.0551 449.028 93.7963 449.807 93.4037C450.931 92.8026 451.852 91.839 452.44 90.6479C453.028 89.4569 453.254 88.0981 453.086 86.7623C453.086 79.5122 452.963 69.1928 452.889 56.492C452.889 53.2904 452.889 49.9564 452.889 46.4637C452.889 44.7174 452.889 42.9445 452.889 41.1717C452.938 40.2875 452.897 39.4002 452.766 38.5257C452.592 37.6953 452.247 36.9175 451.755 36.2502C451.272 35.544 450.647 34.9649 449.925 34.5569C449.203 34.1489 448.404 33.9226 447.588 33.8952H430.602H379.373C378.347 33.8943 377.343 34.2011 376.471 34.7809C375.6 35.3607 374.897 36.1903 374.442 37.1762C374.008 38.1759 373.822 39.2784 373.9 40.3779V43.95C373.9 48.6864 373.9 53.3697 373.9 57.9738C373.9 67.1819 373.9 76.046 373.9 84.4338C373.9 85.4922 373.9 86.5241 373.9 87.5825C373.936 88.5034 374.154 89.4055 374.541 90.2285C374.942 91.0452 375.518 91.7488 376.22 92.2821C376.923 92.8154 377.732 93.1634 378.584 93.2979C382.134 93.4566 385.98 93.2979 389.333 93.2979H408.833L437.037 93.536H444.704H446.701H447.367C447.146 93.5765 446.921 93.5765 446.701 93.536H444.704L437.037 93.6684L408.833 93.88H389.333C385.807 93.88 382.306 93.88 378.411 93.88C377.379 93.7224 376.395 93.3077 375.539 92.669C374.683 92.0304 373.978 91.1855 373.48 90.202C373.009 89.18 372.748 88.0609 372.716 86.921V84.5661C372.716 76.0989 372.716 67.2348 372.716 58.1061V40.3779C372.635 39.0679 372.864 37.7571 373.382 36.5677C373.94 35.358 374.8 34.3388 375.867 33.6238C376.933 32.9089 378.164 32.5264 379.422 32.5193H430.652H442.165H447.687C448.653 32.5683 449.597 32.8478 450.45 33.3376C451.303 33.8274 452.044 34.515 452.618 35.3505C453.171 36.1366 453.566 37.0377 453.776 37.9965C453.933 38.9392 453.982 39.8987 453.924 40.8542C453.924 42.6799 453.924 44.4527 453.924 46.1462C453.924 49.6389 453.924 52.9729 453.924 56.1745C453.924 68.8753 453.752 79.1947 453.702 86.4448C453.823 88.0861 453.433 89.7241 452.593 91.1017C451.964 92.0654 451.115 92.8397 450.128 93.3508C449.296 93.9166 448.326 94.2022 447.342 94.171Z" fill="#263238"/>
<path d="M373.308 84.3545H453.308V89.1702C453.308 90.4895 452.82 91.7548 451.951 92.6877C451.081 93.6206 449.903 94.1447 448.673 94.1447H377.943C376.714 94.1447 375.535 93.6206 374.666 92.6877C373.796 91.7548 373.308 90.4895 373.308 89.1702V84.3545Z" fill="#263238"/>
<g opacity="0.6">
<path opacity="0.6" d="M420.716 33.2603L383.86 94.1711H404.544L440.488 33.2603H420.716Z" fill="white"/>
</g>
<path d="M1088.43 130.871H1114.26V20.3212H1088.43V130.871Z" fill="#388087"/>
<path opacity="0.2" d="M1088.43 130.871H1114.26V20.3212H1088.43V130.871Z" fill="black"/>
<path d="M1431.01 130.104C1436.19 130.123 1441.16 127.956 1444.87 124.071C1448.22 120.578 1451.55 116.397 1451.15 114.016C1448.36 102.586 1444.79 91.3908 1440.48 80.5178C1435.74 68.6637 1410.1 18.9982 1401.03 11.4571C1397.16 8.61201 1392.87 6.49988 1388.34 5.21255C1380.85 2.85048 1373.09 1.67381 1365.28 1.7198H1108.03C1106.11 5.50486 1104.52 9.47335 1103.29 13.5739C1102.9 16.5374 1103.12 117.826 1103.12 117.826V130.104H1431.01Z" fill="#E0E0E0"/>
<path d="M1390.87 24.1315L1424.65 86.6565C1425.3 87.9022 1425.63 89.3108 1425.61 90.7386C1425.59 92.1665 1425.21 93.5623 1424.52 94.7837C1423.83 96.0051 1422.85 97.0084 1421.68 97.691C1420.52 98.3737 1419.2 98.7113 1417.87 98.6694H1103.12V16.2994L1376.92 15.6643C1379.73 15.6472 1382.5 16.4196 1384.95 17.9049C1387.39 19.3903 1389.44 21.5368 1390.87 24.1315Z" fill="#388087"/>
<path d="M1296.06 129.839H1364.13V37.2291C1364.13 35.4512 1363.47 33.7457 1362.3 32.4861C1361.13 31.2265 1359.54 30.5153 1357.89 30.5083H1302.29C1300.64 30.5153 1299.05 31.2265 1297.88 32.4861C1296.71 33.7457 1296.06 35.4512 1296.06 37.2291V129.839Z" fill="#388087"/>
<path d="M1296.06 129.839C1296.02 129.567 1296.02 129.291 1296.06 129.019C1296.06 128.357 1296.06 127.537 1296.06 126.373C1296.06 124.044 1296.06 120.763 1296.06 116.583C1296.06 107.93 1295.91 95.547 1295.84 80.2796C1295.84 72.5797 1295.84 64.1655 1295.84 55.1162C1295.84 50.5915 1295.84 45.9081 1295.84 41.0924V37.4409C1295.8 36.4231 1295.96 35.4085 1296.31 34.4623C1296.66 33.516 1297.2 32.6591 1297.87 31.9464C1298.55 31.2337 1299.36 30.6811 1300.25 30.3241C1301.14 29.9671 1302.09 29.8135 1303.03 29.8733H1358.09C1358.83 29.883 1359.58 30.0261 1360.28 30.2967C1361.7 30.8535 1362.91 31.8944 1363.73 33.2602C1364.36 34.2966 1364.73 35.4916 1364.79 36.7264C1364.79 37.9436 1364.79 38.9755 1364.79 40.1133V59.7731C1364.79 68.3461 1364.79 76.7076 1364.79 84.8043C1364.79 100.998 1364.79 116.107 1364.79 129.786V130.342H1364.25L1314.6 130.051L1300.91 129.892H1297.36C1296.97 129.918 1296.57 129.918 1296.18 129.892H1297.46H1301.14L1314.94 129.733L1364.25 129.442L1363.73 130.024C1363.73 116.371 1363.73 101.262 1363.73 85.0425C1363.73 76.9457 1363.73 68.5843 1363.73 60.0113C1363.73 55.6983 1363.73 51.3589 1363.73 46.9665V40.3515C1363.73 39.2666 1363.73 38.0759 1363.73 37.0704C1363.67 36.0637 1363.37 35.0897 1362.87 34.2392C1362.2 33.1344 1361.21 32.2905 1360.06 31.8314C1358.83 31.472 1357.55 31.3466 1356.29 31.4609H1332.59H1303.01C1302.22 31.4092 1301.42 31.535 1300.68 31.8303C1299.93 32.1257 1299.26 32.5841 1298.69 33.1764C1298.11 33.7687 1297.67 34.482 1297.37 35.2709C1297.07 36.0597 1296.92 36.9068 1296.94 37.7584V41.3834C1296.94 46.1462 1296.94 50.7767 1296.94 55.2749C1296.94 64.2449 1296.94 72.6063 1296.94 80.2532C1296.94 95.5206 1296.77 107.904 1296.72 116.556C1296.72 120.816 1296.72 124.15 1296.72 126.505C1296.72 127.59 1296.72 128.463 1296.72 129.151C1296.72 129.839 1296.06 129.813 1296.06 129.839Z" fill="#263238"/>
<path d="M1335.8 94.1975H1358.63C1360.22 94.1975 1361.51 92.8115 1361.51 91.1017V36.4089C1361.51 34.6991 1360.22 33.3131 1358.63 33.3131H1335.8C1334.21 33.3131 1332.91 34.6991 1332.91 36.4089V91.1017C1332.91 92.8115 1334.21 94.1975 1335.8 94.1975Z" fill="#F5F5F5"/>
<path d="M1302.59 94.1975H1324.29C1326.19 94.1975 1327.74 92.539 1327.74 90.4931V37.0175C1327.74 34.9716 1326.19 33.3131 1324.29 33.3131H1302.59C1300.68 33.3131 1299.14 34.9716 1299.14 37.0175V90.4931C1299.14 92.539 1300.68 94.1975 1302.59 94.1975Z" fill="#F5F5F5"/>
<path d="M1330.1 129.707C1329.73 129.707 1329.44 107.56 1329.44 80.2266C1329.44 52.8934 1329.73 30.7463 1330.1 30.7463C1330.47 30.7463 1330.74 52.8934 1330.74 80.2266C1330.74 107.56 1330.45 129.707 1330.1 129.707Z" fill="#263238"/>
<path d="M1332.91 94.1975H1361.51V84.4073H1332.91V94.1975Z" fill="#263238"/>
<path d="M1299.11 94.1975H1327.71V84.4073H1299.11V94.1975Z" fill="#263238"/>
<path d="M1392.82 27.7829H1103.12V16.2992L1376.5 15.6907C1381.13 15.8046 1385.54 17.8221 1388.83 21.3267L1392.82 27.7829Z" fill="#DC532D"/>
<path d="M1407.91 19.7656C1407.91 19.7656 1405.44 21.2209 1407.02 24.8195C1408.35 27.8624 1423.52 51.0942 1430.74 66.9173C1437.96 82.7404 1442.05 94.1711 1442.05 94.1711H1445.41C1445.41 94.1711 1441.02 81.8672 1438.46 75.8608C1435.57 69.1664 1427.11 52.4966 1419.15 38.2611L1407.91 19.7656Z" fill="#EBEBEB"/>
<path d="M1103.12 111.582C1103.12 111.185 1179.27 110.894 1273.23 110.894C1367.18 110.894 1443.34 111.185 1443.34 111.582C1443.34 111.979 1367.18 112.27 1273.23 112.27C1179.27 112.27 1103.12 111.952 1103.12 111.582Z" fill="#263238"/>
<path d="M1103.12 130.104L1431.01 130.871C1434.84 130.334 1438.51 128.884 1441.75 126.627C1445 124.369 1447.73 121.363 1449.75 117.826H1103.12V130.104Z" fill="#DC532D"/>
<path d="M1370.41 1.87857C1370.94 1.86504 1371.46 1.9364 1371.97 2.09026C1373.43 2.40546 1374.88 2.81188 1376.3 3.30744C1381.58 5.02737 1386.57 7.61604 1391.1 10.9808C1392.62 12.0882 1394.05 13.3271 1395.39 14.6852C1396.77 16.2182 1398.06 17.8444 1399.26 19.5539C1401.72 23.0466 1404.19 26.9097 1406.65 31.0375C1411.58 39.3195 1416.88 48.554 1422.18 58.4236C1427.48 68.2932 1431.6 78.2157 1435.3 87.2385C1438.75 95.1738 1441.5 103.439 1443.51 111.926C1443.67 112.8 1443.8 113.684 1443.88 114.572C1443.93 115.038 1443.93 115.508 1443.88 115.974C1443.88 116.426 1443.81 116.875 1443.66 117.297C1443.08 118.826 1442.25 120.226 1441.19 121.425C1439.57 123.296 1437.79 124.998 1435.87 126.505C1434.31 127.749 1433.06 128.622 1432.17 129.151C1431.75 129.482 1431.3 129.749 1430.81 129.945C1431.2 129.565 1431.61 129.22 1432.05 128.913C1432.86 128.278 1434.07 127.325 1435.57 126.029C1437.4 124.428 1439.1 122.657 1440.65 120.737C1441.6 119.608 1442.34 118.298 1442.84 116.874C1442.95 116.498 1443 116.104 1442.99 115.71C1443.04 115.306 1443.04 114.896 1442.99 114.492C1442.84 113.619 1442.82 112.746 1442.6 111.846C1440.55 103.578 1437.84 95.5133 1434.51 87.7413C1430.76 78.7978 1426.42 69.0341 1421.35 59.0851C1416.27 49.1362 1410.89 40.0074 1405.96 31.7255C1403.5 27.5977 1401.03 23.7875 1398.57 20.2418C1397.42 18.5555 1396.17 16.9554 1394.82 15.4526C1393.54 14.1155 1392.18 12.8859 1390.73 11.7746C1386.28 8.39655 1381.41 5.7231 1376.25 3.83663C1374.43 3.14867 1372.98 2.69883 1372.01 2.40777C1371.47 2.2755 1370.93 2.09859 1370.41 1.87857Z" fill="#263238"/>
<path d="M1445.41 94.1711C1445.41 94.1711 1445.14 94.3034 1444.57 94.1711C1443.74 94.0743 1442.96 93.7558 1442.28 93.245C1441.79 92.8681 1441.36 92.4024 1441.02 91.869C1440.66 91.2301 1440.34 90.5673 1440.06 89.8846L1437.91 85.0424C1436.31 81.3909 1434.49 77.1044 1432.46 72.4739C1430.33 67.2976 1427.93 62.2535 1425.27 57.3652C1419.62 46.94 1414.05 37.7848 1410.15 31.0905C1409.17 29.397 1408.3 27.8888 1407.69 26.5128C1406.92 25.3639 1406.48 24.006 1406.41 22.5968C1406.39 22.1447 1406.46 21.6936 1406.62 21.2738C1406.77 20.8539 1407.01 20.475 1407.32 20.1625C1407.71 19.7391 1408.01 19.6332 1408.03 19.6862C1408.06 19.7391 1407.81 19.8978 1407.52 20.3477C1407.06 20.9892 1406.84 21.7909 1406.9 22.5968C1407.06 23.8845 1407.55 25.1006 1408.3 26.116C1409.11 27.4742 1410.02 28.956 1411.04 30.5612C1415.13 37.1233 1420.9 46.1991 1426.5 56.6773C1429.17 61.5933 1431.56 66.6835 1433.65 71.9183L1438.87 84.6719L1440.82 89.567C1441.16 90.8227 1441.81 91.9512 1442.72 92.8217C1443.5 93.496 1444.42 93.9588 1445.41 94.1711Z" fill="#263238"/>
<path d="M1390.87 24.1315C1389.85 22.4525 1388.59 20.9457 1387.15 19.6598C1385.37 18.1472 1383.31 17.048 1381.11 16.4316C1378.03 15.8402 1374.89 15.6712 1371.77 15.9289L1311.02 16.2464L1103.12 16.9608L1103.74 16.2993C1103.74 42.7594 1103.74 70.3572 1103.74 98.6694L1103.1 97.9814H1118.38L1388.98 98.1931H1413.63C1415.53 98.2749 1417.43 98.2219 1419.32 98.0344C1421.07 97.6668 1422.64 96.6332 1423.74 95.1238C1424.82 93.6179 1425.34 91.7291 1425.19 89.8318C1424.94 88.0338 1424.29 86.3274 1423.29 84.8573C1416.44 72.0506 1410.52 61.0433 1405.69 52.0468L1394.6 31.2757C1393.36 28.9208 1392.4 27.1215 1391.76 25.8514C1391.12 24.5813 1390.83 23.9728 1390.83 23.9728C1390.83 23.9728 1391.19 24.5813 1391.86 25.772L1394.82 31.064C1397.43 35.8004 1401.23 42.7594 1406.11 51.6764C1410.99 60.5934 1416.98 71.6537 1423.91 84.381C1424.97 85.943 1425.67 87.7592 1425.93 89.673C1426.08 91.7298 1425.52 93.7731 1424.35 95.4148C1423.13 97.1 1421.38 98.248 1419.42 98.6429C1417.48 98.8583 1415.53 98.9291 1413.58 98.8546H1388.93L1118.33 99.0663H1102.41V98.59C1102.41 70.2778 1102.41 42.68 1102.41 16.2199V15.5584H1103.02L1310.92 15.3203H1371.67C1374.82 15.1061 1377.99 15.3195 1381.09 15.9554C1383.32 16.6097 1385.41 17.7639 1387.2 19.3423C1388.28 20.3179 1389.24 21.4486 1390.04 22.7027C1390.34 23.1588 1390.62 23.6361 1390.87 24.1315Z" fill="#263238"/>
<g opacity="0.3">
<path opacity="0.3" d="M1382.74 27.783V74.4584L1364.2 83.9311V98.59H1417.92C1419.83 98.636 1421.68 97.915 1423.12 96.5686C1424.55 95.2221 1425.47 93.3477 1425.68 91.3135C1425.79 89.9848 1425.56 88.6499 1425.02 87.4503L1392.97 27.7036L1382.74 27.783Z" fill="black"/>
</g>
<g opacity="0.6">
<g opacity="0.5">
<path opacity="0.5" d="M1358.41 94.1975H1337.75L1332.94 86.0479V52.0996L1358.41 94.1975Z" fill="white"/>
</g>
<g opacity="0.5">
<path opacity="0.5" d="M1321.55 33.2866L1327.74 43.5001V77.2631L1301.78 33.2866H1321.55Z" fill="white"/>
</g>
</g>
<path d="M1284.22 33.2866H1213.72C1211.06 33.2866 1208.91 35.5967 1208.91 38.4463V89.0114C1208.91 91.861 1211.06 94.171 1213.72 94.171H1284.22C1286.88 94.171 1289.03 91.861 1289.03 89.0114V38.4463C1289.03 35.5967 1286.88 33.2866 1284.22 33.2866Z" fill="#F5F5F5"/>
<path d="M1213.72 94.171C1213.49 94.2163 1213.25 94.2163 1213.03 94.171C1212.34 94.1006 1211.67 93.8656 1211.08 93.4831C1210.12 92.8792 1209.38 91.947 1208.98 90.8371C1208.68 89.2451 1208.57 87.617 1208.66 85.9949C1208.66 78.6919 1208.66 68.2932 1208.46 55.4865C1208.46 52.2584 1208.46 48.8715 1208.46 45.3523C1208.46 43.606 1208.46 41.8067 1208.46 40.0603C1208.42 39.095 1208.47 38.1269 1208.64 37.1761C1208.87 36.1679 1209.37 35.2512 1210.07 34.5301C1210.78 33.7819 1211.68 33.2601 1212.66 33.0219C1213.59 32.8888 1214.53 32.8445 1215.47 32.8896H1232.72H1284.5C1285.8 32.8929 1287.05 33.3964 1288.04 34.3089C1289.03 35.2214 1289.68 36.4826 1289.87 37.8641C1289.87 40.5101 1289.87 42.7592 1289.87 45.1936C1289.87 49.9828 1289.87 54.7192 1289.87 59.3497C1289.87 68.6107 1289.87 77.5541 1289.87 86.1007C1289.87 87.1591 1289.87 88.2176 1289.87 89.276C1289.88 90.4558 1289.56 91.6112 1288.93 92.5835C1288.32 93.5347 1287.47 94.2712 1286.47 94.7002C1285.5 95.0519 1284.48 95.1783 1283.46 95.0707H1272.51H1252.79L1224.34 94.859L1216.6 94.7267H1214.6C1214.37 94.7615 1214.14 94.7615 1213.91 94.7267H1214.6H1216.6H1224.34L1252.79 94.515H1272.51H1283.46C1284.29 94.5805 1285.13 94.4635 1285.93 94.171C1286.73 93.8447 1287.41 93.263 1287.9 92.5041C1288.37 91.7176 1288.62 90.7966 1288.61 89.8581V86.6829C1288.61 78.1363 1288.61 69.1928 1288.61 59.9318V45.7757C1288.61 43.4472 1288.61 40.8806 1288.61 38.6579C1288.46 37.6035 1287.96 36.6427 1287.2 35.9454C1286.45 35.2481 1285.49 34.8593 1284.5 34.8477H1232.72H1215.47C1214.65 34.7846 1213.82 34.7846 1213 34.8477C1212.22 35.0287 1211.5 35.4412 1210.93 36.0384C1210.38 36.6239 1209.98 37.3535 1209.77 38.1552C1209.62 39.0268 1209.57 39.916 1209.62 40.8012C1209.62 42.6269 1209.62 44.4262 1209.62 46.0932C1209.62 49.6124 1209.62 52.9993 1209.62 56.2274C1209.62 69.034 1209.45 79.4328 1209.4 86.7357C1209.28 88.3084 1209.35 89.8908 1209.6 91.4456C1209.93 92.5281 1210.59 93.46 1211.47 94.0916C1212.21 94.2776 1212.97 94.3046 1213.72 94.171Z" fill="#263238"/>
<path d="M1286.69 94.1975L1211.35 94.1975C1210.7 94.1975 1210.07 93.9188 1209.61 93.4226C1209.14 92.9263 1208.88 92.2533 1208.88 91.5515V84.275L1289.01 84.275V91.5515C1289.01 92.2266 1288.77 92.8766 1288.34 93.3685C1287.91 93.8604 1287.32 94.157 1286.69 94.1975Z" fill="#263238"/>
<g opacity="0.6">
<path opacity="0.6" d="M1241.6 33.2866L1278.46 94.1975H1257.8L1221.83 33.2866H1241.6Z" fill="white"/>
</g>
<path d="M1197.79 33.2866H1126.64C1124.16 33.2866 1122.15 35.4427 1122.15 38.1023V89.3554C1122.15 92.015 1124.16 94.171 1126.64 94.171H1197.79C1200.27 94.171 1202.28 92.015 1202.28 89.3554V38.1023C1202.28 35.4427 1200.27 33.2866 1197.79 33.2866Z" fill="#F5F5F5"/>
<path d="M1126.62 94.1711C1126.39 94.2183 1126.15 94.2183 1125.93 94.1711C1125.24 94.088 1124.58 93.8344 1124 93.4302C1123.06 92.7397 1122.37 91.7065 1122.08 90.5197C1121.92 88.9119 1121.86 87.2939 1121.91 85.6775C1121.91 78.348 1121.78 67.9228 1121.68 55.0897C1121.68 51.8616 1121.68 48.4747 1121.68 44.9555C1121.68 43.1827 1121.68 41.3834 1121.68 39.6635C1121.62 38.6894 1121.68 37.7109 1121.86 36.7529C1122.11 35.7198 1122.65 34.7928 1123.4 34.0939C1124.15 33.395 1125.08 32.9567 1126.07 32.8368C1127.11 32.8368 1127.92 32.8368 1128.86 32.8368H1146.12H1197.89C1199.21 32.8423 1200.48 33.3952 1201.44 34.3806C1202.39 35.366 1202.96 36.7083 1203.02 38.1288V59.5879C1203.02 68.8754 1203.02 77.8453 1203.02 86.3919V89.5671C1203.02 90.7579 1202.67 91.9185 1202.01 92.8746C1201.36 93.8198 1200.44 94.5084 1199.39 94.8326C1198.41 95.0551 1197.41 95.1264 1196.41 95.0443H1185.27H1165.54L1137.04 94.8326L1129.3 94.7003H1127.28H1126.59H1127.28H1129.3H1137.04L1165.54 94.4887H1185.27H1196.24C1197.13 94.5396 1198.02 94.4774 1198.9 94.3035C1199.71 94.038 1200.42 93.4999 1200.92 92.7687C1201.43 91.9974 1201.7 91.0698 1201.68 90.1227C1201.68 89.0643 1201.68 88.006 1201.68 86.9476C1201.68 78.401 1201.68 69.431 1201.68 60.1436C1201.68 55.4866 1201.68 50.7502 1201.68 45.961V38.7374C1201.64 37.6751 1201.22 36.6721 1200.5 35.9377C1199.78 35.2032 1198.83 34.7938 1197.84 34.7948H1146.07H1128.81C1127.92 34.7948 1126.94 34.7948 1126.17 34.7948C1125.38 34.8942 1124.63 35.2442 1124.03 35.8003C1123.44 36.3443 1123.02 37.0628 1122.82 37.8642C1122.65 38.7341 1122.6 39.6252 1122.67 40.5102C1122.67 42.336 1122.67 44.1352 1122.67 45.8022C1122.67 49.3214 1122.67 52.7083 1122.67 55.9364C1122.67 68.7695 1122.52 79.1948 1122.47 86.5242C1122.38 88.1015 1122.38 89.6832 1122.47 91.2606C1122.7 92.3798 1123.31 93.3689 1124.17 94.0388C1124.97 94.2845 1125.8 94.3297 1126.62 94.1711Z" fill="#263238"/>
<path d="M1200.23 94.1975L1124.1 94.1975C1123.56 94.1975 1123.05 93.9689 1122.67 93.562C1122.29 93.1551 1122.08 92.6032 1122.08 92.0278V84.4073L1202.25 84.4073V92.0278C1202.25 92.6032 1202.04 93.1551 1201.66 93.562C1201.28 93.9689 1200.77 94.1975 1200.23 94.1975Z" fill="#263238"/>
<g opacity="0.6">
<path opacity="0.6" d="M1154.84 33.2866L1191.7 94.1975H1171.02L1135.05 33.2866H1154.84Z" fill="white"/>
</g>
<path d="M1094.59 130.818L732.162 130.077V13.7327L737.808 1.66695L1088.45 0L1094.59 9.86957V130.818Z" fill="#E0E0E0"/>
<path d="M1094.89 15.6377H732.162V98.6693H1094.89V15.6377Z" fill="#388087"/>
<path d="M906.436 129.813H838.369V35.086C838.369 33.921 838.8 32.8038 839.567 31.9801C840.335 31.1564 841.376 30.6936 842.461 30.6936H902.369C902.905 30.6936 903.436 30.8074 903.931 31.0285C904.426 31.2495 904.876 31.5735 905.254 31.9817C905.632 32.3899 905.931 32.8743 906.134 33.4071C906.337 33.9398 906.44 34.5104 906.436 35.086V129.813Z" fill="#388087"/>
<path d="M906.436 129.813C906.436 129.813 906.436 129.469 906.436 128.887C906.436 128.304 906.436 127.352 906.436 126.241C906.436 123.859 906.436 120.499 906.436 116.239C906.436 107.507 906.288 95.0707 906.19 79.6974C906.19 72.024 906.19 63.6098 906.19 54.5605C906.19 50.0623 906.19 45.3789 906.19 40.5896C906.19 39.3725 906.19 38.1818 906.19 36.9646V35.086C906.2 34.5511 906.108 34.0196 905.919 33.5248C905.731 33.0243 905.444 32.5734 905.078 32.2034C904.712 31.8333 904.275 31.553 903.798 31.3816C902.701 31.1662 901.582 31.1039 900.47 31.1963H842.781C842.202 31.1895 841.631 31.3415 841.122 31.6378C840.613 31.9342 840.183 32.3651 839.872 32.8898C839.39 33.7564 839.198 34.7742 839.33 35.7739V45.8287C839.33 50.274 839.33 54.6663 839.33 59.0587V84.3809C839.33 100.76 839.33 116.133 839.33 129.76L838.812 129.204L888.119 129.495L901.925 129.627H905.573C906 129.588 906.429 129.588 906.855 129.627C906.47 129.671 906.082 129.671 905.697 129.627H902.122H888.439L838.787 129.919H837.9V129.363C837.9 115.604 837.9 100.257 837.9 83.984C837.9 75.8079 837.9 67.3407 837.9 58.6618V35.8798C837.775 34.6174 838.035 33.3455 838.64 32.2547C839.07 31.5381 839.661 30.9493 840.359 30.5423C841.057 30.1354 841.839 29.9236 842.633 29.9263H870.541H900.322H901.999C902.658 29.8866 903.318 29.9762 903.946 30.1908C904.575 30.4292 905.15 30.8067 905.635 31.299C906.119 31.7914 906.501 32.3874 906.757 33.0485C906.992 33.6978 907.109 34.3894 907.102 35.086V36.9381C907.102 38.1818 907.102 39.3989 907.102 40.6161C907.102 45.4583 907.102 50.1681 907.102 54.7193C907.102 63.8215 907.102 72.2887 907.102 80.015C907.102 95.3883 906.905 107.824 906.855 116.53C906.855 120.737 906.855 124.044 906.855 126.399C906.855 127.458 906.855 128.278 906.855 129.045C906.757 129.325 906.615 129.584 906.436 129.813Z" fill="#263238"/>
<path d="M866.942 33.2603H843.57C842.127 33.2603 840.957 34.516 840.957 36.065V91.34C840.957 92.889 842.127 94.1447 843.57 94.1447H866.942C868.385 94.1447 869.555 92.889 869.555 91.34V36.065C869.555 34.516 868.385 33.2603 866.942 33.2603Z" fill="#F5F5F5"/>
<path d="M900.741 33.2603H877.37C875.927 33.2603 874.757 34.516 874.757 36.065V91.34C874.757 92.889 875.927 94.1447 877.37 94.1447H900.741C902.185 94.1447 903.355 92.889 903.355 91.34V36.065C903.355 34.516 902.185 33.2603 900.741 33.2603Z" fill="#F5F5F5"/>
<path d="M872.415 129.68C872.045 129.68 871.774 107.533 871.774 80.2001C871.774 52.8669 872.045 30.7463 872.415 30.7463C872.785 30.7463 873.056 52.8934 873.056 80.2001C873.056 107.507 872.76 129.68 872.415 129.68Z" fill="#263238"/>
<path d="M869.555 84.3545H840.957V94.1447H869.555V84.3545Z" fill="#263238"/>
<path d="M903.355 84.3545H874.757V94.1447H903.355V84.3545Z" fill="#263238"/>
<path d="M732.162 15.6907V27.7565H1094.89V16.2728L732.162 15.6907Z" fill="#DC532D"/>
<path d="M1094.89 111.555C1094.89 111.926 1013.68 112.243 913.537 112.243C813.395 112.243 732.162 111.926 732.162 111.555C732.162 111.185 813.346 110.867 913.537 110.867C1013.73 110.867 1094.89 111.158 1094.89 111.555Z" fill="#263238"/>
<path d="M1094.59 130.871L732.187 130.077V118.594H1094.59V130.871Z" fill="#DC532D"/>
<g opacity="0.6">
<g opacity="0.5">
<path opacity="0.5" d="M844.088 94.1711H864.772L869.58 86.0479V52.0732L844.088 94.1711Z" fill="white"/>
</g>
<g opacity="0.5">
<path opacity="0.5" d="M880.945 33.2603L874.757 43.5003V77.2368L900.717 33.2603H880.945Z" fill="white"/>
</g>
</g>
<path d="M988.433 33.2603H918.615C915.769 33.2603 913.462 35.7362 913.462 38.7904V88.6146C913.462 91.6688 915.769 94.1447 918.615 94.1447H988.433C991.279 94.1447 993.586 91.6688 993.586 88.6146V38.7904C993.586 35.7362 991.279 33.2603 988.433 33.2603Z" fill="#F5F5F5"/>
<path d="M988.433 94.1711C989.301 94.0586 990.139 93.7618 990.899 93.2979C991.806 92.7145 992.515 91.8332 992.92 90.7842C993.337 89.284 993.463 87.7081 993.29 86.1537C993.29 78.8507 993.167 68.4784 993.093 55.6982C993.093 52.4701 993.093 49.1097 993.093 45.5905C993.093 43.8442 993.093 42.0449 993.093 40.2985C993.135 39.4134 993.086 38.5259 992.945 37.6525C992.76 36.837 992.377 36.0885 991.835 35.4828C991.29 34.8547 990.602 34.3896 989.838 34.1334C989.031 33.9296 988.2 33.8582 987.373 33.9217H970.116H918.566C917.566 33.9662 916.609 34.364 915.842 35.0531C915.075 35.7421 914.542 36.6839 914.325 37.7319C914.173 38.8707 914.124 40.0227 914.177 41.1717V58.8999C914.177 68.1345 914.177 77.0779 914.177 85.5716V88.7468C914.191 89.43 914.337 90.1027 914.605 90.7225C914.872 91.3424 915.257 91.8959 915.734 92.3483C916.211 92.8007 916.771 93.1422 917.377 93.3512C917.983 93.5601 918.623 93.6321 919.256 93.5625H930.177H949.777L978.153 93.8007H985.869H987.866C988.095 93.7659 988.328 93.7659 988.556 93.8007C988.328 93.8421 988.095 93.8421 987.866 93.8007H985.869L978.153 93.9329L949.777 94.1447H930.177H919.256C918.205 94.2236 917.154 93.9974 916.213 93.49C915.271 92.9825 914.475 92.2124 913.906 91.2605C913.318 90.2834 913.01 89.1427 913.019 87.9794C913.019 86.921 913.019 85.8627 913.019 84.8043C913.019 76.3106 913.019 67.3671 913.019 58.1326C913.019 53.5021 913.019 48.7922 913.019 44.0029V40.4044C912.954 39.148 913.02 37.8877 913.216 36.6471C913.528 35.3061 914.248 34.115 915.262 33.2621C916.275 32.4091 917.524 31.943 918.812 31.9372H970.362H987.62C988.573 31.8679 989.531 31.9662 990.455 32.2282C991.391 32.5587 992.238 33.1311 992.92 33.8952C993.555 34.6501 994.011 35.5576 994.251 36.5412C994.415 37.4919 994.473 38.46 994.424 39.4254C994.424 41.2511 994.424 43.0504 994.424 44.7174C994.424 48.2365 994.424 51.597 994.424 54.8251C994.424 67.6053 994.276 77.9776 994.227 85.2806C994.372 86.8983 994.195 88.5307 993.709 90.0698C993.27 91.2046 992.477 92.1401 991.466 92.7158C990.87 93.0831 990.204 93.3002 989.518 93.3508C989.233 93.7255 988.858 94.0092 988.433 94.1711Z" fill="#263238"/>
<path d="M913.462 84.3545H993.586V91.2606C993.586 92.0255 993.303 92.759 992.799 93.2999C992.295 93.8408 991.611 94.1447 990.899 94.1447H916.174C915.462 94.1447 914.778 93.8408 914.274 93.2999C913.77 92.759 913.487 92.0255 913.487 91.2606V84.3545H913.462Z" fill="#263238"/>
<g opacity="0.6">
<path opacity="0.6" d="M960.896 33.2603L924.039 94.1711H944.723L980.667 33.2603H960.896Z" fill="white"/>
</g>
<path d="M1076.4 33.2603H1004.21C1002.02 33.2603 1000.24 35.1675 1000.24 37.5203V89.8846C1000.24 92.2374 1002.02 94.1447 1004.21 94.1447H1076.4C1078.59 94.1447 1080.37 92.2374 1080.37 89.8846V37.5203C1080.37 35.1675 1078.59 33.2603 1076.4 33.2603Z" fill="#F5F5F5"/>
<path d="M1076.4 94.1711C1077.3 94.0591 1078.15 93.6839 1078.86 93.0863C1079.26 92.7228 1079.59 92.2739 1079.82 91.7682C1080.04 91.2625 1080.17 90.7111 1080.19 90.1492C1080.19 88.7203 1080.19 87.1327 1080.19 85.3334C1080.19 77.9776 1080.19 67.5259 1080 54.6399C1080 51.4117 1080 47.9984 1080 44.4792V39.0549C1080.05 38.1686 1079.99 37.2789 1079.82 36.4089C1079.59 35.6235 1079.14 34.9374 1078.52 34.4508C1077.85 33.987 1077.07 33.756 1076.27 33.7893H1056.3H1004.36C1003.87 33.7979 1003.38 33.9197 1002.94 34.1464C1002.5 34.3732 1002.1 34.6996 1001.79 35.1037C1001.47 35.5077 1001.24 35.9798 1001.11 36.4881C1000.98 36.9963 1000.95 37.5288 1001.03 38.0494V45.3259C1001.03 50.1416 1001.03 54.878 1001.03 59.5349C1001.03 68.8753 1001.03 77.8717 1001.03 86.4183V89.62C1001.01 90.5208 1001.29 91.4003 1001.83 92.089C1002.37 92.7778 1003.13 93.2272 1003.96 93.3508C1004.78 93.3508 1005.84 93.3508 1006.75 93.3508H1017.75H1037.47L1066.07 93.589H1073.86H1075.88H1076.57C1076.34 93.6276 1076.11 93.6276 1075.88 93.589H1073.86L1066.07 93.7213L1037.47 93.933H1017.75H1006.75C1005.76 93.933 1004.93 93.933 1003.82 93.933C1002.7 93.7825 1001.68 93.1931 1000.95 92.279C1000.21 91.3648 999.821 90.1909 999.848 88.9849V85.7833C999.848 77.2367 999.848 68.2403 999.848 58.8999V37.4144C999.781 36.7213 999.843 36.0209 1000.03 35.3535C1000.22 34.686 1000.52 34.0645 1000.93 33.5248C1001.37 32.9814 1001.91 32.5446 1002.52 32.2434C1003.13 31.9423 1003.79 31.7837 1004.46 31.7784H1056.4H1076.37C1077.38 31.728 1078.38 32.0449 1079.21 32.678C1080.05 33.3174 1080.66 34.2532 1080.93 35.324C1081.12 36.2803 1081.18 37.2606 1081.11 38.2346V43.659C1081.11 47.1781 1081.11 50.5915 1081.11 53.8196C1081.11 66.7056 1080.96 77.1573 1080.91 84.5132C1080.91 86.2772 1080.91 87.8913 1080.91 89.3554C1080.86 89.9693 1080.7 90.5664 1080.43 91.1087C1080.16 91.6509 1079.78 92.1263 1079.33 92.5042C1078.78 92.9481 1078.14 93.239 1077.46 93.3508C1077.18 93.7216 1076.81 94.005 1076.4 94.1711Z" fill="#263238"/>
<path d="M1000.24 84.3545H1080.37V92.5306C1080.37 92.7426 1080.33 92.9525 1080.25 93.1483C1080.18 93.3442 1080.06 93.522 1079.93 93.6719C1079.79 93.8218 1079.62 93.9407 1079.44 94.0218C1079.26 94.1029 1079.06 94.1447 1078.86 94.1447H1001.75C1001.55 94.1447 1001.35 94.1029 1001.17 94.0218C1000.99 93.9407 1000.82 93.8218 1000.68 93.6719C1000.54 93.522 1000.43 93.3442 1000.36 93.1483C1000.28 92.9525 1000.24 92.7426 1000.24 92.5306V84.3545Z" fill="#263238"/>
<g opacity="0.6">
<path opacity="0.6" d="M1047.68 33.2603L1010.79 94.1711H1031.48L1067.45 33.2603H1047.68Z" fill="white"/>
</g>
<path d="M824.365 33.2603H754.35C751.559 33.2603 749.296 35.6888 749.296 38.6846V88.7204C749.296 91.7161 751.559 94.1447 754.35 94.1447H824.365C827.157 94.1447 829.419 91.7161 829.419 88.7204V38.6846C829.419 35.6888 827.157 33.2603 824.365 33.2603Z" fill="#F5F5F5"/>
<path d="M824.366 94.171C825.231 94.0469 826.067 93.7508 826.831 93.2979C827.75 92.6761 828.452 91.7459 828.828 90.6519C829.202 89.1342 829.311 87.5551 829.148 85.9949C829.148 78.6919 829.148 68.3196 828.951 55.5394C828.951 52.3113 828.951 48.9245 828.951 45.4317C828.951 43.6589 828.951 41.8861 828.951 40.1397C829.007 39.2546 828.957 38.3654 828.803 37.4937C828.625 36.6694 828.232 35.9167 827.669 35.324C827.128 34.702 826.437 34.2533 825.672 34.0275C824.863 33.8372 824.033 33.7748 823.207 33.8422H805.851H754.276C753.274 33.8499 752.303 34.2196 751.521 34.8916C750.738 35.5636 750.189 36.4988 749.962 37.5466C749.843 38.6974 749.802 39.8558 749.839 41.0129V58.8999C749.839 68.1609 749.839 77.1044 749.839 85.598V88.7733C749.836 89.7105 750.084 90.6289 750.554 91.4193C751.026 92.1909 751.689 92.8071 752.468 93.1994C753.246 93.5917 754.111 93.7448 754.966 93.6419H765.888H785.611L813.986 93.88H821.728H823.725H824.415C824.186 93.9187 823.953 93.9187 823.725 93.88H821.728L813.986 94.0123L785.611 94.224H765.888H754.966C753.917 94.3238 752.862 94.1185 751.912 93.6296C750.962 93.1408 750.152 92.3864 749.567 91.4457C748.981 90.4578 748.673 89.3094 748.68 88.1382C748.68 87.1062 748.68 86.0479 748.68 84.963C748.68 76.4693 748.68 67.5258 748.68 58.2648C748.68 53.6343 748.68 48.9244 748.68 44.1616V40.5631C748.635 39.2996 748.684 38.0343 748.828 36.7793C749.126 35.4306 749.837 34.2283 750.847 33.3648C751.857 32.5012 753.108 32.0265 754.399 32.0165H805.974H823.108C824.067 31.9548 825.029 32.0349 825.968 32.2546C826.906 32.5682 827.755 33.1328 828.433 33.8952C829.089 34.6381 829.556 35.5492 829.789 36.5412C829.953 37.4918 830.011 38.46 829.962 39.4253C829.962 41.251 829.962 43.0239 829.962 44.7173C829.962 48.21 829.962 51.5969 829.962 54.8251C829.962 67.6052 829.814 77.9776 829.765 85.2805C829.912 86.9032 829.753 88.5412 829.296 90.0963C828.842 91.2124 828.064 92.1407 827.077 92.7423C826.49 93.1092 825.832 93.3264 825.154 93.3773C824.949 93.7013 824.68 93.9724 824.366 94.171Z" fill="#263238"/>
<path d="M749.296 84.3545H829.419V91.3664C829.419 91.7347 829.352 92.0995 829.22 92.4398C829.089 92.7801 828.897 93.0892 828.654 93.3497C828.411 93.6101 828.123 93.8167 827.806 93.9576C827.489 94.0986 827.149 94.1711 826.806 94.1711H751.909C751.566 94.1711 751.226 94.0986 750.909 93.9576C750.592 93.8167 750.304 93.6101 750.061 93.3497C749.819 93.0892 749.626 92.7801 749.495 92.4398C749.363 92.0995 749.296 91.7347 749.296 91.3664V84.3545Z" fill="#263238"/>
<g opacity="0.6">
<path opacity="0.6" d="M796.729 33.2603L759.872 94.1711H780.556L816.501 33.2603H796.729Z" fill="white"/>
</g>
<path d="M362.756 20.2948H336.92V130.845H362.756V20.2948Z" fill="#388087"/>
<path opacity="0.2" d="M362.756 20.2948H336.92V130.845H362.756V20.2948Z" fill="black"/>
</svg>
