<svg width="1645" height="485" viewBox="0 0 1645 485" fill="none" xmlns="http://www.w3.org/2000/svg">
<path d="M577 276H470V485H577V276Z" fill="#76868D"/>
<path d="M1158 266H1055V485H1158V266Z" fill="#76868D"/>
<path d="M1645 276H1556V485H1645V276Z" fill="#76868D"/>
<path d="M576.962 275.761C576.962 275.761 646.46 194.846 817.43 194.846C988.401 194.846 1055.43 275.787 1055.43 275.787H1158.85L1161.47 131.607H470.484V275.787L576.962 275.761Z" fill="#76868D"/>
<path d="M2.61325 275.761C2.61325 275.761 61.7073 194.846 232.555 194.846C403.402 194.846 470.484 275.787 470.484 275.787H576.494V131.58H0" fill="#76868D"/>
<path d="M1142.17 276.23C1142.17 276.23 1209.47 194.871 1353.99 194.871C1498.51 194.871 1556.02 276.257 1556.02 276.257H1645V131.257H1052L1054.7 276.23H1142.17Z" fill="#76868D"/>
<path d="M1645 160C1645 160.538 1278.07 161 825.523 161C372.976 161 6 160.538 6 160C6 159.461 372.837 159 825.523 159C1278.21 159 1645 159.423 1645 160Z" fill="#263238"/>
<path d="M1158.26 343.022C1158.23 342.467 1158.23 341.91 1158.26 341.355C1158.26 340.191 1158.26 338.709 1158.26 336.804C1158.26 332.729 1158.11 327.093 1158.02 320.055L1158.44 320.504C1142.95 320.663 1119.75 320.743 1093.87 320.743L1094.51 320.055V325.902C1094.51 327.86 1094.51 329.818 1094.51 331.724V343.022L1093.89 342.334L1139.92 342.651L1153.46 342.837H1157.15H1158.46C1158.07 342.875 1157.69 342.875 1157.3 342.837H1153.75L1140.34 343.022L1093.89 343.339H1093.25V319.79L1093.89 319.102C1119.78 319.102 1142.98 319.102 1158.46 319.34H1158.9V319.79C1158.9 326.934 1158.73 332.676 1158.68 336.804C1158.68 338.656 1158.68 340.138 1158.68 341.276C1158.61 341.874 1158.47 342.461 1158.26 343.022V343.022Z" fill="#263238"/>
<g opacity="0.2">
<path opacity="0.2" d="M1133.56 342.916H1068.97V365.883H1133.56V342.916Z" fill="black"/>
</g>
<path d="M585.689 183.098C585.65 182.552 585.65 182.003 585.689 181.457C585.689 180.293 585.689 178.811 585.689 176.906C585.689 172.831 585.566 167.169 585.467 160.157L585.886 160.607C570.38 160.739 547.181 160.845 521.295 160.845L521.936 160.157V171.879C521.936 175.715 521.936 179.446 521.936 183.071L521.319 182.41L567.347 182.727L580.907 182.912H584.58H585.911C585.517 182.949 585.122 182.949 584.728 182.912H581.178L567.766 183.098L521.319 183.415H520.703V182.727C520.703 179.102 520.703 175.371 520.703 171.535V160.183L521.344 159.495C547.23 159.495 570.429 159.495 585.936 159.733H586.355V160.183C586.355 167.327 586.182 173.069 586.108 177.197C586.108 179.023 586.108 180.504 586.108 181.669C586.004 182.156 585.864 182.634 585.689 183.098V183.098Z" fill="#263238"/>
<g opacity="0.2">
<path opacity="0.2" d="M560.913 183.098H496.321V206.065H560.913V183.098Z" fill="black"/>
</g>
<path d="M1630.99 344.576C1630.93 344.022 1630.93 343.463 1630.99 342.909C1630.99 341.745 1630.99 340.263 1630.99 338.358C1630.99 334.283 1630.84 328.647 1630.74 321.609L1631.18 322.058C1615.68 322.217 1592.48 322.297 1566.59 322.297L1567.23 321.609V333.278C1567.23 337.114 1567.23 340.872 1567.23 344.497L1566.62 343.809L1612.64 344.126L1626.2 344.311H1629.88H1631.21C1630.81 344.348 1630.42 344.348 1630.02 344.311H1626.47L1613.06 344.497L1566.62 344.814H1566V344.576C1566 340.951 1566 337.194 1566 333.357V321.688L1566.64 321C1592.53 321 1615.73 321 1631.23 321.238H1631.38V321.688C1631.38 328.832 1631.21 334.574 1631.13 338.702C1631.13 340.554 1631.13 342.036 1631.13 343.174C1631.12 343.644 1631.07 344.113 1630.99 344.576Z" fill="#263238"/>
<path d="M1210.9 192.782C1210.9 192.782 1210.9 192.173 1210.9 191.141C1210.9 190.11 1210.9 188.495 1210.9 186.564C1210.9 182.516 1210.9 176.853 1210.68 169.815L1211.09 170.265C1195.61 170.423 1172.39 170.503 1146.5 170.503L1147.14 169.815V181.616C1147.14 185.453 1147.14 189.21 1147.14 192.835L1146.53 192.173L1192.56 192.464L1206.11 192.676H1209.79H1211.12C1210.73 192.715 1210.33 192.715 1209.94 192.676H1206.41L1193 192.861L1146.53 193.179H1145.91V192.517C1145.91 188.892 1145.91 185.135 1145.91 181.298V169.603C1147.19 168.227 1146.28 169.233 1146.55 168.915C1172.44 168.915 1195.66 168.915 1211.14 169.153H1211.56V169.603C1211.56 176.747 1211.39 182.489 1211.34 186.617C1211.34 188.469 1211.34 189.951 1211.34 191.088C1211.23 191.664 1211.09 192.231 1210.9 192.782Z" fill="#263238"/>
<path d="M577.849 419.915C577.82 419.368 577.82 418.821 577.849 418.274C577.849 417.11 577.849 415.628 577.849 413.723C577.849 409.648 577.702 403.986 577.603 396.974L578.022 397.424C562.54 397.556 539.316 397.662 513.455 397.662L514.096 396.974V402.874C514.096 404.832 514.096 406.764 514.096 408.696V419.888L513.48 419.227L559.507 419.544L573.042 419.729H576.74H578.047C577.661 419.762 577.274 419.762 576.888 419.729H573.338L559.926 419.915L513.48 420.232H512.839V397C514.121 395.624 513.208 396.603 513.504 396.312C539.366 396.312 562.589 396.312 578.071 396.551H578.293V397C578.293 404.145 578.121 409.886 578.071 414.014C578.071 415.84 578.071 417.322 578.071 418.486C578.043 418.969 577.968 419.448 577.849 419.915V419.915Z" fill="#263238"/>
<path d="M515.674 327.966C515.635 327.402 515.635 326.836 515.674 326.273C515.674 325.056 515.674 323.627 515.55 321.669C515.55 317.541 515.403 311.905 515.304 305.025L515.772 305.528L471.027 305.713L471.668 305.025V316.827C471.668 320.663 471.668 324.394 471.668 327.94L471.051 327.305C483.97 327.305 495.064 327.49 503.101 327.622L512.444 327.781C513.596 327.771 514.748 327.824 515.896 327.94C514.84 328.069 513.778 328.131 512.715 328.125L503.52 328.284C495.606 328.416 484.315 328.548 471.15 328.601H470.533V327.94C470.533 324.394 470.533 320.663 470.533 316.827V305.025L471.174 304.337L515.92 304.523H516.413V305.025C516.413 312.011 516.216 317.753 516.167 321.96C516.167 323.786 516.167 325.294 516.044 326.484C515.971 326.991 515.847 327.488 515.674 327.966V327.966Z" fill="#263238"/>
<path d="M1039.46 183.812C1039.46 183.812 1039.46 183.204 1039.46 182.119C1039.46 181.034 1039.46 179.473 1039.46 177.488C1039.46 173.36 1039.29 167.724 1039.19 160.871L1039.66 161.374L994.91 161.559L995.551 160.871V172.672C995.551 176.509 995.551 180.24 995.551 183.786L994.935 183.151C1007.85 183.151 1018.95 183.336 1026.98 183.442L1036.33 183.627C1037.48 183.617 1038.63 183.67 1039.78 183.786C1038.72 183.912 1037.66 183.965 1036.6 183.944L1026.98 184.262C1019.07 184.394 1007.8 184.526 994.614 184.579H994.022V183.918C994.022 180.372 994.022 176.641 994.022 172.805C994.022 170.9 994.022 168.942 994.022 166.957V161.004L994.663 160.316L1039.41 160.474H1039.9V160.977C1039.78 167.963 1039.71 173.704 1039.63 177.912C1039.63 179.737 1039.63 181.245 1039.63 182.436C1039.63 182.901 1039.57 183.364 1039.46 183.812Z" fill="#263238"/>
<path d="M93.6827 183.495C93.6276 182.949 93.6276 182.399 93.6827 181.854C93.6827 180.663 93.6827 179.208 93.6827 177.25C93.6827 173.149 93.5595 167.513 93.4609 160.554L93.9046 161.03L36.5117 161.242C35.92 161.85 37.2759 160.395 37.1527 160.554V183.468L36.5363 182.807L77.4609 183.124L89.467 183.309H92.7459H93.9293C93.5856 183.358 93.2375 183.358 92.8938 183.309H89.7629L77.88 183.495L36.2898 184.262H35.6735V160.66C35.5255 160.66 36.8815 159.337 36.3145 159.972L93.7074 160.183H94.1512V160.448C94.1512 167.513 93.9786 173.281 93.9293 177.435C93.9293 179.261 93.9293 180.743 93.9293 181.907C93.8901 182.443 93.8076 182.974 93.6827 183.495V183.495Z" fill="#263238"/>
<path d="M1640.59 318.655C1640.59 318.655 1640.59 318.02 1640.59 316.962C1640.59 315.904 1640.59 314.184 1640.59 312.305C1640.59 308.151 1640.45 302.541 1640.35 295.688L1640.82 296.217L1601.57 296.376L1602.21 295.688V301.642C1602.21 303.626 1602.21 305.584 1602.21 307.516C1602.21 311.352 1602.21 315.057 1602.21 318.602L1601.62 317.967C1612.98 317.967 1622.69 318.153 1629.67 318.258L1637.83 318.444C1638.84 318.434 1639.86 318.487 1640.86 318.602C1639.95 318.729 1639.03 318.782 1638.1 318.761L1630.07 318.946C1623.14 318.946 1613.23 319.211 1601.62 319.237H1601V318.602C1601 315.057 1601 311.352 1601 307.516V295.688L1601.64 295L1640.89 295.159H1641.38V295.662C1641.38 302.647 1641.19 308.389 1641.14 312.596C1641.14 314.422 1641.14 315.93 1641.01 317.121C1640.94 317.65 1640.8 318.166 1640.59 318.655Z" fill="#263238"/>
<path d="M166.174 130.104C160.997 130.123 156.02 127.956 152.319 124.071C148.966 120.578 145.637 116.398 146.032 114.016C148.816 102.586 152.376 91.3903 156.682 80.5178C161.44 68.6637 187.055 18.9983 196.127 11.4572C199.993 8.60706 204.289 6.49452 208.824 5.21265C216.299 2.84868 224.057 1.67195 231.85 1.71992H489.132C491.05 5.50496 492.634 9.47345 493.866 13.574C494.26 16.5375 494.063 117.826 494.063 117.826V130.104H166.174Z" fill="#E0E0E0"/>
<path d="M206.309 24.1315L172.534 86.6565C171.884 87.9021 171.553 89.3108 171.575 90.7386C171.598 92.1664 171.973 93.5622 172.662 94.7836C173.351 96.0051 174.33 97.0083 175.499 97.691C176.668 98.3736 177.984 98.7112 179.314 98.6693H494.063V16.2993L220.263 15.6643C217.45 15.6418 214.681 16.412 212.233 17.8978C209.784 19.3837 207.742 21.5331 206.309 24.1315V24.1315Z" fill="#388087"/>
<path d="M301.126 129.839H233.033V35.6946C233.033 34.3518 233.529 33.0636 234.411 32.1116C235.293 31.1596 236.491 30.6213 237.742 30.6143H296.417C297.668 30.6213 298.866 31.1596 299.748 32.1116C300.631 33.0636 301.126 34.3518 301.126 35.6946V129.839Z" fill="#388087"/>
<path d="M301.126 129.839C301.108 129.531 301.108 129.221 301.126 128.913C301.126 128.252 301.126 127.378 301.126 126.267C301.126 123.886 301.126 120.525 301.126 116.265C301.126 107.56 301.003 95.0972 300.904 79.8033C300.904 72.1299 300.904 63.7421 300.904 54.7193C300.904 50.2211 300.904 45.5641 300.904 40.7484V37.1234C301.014 35.9921 300.87 34.8491 300.485 33.7894C300.048 32.7914 299.285 32.0005 298.34 31.5668C297.864 31.3551 297.352 31.2472 296.836 31.2493H295.086H265.329H241.539C240.232 31.2493 238.753 31.2493 237.57 31.2493C236.986 31.3319 236.425 31.5498 235.927 31.8879C235.429 32.226 235.005 32.6761 234.685 33.2073C234.185 34.059 233.951 35.0605 234.02 36.065V59.2439C234.02 67.8964 234.02 76.3107 234.02 84.4868C234.02 100.786 234.02 116.001 234.02 129.733L233.477 129.151L282.784 129.442L296.59 129.601H300.239H301.545C301.151 129.626 300.756 129.626 300.362 129.601H296.812L283.129 129.76L233.453 130.051H232.935V129.495C232.935 115.762 232.935 100.548 232.935 84.2486C232.935 76.0813 232.935 67.667 232.935 59.0058V35.8268C232.871 34.5606 233.172 33.304 233.798 32.2283C234.216 31.5198 234.771 30.9165 235.427 30.4598C236.082 30.0031 236.821 29.7038 237.594 29.5823C239.123 29.5823 240.356 29.5823 241.736 29.5823H297.058C297.719 29.5898 298.371 29.7336 298.981 30.0056C300.196 30.5634 301.179 31.5801 301.742 32.8633C302.188 34.1005 302.357 35.4329 302.235 36.753V40.4044C302.235 45.2466 302.235 49.9565 302.235 54.5076C302.235 63.5834 302.235 72.0241 302.235 79.7504C302.235 95.0708 302.063 107.507 302.014 116.212C302.014 120.419 302.014 123.7 302.014 126.055C302.014 127.114 302.014 127.934 302.014 128.569C302.014 129.204 301.126 129.839 301.126 129.839Z" fill="#263238"/>
<path d="M262.026 33.2866H237.866C236.64 33.2866 235.647 34.3528 235.647 35.668V91.7896C235.647 93.1048 236.64 94.171 237.866 94.171H262.026C263.251 94.171 264.245 93.1048 264.245 91.7896V35.668C264.245 34.3528 263.251 33.2866 262.026 33.2866Z" fill="#F5F5F5"/>
<path d="M262.026 94.2504H237.841C237.239 94.2504 236.662 93.994 236.237 93.5374C235.812 93.0809 235.573 92.4617 235.573 91.8161V35.668C235.573 35.0223 235.812 34.4031 236.237 33.9466C236.662 33.4901 237.239 33.2336 237.841 33.2336H262.026C262.627 33.2336 263.204 33.4901 263.63 33.9466C264.055 34.4031 264.294 35.0223 264.294 35.668V91.8161C264.294 92.4617 264.055 93.0809 263.63 93.5374C263.204 93.994 262.627 94.2504 262.026 94.2504V94.2504ZM237.841 33.3924C237.272 33.3924 236.726 33.6349 236.324 34.0667C235.922 34.4984 235.696 35.0839 235.696 35.6944V91.8426C235.696 92.4531 235.922 93.0386 236.324 93.4703C236.726 93.902 237.272 94.1446 237.841 94.1446H262.026C262.595 94.1446 263.14 93.902 263.542 93.4703C263.945 93.0386 264.171 92.4531 264.171 91.8426V35.668C264.171 35.0574 263.945 34.4719 263.542 34.0402C263.14 33.6085 262.595 33.366 262.026 33.366L237.841 33.3924Z" fill="#263238"/>
<path d="M294.913 33.2866H272.578C270.848 33.2866 269.447 34.7911 269.447 36.647V90.8106C269.447 92.6665 270.848 94.171 272.578 94.171H294.913C296.643 94.171 298.044 92.6665 298.044 90.8106V36.647C298.044 34.7911 296.643 33.2866 294.913 33.2866Z" fill="#F5F5F5"/>
<path d="M294.913 94.2504H272.577C271.732 94.2504 270.92 93.8917 270.32 93.2523C269.72 92.6129 269.379 91.7448 269.373 90.8371V36.647C269.379 35.7393 269.72 34.8711 270.32 34.2317C270.92 33.5924 271.732 33.2336 272.577 33.2336H294.913C295.759 33.2336 296.571 33.5924 297.171 34.2317C297.771 34.8711 298.112 35.7393 298.118 36.647V90.8371C298.112 91.7448 297.771 92.6129 297.171 93.2523C296.571 93.8917 295.759 94.2504 294.913 94.2504V94.2504ZM272.577 33.3924C272.174 33.3889 271.774 33.4712 271.4 33.6345C271.026 33.7978 270.686 34.039 270.4 34.344C270.113 34.649 269.886 35.0119 269.731 35.4117C269.576 35.8115 269.496 36.2403 269.496 36.6735V90.8635C269.502 91.7361 269.83 92.5706 270.407 93.1852C270.984 93.7998 271.764 94.1446 272.577 94.1446H294.913C295.726 94.1446 296.507 93.7998 297.084 93.1852C297.661 92.5706 297.989 91.7361 297.995 90.8635V36.647C297.995 36.2139 297.915 35.785 297.76 35.3852C297.605 34.9854 297.377 34.6226 297.091 34.3175C296.805 34.0125 296.465 33.7714 296.091 33.608C295.717 33.4447 295.317 33.3625 294.913 33.366L272.577 33.3924Z" fill="#263238"/>
<path d="M267.08 129.707C266.735 129.707 266.439 107.56 266.439 80.2266C266.439 52.8934 266.735 30.7463 267.08 30.7463C267.425 30.7463 267.721 52.8934 267.721 80.2266C267.721 107.56 267.425 129.707 267.08 129.707Z" fill="#263238"/>
<path d="M264.245 84.3809H235.647V94.171H264.245V84.3809Z" fill="#263238"/>
<path d="M298.044 84.3809H269.447V94.171H298.044V84.3809Z" fill="#263238"/>
<path d="M204.337 27.7829H494.063V16.2992L220.682 15.6907C216.052 15.8046 211.64 17.8221 208.356 21.3267L204.337 27.7829Z" fill="#DC532D"/>
<path d="M189.274 19.7656C189.274 19.7656 191.739 21.2209 190.137 24.8195C188.83 27.8624 173.668 51.0942 166.445 66.9173C159.221 82.7404 155.104 94.1711 155.104 94.1711H151.751C151.751 94.1711 156.164 81.8672 158.728 75.8608C161.588 69.1664 170.044 52.4966 178.032 38.2611L189.274 19.7656Z" fill="#EBEBEB"/>
<path d="M494.063 111.582C494.063 111.952 417.884 112.27 323.955 112.27C230.026 112.27 153.847 111.952 153.847 111.582C153.847 111.211 229.976 110.894 323.955 110.894C417.933 110.894 494.063 111.185 494.063 111.582Z" fill="#263238"/>
<path d="M494.063 130.104L166.174 130.871C162.34 130.331 158.666 128.879 155.421 126.622C152.175 124.366 149.44 121.361 147.413 117.826H494.063V130.104Z" fill="#DC532D"/>
<path d="M226.673 1.87866C226.195 2.09385 225.7 2.26212 225.194 2.38141C224.208 2.67247 222.729 3.12227 220.953 3.81023C215.797 5.69019 210.922 8.3641 206.482 11.7482C205.019 12.8524 203.642 14.0825 202.365 15.4262C201.031 16.9363 199.787 18.5359 198.642 20.2155C196.177 23.7082 193.712 27.5713 191.246 31.6991C186.316 39.9811 181.114 49.242 175.863 59.0587C170.611 68.8754 166.47 78.7714 162.722 87.7149C159.26 95.5607 156.439 103.715 154.291 112.085C154.121 112.958 153.998 113.842 153.921 114.731C153.872 115.135 153.872 115.544 153.921 115.948C153.916 116.343 153.975 116.737 154.094 117.112C154.593 118.536 155.337 119.847 156.288 120.975C157.827 122.902 159.527 124.673 161.366 126.267C162.846 127.564 164.078 128.516 164.892 129.151C165.322 129.468 165.734 129.812 166.124 130.183C165.631 129.992 165.166 129.724 164.744 129.389C163.881 128.807 162.599 127.934 161.046 126.743C159.133 125.235 157.358 123.534 155.745 121.663C154.691 120.464 153.855 119.064 153.28 117.535C153.143 117.109 153.068 116.663 153.058 116.212C153.009 115.746 153.009 115.276 153.058 114.81C153.058 113.937 153.206 112.984 153.403 112.164C155.435 103.681 158.191 95.4165 161.638 87.4767C165.336 78.4538 169.65 68.6637 174.753 58.6618C179.856 48.6599 185.255 39.5577 190.26 31.2757C192.725 27.148 195.191 23.3377 197.656 19.7921C198.857 18.0818 200.158 16.4556 201.551 14.9235C202.881 13.572 204.307 12.3335 205.816 11.219C210.347 7.85426 215.337 5.26559 220.608 3.54565C222.033 3.05647 223.482 2.65015 224.947 2.32848C225.495 2.07544 226.078 1.92337 226.673 1.87866V1.87866Z" fill="#263238"/>
<path d="M151.751 94.1709C152.78 94.0057 153.754 93.5694 154.587 92.9009C155.485 92.028 156.135 90.8995 156.46 89.6463L158.433 84.7512C159.936 81.0203 161.711 76.8133 163.634 71.9975C165.719 66.7576 168.116 61.6668 170.808 56.7566C176.479 46.1726 182.174 37.2027 186.266 30.6406L189.003 26.1953C189.749 25.174 190.234 23.9607 190.408 22.6761C190.47 21.8703 190.25 21.0686 189.792 20.4271C189.471 19.9772 189.225 19.792 189.274 19.7656C189.323 19.7391 189.57 19.7655 189.989 20.2418C190.284 20.5621 190.517 20.9423 190.673 21.3603C190.83 21.7783 190.907 22.2257 190.901 22.6761C190.816 24.0828 190.372 25.4374 189.619 26.5922C188.879 27.9681 187.992 29.4764 187.154 31.1698C183.234 37.8642 177.662 47.0458 172.041 57.4445C169.371 62.3271 166.968 67.3718 164.842 72.5532L159.394 85.1217C158.605 86.8857 157.89 88.4997 157.249 89.9638C156.968 90.6465 156.647 91.3094 156.288 91.9483C155.931 92.4769 155.498 92.9414 155.006 93.3243C154.33 93.8425 153.539 94.1617 152.713 94.2503C152.047 94.3032 151.751 94.2239 151.751 94.1709Z" fill="#263238"/>
<path d="M206.309 24.1314C206.52 23.6765 206.767 23.2426 207.049 22.8349C207.809 21.582 208.73 20.4508 209.786 19.4745C211.579 17.8961 213.662 16.742 215.9 16.0876C218.993 15.4506 222.149 15.2372 225.292 15.4526H286.038L493.964 15.6907H494.581V16.3522C494.581 42.8122 494.581 70.41 494.581 98.7222V99.4102H478.753L208.183 99.1985H183.53C181.588 99.2728 179.644 99.202 177.712 98.9868C175.751 98.6061 173.993 97.4552 172.781 95.7587C171.606 94.1228 171.044 92.075 171.203 90.0169C171.467 88.1031 172.161 86.2869 173.225 84.7249L191 52.0203C195.93 43.1033 199.702 36.1443 202.291 31.4079L205.249 26.1159L206.309 24.3166C206.309 24.3166 206.014 24.9782 205.373 26.1953C204.732 27.4125 203.77 29.2647 202.513 31.6196L191.443 52.3907C186.513 61.3871 180.695 72.3945 173.841 85.2011C172.845 86.6712 172.193 88.3777 171.943 90.1756C171.783 92.0698 172.293 93.9592 173.373 95.4676C174.475 96.9824 176.051 98.0166 177.81 98.3783C179.695 98.5662 181.589 98.6192 183.48 98.537H208.134L478.704 98.3253H494.014L493.373 99.0133V16.2993L493.989 16.9608L286.211 16.2464L225.465 15.9288C222.351 15.6734 219.22 15.8424 216.146 16.4316C213.946 17.0479 211.89 18.1471 210.106 19.6597C208.631 20.9292 207.351 22.438 206.309 24.1314V24.1314Z" fill="#263238"/>
<g opacity="0.3">
<path opacity="0.3" d="M214.494 27.783V74.4584L233.034 83.9311V98.5899H179.314C177.404 98.6366 175.547 97.9164 174.106 96.5705C172.665 95.2246 171.744 93.3499 171.524 91.3134V91.3134C171.416 89.9848 171.646 88.6498 172.189 87.4503L204.238 27.7036L214.494 27.783Z" fill="black"/>
</g>
<g opacity="0.6">
<path opacity="0.6" d="M238.753 94.1975H259.437L264.245 86.0479V52.0996L238.753 94.1975Z" fill="white"/>
</g>
<g opacity="0.6">
<path opacity="0.6" d="M275.61 33.2866L269.447 43.5001V77.2631L295.382 33.2866H275.61Z" fill="white"/>
</g>
<path d="M383.024 33.2866H313.404C310.503 33.2866 308.152 35.8099 308.152 38.9226V88.5351C308.152 91.6478 310.503 94.171 313.404 94.171H383.024C385.925 94.171 388.276 91.6478 388.276 88.5351V38.9226C388.276 35.8099 385.925 33.2866 383.024 33.2866Z" fill="#F5F5F5"/>
<path d="M383.025 94.1711C383.89 94.0661 384.728 93.7784 385.49 93.3245C386.412 92.7567 387.138 91.8842 387.561 90.8372C388.032 89.3584 388.175 87.7819 387.98 86.2331C387.98 78.9302 387.98 68.5579 387.783 55.7777C387.783 52.5761 387.783 49.2156 387.783 45.6965V40.4045C387.828 39.5193 387.778 38.6315 387.635 37.7585C387.437 36.9325 387.057 36.17 386.525 35.5358C385.973 34.923 385.299 34.4526 384.553 34.1599C383.751 33.9235 382.918 33.8341 382.088 33.8953H364.978H313.477C312.471 33.9008 311.494 34.2574 310.694 34.9114C309.893 35.5653 309.313 36.4811 309.04 37.5203C308.84 38.6447 308.782 39.7928 308.867 40.9337V44.5323C308.867 49.295 308.867 54.0049 308.867 58.6354C308.867 67.8699 308.867 76.787 308.867 85.2806V88.4558C308.86 89.3901 309.099 90.3075 309.558 91.1018C310.005 91.8865 310.643 92.5254 311.403 92.9497C312.163 93.374 313.017 93.5676 313.872 93.5096H324.793H344.368L372.744 93.7214H380.461H382.458H383.148H382.458H380.461L372.744 93.8536L344.368 94.0653H324.793H313.872C312.824 94.1291 311.78 93.8902 310.848 93.3736C309.916 92.8571 309.13 92.0817 308.571 91.1282C307.985 90.1404 307.677 88.9919 307.684 87.8207V85.36C307.684 76.8663 307.684 67.9493 307.684 58.7148V41.0131C307.603 39.7468 307.678 38.4746 307.906 37.2293C308.254 35.9011 308.996 34.7307 310.019 33.8953C311.042 33.0598 312.291 32.6047 313.576 32.5988H365.077H382.186C383.151 32.5206 384.121 32.6373 385.046 32.9428C385.99 33.2693 386.84 33.8527 387.511 34.6362C388.156 35.3835 388.614 36.2937 388.843 37.2822C389.011 38.2234 389.061 39.1845 388.991 40.1399C388.991 41.9656 388.991 43.7649 388.991 45.4319C388.991 48.9511 388.991 52.3115 388.991 55.5131C388.991 68.2933 388.818 78.6656 388.793 85.9686C388.928 87.5923 388.726 89.2279 388.202 90.7578C387.729 91.8777 386.934 92.8052 385.934 93.4038C385.331 93.7494 384.668 93.9566 383.986 94.0124C383.685 94.1577 383.353 94.2126 383.025 94.1711V94.1711Z" fill="#263238"/>
<path d="M308.152 84.3809H388.275V91.1811C388.275 91.9741 387.982 92.7346 387.459 93.2953C386.937 93.856 386.228 94.171 385.49 94.171H310.864C310.125 94.171 309.417 93.856 308.894 93.2953C308.372 92.7346 308.078 91.9741 308.078 91.1811V84.3809H308.152Z" fill="#263238"/>
<g opacity="0.6">
<path opacity="0.6" d="M355.561 33.2866L318.704 94.1975H339.388L375.357 33.2866H355.561Z" fill="white"/>
</g>
<path d="M469.533 33.2866H400.405C397.369 33.2866 394.907 35.9284 394.907 39.1872V88.2705C394.907 91.5293 397.369 94.171 400.405 94.171H469.533C472.569 94.171 475.031 91.5293 475.031 88.2705V39.1872C475.031 35.9284 472.569 33.2866 469.533 33.2866Z" fill="#F5F5F5"/>
<path d="M469.533 94.171C470.395 94.0818 471.233 93.8121 471.998 93.3773C472.919 92.8117 473.672 91.9766 474.168 90.9694C474.469 90.3341 474.653 89.6423 474.71 88.932C474.71 88.1647 474.71 87.2915 474.71 86.286C474.71 78.983 474.587 68.6372 474.488 55.8834C474.488 52.6818 474.488 49.3214 474.488 45.8286C474.488 44.0558 474.488 42.283 474.488 40.5366C474.531 39.6515 474.481 38.764 474.34 37.8906C474.157 37.0696 473.794 36.3075 473.28 35.668C472.741 35.0019 472.062 34.4838 471.298 34.157C470.535 33.8302 469.71 33.7041 468.892 33.7893H451.832H400.405C399.396 33.7952 398.413 34.1333 397.588 34.7579C396.764 35.3825 396.138 36.2635 395.795 37.2821C395.535 38.379 395.443 39.514 395.524 40.6425V58.3178C395.524 67.5523 395.524 76.4429 395.524 84.9365V88.0853C395.532 89.0137 395.761 89.9245 396.189 90.7313C396.617 91.5272 397.231 92.1899 397.97 92.6538C398.71 93.1178 399.549 93.3671 400.405 93.3773H411.302H430.852L459.154 93.5889H466.87H468.867H469.558H468.867H466.87L459.154 93.7212L430.852 93.9329H411.302H400.405C399.354 93.9263 398.323 93.628 397.411 93.0669C396.5 92.5059 395.739 91.7013 395.203 90.7313C394.643 89.7337 394.353 88.5884 394.365 87.4238C394.365 86.3918 394.365 85.3334 394.365 84.275C394.365 75.7814 394.365 66.8908 394.365 57.6563C394.365 53.0258 394.365 48.3424 394.365 43.5796V38.1553C394.373 37.4797 394.481 36.8099 394.685 36.1708C395.112 34.8803 395.901 33.763 396.942 32.972C397.984 32.181 399.228 31.7548 400.504 31.7519H451.93H468.991C469.965 31.6714 470.943 31.8377 471.847 32.2376C472.751 32.6375 473.554 33.2596 474.192 34.054C474.806 34.8128 475.238 35.7212 475.45 36.6999C475.614 37.6417 475.672 38.6011 475.622 39.5576C475.622 41.3834 475.622 43.1562 475.622 44.8496C475.622 48.3424 475.622 51.7028 475.622 54.9044C475.622 67.6582 475.474 78.004 475.425 85.307C475.425 86.2066 475.425 87.0269 475.425 87.953C475.307 88.9307 474.969 89.863 474.441 90.6696C473.913 91.4762 473.21 92.133 472.393 92.5835C471.785 92.9124 471.123 93.1101 470.445 93.1656C470.267 93.6102 469.942 93.9683 469.533 94.171V94.171Z" fill="#263238"/>
<path d="M394.907 84.3809H475.031V90.9165C475.031 91.7867 474.708 92.6212 474.135 93.2365C473.562 93.8518 472.784 94.1975 471.974 94.1975H398.014C397.203 94.1975 396.425 93.8518 395.852 93.2365C395.279 92.6212 394.957 91.7867 394.957 90.9165V84.3809H394.907Z" fill="#263238"/>
<g opacity="0.6">
<path opacity="0.6" d="M442.34 33.2866L405.484 94.1975H426.168L462.112 33.2866H442.34Z" fill="white"/>
</g>
<path d="M891.82 13.7327H865.983V124.283H891.82V13.7327Z" fill="#388087"/>
<g opacity="0.2">
<path opacity="0.2" d="M891.82 13.7327H865.983V124.283H891.82V13.7327Z" fill="black"/>
</g>
<path d="M864.578 130.818L502.149 130.077V13.7327L507.819 1.66695L858.439 0L864.578 9.86957V130.818Z" fill="#E0E0E0"/>
<path d="M864.874 15.6377H502.149V98.6693H864.874V15.6377Z" fill="#388087"/>
<path d="M676.448 129.813H608.356V35.5623C608.362 34.2475 608.854 32.9891 609.722 32.0619C610.591 31.1347 611.766 30.6142 612.991 30.6143H671.814C673.039 30.6142 674.214 31.1347 675.082 32.0619C675.951 32.9891 676.442 34.2475 676.448 35.5623V129.813Z" fill="#388087"/>
<path d="M676.448 129.813C676.415 129.505 676.415 129.194 676.448 128.887C676.448 128.225 676.448 127.352 676.448 126.241C676.448 123.859 676.448 120.525 676.448 116.239C676.448 107.534 676.3 95.0709 676.226 79.777C676.226 72.1036 676.226 63.6893 676.103 54.6929C676.103 50.1682 676.103 45.5113 676.103 40.722V37.097C676.211 35.9592 676.076 34.8101 675.709 33.7366C675.272 32.7386 674.508 31.9476 673.564 31.5139C673.082 31.3232 672.573 31.2247 672.06 31.2228H616.565C615.259 31.2228 613.804 31.2228 612.572 31.2228C611.987 31.2936 611.425 31.5038 610.925 31.838C610.426 32.1722 610.003 32.622 609.687 33.1544C609.195 34.0092 608.97 35.0106 609.046 36.0121V59.1911C609.046 67.8435 609.046 76.2843 609.046 84.4339C609.046 100.76 609.046 115.974 609.046 129.707L608.528 129.151L657.835 129.442L671.641 129.575H675.29C675.724 129.537 676.161 129.537 676.596 129.575C676.203 129.616 675.806 129.616 675.413 129.575H671.863H658.156L608.504 129.866H607.986V129.31C607.986 115.577 607.986 100.363 607.986 84.0371C607.986 75.8874 607.986 67.4466 607.986 58.7942V35.6152C607.91 34.3513 608.203 33.0933 608.824 32.0166C609.237 31.2977 609.794 30.6869 610.456 30.2291C611.117 29.7712 611.865 29.4779 612.646 29.3706C614.149 29.3706 615.407 29.3706 616.787 29.3706H640.578H670.334H672.109C672.779 29.3684 673.441 29.5125 674.057 29.794C675.276 30.3324 676.261 31.343 676.818 32.6252C677.242 33.8682 677.402 35.197 677.287 36.5148V40.1928C677.287 45.035 677.287 49.7184 677.287 54.2695C677.287 63.3453 677.287 71.8125 677.287 79.5388C677.287 94.8592 677.114 107.295 677.065 116.001C677.065 120.208 677.065 123.515 676.941 125.844C676.941 126.902 676.941 127.723 676.941 128.49C676.941 129.257 676.448 129.839 676.448 129.813Z" fill="#263238"/>
<path d="M635.869 33.2603H614.667C612.625 33.2603 610.969 35.0372 610.969 37.2293V90.1757C610.969 92.3677 612.625 94.1447 614.667 94.1447H635.869C637.911 94.1447 639.567 92.3677 639.567 90.1757V37.2293C639.567 35.0372 637.911 33.2603 635.869 33.2603Z" fill="#F5F5F5"/>
<path d="M670.606 33.2603H647.53C646.005 33.2603 644.769 34.5871 644.769 36.2238V91.1812C644.769 92.8179 646.005 94.1447 647.53 94.1447H670.606C672.131 94.1447 673.367 92.8179 673.367 91.1812V36.2238C673.367 34.5871 672.131 33.2603 670.606 33.2603Z" fill="#F5F5F5"/>
<path d="M642.402 129.68C642.057 129.68 641.761 107.533 641.761 80.2001C641.761 52.8669 642.057 30.7463 642.402 30.7463C642.747 30.7463 643.043 52.8934 643.043 80.2001C643.043 107.507 642.747 129.68 642.402 129.68Z" fill="#263238"/>
<path d="M639.567 84.3545H610.969V94.1447H639.567V84.3545Z" fill="#263238"/>
<path d="M673.367 84.3545H644.769V94.1447H673.367V84.3545Z" fill="#263238"/>
<path d="M502.149 15.6907V27.7565H864.874V16.2728L502.149 15.6907Z" fill="#DC532D"/>
<path d="M864.874 111.555C864.874 111.926 783.666 112.243 683.524 112.243C583.382 112.243 502.149 111.926 502.149 111.555C502.149 111.185 583.333 110.867 683.524 110.867C783.715 110.867 864.874 111.158 864.874 111.555Z" fill="#263238"/>
<path d="M864.578 130.871L502.174 130.077V118.594H864.578V130.871Z" fill="#DC532D"/>
<g opacity="0.6">
<g opacity="0.5">
<path opacity="0.5" d="M614.075 94.1711H634.76L639.567 86.0479V52.0732L614.075 94.1711Z" fill="white"/>
</g>
<g opacity="0.5">
<path opacity="0.5" d="M650.932 33.2603L644.769 43.5003V77.2368L670.704 33.2603H650.932Z" fill="white"/>
</g>
</g>
<path d="M759.086 33.2603H687.986C685.494 33.2603 683.475 35.4282 683.475 38.1024V89.3025C683.475 91.9768 685.494 94.1447 687.986 94.1447H759.086C761.578 94.1447 763.598 91.9768 763.598 89.3025V38.1024C763.598 35.4282 761.578 33.2603 759.086 33.2603Z" fill="#F5F5F5"/>
<path d="M759.086 94.1711C759.968 94.0546 760.812 93.7195 761.552 93.1921C762.398 92.5598 763.002 91.6198 763.253 90.5461C763.368 88.9698 763.368 87.3862 763.253 85.8098C763.253 78.4804 763.253 68.0551 763.055 55.222C763.055 51.9939 763.055 48.607 763.055 45.0878C763.055 43.315 763.055 41.5157 763.055 39.7958C763.114 38.9107 763.064 38.0211 762.907 37.1498C762.709 36.3336 762.284 35.6011 761.69 35.0486C761.096 34.4961 760.36 34.1493 759.579 34.054C758.815 34.054 757.804 34.054 756.917 34.054H739.659H687.887C686.898 34.0653 685.949 34.478 685.231 35.2093C684.513 35.9406 684.079 36.9363 684.017 37.9966V45.2201C684.017 50.0094 684.017 54.7457 684.017 59.3762C684.017 68.6637 684.017 77.6336 684.017 86.1802C684.017 87.2386 684.017 88.2971 684.017 89.3555C683.994 90.3037 684.262 91.2337 684.781 92.0015C685.289 92.7334 685.995 93.2787 686.803 93.5626C687.679 93.7497 688.574 93.812 689.465 93.7478H700.387H720.109L748.609 93.986H756.35H758.371H759.062C758.833 94.0246 758.6 94.0246 758.371 93.986H756.35L748.609 94.1182L720.109 94.33H700.387H689.416H688.06C687.527 94.327 686.996 94.2468 686.482 94.0917C685.438 93.7432 684.523 93.0484 683.869 92.1072C683.226 91.1428 682.881 89.9859 682.883 88.7997V85.6246C682.883 77.078 682.883 68.108 682.883 58.8206V37.7319C682.946 36.3091 683.516 34.9667 684.475 33.9819C685.434 32.9971 686.708 32.4451 688.035 32.4399H739.807H757.065C758.026 32.4399 758.815 32.4399 759.85 32.4399C760.834 32.5855 761.757 33.0361 762.506 33.7364C763.255 34.4367 763.797 35.3563 764.066 36.3825C764.241 37.3405 764.299 38.3189 764.239 39.2931C764.239 41.1188 764.239 42.9181 764.239 44.5851C764.239 48.1043 764.239 51.4911 764.239 54.7193C764.239 67.5524 764.066 77.9777 764.017 85.3071C764.07 86.9242 764.004 88.5432 763.82 90.1492C763.526 91.3294 762.843 92.3546 761.897 93.0334C761.317 93.4341 760.659 93.6874 759.974 93.7742C759.705 93.9678 759.403 94.1026 759.086 94.1711V94.1711Z" fill="#263238"/>
<path d="M683.475 84.3545H763.598V91.9485C763.598 92.531 763.382 93.0896 762.999 93.5015C762.615 93.9133 762.094 94.1447 761.552 94.1447H685.595C685.052 94.1447 684.532 93.9133 684.148 93.5015C683.764 93.0896 683.549 92.531 683.549 91.9485V84.3545H683.475Z" fill="#263238"/>
<g opacity="0.6">
<path opacity="0.6" d="M730.883 33.2603L694.026 94.1711H714.71L750.655 33.2603H730.883Z" fill="white"/>
</g>
<path d="M846.532 33.2603H774.051C771.94 33.2603 770.229 35.0965 770.229 37.3616V90.0434C770.229 92.3085 771.94 94.1447 774.051 94.1447H846.532C848.642 94.1447 850.353 92.3085 850.353 90.0434V37.3616C850.353 35.0965 848.642 33.2603 846.532 33.2603Z" fill="#F5F5F5"/>
<path d="M846.532 94.171C847.436 94.0641 848.293 93.6781 848.997 93.0598C849.39 92.685 849.703 92.2242 849.916 91.7083C850.129 91.1925 850.236 90.6338 850.23 90.0698C850.23 88.6409 850.23 87.0269 850.23 85.2276C850.23 77.8718 850.107 67.42 850.008 54.5075C850.008 51.2794 850.008 47.8661 850.008 44.3469C850.008 42.5741 850.008 40.7483 850.008 38.9226C850.069 38.0375 850.019 37.1476 849.86 36.2766C849.616 35.4987 849.139 34.8291 848.504 34.3715C847.818 33.9179 847.014 33.7138 846.211 33.7893H826.119H774.125C773.651 33.7996 773.185 33.921 772.759 34.1449C772.333 34.3689 771.958 34.69 771.66 35.0859C771.372 35.4963 771.162 35.964 771.043 36.4618C771.002 37.0255 771.002 37.5917 771.043 38.1553V59.6673C771.043 68.9812 771.043 78.004 771.043 86.577V89.7788C771.012 90.6851 771.313 91.5685 771.882 92.2395C772.43 92.9062 773.2 93.3149 774.026 93.3773H787.857H807.58L836.202 93.6154H843.993H846.014H846.705C846.476 93.6541 846.243 93.6541 846.014 93.6154H843.993L836.202 93.7478L807.58 93.9594H787.857H776.837H773.953C772.833 93.8682 771.786 93.3301 771.019 92.4512C770.26 91.5433 769.847 90.363 769.86 89.1437V85.942C769.86 77.369 769.86 68.3461 769.86 59.0322C769.86 54.3487 769.86 49.6124 769.86 44.7967V37.5202C769.832 36.8559 769.873 36.1902 769.983 35.5357C770.13 34.8347 770.416 34.1759 770.822 33.6042C771.242 33.0401 771.775 32.5836 772.38 32.2678C772.986 31.952 773.649 31.7848 774.322 31.7784H826.316H846.31C847.317 31.7231 848.315 32.0002 849.17 32.5722C850.039 33.1958 850.67 34.1355 850.945 35.2182C851.127 36.1842 851.193 37.1712 851.142 38.1553C851.142 39.981 851.142 41.8068 851.142 43.5796C851.142 47.0988 851.142 50.5121 851.142 53.7402C851.142 66.6527 850.994 77.1044 850.945 84.4603C850.945 86.2595 850.945 87.8736 850.945 89.3024C850.93 89.9168 850.793 90.5207 850.542 91.0731C850.291 91.6255 849.932 92.1136 849.49 92.5041C849.188 93.0471 848.751 93.49 848.23 93.7841C847.708 94.0782 847.12 94.2121 846.532 94.171V94.171Z" fill="#263238"/>
<path d="M770.229 84.3545H850.353V92.6894C850.353 92.8805 850.318 93.0697 850.25 93.2463C850.182 93.4229 850.082 93.5833 849.956 93.7184C849.83 93.8536 849.68 93.9608 849.516 94.0339C849.351 94.1071 849.175 94.1447 848.997 94.1447H771.61C771.251 94.1447 770.906 93.9914 770.651 93.7184C770.397 93.4455 770.254 93.0753 770.254 92.6894V84.3545H770.229Z" fill="#263238"/>
<g opacity="0.6">
<path opacity="0.6" d="M817.663 33.2603L780.806 94.1711H801.465L837.435 33.2603H817.663Z" fill="white"/>
</g>
<path d="M593.367 33.2603H525.373C522.023 33.2603 519.308 36.1745 519.308 39.7694V87.6355C519.308 91.2304 522.023 94.1447 525.373 94.1447H593.367C596.716 94.1447 599.431 91.2304 599.431 87.6355V39.7694C599.431 36.1745 596.716 33.2603 593.367 33.2603Z" fill="#F5F5F5"/>
<path d="M593.342 94.171C594.196 94.0551 595.028 93.7963 595.807 93.4037C596.931 92.8026 597.852 91.839 598.44 90.6479C599.028 89.4569 599.254 88.0981 599.086 86.7623C599.086 79.5122 598.963 69.1928 598.889 56.492C598.889 53.2904 598.889 49.9564 598.889 46.4637C598.889 44.7174 598.889 42.9445 598.889 41.1717C598.938 40.2875 598.897 39.4002 598.766 38.5257C598.592 37.6953 598.247 36.9175 597.755 36.2502C597.272 35.544 596.647 34.9649 595.925 34.5569C595.203 34.1489 594.404 33.9226 593.588 33.8952H576.602H525.373C524.347 33.8943 523.343 34.2011 522.471 34.7809C521.6 35.3607 520.897 36.1903 520.442 37.1762C520.008 38.1759 519.822 39.2784 519.9 40.3779V43.95C519.9 48.6864 519.9 53.3697 519.9 57.9738C519.9 67.1819 519.9 76.046 519.9 84.4338C519.9 85.4922 519.9 86.5241 519.9 87.5825C519.936 88.5034 520.154 89.4055 520.541 90.2285C520.942 91.0452 521.518 91.7488 522.22 92.2821C522.923 92.8154 523.732 93.1634 524.584 93.2979C528.134 93.4566 531.98 93.2979 535.333 93.2979H554.833L583.037 93.536H590.704H592.701H593.367C593.146 93.5765 592.921 93.5765 592.701 93.536H590.704L583.037 93.6684L554.833 93.88H535.333C531.807 93.88 528.306 93.88 524.411 93.88C523.379 93.7224 522.395 93.3077 521.539 92.669C520.683 92.0304 519.978 91.1855 519.48 90.202C519.009 89.18 518.748 88.0609 518.716 86.921V84.5661C518.716 76.0989 518.716 67.2348 518.716 58.1061V40.3779C518.635 39.0679 518.864 37.7571 519.382 36.5677C519.94 35.358 520.8 34.3388 521.867 33.6238C522.933 32.9089 524.164 32.5264 525.422 32.5193H576.652H588.165H593.687C594.653 32.5683 595.597 32.8478 596.45 33.3376C597.303 33.8274 598.044 34.515 598.618 35.3505C599.171 36.1366 599.566 37.0377 599.776 37.9965C599.933 38.9392 599.982 39.8987 599.924 40.8542C599.924 42.6799 599.924 44.4527 599.924 46.1462C599.924 49.6389 599.924 52.9729 599.924 56.1745C599.924 68.8753 599.752 79.1947 599.702 86.4448C599.823 88.0861 599.433 89.7241 598.593 91.1017C597.964 92.0654 597.115 92.8397 596.128 93.3508C595.296 93.9166 594.326 94.2022 593.342 94.171V94.171Z" fill="#263238"/>
<path d="M519.308 84.3545H599.308V89.1702C599.308 90.4895 598.82 91.7548 597.951 92.6877C597.081 93.6206 595.903 94.1447 594.673 94.1447H523.943C522.714 94.1447 521.535 93.6206 520.666 92.6877C519.796 91.7548 519.308 90.4895 519.308 89.1702V84.3545Z" fill="#263238"/>
<g opacity="0.6">
<path opacity="0.6" d="M566.716 33.2603L529.86 94.1711H550.544L586.488 33.2603H566.716Z" fill="white"/>
</g>
<path d="M1234.43 130.871H1260.26V20.3212H1234.43V130.871Z" fill="#388087"/>
<g opacity="0.2">
<path opacity="0.2" d="M1234.43 130.871H1260.26V20.3212H1234.43V130.871Z" fill="black"/>
</g>
<path d="M1577.01 130.104C1582.19 130.123 1587.16 127.956 1590.87 124.071C1594.22 120.578 1597.55 116.397 1597.15 114.016C1594.36 102.586 1590.79 91.3908 1586.48 80.5178C1581.74 68.6637 1556.1 18.9982 1547.03 11.4571C1543.16 8.61201 1538.87 6.49988 1534.34 5.21255C1526.85 2.85048 1519.09 1.67381 1511.28 1.7198H1254.03C1252.11 5.50486 1250.52 9.47335 1249.29 13.5739C1248.9 16.5374 1249.12 117.826 1249.12 117.826V130.104H1577.01Z" fill="#E0E0E0"/>
<path d="M1536.87 24.1315L1570.65 86.6565C1571.3 87.9022 1571.63 89.3108 1571.61 90.7386C1571.59 92.1665 1571.21 93.5623 1570.52 94.7837C1569.83 96.0051 1568.85 97.0084 1567.68 97.691C1566.52 98.3737 1565.2 98.7113 1563.87 98.6694H1249.12V16.2994L1522.92 15.6643C1525.73 15.6472 1528.5 16.4196 1530.95 17.9049C1533.39 19.3903 1535.44 21.5368 1536.87 24.1315V24.1315Z" fill="#388087"/>
<path d="M1442.06 129.839H1510.13V37.2291C1510.13 35.4512 1509.47 33.7457 1508.3 32.4861C1507.13 31.2265 1505.54 30.5153 1503.89 30.5083H1448.29C1446.64 30.5153 1445.05 31.2265 1443.88 32.4861C1442.71 33.7457 1442.06 35.4512 1442.06 37.2291V129.839Z" fill="#388087"/>
<path d="M1442.06 129.839C1442.02 129.567 1442.02 129.291 1442.06 129.019C1442.06 128.357 1442.06 127.537 1442.06 126.373C1442.06 124.044 1442.06 120.763 1442.06 116.583C1442.06 107.93 1441.91 95.547 1441.84 80.2796C1441.84 72.5797 1441.84 64.1655 1441.84 55.1162C1441.84 50.5915 1441.84 45.9081 1441.84 41.0924V37.4409C1441.8 36.4231 1441.96 35.4085 1442.31 34.4623C1442.66 33.516 1443.2 32.6591 1443.87 31.9464C1444.55 31.2337 1445.36 30.6811 1446.25 30.3241C1447.14 29.9671 1448.09 29.8135 1449.03 29.8733H1504.09C1504.83 29.883 1505.58 30.0261 1506.28 30.2967C1507.7 30.8535 1508.91 31.8944 1509.73 33.2602C1510.36 34.2966 1510.73 35.4916 1510.79 36.7264C1510.79 37.9436 1510.79 38.9755 1510.79 40.1133V59.7731C1510.79 68.3461 1510.79 76.7076 1510.79 84.8043C1510.79 100.998 1510.79 116.107 1510.79 129.786V130.342H1510.25L1460.6 130.051L1446.91 129.892H1443.36C1442.97 129.918 1442.57 129.918 1442.18 129.892H1443.46H1447.14L1460.94 129.733L1510.25 129.442L1509.73 130.024C1509.73 116.371 1509.73 101.262 1509.73 85.0425C1509.73 76.9457 1509.73 68.5843 1509.73 60.0113C1509.73 55.6983 1509.73 51.3589 1509.73 46.9665V40.3515C1509.73 39.2666 1509.73 38.0759 1509.73 37.0704C1509.67 36.0637 1509.37 35.0897 1508.87 34.2392C1508.2 33.1344 1507.21 32.2905 1506.06 31.8314C1504.83 31.472 1503.55 31.3466 1502.29 31.4609H1478.59H1449.01C1448.22 31.4092 1447.42 31.535 1446.68 31.8303C1445.93 32.1257 1445.26 32.5841 1444.69 33.1764C1444.11 33.7687 1443.67 34.482 1443.37 35.2709C1443.07 36.0597 1442.92 36.9068 1442.94 37.7584V41.3834C1442.94 46.1462 1442.94 50.7767 1442.94 55.2749C1442.94 64.2449 1442.94 72.6063 1442.94 80.2532C1442.94 95.5206 1442.77 107.904 1442.72 116.556C1442.72 120.816 1442.72 124.15 1442.72 126.505C1442.72 127.59 1442.72 128.463 1442.72 129.151C1442.72 129.839 1442.06 129.813 1442.06 129.839Z" fill="#263238"/>
<path d="M1481.8 94.1975H1504.63C1506.22 94.1975 1507.51 92.8115 1507.51 91.1017V36.4089C1507.51 34.6991 1506.22 33.3131 1504.63 33.3131H1481.8C1480.21 33.3131 1478.91 34.6991 1478.91 36.4089V91.1017C1478.91 92.8115 1480.21 94.1975 1481.8 94.1975Z" fill="#F5F5F5"/>
<path d="M1448.59 94.1975H1470.29C1472.19 94.1975 1473.74 92.539 1473.74 90.4931V37.0175C1473.74 34.9716 1472.19 33.3131 1470.29 33.3131H1448.59C1446.68 33.3131 1445.14 34.9716 1445.14 37.0175V90.4931C1445.14 92.539 1446.68 94.1975 1448.59 94.1975Z" fill="#F5F5F5"/>
<path d="M1476.1 129.707C1475.73 129.707 1475.44 107.56 1475.44 80.2266C1475.44 52.8934 1475.73 30.7463 1476.1 30.7463C1476.47 30.7463 1476.74 52.8934 1476.74 80.2266C1476.74 107.56 1476.45 129.707 1476.1 129.707Z" fill="#263238"/>
<path d="M1478.91 94.1975H1507.51V84.4073H1478.91V94.1975Z" fill="#263238"/>
<path d="M1445.11 94.1975H1473.71V84.4073H1445.11V94.1975Z" fill="#263238"/>
<path d="M1538.82 27.7829H1249.12V16.2992L1522.5 15.6907C1527.13 15.8046 1531.54 17.8221 1534.83 21.3267L1538.82 27.7829Z" fill="#DC532D"/>
<path d="M1553.91 19.7656C1553.91 19.7656 1551.44 21.2209 1553.02 24.8195C1554.35 27.8624 1569.52 51.0942 1576.74 66.9173C1583.96 82.7404 1588.05 94.1711 1588.05 94.1711H1591.41C1591.41 94.1711 1587.02 81.8672 1584.46 75.8608C1581.57 69.1664 1573.11 52.4966 1565.15 38.2611L1553.91 19.7656Z" fill="#EBEBEB"/>
<path d="M1249.12 111.582C1249.12 111.185 1325.27 110.894 1419.23 110.894C1513.18 110.894 1589.34 111.185 1589.34 111.582C1589.34 111.979 1513.18 112.27 1419.23 112.27C1325.27 112.27 1249.12 111.952 1249.12 111.582Z" fill="#263238"/>
<path d="M1249.12 130.104L1577.01 130.871C1580.84 130.334 1584.51 128.884 1587.75 126.627C1591 124.369 1593.73 121.363 1595.75 117.826H1249.12V130.104Z" fill="#DC532D"/>
<path d="M1516.41 1.87857C1516.94 1.86504 1517.46 1.9364 1517.97 2.09026C1519.43 2.40546 1520.88 2.81188 1522.3 3.30744C1527.58 5.02737 1532.57 7.61604 1537.1 10.9808C1538.62 12.0882 1540.05 13.3271 1541.39 14.6852C1542.77 16.2182 1544.06 17.8444 1545.26 19.5539C1547.72 23.0466 1550.19 26.9097 1552.65 31.0375C1557.58 39.3195 1562.88 48.554 1568.18 58.4236C1573.48 68.2932 1577.6 78.2157 1581.3 87.2385C1584.75 95.1738 1587.5 103.439 1589.51 111.926C1589.67 112.8 1589.8 113.684 1589.88 114.572C1589.93 115.038 1589.93 115.508 1589.88 115.974C1589.88 116.426 1589.81 116.875 1589.66 117.297C1589.08 118.826 1588.25 120.226 1587.19 121.425C1585.57 123.296 1583.79 124.998 1581.87 126.505C1580.31 127.749 1579.06 128.622 1578.17 129.151C1577.75 129.482 1577.3 129.749 1576.81 129.945C1577.2 129.565 1577.61 129.22 1578.05 128.913C1578.86 128.278 1580.07 127.325 1581.57 126.029C1583.4 124.428 1585.1 122.657 1586.65 120.737C1587.6 119.608 1588.34 118.298 1588.84 116.874C1588.95 116.498 1589 116.104 1588.99 115.71C1589.04 115.306 1589.04 114.896 1588.99 114.492C1588.84 113.619 1588.82 112.746 1588.6 111.846C1586.55 103.578 1583.84 95.5132 1580.51 87.7413C1576.76 78.7978 1572.42 69.0341 1567.35 59.0851C1562.27 49.1362 1556.89 40.0074 1551.96 31.7255C1549.5 27.5977 1547.03 23.7875 1544.57 20.2418C1543.42 18.5555 1542.17 16.9554 1540.82 15.4526C1539.54 14.1155 1538.18 12.8859 1536.73 11.7746C1532.28 8.39655 1527.41 5.7231 1522.25 3.83663C1520.43 3.14867 1518.98 2.69883 1518.01 2.40777C1517.47 2.2755 1516.93 2.09859 1516.41 1.87857V1.87857Z" fill="#263238"/>
<path d="M1591.41 94.1711C1591.41 94.1711 1591.14 94.3034 1590.57 94.1711C1589.74 94.0743 1588.96 93.7558 1588.28 93.245C1587.79 92.8681 1587.36 92.4024 1587.02 91.869C1586.66 91.2301 1586.34 90.5673 1586.06 89.8845L1583.91 85.0424C1582.31 81.3909 1580.49 77.1044 1578.46 72.4739C1576.33 67.2976 1573.93 62.2535 1571.27 57.3652C1565.62 46.94 1560.05 37.7848 1556.15 31.0905C1555.17 29.397 1554.3 27.8888 1553.69 26.5128C1552.92 25.3639 1552.48 24.006 1552.41 22.5968C1552.39 22.1447 1552.46 21.6936 1552.62 21.2738C1552.77 20.8539 1553.01 20.475 1553.32 20.1625C1553.71 19.7391 1554.01 19.6332 1554.03 19.6862C1554.06 19.7391 1553.81 19.8978 1553.52 20.3477C1553.06 20.9892 1552.84 21.7909 1552.9 22.5968C1553.06 23.8845 1553.55 25.1006 1554.3 26.116C1555.11 27.4742 1556.02 28.956 1557.04 30.5612C1561.13 37.1233 1566.9 46.1991 1572.5 56.6773C1575.17 61.5933 1577.56 66.6835 1579.65 71.9183L1584.87 84.6719L1586.82 89.567C1587.16 90.8227 1587.81 91.9512 1588.72 92.8217C1589.5 93.496 1590.42 93.9588 1591.41 94.1711V94.1711Z" fill="#263238"/>
<path d="M1536.87 24.1315C1535.85 22.4525 1534.59 20.9457 1533.15 19.6598C1531.37 18.1472 1529.31 17.048 1527.11 16.4316C1524.03 15.8402 1520.89 15.6712 1517.77 15.9289L1457.02 16.2464L1249.12 16.9608L1249.74 16.2993C1249.74 42.7594 1249.74 70.3572 1249.74 98.6694L1249.1 97.9814H1264.38L1534.98 98.1931H1559.63C1561.53 98.2749 1563.43 98.2219 1565.32 98.0344C1567.07 97.6668 1568.64 96.6332 1569.74 95.1238C1570.82 93.6179 1571.34 91.7291 1571.19 89.8318C1570.94 88.0338 1570.29 86.3274 1569.29 84.8573C1562.44 72.0506 1556.52 61.0433 1551.69 52.0468L1540.6 31.2757C1539.36 28.9208 1538.4 27.1215 1537.76 25.8514C1537.12 24.5813 1536.83 23.9728 1536.83 23.9728C1536.83 23.9728 1537.19 24.5813 1537.86 25.772L1540.82 31.064C1543.43 35.8004 1547.23 42.7594 1552.11 51.6764C1556.99 60.5934 1562.98 71.6537 1569.91 84.381C1570.97 85.943 1571.67 87.7592 1571.93 89.673C1572.08 91.7298 1571.52 93.7731 1570.35 95.4148C1569.13 97.1 1567.38 98.248 1565.42 98.6429C1563.48 98.8583 1561.53 98.9291 1559.58 98.8546H1534.93L1264.33 99.0663H1248.41V98.59C1248.41 70.2778 1248.41 42.68 1248.41 16.2199V15.5584H1249.02L1456.92 15.3203H1517.67C1520.82 15.1061 1523.99 15.3195 1527.09 15.9554C1529.32 16.6097 1531.41 17.7639 1533.2 19.3423C1534.28 20.3179 1535.24 21.4486 1536.04 22.7027C1536.34 23.1588 1536.62 23.6361 1536.87 24.1315Z" fill="#263238"/>
<g opacity="0.3">
<path opacity="0.3" d="M1528.74 27.783V74.4584L1510.2 83.9311V98.59H1563.92C1565.83 98.636 1567.68 97.915 1569.12 96.5686C1570.55 95.2221 1571.47 93.3477 1571.68 91.3135V91.3135C1571.79 89.9848 1571.56 88.6499 1571.02 87.4503L1538.97 27.7036L1528.74 27.783Z" fill="black"/>
</g>
<g opacity="0.6">
<g opacity="0.5">
<path opacity="0.5" d="M1504.41 94.1975H1483.75L1478.94 86.0479V52.0996L1504.41 94.1975Z" fill="white"/>
</g>
<g opacity="0.5">
<path opacity="0.5" d="M1467.55 33.2866L1473.74 43.5001V77.2631L1447.78 33.2866H1467.55Z" fill="white"/>
</g>
</g>
<path d="M1430.22 33.2866H1359.72C1357.06 33.2866 1354.91 35.5967 1354.91 38.4463V89.0114C1354.91 91.861 1357.06 94.171 1359.72 94.171H1430.22C1432.88 94.171 1435.03 91.861 1435.03 89.0114V38.4463C1435.03 35.5967 1432.88 33.2866 1430.22 33.2866Z" fill="#F5F5F5"/>
<path d="M1359.72 94.171C1359.49 94.2163 1359.25 94.2163 1359.03 94.171C1358.34 94.1006 1357.67 93.8656 1357.08 93.4831C1356.12 92.8792 1355.38 91.947 1354.98 90.8371C1354.68 89.2451 1354.57 87.617 1354.66 85.9949C1354.66 78.6919 1354.66 68.2932 1354.46 55.4865C1354.46 52.2584 1354.46 48.8715 1354.46 45.3523C1354.46 43.606 1354.46 41.8067 1354.46 40.0603C1354.42 39.095 1354.47 38.1269 1354.64 37.1761C1354.87 36.1679 1355.37 35.2512 1356.07 34.5301C1356.78 33.7819 1357.68 33.2601 1358.66 33.0219C1359.59 32.8888 1360.53 32.8445 1361.47 32.8896H1378.72H1430.5C1431.8 32.8929 1433.05 33.3964 1434.04 34.3089C1435.03 35.2214 1435.68 36.4826 1435.87 37.8641C1435.87 40.5101 1435.87 42.7592 1435.87 45.1936C1435.87 49.9828 1435.87 54.7192 1435.87 59.3497C1435.87 68.6107 1435.87 77.5541 1435.87 86.1007C1435.87 87.1591 1435.87 88.2176 1435.87 89.276C1435.88 90.4558 1435.56 91.6112 1434.93 92.5835C1434.32 93.5347 1433.47 94.2712 1432.47 94.7002C1431.5 95.0519 1430.48 95.1783 1429.46 95.0707H1418.51H1398.79L1370.34 94.859L1362.6 94.7267H1360.6C1360.37 94.7615 1360.14 94.7615 1359.91 94.7267H1360.6H1362.6H1370.34L1398.79 94.515H1418.51H1429.46C1430.29 94.5805 1431.13 94.4635 1431.93 94.171C1432.73 93.8447 1433.41 93.263 1433.9 92.5041C1434.37 91.7176 1434.62 90.7966 1434.61 89.8581V86.6829C1434.61 78.1363 1434.61 69.1928 1434.61 59.9318V45.7757C1434.61 43.4472 1434.61 40.8806 1434.61 38.6579C1434.46 37.6035 1433.96 36.6427 1433.2 35.9454C1432.45 35.2481 1431.49 34.8593 1430.5 34.8477H1378.72H1361.47C1360.65 34.7846 1359.82 34.7846 1359 34.8477C1358.22 35.0287 1357.5 35.4412 1356.93 36.0384C1356.38 36.6239 1355.98 37.3535 1355.77 38.1552C1355.62 39.0268 1355.57 39.916 1355.62 40.8012C1355.62 42.6269 1355.62 44.4262 1355.62 46.0932C1355.62 49.6124 1355.62 52.9993 1355.62 56.2274C1355.62 69.034 1355.45 79.4328 1355.4 86.7357C1355.28 88.3084 1355.35 89.8908 1355.6 91.4456C1355.93 92.5281 1356.59 93.46 1357.47 94.0916C1358.21 94.2776 1358.97 94.3045 1359.72 94.171V94.171Z" fill="#263238"/>
<path d="M1432.69 94.1975L1357.35 94.1975C1356.7 94.1975 1356.07 93.9188 1355.61 93.4226C1355.14 92.9263 1354.88 92.2533 1354.88 91.5515V84.275L1435.01 84.275V91.5515C1435.01 92.2266 1434.77 92.8766 1434.34 93.3685C1433.91 93.8604 1433.32 94.157 1432.69 94.1975Z" fill="#263238"/>
<g opacity="0.6">
<path opacity="0.6" d="M1387.6 33.2866L1424.46 94.1975H1403.8L1367.83 33.2866H1387.6Z" fill="white"/>
</g>
<path d="M1343.79 33.2866H1272.64C1270.16 33.2866 1268.15 35.4427 1268.15 38.1023V89.3554C1268.15 92.015 1270.16 94.171 1272.64 94.171H1343.79C1346.27 94.171 1348.28 92.015 1348.28 89.3554V38.1023C1348.28 35.4427 1346.27 33.2866 1343.79 33.2866Z" fill="#F5F5F5"/>
<path d="M1272.62 94.1711C1272.39 94.2183 1272.15 94.2183 1271.93 94.1711C1271.24 94.088 1270.58 93.8344 1270 93.4302C1269.06 92.7397 1268.37 91.7065 1268.08 90.5197C1267.92 88.9119 1267.86 87.2939 1267.91 85.6775C1267.91 78.348 1267.78 67.9228 1267.68 55.0897C1267.68 51.8616 1267.68 48.4747 1267.68 44.9555C1267.68 43.1827 1267.68 41.3834 1267.68 39.6635C1267.62 38.6894 1267.68 37.7109 1267.86 36.7529C1268.11 35.7198 1268.65 34.7928 1269.4 34.0939C1270.15 33.395 1271.08 32.9567 1272.07 32.8368C1273.11 32.8368 1273.92 32.8368 1274.86 32.8368H1292.12H1343.89C1345.21 32.8423 1346.48 33.3952 1347.44 34.3806C1348.39 35.366 1348.96 36.7083 1349.02 38.1288V59.5879C1349.02 68.8754 1349.02 77.8453 1349.02 86.3919V89.5671C1349.02 90.7579 1348.67 91.9185 1348.01 92.8746C1347.36 93.8198 1346.44 94.5084 1345.39 94.8326C1344.41 95.0551 1343.41 95.1264 1342.41 95.0443H1331.27H1311.54L1283.04 94.8326L1275.3 94.7003H1273.28H1272.59H1273.28H1275.3H1283.04L1311.54 94.4887H1331.27H1342.24C1343.13 94.5396 1344.02 94.4774 1344.9 94.3035C1345.71 94.038 1346.42 93.4999 1346.92 92.7687C1347.43 91.9974 1347.7 91.0698 1347.68 90.1227C1347.68 89.0643 1347.68 88.006 1347.68 86.9476C1347.68 78.401 1347.68 69.431 1347.68 60.1436C1347.68 55.4866 1347.68 50.7502 1347.68 45.961V38.7374C1347.64 37.6751 1347.22 36.6721 1346.5 35.9377C1345.78 35.2032 1344.83 34.7938 1343.84 34.7948H1292.07H1274.81C1273.92 34.7948 1272.94 34.7948 1272.17 34.7948C1271.38 34.8942 1270.63 35.2442 1270.03 35.8003C1269.44 36.3443 1269.02 37.0628 1268.82 37.8642C1268.65 38.7341 1268.6 39.6252 1268.67 40.5102C1268.67 42.336 1268.67 44.1352 1268.67 45.8022C1268.67 49.3214 1268.67 52.7083 1268.67 55.9364C1268.67 68.7695 1268.52 79.1948 1268.47 86.5242C1268.38 88.1015 1268.38 89.6832 1268.47 91.2606C1268.7 92.3798 1269.31 93.3689 1270.17 94.0388C1270.97 94.2845 1271.8 94.3297 1272.62 94.1711Z" fill="#263238"/>
<path d="M1346.23 94.1975L1270.1 94.1975C1269.56 94.1975 1269.05 93.9689 1268.67 93.562C1268.29 93.1551 1268.08 92.6032 1268.08 92.0278V84.4073L1348.25 84.4073V92.0278C1348.25 92.6032 1348.04 93.1551 1347.66 93.562C1347.28 93.9689 1346.77 94.1975 1346.23 94.1975V94.1975Z" fill="#263238"/>
<g opacity="0.6">
<path opacity="0.6" d="M1300.84 33.2866L1337.7 94.1975H1317.02L1281.05 33.2866H1300.84Z" fill="white"/>
</g>
<path d="M1240.59 130.818L878.162 130.077V13.7327L883.808 1.66695L1234.45 0L1240.59 9.86957V130.818Z" fill="#E0E0E0"/>
<path d="M1240.89 15.6377H878.162V98.6693H1240.89V15.6377Z" fill="#388087"/>
<path d="M1052.44 129.813H984.369V35.086C984.369 33.921 984.8 32.8038 985.567 31.9801C986.335 31.1564 987.376 30.6936 988.461 30.6936H1048.37C1048.9 30.6936 1049.44 30.8074 1049.93 31.0285C1050.43 31.2495 1050.88 31.5735 1051.25 31.9817C1051.63 32.3899 1051.93 32.8743 1052.13 33.4071C1052.34 33.9398 1052.44 34.5104 1052.44 35.086V129.813Z" fill="#388087"/>
<path d="M1052.44 129.813C1052.44 129.813 1052.44 129.469 1052.44 128.887C1052.44 128.304 1052.44 127.352 1052.44 126.241C1052.44 123.859 1052.44 120.499 1052.44 116.239C1052.44 107.507 1052.29 95.0707 1052.19 79.6974C1052.19 72.024 1052.19 63.6098 1052.19 54.5605C1052.19 50.0623 1052.19 45.3789 1052.19 40.5896C1052.19 39.3725 1052.19 38.1818 1052.19 36.9646V35.086C1052.2 34.5511 1052.11 34.0196 1051.92 33.5248C1051.73 33.0243 1051.44 32.5734 1051.08 32.2034C1050.71 31.8333 1050.28 31.553 1049.8 31.3816C1048.7 31.1662 1047.58 31.1039 1046.47 31.1963H988.781C988.202 31.1895 987.631 31.3415 987.122 31.6378C986.613 31.9342 986.183 32.3651 985.872 32.8898C985.39 33.7564 985.198 34.7742 985.33 35.7739V45.8287C985.33 50.274 985.33 54.6663 985.33 59.0587V84.3809C985.33 100.76 985.33 116.133 985.33 129.76L984.812 129.204L1034.12 129.495L1047.92 129.627H1051.57C1052 129.588 1052.43 129.588 1052.86 129.627C1052.47 129.671 1052.08 129.671 1051.7 129.627H1048.12H1034.44L984.787 129.919H983.9V129.363C983.9 115.604 983.9 100.257 983.9 83.984C983.9 75.8079 983.9 67.3407 983.9 58.6618V35.8798C983.775 34.6174 984.035 33.3455 984.64 32.2547C985.07 31.5381 985.661 30.9493 986.359 30.5423C987.057 30.1354 987.839 29.9236 988.633 29.9263H1016.54H1046.32H1048C1048.66 29.8866 1049.32 29.9762 1049.95 30.1908C1050.58 30.4292 1051.15 30.8067 1051.63 31.299C1052.12 31.7914 1052.5 32.3874 1052.76 33.0485C1052.99 33.6978 1053.11 34.3894 1053.1 35.086V36.9381C1053.1 38.1818 1053.1 39.3989 1053.1 40.6161C1053.1 45.4583 1053.1 50.1681 1053.1 54.7193C1053.1 63.8215 1053.1 72.2887 1053.1 80.015C1053.1 95.3883 1052.9 107.824 1052.86 116.53C1052.86 120.737 1052.86 124.044 1052.86 126.399C1052.86 127.458 1052.86 128.278 1052.86 129.045C1052.76 129.325 1052.62 129.584 1052.44 129.813Z" fill="#263238"/>
<path d="M1012.94 33.2603H989.57C988.127 33.2603 986.957 34.516 986.957 36.065V91.34C986.957 92.889 988.127 94.1447 989.57 94.1447H1012.94C1014.38 94.1447 1015.55 92.889 1015.55 91.34V36.065C1015.55 34.516 1014.38 33.2603 1012.94 33.2603Z" fill="#F5F5F5"/>
<path d="M1046.74 33.2603H1023.37C1021.93 33.2603 1020.76 34.516 1020.76 36.065V91.34C1020.76 92.889 1021.93 94.1447 1023.37 94.1447H1046.74C1048.18 94.1447 1049.35 92.889 1049.35 91.34V36.065C1049.35 34.516 1048.18 33.2603 1046.74 33.2603Z" fill="#F5F5F5"/>
<path d="M1018.41 129.68C1018.05 129.68 1017.77 107.533 1017.77 80.2001C1017.77 52.8669 1018.05 30.7463 1018.41 30.7463C1018.78 30.7463 1019.06 52.8934 1019.06 80.2001C1019.06 107.507 1018.76 129.68 1018.41 129.68Z" fill="#263238"/>
<path d="M1015.55 84.3545H986.957V94.1447H1015.55V84.3545Z" fill="#263238"/>
<path d="M1049.35 84.3545H1020.76V94.1447H1049.35V84.3545Z" fill="#263238"/>
<path d="M878.162 15.6907V27.7565H1240.89V16.2728L878.162 15.6907Z" fill="#DC532D"/>
<path d="M1240.89 111.555C1240.89 111.926 1159.68 112.243 1059.54 112.243C959.395 112.243 878.162 111.926 878.162 111.555C878.162 111.185 959.346 110.867 1059.54 110.867C1159.73 110.867 1240.89 111.158 1240.89 111.555Z" fill="#263238"/>
<path d="M1240.59 130.871L878.187 130.077V118.594H1240.59V130.871Z" fill="#DC532D"/>
<g opacity="0.6">
<g opacity="0.5">
<path opacity="0.5" d="M990.088 94.1711H1010.77L1015.58 86.0479V52.0732L990.088 94.1711Z" fill="white"/>
</g>
<g opacity="0.5">
<path opacity="0.5" d="M1026.94 33.2603L1020.76 43.5003V77.2368L1046.72 33.2603H1026.94Z" fill="white"/>
</g>
</g>
<path d="M1134.43 33.2603H1064.61C1061.77 33.2603 1059.46 35.7362 1059.46 38.7904V88.6146C1059.46 91.6688 1061.77 94.1447 1064.61 94.1447H1134.43C1137.28 94.1447 1139.59 91.6688 1139.59 88.6146V38.7904C1139.59 35.7362 1137.28 33.2603 1134.43 33.2603Z" fill="#F5F5F5"/>
<path d="M1134.43 94.1711C1135.3 94.0586 1136.14 93.7618 1136.9 93.2979C1137.81 92.7145 1138.52 91.8332 1138.92 90.7842C1139.34 89.284 1139.46 87.7081 1139.29 86.1537C1139.29 78.8507 1139.17 68.4784 1139.09 55.6982C1139.09 52.4701 1139.09 49.1097 1139.09 45.5905C1139.09 43.8442 1139.09 42.0449 1139.09 40.2985C1139.14 39.4134 1139.09 38.5259 1138.94 37.6525C1138.76 36.837 1138.38 36.0885 1137.84 35.4828C1137.29 34.8547 1136.6 34.3896 1135.84 34.1334C1135.03 33.9296 1134.2 33.8582 1133.37 33.9217H1116.12H1064.57C1063.57 33.9662 1062.61 34.364 1061.84 35.0531C1061.08 35.7421 1060.54 36.6839 1060.33 37.7319C1060.17 38.8707 1060.12 40.0227 1060.18 41.1717V58.8999C1060.18 68.1345 1060.18 77.0779 1060.18 85.5716V88.7468C1060.19 89.43 1060.34 90.1027 1060.6 90.7225C1060.87 91.3424 1061.26 91.8959 1061.73 92.3483C1062.21 92.8007 1062.77 93.1422 1063.38 93.3511C1063.98 93.5601 1064.62 93.6321 1065.26 93.5626H1076.18H1095.78L1124.15 93.8007H1131.87H1133.87C1134.1 93.7659 1134.33 93.7659 1134.56 93.8007C1134.33 93.8421 1134.09 93.8421 1133.87 93.8007H1131.87L1124.15 93.9329L1095.78 94.1447H1076.18H1065.26C1064.21 94.2236 1063.15 93.9974 1062.21 93.49C1061.27 92.9825 1060.47 92.2124 1059.91 91.2605C1059.32 90.2834 1059.01 89.1427 1059.02 87.9794C1059.02 86.921 1059.02 85.8627 1059.02 84.8043C1059.02 76.3106 1059.02 67.3671 1059.02 58.1326C1059.02 53.5021 1059.02 48.7922 1059.02 44.0029V40.4044C1058.95 39.148 1059.02 37.8877 1059.22 36.6471C1059.53 35.3061 1060.25 34.115 1061.26 33.2621C1062.28 32.4091 1063.52 31.943 1064.81 31.9372H1116.36H1133.62C1134.57 31.8679 1135.53 31.9662 1136.45 32.2282C1137.39 32.5587 1138.24 33.1311 1138.92 33.8952C1139.55 34.6501 1140.01 35.5576 1140.25 36.5412C1140.41 37.4919 1140.47 38.46 1140.42 39.4254C1140.42 41.2511 1140.42 43.0504 1140.42 44.7174C1140.42 48.2365 1140.42 51.597 1140.42 54.8251C1140.42 67.6053 1140.28 77.9776 1140.23 85.2806C1140.37 86.8983 1140.2 88.5307 1139.71 90.0698C1139.27 91.2046 1138.48 92.1401 1137.47 92.7158C1136.87 93.0831 1136.2 93.3002 1135.52 93.3508C1135.23 93.7255 1134.86 94.0092 1134.43 94.1711Z" fill="#263238"/>
<path d="M1059.46 84.3545H1139.59V91.2606C1139.59 92.0255 1139.3 92.759 1138.8 93.2999C1138.29 93.8408 1137.61 94.1447 1136.9 94.1447H1062.17C1061.46 94.1447 1060.78 93.8408 1060.27 93.2999C1059.77 92.759 1059.49 92.0255 1059.49 91.2606V84.3545H1059.46Z" fill="#263238"/>
<g opacity="0.6">
<path opacity="0.6" d="M1106.9 33.2603L1070.04 94.1711H1090.72L1126.67 33.2603H1106.9Z" fill="white"/>
</g>
<path d="M1222.4 33.2603H1150.21C1148.02 33.2603 1146.24 35.1675 1146.24 37.5203V89.8846C1146.24 92.2374 1148.02 94.1447 1150.21 94.1447H1222.4C1224.59 94.1447 1226.37 92.2374 1226.37 89.8846V37.5203C1226.37 35.1675 1224.59 33.2603 1222.4 33.2603Z" fill="#F5F5F5"/>
<path d="M1222.4 94.1711C1223.3 94.0591 1224.15 93.6839 1224.86 93.0863C1225.26 92.7228 1225.59 92.2739 1225.82 91.7682C1226.04 91.2625 1226.17 90.7111 1226.19 90.1492C1226.19 88.7203 1226.19 87.1327 1226.19 85.3334C1226.19 77.9776 1226.19 67.5259 1226 54.6399C1226 51.4117 1226 47.9984 1226 44.4792V39.0549C1226.05 38.1686 1225.99 37.2789 1225.82 36.4089C1225.59 35.6235 1225.14 34.9374 1224.52 34.4508C1223.85 33.987 1223.07 33.756 1222.27 33.7893H1202.3H1150.36C1149.87 33.7979 1149.38 33.9197 1148.94 34.1464C1148.5 34.3732 1148.1 34.6996 1147.79 35.1037C1147.47 35.5077 1147.24 35.9798 1147.11 36.4881C1146.98 36.9963 1146.95 37.5288 1147.03 38.0494V45.3259C1147.03 50.1416 1147.03 54.878 1147.03 59.5349C1147.03 68.8753 1147.03 77.8717 1147.03 86.4183V89.62C1147.01 90.5208 1147.29 91.4003 1147.83 92.089C1148.37 92.7778 1149.13 93.2272 1149.96 93.3508C1150.78 93.3508 1151.84 93.3508 1152.75 93.3508H1163.75H1183.47L1212.07 93.589H1219.86H1221.88H1222.57C1222.34 93.6276 1222.11 93.6276 1221.88 93.589H1219.86L1212.07 93.7213L1183.47 93.933H1163.75H1152.75C1151.76 93.933 1150.93 93.933 1149.82 93.933C1148.7 93.7825 1147.68 93.1931 1146.95 92.279C1146.21 91.3648 1145.82 90.1909 1145.85 88.9849V85.7833C1145.85 77.2367 1145.85 68.2403 1145.85 58.8999V37.4144C1145.78 36.7213 1145.84 36.0209 1146.03 35.3535C1146.22 34.686 1146.52 34.0645 1146.93 33.5248C1147.37 32.9814 1147.91 32.5446 1148.52 32.2434C1149.13 31.9423 1149.79 31.7837 1150.46 31.7784H1202.4H1222.37C1223.38 31.728 1224.38 32.0449 1225.21 32.678C1226.05 33.3174 1226.66 34.2532 1226.93 35.324C1227.12 36.2803 1227.18 37.2606 1227.11 38.2346V43.659C1227.11 47.1781 1227.11 50.5915 1227.11 53.8196C1227.11 66.7056 1226.96 77.1573 1226.91 84.5132C1226.91 86.2772 1226.91 87.8913 1226.91 89.3554C1226.86 89.9693 1226.7 90.5664 1226.43 91.1087C1226.16 91.6509 1225.78 92.1263 1225.33 92.5042C1224.78 92.9481 1224.14 93.239 1223.46 93.3508C1223.18 93.7216 1222.81 94.005 1222.4 94.1711Z" fill="#263238"/>
<path d="M1146.24 84.3545H1226.37V92.5306C1226.37 92.7426 1226.33 92.9525 1226.25 93.1483C1226.18 93.3442 1226.06 93.522 1225.93 93.6719C1225.79 93.8218 1225.62 93.9407 1225.44 94.0218C1225.26 94.1029 1225.06 94.1447 1224.86 94.1447H1147.75C1147.55 94.1447 1147.35 94.1029 1147.17 94.0218C1146.99 93.9407 1146.82 93.8218 1146.68 93.6719C1146.54 93.522 1146.43 93.3442 1146.36 93.1483C1146.28 92.9525 1146.24 92.7426 1146.24 92.5306V84.3545V84.3545Z" fill="#263238"/>
<g opacity="0.6">
<path opacity="0.6" d="M1193.68 33.2603L1156.79 94.1711H1177.48L1213.45 33.2603H1193.68Z" fill="white"/>
</g>
<path d="M970.365 33.2603H900.35C897.559 33.2603 895.296 35.6888 895.296 38.6846V88.7204C895.296 91.7161 897.559 94.1447 900.35 94.1447H970.365C973.157 94.1447 975.419 91.7161 975.419 88.7204V38.6846C975.419 35.6888 973.157 33.2603 970.365 33.2603Z" fill="#F5F5F5"/>
<path d="M970.366 94.171C971.231 94.0469 972.067 93.7508 972.831 93.2979C973.75 92.6761 974.452 91.7459 974.828 90.6519C975.202 89.1342 975.311 87.5552 975.148 85.9949C975.148 78.6919 975.148 68.3196 974.951 55.5394C974.951 52.3113 974.951 48.9245 974.951 45.4317C974.951 43.6589 974.951 41.8861 974.951 40.1397C975.007 39.2546 974.957 38.3654 974.803 37.4937C974.625 36.6694 974.232 35.9167 973.669 35.324C973.128 34.702 972.437 34.2533 971.672 34.0275C970.863 33.8372 970.033 33.7748 969.207 33.8422H951.851H900.276C899.274 33.8499 898.303 34.2196 897.521 34.8916C896.738 35.5636 896.189 36.4988 895.962 37.5466C895.843 38.6974 895.802 39.8558 895.839 41.0129V58.8999C895.839 68.1609 895.839 77.1044 895.839 85.598V88.7733C895.836 89.7105 896.084 90.6289 896.554 91.4193C897.026 92.1909 897.689 92.8071 898.468 93.1994C899.246 93.5917 900.111 93.7448 900.966 93.6419H911.888H931.611L959.986 93.88H967.728H969.725H970.415C970.186 93.9187 969.953 93.9187 969.725 93.88H967.728L959.986 94.0123L931.611 94.224H911.888H900.966C899.917 94.3238 898.862 94.1185 897.912 93.6296C896.962 93.1408 896.152 92.3864 895.567 91.4457C894.981 90.4578 894.673 89.3094 894.68 88.1382C894.68 87.1062 894.68 86.0479 894.68 84.963C894.68 76.4693 894.68 67.5258 894.68 58.2648C894.68 53.6343 894.68 48.9244 894.68 44.1616V40.5631C894.635 39.2996 894.684 38.0343 894.828 36.7793C895.126 35.4306 895.837 34.2283 896.847 33.3648C897.857 32.5012 899.108 32.0265 900.399 32.0165H951.974H969.108C970.067 31.9548 971.029 32.0349 971.968 32.2546C972.906 32.5682 973.755 33.1328 974.433 33.8952C975.089 34.6381 975.556 35.5492 975.789 36.5412C975.953 37.4918 976.011 38.46 975.962 39.4253C975.962 41.251 975.962 43.0239 975.962 44.7173C975.962 48.21 975.962 51.5969 975.962 54.8251C975.962 67.6052 975.814 77.9776 975.765 85.2805C975.912 86.9032 975.753 88.5412 975.296 90.0963C974.842 91.2124 974.064 92.1407 973.077 92.7423C972.49 93.1092 971.832 93.3264 971.154 93.3773C970.949 93.7013 970.68 93.9724 970.366 94.171V94.171Z" fill="#263238"/>
<path d="M895.296 84.3545H975.419V91.3664C975.419 91.7347 975.352 92.0995 975.22 92.4398C975.089 92.7801 974.897 93.0892 974.654 93.3497C974.411 93.6101 974.123 93.8167 973.806 93.9576C973.489 94.0986 973.149 94.1711 972.806 94.1711H897.909C897.566 94.1711 897.226 94.0986 896.909 93.9576C896.592 93.8167 896.304 93.6101 896.061 93.3497C895.819 93.0892 895.626 92.7801 895.495 92.4398C895.363 92.0995 895.296 91.7347 895.296 91.3664V84.3545Z" fill="#263238"/>
<g opacity="0.6">
<path opacity="0.6" d="M942.729 33.2603L905.872 94.1711H926.556L962.501 33.2603H942.729Z" fill="white"/>
</g>
<path d="M508.756 20.2948H482.92V130.845H508.756V20.2948Z" fill="#388087"/>
<g opacity="0.2">
<path opacity="0.2" d="M508.756 20.2948H482.92V130.845H508.756V20.2948Z" fill="black"/>
</g>
</svg>
